<?xml version="1.0" encoding="utf-8"?>
<!-- Generator: Adobe Illustrator 23.1.0, SVG Export Plug-In . SVG Version: 6.00 Build 0)  -->
<svg version="1.1" id="Layer_1" xmlns="http://www.w3.org/2000/svg" xmlns:xlink="http://www.w3.org/1999/xlink" x="0px" y="0px"
	 width="200px" height="200px" viewBox="0 0 200 200" style="enable-background:new 0 0 200 200;" xml:space="preserve">
<style type="text/css">
	.st0{opacity:0;}
	.st1{font-family:'.SFUI-Regular';}
	.st2{font-size:54.8353px;}
	.st3{opacity:0.4196;fill:#8C54D0;}
	.st4{opacity:0.4196;fill:#622D90;}
	.st5{fill:none;}
	.st6{fill:#622D90;}
	.st7{fill:#8C54D0;}
</style>
<g>
	<text transform="matrix(1 0 0 1 4.5051 131.1437)" class="st0"><tspan x="0" y="0" class="st1 st2">I</tspan><tspan x="13.16" y="0" class="st1 st2">i</tspan></text>
</g>
<path class="st3" d="M43.22,73.31c0.01,0.03,0.16,0.1,0.34,0.19c-1.4-0.53-2.97,0.17-3.51,1.57c-0.53,1.4,0.17,2.97,1.57,3.51
	c1.4,0.53,2.97-0.17,3.51-1.57s-0.17-2.97-1.57-3.51c0.01,0.02,0.31,0.17,0.31,0.19c-1.3-0.71-2.93-0.23-3.63,1.07
	c-0.71,1.3-0.23,2.93,1.07,3.63c1.3,0.71,2.93,0.23,3.63-1.07c0.71-1.3,0.23-2.93-1.07-3.63c0.45,0.33,1.18,1.37,1.36,2.35
	c0-1.46-1.18-2.64-2.64-2.64c-1.46,0-2.64,1.18-2.64,2.64c0,1.46,1.18,2.64,2.64,2.64c1.46,0,2.64-1.18,2.64-2.64
	c-0.49,1.51-1.58,2.39-1.82,2.46c-0.11,0.02-0.3,0.05-0.36,0.05c-0.27,0.01-0.36-0.01-0.4-0.04c-0.14,0.15-0.16,0.29-0.1,0.44
	c0.18,0.07,0.59,0.16,1.07,0.24c0.64,0.04,1.27,0.04,1.75,0.08c0.29-0.02,0.6,0.04,1.22,0.12c0.15,0.03,0.48,0.12,0.93,0.19
	c1.09,0.1,2.25,0.03,3.04,0c0.31-0.01,0.62-0.01,0.97-0.01c0.49,0,0.79-0.02,1.01-0.01c0.22,0.01,0.33,0.01,0.45,0.03
	c-0.57-0.14-1.65-0.81-2.17-1.48c0.88,1.04,1.99,1.57,2.27,1.64c0.27,0.06,0.27,0.05,0.01-0.01c-0.32-0.15-0.22-0.08,0.32,0.14
	c1.36,0.35,2.55,0.23,3.09,0.22c0.58-0.04,1.16-0.08,1.72-0.11c0.53-0.03,0.99-0.02,1.67,0c1.14,0,2.56,0,4.24,0.03
	c0.9,0.01,1.86,0.03,2.92,0.05c0.51,0.01,1.07,0.03,1.65,0.04c0.63,0.05,1.25,0.09,1.84,0.14c0.15,0,0.31,0,0.47,0.01
	c0.76,0.02,1.58,0.05,2.4,0.07c0.43,0.03,0.85,0.04,1.2,0.06c0.1,0,0.27,0.01,0.58,0.02c0.53,0.03,1,0.02,1.33,0.04
	c1.86-0.03,3.97-0.05,6.14-0.19c1.47-0.09,2.95-0.25,4.32-0.39c0.65-0.08,1.32-0.15,2.02-0.24c0.96-0.14,1.86-0.29,2.65-0.41
	c0.56-0.05,1.06-0.09,1.58-0.13c0.83-0.09,1.59-0.14,2.29-0.21c1.09-0.08,1.94-0.16,2.66-0.23c0.87-0.12,1.67-0.14,2.7-0.19
	c1.27-0.09,2.35-0.33,3.08-0.46c0.25-0.07,0.45-0.11,0.81-0.15c0.13-0.01,0.28-0.01,0.48-0.01c0.26-0.02,0.51-0.05,0.77-0.07
	c0.12-0.01,0.24-0.02,0.36-0.03c0.19-0.01,0.36-0.02,0.5-0.02c0.11-0.01,0.23-0.02,0.34-0.03c0.23-0.01,0.43-0.02,0.69-0.04
	c0.18-0.03,0.37-0.06,0.56-0.09c0.7-0.04,1.25-0.09,1.7-0.12c0.11-0.03,0.21-0.05,0.45-0.06c0.29,0.03,0.69,0.07,1.12,0.1
	c0.36,0.03,0.7,0.04,0.88,0.05c0.31-0.03,0.61-0.09,0.73-0.12c0.12-0.01-0.04-0.01-0.26-0.01c-0.14,0.04-0.64-0.01-0.97-0.07
	c-0.79-0.45-1.67-1.46-1.86-1.83c-0.12-0.32-0.23-0.75-0.26-0.87c-0.04-0.2-0.07-0.3-0.09-0.18c0.03,0.57,0.2,1.28,0.29,1.55
	c-0.06-0.14-0.04-0.03,0.08,0.33c0.05,0.17,0.03,0.12,0.03,0.18c0,0-0.01,0.01,0.01,0.12c0.03,0.13,0.02-0.1,0.02-0.31
	c0.17-0.57,0.52-1.29,0.58-1.3c0.2-0.31,0.7-0.78,0.7-0.87c0.14-0.1,0.29-0.2,0.16-0.2c-0.43,0.15-0.46,0.2-0.29,0.16
	c0.51-0.02,0.85,0,0.55,0.01c-0.35-0.01-0.59,0-0.65,0c-0.23,0.01-0.53,0.02-0.89,0.03c-0.18-0.06-0.39-0.11-0.6-0.16
	c-0.23-0.02-0.57-0.04-0.97-0.04c-0.69,0.05-1.1,0.14-1.21,0.14c-0.01,0.02-0.06,0.04-0.24,0.07c-0.08,0-0.11-0.01-0.31-0.03
	c-0.63,0-1.01,0.04-1.24,0.03c-0.84,0-2.41-0.25-4.36-0.33c-1.47-0.08-2.96-0.09-4.61-0.09c-1.12-0.04-2.36-0.07-3.73-0.11
	c-0.71,0-1.44,0-2.18,0c-0.89-0.01-1.77-0.01-2.73-0.02c-0.23,0.01-0.46,0.02-0.7,0.03c-0.37,0-0.75,0-1.13,0c-0.44,0-0.88,0-1.33,0
	c-0.16,0-0.33,0-0.51,0c-0.22,0-0.46,0-0.71,0c-0.21,0.05-0.42,0.11-0.61,0.16c-1.8,0.04-3.36,0.14-4.78,0.19
	c-3.55,0.06-6.46,0.1-8.96,0.14c-2.18,0.08-4.1,0.4-5.63,0.57c-0.98,0.13-2.14,0.09-3.65,0.16c-1.07,0.05-2.19,0.18-3.2,0.3
	c-0.65,0.07-1.3,0.14-1.91,0.21c-0.69,0.06-1.3,0.09-1.93,0.11c-0.73,0.03-1.56,0.05-2.46,0.11c-1.09,0.11-2.17,0.32-2.97,0.5
	c-0.31,0.08-0.61,0.15-0.84,0.21c-0.34,0.07-0.52,0.13-0.55,0.13c0.16,0.01,0.06-0.03-0.58,0.01c-0.26,0.01-0.62,0.04-0.87,0.08
	c-0.36,0.08-1.32,0.51-1.95,1.01c0.86-0.6,1.15-0.74,0.72-0.56c0.07-0.03,0.17-0.07,0.11-0.05c-0.43,0.15-0.66,0.25-0.66,0.23
	c-0.45,0.14-0.07-0.01,0.56-0.15c0.09-0.05,0.02-0.12-0.33-0.18c-0.16-0.01-0.4-0.02-0.56-0.02c-0.17,0.01-0.51,0.04-0.74,0.08
	c-0.27,0.13-1.1,0.55-1.81,1.17c-0.34,0.59-0.85,2.29-0.69,3.27c0.32,1.81,2.06,3.02,3.87,2.7c1.81-0.32,3.02-2.06,2.7-3.87
	c-0.32-1.81-2.06-3.02-3.87-2.7c-1.81,0.32-3.02,2.06-2.7,3.87c0.37,0.75,1.11,1.6,1.47,1.75c1.27,1.01,3.13,0.8,4.14-0.47
	c1.01-1.27,0.8-3.13-0.47-4.14s-3.13-0.8-4.14,0.47c-1.01,1.27-0.8,3.13,0.47,4.14c0.44,0.2,0.96,0.35,1.19,0.34
	c1.43,0.43,2.94-0.37,3.37-1.8c0.43-1.43-0.37-2.94-1.8-3.37c-1.43-0.43-2.94,0.37-3.37,1.8c-0.43,1.43,0.37,2.94,1.8,3.37
	c0.23-0.19,0.5-0.38,0.72-0.58c1.07,0.2,2.1-0.51,2.3-1.58c0.2-1.07-0.51-2.1-1.58-2.3c-0.04-0.26,0.04-0.49,0.13-0.72
	c0.09-0.05,0.51,0.05,0.91,0.22c0.34,0.13,1.07,0.97,1.43,1.69c0.16,0.96-0.35,2.65-0.65,3.21c-0.69,0.6-1.46,1-1.65,1.1
	c-0.15,0.02-0.36,0.04-0.41,0.04c-0.03-0.01-0.13-0.02-0.13-0.03c0.2-0.05,0.55-0.1,0.99-0.18c0.78-0.16,1.27-0.37,0.96-0.27
	c0.54-0.19,0.93-0.39,1.04-0.43c0.1-0.04,0.31-0.12,0.49-0.2c-0.26,0.1,0.21-0.08,1.17-0.78c-0.55,0.42-1.37,0.8-1.56,0.84
	c-0.01-0.02-0.08-0.02-0.03-0.04c-0.06-0.01,0.47,0.02,1.3-0.09c0.34-0.07,0.55-0.12,0.67-0.14c0.26-0.04,0.53-0.08,0.81-0.13
	c0.73-0.13,1.42-0.23,2.16-0.27c0.66-0.06,1.38-0.07,2.23-0.11c0.7-0.04,1.46-0.1,2.23-0.17c0.64-0.05,1.33-0.11,2-0.17
	c1.05-0.1,1.94-0.19,2.71-0.2c1.24-0.02,2.63,0.06,4.14-0.06c1.79-0.16,3.41-0.42,5.08-0.44c2.48-0.08,5.39-0.15,8.95-0.25
	c1.53-0.01,3.04-0.07,4.71-0.07c0.19,0.05,0.37,0.1,0.55,0.15c0.21,0,0.45,0,0.71,0c0.16,0,0.31,0,0.48,0c0.45,0,0.89,0,1.33,0
	c0.38,0,0.76,0,1.13,0c0.23,0.01,0.47,0.02,0.7,0.03c0.96-0.01,1.84-0.01,2.73-0.02c0.74,0,1.48,0,2.18,0
	c1.36-0.04,2.6-0.07,3.73-0.11c1.67-0.01,2.97-0.03,4.22,0.02c1.49,0.1,2.98,0.4,4.42,0.49c0.65,0.03,1.1,0.01,1.37,0.03
	c0.17,0,0.52,0,0.88-0.03c0.1,0.01,0.35,0.02,0.64,0.01c0.62-0.07,0.89-0.14,0.89-0.13c0.19-0.04,0.42-0.06,0.74-0.09
	c0.14-0.06,0.25-0.12,0.38-0.17c0.27,0.01,0.55,0.03,0.84,0.04c0.27,0,0.35,0,0.29,0c0,0.02,0.58,0.08,1.33,0.01
	c0.61-0.13,1-0.26,0.98-0.23c0.14-0.08,0.55-0.26,0.92-0.47c0.43-0.29,1.29-1.02,1.76-1.7c0.3-0.34,0.87-1.47,1.07-2.51
	c0.01-0.54-0.05-1.12-0.08-1.36c-0.02-0.1-0.07-0.3-0.12-0.5c-0.11-0.4-0.26-0.81-0.35-1.04c0.02,0.09-0.04-0.1-0.2-0.5
	c0.03,0.12,0.16,0.68,0.19,1.11c-0.03,0.01-0.05-0.21-0.1-0.52c-0.03-0.17-0.15-0.64-0.29-1.01c-0.21-0.4-1.11-1.44-1.93-1.91
	c-0.4-0.09-0.99-0.16-1.23-0.12c-0.42-0.02-0.82,0.01-0.96,0.03c-0.15-0.01-0.14-0.03-0.13-0.05c-0.24,0.02-0.33,0.04-0.39,0.05
	c-0.25-0.01-0.5-0.04-0.83-0.07c-0.22-0.05-0.56-0.12-0.92-0.16c-0.63-0.06-1.27-0.08-1.88-0.12c-0.18-0.03-0.37-0.06-0.56-0.09
	c-0.25-0.01-0.45-0.02-0.69-0.04c-0.11-0.01-0.22-0.02-0.34-0.03c-0.14-0.01-0.3-0.02-0.5-0.02c-0.12-0.01-0.24-0.02-0.36-0.03
	c-0.28-0.02-0.5-0.05-0.73-0.07c-0.18-0.01-0.41-0.01-0.67-0.01c-0.44-0.03-1.07-0.03-1.68,0c-0.96,0.08-1.65,0.18-2.35,0.15
	c-0.94,0.02-2.1,0.02-3.37,0.15c-0.68,0.09-1.37,0.18-2.37,0.27c-0.64,0.04-1.46,0.09-2.4,0.17c-0.52,0.06-1.12,0.13-1.74,0.21
	c-0.88,0.07-1.81,0.17-2.71,0.25c-0.66,0.08-1.37,0.16-2.11,0.26c-1.4,0.23-2.71,0.46-3.97,0.61c-1.96,0.24-3.9,0.38-5.79,0.53
	c-0.45,0.05-0.75,0.11-0.98,0.14c-0.16,0.01-0.45,0-0.81,0.02c-0.4,0.05-0.71,0.09-1.01,0.13c-0.77,0.03-1.55,0.04-2.34,0.07
	c-0.16,0-0.31,0-0.47,0.01c-0.63,0.05-1.21,0.1-1.75,0.14c-0.53,0-1.06-0.02-1.6-0.03c-1.04-0.02-2.04-0.04-2.99-0.05
	c-1.72-0.01-3.21,0.01-4.38,0.03c-0.73,0.03-1.48,0.07-2.24,0.16c-0.6,0.08-1.23,0.18-1.81,0.27c-0.8,0.14-0.91,0.28-0.46,0.34
	c0.36,0.16,0.33,0.13-0.17-0.08c-0.46-0.14-0.73-0.18-0.71-0.17c0.03,0.01,0.92,0.47,1.72,1.36c-0.54-0.72-1.7-1.44-2.4-1.6
	c-0.36-0.04-0.71-0.06-0.92-0.07c-0.53-0.02-0.97-0.01-1.32-0.01c-0.3,0-0.66-0.01-1.06-0.01c-0.95,0-1.71,0.04-2.16-0.06
	c-0.14,0-0.35-0.05-0.73-0.1c-0.44-0.09-1.12-0.25-1.92-0.32c-0.72-0.01-1.42,0.02-1.85,0.03c-0.4,0.05-0.71,0.09-0.9,0.15
	c-0.09,0.14-0.2,0.28-0.37,0.43c-0.05-0.03-0.14-0.05-0.19-0.07c-0.29,0.03-0.48,0.06-0.66,0.11c-0.17,0.06-1.26,0.94-1.71,2.01
	c0.14,1.42,0.87,2.46,1.22,2.73c0.1,0.07,0.4,0.22,0.63,0.32c-0.05,0.01,0.11,0.08,0.12,0.11c1.51,0.35,3.01-0.59,3.35-2.1
	C45.67,75.15,44.73,73.65,43.22,73.31"/>
<path class="st4" d="M41.17,95.65c0.53-0.78,0.65-0.8,0.68-0.71c-0.91,1.06-0.79,2.67,0.27,3.58c1.06,0.91,2.67,0.79,3.58-0.27
	c0.91-1.06,0.79-2.67-0.27-3.58c-1.06-0.91-2.67-0.79-3.58,0.27c-0.28-0.08-0.92,0.35-1.48,1.02c-0.54,1.76,0.45,3.63,2.21,4.17
	c1.76,0.54,3.63-0.45,4.17-2.21c0.54-1.76-0.45-3.63-2.21-4.17c-1.76-0.54-3.63,0.45-4.17,2.21c0.01-0.14-0.06-0.02-0.19,0.33
	c-0.43,1.85,0.73,3.69,2.57,4.11c1.85,0.43,3.69-0.73,4.11-2.57c0.43-1.85-0.73-3.69-2.57-4.11c-1.85-0.43-3.69,0.73-4.11,2.57
	c-0.1,0.4,0.01,1.89,0.39,2.78c1.06,1.15,2.36,1.72,2.71,1.83c0.31,0.09,0.5,0.14,0.49,0.19c0.61,0.16,1.55,0.28,2.44,0.32
	c1.07-0.03,2.23-0.16,3.29-0.25c1.17-0.16,2.42-0.27,3.81-0.4c0.65-0.02,1.36-0.02,2.13-0.05c1.54-0.18,3.11-0.41,4.62-0.62
	c3.5-0.34,7.07-0.49,10.49-0.71c0.79-0.05,1.53-0.12,2.2-0.18c1.19-0.1,2.39-0.19,3.56-0.28c1.35-0.12,2.6-0.22,3.89-0.3
	c0.85-0.04,1.72-0.08,2.63-0.12c2.55-0.15,5.27-0.34,7.97-0.48c0.98-0.01,1.95-0.02,2.92-0.02c0.76-0.01,1.5-0.02,2.18-0.03
	c1.07-0.02,2.05-0.02,3.06-0.04c0.68-0.01,1.33-0.04,1.92-0.05c0.78-0.03,1.56-0.03,2.36-0.04c2.08-0.03,3.88-0.02,5.51-0.03
	c0.89,0.02,1.67,0.03,2.41,0.05c2.13-0.03,4.32-0.1,6.52-0.14c0.83-0.06,1.63-0.12,2.46-0.17c1.43-0.01,2.88-0.02,4.44-0.02
	c1.12-0.01,2.29-0.03,3.47-0.04c1-0.01,1.97-0.01,2.93,0.01c1.6,0.04,3.15,0.09,4.82,0.09c1.36-0.05,2.79-0.12,4.14-0.18
	c1.85-0.05,3.55-0.09,5.21-0.13c1.37-0.03,2.8-0.06,4.05-0.1c1-0.03,1.87-0.09,2.5-0.14c0.3-0.02,0.55-0.05,0.73-0.06
	c0.17,0.01,0.27,0.04,0.49,0.06c0.15,0,0.27-0.01,0.34-0.01c0.35-0.05,0.23-0.11-1.01-0.36c-0.27-0.11-0.83-0.42-1.28-0.77
	c-0.38-0.4-1-1.47-1.15-2.01c-0.05-1.29,0.44-2.7,0.64-3.01c0.35-0.4,0.71-0.73,0.8-0.79c0.13-0.24-0.43,0.01-0.94,0.33
	c-0.9,1.27-1.23,2.32-1.28,2.49c-0.15,0.98-0.1,1.77-0.11,1.72c0.02-0.31-0.02,0.03,0.03,0.8c0.17,1.21,0.58,2.27,0.75,2.72
	c0.08,0.22,0.14,0.4,0.19,0.57c0.14,0.38,0.13,0.31,0.06,0.14c-0.01,0.15-0.04-0.7,0.32-2.06c0.67-0.89,2.04-1.83,2.52-2.01
	c0.43-0.11,0.97-0.17,1.12-0.18c0.25,0,0.35-0.01,0.19-0.03c-0.62-0.04-0.82-0.03-0.6-0.05c-0.39-0.06-0.77-0.11-1.11-0.17
	c-0.57,0.01-1.02,0.01-1.67-0.06c-0.69-0.08-1.62-0.25-2.79-0.43c-0.87-0.09-1.95-0.2-3.09-0.25c-0.63-0.07-1.25-0.11-1.77-0.14
	c-0.52-0.03-1.12-0.08-1.8-0.12c-0.9-0.07-1.91-0.13-2.98-0.2c-1.05-0.04-2.16-0.09-3.35-0.13c-0.64-0.01-1.3-0.03-1.95-0.04
	c-0.22-0.01-0.44-0.02-0.71-0.04c-1.12-0.06-2.22-0.06-3.19-0.09c-0.99,0.06-1.97,0.12-2.97,0.18c-1.35-0.01-2.67-0.02-3.99-0.05
	c-1.32-0.02-2.64-0.08-3.94-0.13c-0.28-0.01-0.6-0.03-0.98-0.05c-0.42-0.02-0.76-0.02-0.97-0.02c-0.33,0-0.69-0.02-1.07-0.02
	c-1.29-0.04-2.58-0.06-3.86-0.07c-0.76,0-1.49,0.02-2.12,0.04c-0.24,0.01-0.49,0.01-0.76,0.02c-0.95,0.02-1.9,0.04-2.79,0.07
	c-0.24-0.01-0.48-0.03-0.71-0.04c-0.31,0.01-0.62,0.01-0.94,0.02c-0.52,0.01-1.03,0.03-1.52,0.04c-1.55-0.01-3.01-0.01-4.42-0.02
	c-0.67-0.01-1.36-0.03-2.06-0.04c-0.7,0-1.41,0.01-2.11,0.02c-0.97,0.02-1.95,0.07-2.83,0.12c-0.62,0.05-1.24,0.1-1.83,0.15
	c-1.29,0.11-2.59,0.25-3.82,0.39c-2.22,0.21-4.19,0.4-6.31,0.45c-1.98,0.03-4.22-0.04-6.51-0.07c-1.16,0.02-2.31,0.05-3.41,0.09
	c-1.12,0.04-2.25,0.1-3.35,0.16c-0.03,0.01-0.15,0-0.42,0c-0.65,0.01-1.22,0.08-1.6,0.11c-0.88,0.08-1.79,0.18-2.66,0.3
	c-0.9,0.13-1.78,0.27-2.54,0.4c-0.76,0.1-1.38,0.19-1.86,0.25c-0.47,0.06-0.73,0.06-1.11,0.06c-0.33,0.01-0.4,0.03-0.28,0.04
	c-0.01-0.02,0.23,0,0.3,0c0.36,0.14,0.47,0.18,0.13,0.01c-0.24-0.04-0.83-0.19-1.28-0.22c-1.11-0.09-2.04,0.09-2.34,0.15
	c-0.44,0.05-0.79,0.11-1.07,0.15c-0.07,0.01-0.25,0.03-0.58,0.07c-0.32-0.03-0.59-0.05-0.73-0.1c-0.35,0-0.53-0.02-0.73-0.06
	c0.21,0.01,0.18-0.01-0.25,0c-0.13-0.01-0.3-0.01-0.42-0.01c-0.13,0-0.28,0.01-0.41,0.01c-0.25,0.04-0.54,0.1-0.79,0.16
	c-0.13,0.01-0.27,0.03-0.39,0.04c-0.12,0.02-0.26,0.04-0.38,0.06c-0.12,0.02-0.26,0.04-0.38,0.06c-0.12,0.02-0.25,0.04-0.37,0.06
	c-0.11,0.03-0.24,0.06-0.35,0.09c-0.1,0.05-0.22,0.11-0.32,0.16c-0.11,0.02-0.22,0.05-0.32,0.08c-0.1,0.02-0.22,0.05-0.31,0.08
	c-0.1,0.03-0.21,0.06-0.3,0.09c-0.09,0.03-0.21,0.07-0.3,0.11c-0.1,0.04-0.25,0.1-0.35,0.14c-0.08,0.15-0.28,0.36-0.4,0.55
	c-1.61,0.93-2.17,2.98-1.24,4.6c0.93,1.61,2.98,2.17,4.6,1.24c1.61-0.93,2.17-2.98,1.24-4.6c-0.93-1.61-2.98-2.17-4.6-1.24
	c-0.12,0.25-0.59,0.84-0.87,1.46c-0.82,1.38-0.37,3.17,1.01,4c1.38,0.82,3.17,0.37,4-1.01c0.82-1.38,0.37-3.17-1.01-4
	c-1.38-0.82-3.17-0.37-4,1.01c-0.05,0.46-0.1,1.56,0.14,2.13c0.34,1.3,1.68,2.08,2.98,1.74c1.3-0.34,2.08-1.68,1.74-2.98
	c-0.34-1.3-1.68-2.08-2.98-1.74c-1.3,0.34-2.08,1.68-1.74,2.98c0.34,0.44,0.96,0.98,1.28,1.03c0.91,0.6,2.13,0.35,2.73-0.55
	c0.6-0.91,0.35-2.13-0.55-2.73c0.31,0.04,0.93,0.57,1.26,1.01c0.24,0.56,0.19,1.65,0.15,2.1c-0.27,0.6-0.71,1.17-0.78,1.39
	c-0.07,0.16-0.21,0.34-0.21,0.46c-0.03,0.02-0.09,0.05-0.08,0.05c0.01,0,0,0.01,0.04,0c0.04-0.01,0.06-0.01,0.11-0.03
	c0.06-0.01,0.1-0.02,0.16-0.04c0.07-0.01,0.12-0.03,0.2-0.04c0.08,0.01,0.15,0.03,0.24,0.05c0.09-0.01,0.16-0.02,0.25-0.02
	c0.09-0.02,0.16-0.03,0.25-0.05c0.09-0.02,0.17-0.03,0.26-0.05c0.09-0.01,0.17-0.02,0.26-0.03c0.09-0.02,0.16-0.03,0.25-0.04
	c0.18,0.01,0.3,0.02,0.45,0.03c0.07-0.01,0.11-0.02,0.17-0.02c0.06-0.01,0.08-0.02,0.12-0.02c0.04,0,0.42,0.03,1.02,0
	c0.5-0.12,0.98-0.27,1.31-0.39c0.23-0.12,0.35-0.23,0.44-0.32c0.14-0.03,0.46-0.07,0.86-0.15c0.38-0.1,0.63-0.18,0.86-0.25
	c0.49-0.07,0.44-0.1,0.03-0.08c-0.21,0.01-0.6-0.06-0.66-0.02c-0.06-0.04,0.28,0.15,0.9,0.37c0.35,0.08,0.87,0.15,1.19,0.16
	c0.44,0.03,0.74,0.03,0.86,0.04c0.38,0,1.11-0.01,1.93-0.1c0.6-0.07,1.25-0.17,1.95-0.26c0.76-0.07,1.56-0.14,2.38-0.19
	c0.8-0.06,1.58-0.11,2.41-0.14c0.53-0.03,0.86-0.07,1.11-0.06c0.09,0,0.34,0.01,0.67,0c1.05-0.01,2.09-0.01,3.17,0
	c1.09,0,2.17,0.01,3.28,0.03c2.23-0.02,4.57,0.01,6.73-0.07c2.37-0.06,4.62-0.27,6.84-0.49c1.24-0.1,2.46-0.21,3.64-0.28
	c0.57-0.03,1.11-0.05,1.69-0.07c0.86-0.04,1.72-0.08,2.59-0.1c0.65-0.02,1.3-0.03,1.98-0.03c0.65-0.02,1.32-0.03,2.03-0.04
	c1.4-0.01,2.85-0.01,4.41-0.02c0.49,0.01,1,0.03,1.52,0.04c0.32,0.01,0.63,0.01,0.94,0.02c0.23-0.01,0.47-0.03,0.71-0.04
	c0.88,0.02,1.83,0.04,2.79,0.07c0.25,0.01,0.51,0.01,0.79,0.02c0.68,0.01,1.31,0.01,1.91,0.04c1.2,0.05,2.39,0.12,3.65,0.21
	c0.35,0.02,0.73,0.06,1.13,0.08c0.35,0.02,0.55,0.02,0.68,0.04c0.3,0.03,0.67,0.07,1.07,0.1c1.29,0.11,2.7,0.23,4.13,0.31
	c1.39,0.07,2.78,0.12,4.13,0.17c1.01,0.1,2.01,0.2,2.99,0.3c1.11,0.01,2.09-0.02,2.95,0.01c0.24,0.01,0.55,0.02,0.89,0.03
	c0.66,0.02,1.3,0.04,1.91,0.07c1.18,0.03,2.28,0.06,3.32,0.09c1.06,0.01,2.05,0.01,2.93,0.02c0.61,0.02,1.21,0.04,1.8,0.05
	c0.58,0.01,0.98,0,1.32,0.03c0.86,0.14,1.6,0.32,2.42,0.52c1.05,0.19,2.06,0.41,3.02,0.56c0.98,0.16,1.9,0.25,2.55,0.3
	c0.41-0.02,0.74-0.06,1.01-0.08c0.56,0,0.71-0.04,0.39-0.05c-0.03-0.01,0.2,0,0.56-0.01c0.2-0.01,0.8-0.08,1.26-0.2
	c0.53-0.2,1.93-1.15,2.62-2.07c0.62-1.83,0.51-3.52,0.32-4.16c-0.18-0.65-0.38-1.14-0.42-1.24c-0.1-0.24-0.22-0.49-0.32-0.71
	c-0.24-0.57-0.32-0.62-0.24-0.38c0,0.25,0.04,0.11,0.03-0.63c-0.03-0.34-0.02,0.17-0.11,0.89c0.07-0.31-0.14,0.17-0.78,1.16
	c-0.35,0.15-0.76,0.31-0.56,0.02c0.08-0.05,0.45-0.39,0.82-0.82c0.19-0.29,0.67-1.69,0.65-2.86c-0.18-0.66-0.79-1.73-1.05-2.01
	c-0.58-0.47-1.14-0.79-1.27-0.84c-1.45-0.33-1.74-0.36-1.66-0.41c-0.12-0.01-0.21-0.01-0.27-0.01c-0.15,0.02-0.43,0.03-0.78,0.06
	c-0.26-0.01-0.51-0.01-0.76-0.01c-0.64-0.01-1.39-0.01-2.3-0.03c-1.21-0.03-2.62-0.07-4.01-0.1c-1.65-0.04-3.36-0.09-5.22-0.13
	c-1.38-0.06-2.76-0.11-4.03-0.18c-1.53-0.03-2.97-0.11-4.62-0.18c-1.03-0.05-2.14-0.08-3.21-0.1c-1.21-0.02-2.39-0.03-3.48-0.04
	c-1.57-0.01-3.03-0.01-4.46-0.02c-0.88-0.05-1.78-0.08-2.64-0.11c-2.29,0.05-4.47,0.14-6.49,0.18c-0.77,0.04-1.49,0.08-2.29,0.11
	c-1.54-0.01-3.39-0.04-5.58-0.03c-0.8,0.01-1.71,0.03-2.62,0.07c-0.68,0.04-1.31,0.09-1.89,0.12c-1,0.06-1.99,0.12-3.08,0.19
	c-0.71,0.05-1.42,0.1-2.14,0.14c-0.97,0.06-1.98,0.13-2.99,0.2c-2.77,0.1-5.53,0.24-8.04,0.34c-0.91,0.05-1.82,0.11-2.72,0.17
	c-1.35,0.08-2.72,0.18-4.13,0.3c-1.19,0.12-2.42,0.25-3.62,0.38c-0.72,0.08-1.36,0.16-1.99,0.21c-3.33,0.28-7.04,0.51-10.77,0.95
	c-1.58,0.12-3.05,0.25-4.43,0.32c-0.69,0.1-1.42,0.18-2.18,0.29c-1.39,0.12-2.82,0.25-4.2,0.43c-1.14,0.21-2.08,0.41-2.78,0.52
	c-0.52,0.15-0.77,0.24-0.99,0.32c-0.27,0.02-0.36,0.07-0.28,0.12c0.11,0.07,1.22,0.59,2.21,1.63c0.35,0.82,0.45,2.25,0.37,2.57
	c-0.11,0.27-0.16,0.32-0.11,0.1c-0.48,0.39-0.88,0.53-1.04,0.32c0.07,0.05,0.22,0,0.75-0.78c0.5-1.46-0.27-3.05-1.73-3.56
	C43.26,93.41,41.67,94.19,41.17,95.65"/>
<path class="st4" d="M44.78,95.41c-0.12,0.05-0.34,0.1-0.51,0.16c-1.42-0.05-2.62,1.06-2.67,2.48c-0.05,1.42,1.06,2.62,2.48,2.67
	c1.42,0.05,2.62-1.06,2.67-2.48c0.05-1.42-1.06-2.62-2.48-2.67c-0.14-0.04-0.63-0.04-1.18,0.09c-1.37,0.59-2.01,2.18-1.42,3.56
	c0.59,1.37,2.18,2.01,3.56,1.42c1.37-0.59,2.01-2.18,1.42-3.56c-0.59-1.37-2.18-2.01-3.56-1.42c-0.5,0.25-1.56,1.66-1.69,2.74
	c0.14,1.52,1.49,2.65,3.01,2.51c1.52-0.14,2.65-1.49,2.51-3.01c-0.14-1.52-1.49-2.65-3.01-2.51c-1.52,0.14-2.65,1.49-2.51,3.01
	c0.2,0.88,0.76,1.73,0.98,1.96c0.43,0.39,0.79,0.64,0.89,0.76c0.1,0.04,0.26,0.09,0.36,0.12c0.22,0.07,0.52,0.14,0.74,0.19
	c0.57,0.11,1.3,0.14,1.95,0.13c0.69,0.04,1.62,0.01,2.6-0.09c1.24-0.21,2.59-0.54,3.85-0.76c0.79-0.12,1.56-0.19,2.41-0.26
	c1.34-0.2,2.58-0.29,3.93-0.4c0.98-0.06,1.96-0.13,2.94-0.21c1.23-0.1,2.47-0.24,3.67-0.36c0.61-0.06,1.18-0.12,1.75-0.18
	c0.21-0.02,0.41-0.03,0.64-0.05c1.43-0.06,2.65-0.04,3.97-0.04c1.19-0.04,2.39-0.11,3.61-0.18c0.55-0.02,1.11-0.04,1.68-0.06
	c0.93-0.04,1.79-0.09,2.65-0.11c0.5,0.01,1.02,0.03,1.59,0.05c2.75,0,5.8-0.07,8.89-0.13c1.51-0.04,3-0.06,4.48-0.06
	c1.05-0.01,2.09,0,3.11,0c2.75,0.03,5.41,0.13,8.12,0.2c0.83,0.03,1.65,0.04,2.41,0.06c0.75,0.02,1.51,0.04,2.28,0.06
	c3.64,0.07,7.05,0.15,10.44,0.22c2.18-0.05,4.39-0.14,6.5-0.26c0.7-0.09,1.4-0.19,2.09-0.28c1.48-0.12,2.86-0.2,4.17-0.28
	c1.46,0,2.8,0.01,4.02,0.03c1.17-0.03,2.23-0.04,3.17-0.08c0.5-0.01,1.01-0.04,1.41-0.07c0.45-0.01,0.76-0.04,1.09-0.04
	c0.28-0.03,0.48-0.06,0.53-0.07c0.33-0.04,0.69-0.06,1.19-0.11c0.27-0.03,0.53-0.06,0.74-0.08c0.27-0.08,0.54-0.15,0.81-0.23
	c0.3-0.02,0.51-0.04,0.59-0.03c-0.09,0.01-0.18,0.01-0.06,0c0.2,0,0.34,0,0.39,0.01c0.1-0.01,0.2,0,0.58,0.01
	c0.41,0,0.77-0.02,1.08-0.03c0.21-0.05,0.46-0.09,0.71-0.14c0.15,0.01,0.37,0.03,0.64,0.04c0.52-0.03,0.88-0.1,0.89-0.1
	c-0.18-0.03-0.38-0.06-0.2-0.09c0.11-0.09,0.22-0.19,0.41-0.27c0.07,0,0.2,0,0.32-0.01c0.08,0,0.35-0.02,0.59-0.06
	c0.26-0.05,0.93-0.3,1.49-0.64c0.88-0.99,1.03-4.13,0.49-4.94c-1.24-1.39-3.36-1.52-4.75-0.28c-1.39,1.24-1.52,3.36-0.28,4.75
	c1.24,1.39,3.36,1.52,4.75,0.28c1.39-1.24,1.52-3.36,0.28-4.75c-3.98,5.27-2.73,5.6-2.43,5.6c0.23-0.02,0.41-0.04,0.44-0.05
	c0.08-0.03-0.18-0.04-0.4-0.06c-1.19-0.42-1.83-0.89-1.69-0.75c0.16,0.19-0.08-0.01-0.81-1.14c-0.15-0.52-0.11-1.95,0.14-2.65
	c0.34-0.56,1.02-1.23,1.29-1.41c0.41-0.22,0.82-0.38,0.9-0.41c-2.61,2.69-2.69,3.27-2.71,3.35c-0.01,0.06-0.02,0.13-0.04,0.17
	c-0.02,0.07-0.05,0.15-0.07,0.22c-0.05,0.15-0.09,0.21-0.14,0.17c-0.05,0.52-0.06,0.89-0.09,1.08c-0.01,0.13-0.03,0.26-0.04,0.39
	c0.03,0.68,0.13,1.41,0.24,1.91c0.14,0.62,0.23,0.83,0.16,0.56c0.02-0.04,0.13-0.97,0.58-2.02c1.06-0.96,2.28-1.42,2.38-1.43
	c-0.01,0.01,0.06,0.01-0.06-0.01c-0.47-0.03-0.78-0.01-0.8-0.01c-0.19,0-0.39,0-0.62,0c-0.08,0.02-0.18,0.03-0.31,0.05
	c-0.32,0.01-0.58,0.03-0.7,0.04c0.16,0,0.16,0-0.07,0c-0.44,0.02-0.7,0.06-0.77,0.07c-0.54,0.07-1.28,0.08-2.14,0.12
	c-1.78,0.04-3.73,0.12-6.13,0.2c-0.9,0.01-1.86,0-2.93-0.01c-0.3-0.06-0.62-0.11-0.94-0.17c-1.14-0.06-2.33-0.11-3.57-0.16
	c-0.72-0.02-1.46-0.03-2.22-0.05c-0.57,0-1.16,0.01-1.76,0.01c-1.38,0.01-2.86-0.01-4.42,0.03c-1.6,0.05-3.24,0.17-4.79,0.3
	c-1.75,0.12-3.42,0.26-5.06,0.38c-0.82,0.06-1.65,0.11-2.48,0.17c-0.58,0.04-1.18,0.08-1.83,0.12c-0.94,0.07-1.86,0.18-2.65,0.25
	c-0.51,0.08-1.01,0.14-1.57,0.21c-1.13,0.08-2.17,0.15-3.14,0.2c-0.41,0.03-0.86,0.04-1.39,0.07c-0.78-0.03-1.53-0.03-2.17-0.04
	c-2.26,0.11-4.31,0.16-6.42,0.17c-1.05,0.01-2.04,0.01-3.07,0c-1.02-0.02-2.09-0.05-3.27-0.09c-1.36-0.01-2.86-0.03-4.35-0.03
	c-1.29,0.01-2.54,0.04-3.74,0.06c-1.01,0.01-2.03,0-3.07,0.01c-0.46,0.01-0.99,0-1.57,0.01c-1.17,0.03-2.13,0.17-2.78,0.21
	c-1.02,0.03-2.08-0.07-3.31-0.11c-1.59-0.01-3.07,0.13-4.23,0.21c-0.92,0.11-1.66,0.18-2.39,0.22c-0.28,0.02-0.56,0.03-0.93,0.04
	c-0.52,0.01-1.21,0.01-1.97,0.05c-0.71,0.03-1.4,0.11-1.89,0.16c-0.8,0.06-1.44,0.06-2.2,0.04c-0.52,0-0.99-0.07-1.67-0.15
	c-0.36-0.04-0.87-0.1-1.5-0.15c-0.62-0.04-1.37-0.06-2.08-0.06c-0.53,0.02-1.19,0.06-1.81,0.12c-0.76,0.07-1.42,0.21-1.76,0.27
	c-0.09,0.02-0.17,0.03-0.25,0.04c-0.08,0.01-0.15,0.02-0.22,0.03c-0.08,0.01-0.12,0.02-0.19,0.03c-0.06,0-0.1,0-0.15,0
	c-0.05,0.01-0.06,0.01-0.1,0.01c-0.04,0-0.02,0-0.04,0c-0.01,0,0.04,0,0.06,0.01c0.01,0,0.13,0.02,0.18,0.03
	c0.06,0.01,0.27,0.06,0.38,0.1c0.13,0.05,0.49,0.21,0.69,0.32c0.06,0.37,0.34,0.99,0.34,1.41c-0.9-1.24-2.64-1.52-3.88-0.63
	c-1.24,0.9-1.52,2.64-0.63,3.88c0.9,1.24,2.64,1.52,3.88,0.63c1.24-0.9,1.52-2.64,0.63-3.88c0.16,0.3,0.39,1,0.42,1.35
	c-0.12-1.49-1.43-2.59-2.91-2.47c-1.49,0.12-2.59,1.43-2.47,2.91c0.12,1.49,1.43,2.59,2.91,2.47c1.49-0.12,2.59-1.43,2.47-2.91
	c-0.02,0.32-0.14,0.88-0.23,1.08c0.52-1.35-0.16-2.87-1.51-3.39c-1.35-0.52-2.87,0.16-3.39,1.51c-0.52,1.35,0.16,2.87,1.51,3.39
	c1.35,0.52,2.87-0.16,3.39-1.51c-0.34,0.2-0.74,0.4-0.93,0.28c0.77-0.76,0.78-2.01,0.02-2.78c-0.76-0.77-2.01-0.78-2.78-0.02
	c-0.33,0.03-0.82,0.34-1.2,0.65c-0.11,0.25-0.24,0.86-0.26,1.23c0.03,0.39,0.28,1.13,0.46,1.46c0.02,0.46,0.34,1.11,0.45,1.51
	c0.25,0.14,0.67,0.33,0.87,0.4c0.18,0.06,0.47,0.12,0.62,0.15c0.14,0.02,0.35,0.05,0.47,0.06c0.12,0.01,0.29,0.02,0.4,0.02
	c0.11,0,0.26,0,0.37,0c0.11,0,0.25-0.01,0.35-0.01c0.11-0.01,0.24-0.03,0.35-0.04c0.11-0.01,0.24-0.02,0.36-0.03
	c0.11-0.01,0.24-0.03,0.36-0.05c0.12-0.01,0.25-0.03,0.37-0.05c0.55-0.09,0.91-0.17,1.18-0.18c0.4-0.01,0.79,0,1.28,0.02
	c0.58,0,1.05,0.01,1.5,0.04c0.4,0.03,0.77,0.08,1.26,0.14c0.71,0.06,1.57,0.13,2.46,0.13c0.84-0.02,1.83-0.06,2.87-0.18
	c0.57-0.05,1.03-0.11,1.43-0.12c0.54,0,1.08,0.03,1.68,0.05c0.34,0.01,0.71,0.03,1.11,0.04c0.86,0.01,1.86-0.01,2.91-0.07
	c1.25-0.13,2.39-0.28,3.56-0.29c1-0.04,2.3,0,3.76-0.11c0.99-0.06,1.75-0.18,2.47-0.18c0.41-0.01,0.92,0.01,1.5,0.01
	c0.97-0.01,1.96,0.01,3.02,0.01c1.21,0.02,2.42,0.03,3.67,0.06c1.43,0.02,2.91,0.06,4.31,0.09c1.17-0.01,2.3-0.01,3.37-0.03
	c1.05-0.01,2.09-0.03,3.17-0.05c2.17-0.06,4.38-0.16,6.73-0.33c0.7-0.1,1.32-0.2,1.92-0.27c0.43,0,0.95,0.01,1.53,0
	c1.06-0.04,2.16-0.11,3.27-0.18c0.52,0,1.1,0,1.74-0.01c0.87-0.07,1.71-0.15,2.5-0.19c0.59-0.03,1.21-0.06,1.86-0.1
	c0.84-0.06,1.67-0.11,2.49-0.17c1.68-0.11,3.35-0.23,5.05-0.33c1.54-0.08,3-0.15,4.42-0.15c1.45-0.01,2.87,0.02,4.31,0.03
	c0.6,0,1.19,0.01,1.76,0.01c0.76-0.02,1.5-0.03,2.22-0.05c1.24-0.05,2.43-0.11,3.54-0.16c0.32-0.05,0.63-0.11,0.93-0.16
	c1.07,0,2.08,0,3.04-0.02c2.41,0.02,4.3,0.04,6.02,0.09c0.76,0.04,1.63,0.11,2.45,0.12c0.37-0.01,0.49-0.02,0.44,0
	c0.06,0,0.29,0.01,0.64,0c0.22-0.01,0.21-0.02,0.19-0.01c0.08,0.02,0.2,0.03,0.35,0.05c0.17,0,0.34,0,0.55,0
	c0.32,0,0.34-0.01,0.19-0.01c0.45,0.03,1.04,0.03,1.44-0.01c0.32-0.04,1.76-0.55,2.93-1.66c0.73-1.43,0.84-3.05,0.74-3.73
	c-0.12-0.57-0.15-0.64-0.07-0.33c-0.02-0.29,0-0.43,0.03-0.75c-0.01-0.13-0.03-0.26-0.04-0.39c-0.03-0.44-0.07-0.57-0.09-0.57
	c-0.03-0.32-0.08-0.65-0.14-0.84c-0.03-0.09-0.05-0.17-0.08-0.2c-0.01-0.01-0.02,0.01-0.04,0.04c-0.01,0.06-0.09,0.62-2.66,3.29
	c0.08-0.04,0.52-0.2,0.92-0.42c0.29-0.2,0.98-0.88,1.32-1.44c0.25-0.71,0.29-2.14,0.13-2.68c-0.73-1.14-1.01-1.37-0.91-1.23
	c-0.01-0.01-0.79-0.64-2.14-1.08c-0.47-0.06-0.98-0.04-1.08-0.05c-0.05,0,0.05-0.02,0.21-0.03c0.23,0,1.45,0.32,2.46,1.08
	c-5.55,3.68-5.41,0.54-4.63-0.36c0.66-0.42,1.33-0.66,1.55-0.71c0.26-0.04,0.51-0.06,0.58-0.06c0.07-0.01,0.15-0.01,0.14-0.02
	c-0.22-0.12-0.44-0.23-0.63-0.33c-0.04-0.04-0.44-0.08-0.86-0.09c-0.34,0.03-0.38,0.04-0.27,0.01c-0.1,0.02-0.27,0.03-0.53,0.04
	c-0.21-0.05-0.43-0.1-0.67-0.14c-0.38-0.01-0.67-0.02-0.91-0.03c-0.24-0.01-0.73-0.03-1.3,0.01c-0.18,0.03-0.26,0.05-0.29,0.06
	c-0.08,0-0.37,0.02-0.67,0.06c-0.27,0.06-0.41,0.11-0.45,0.14c-0.28,0-0.55-0.01-0.84-0.01c-0.23,0.03-0.41,0.06-0.58,0.09
	c-0.34,0.04-0.79,0.08-1.36,0.16c-0.2,0.03-0.26,0.04-0.24,0.04c-0.49,0.07-0.76,0.14-0.96,0.18c-0.31,0.03-0.55,0.04-0.9,0.05
	c-0.79-0.01-1.81-0.06-3.07-0.08c-1.22,0.02-2.6,0.04-4.1,0.08c-1.35-0.04-2.83-0.06-4.39-0.06c-0.68-0.04-1.36-0.09-2.05-0.13
	c-2.07,0.02-4.14,0.03-6.21-0.02c-3.38,0.07-6.79,0.15-10.44,0.22c-0.75,0.02-1.52,0.03-2.31,0.06c-0.78,0.02-1.51,0.05-2.24,0.06
	c-2.64-0.02-5.35-0.09-8.22-0.08c-1.02,0-2.1-0.01-3.18,0c-1.53,0.01-3.12,0.04-4.68,0.09c-3.1,0.12-6.09,0.25-8.74,0.31
	c-0.57,0.03-1.18,0.07-1.78,0.11c-0.97,0.04-1.88,0.11-2.75,0.16c-0.56,0.04-1.13,0.07-1.69,0.11c-1.24,0.06-2.35,0.12-3.45,0.15
	c-1.26,0.08-2.65,0.14-4.27,0.3c-0.22,0.01-0.48,0.03-0.73,0.05c-0.62,0.05-1.25,0.11-1.85,0.16c-1.25,0.12-2.44,0.26-3.56,0.36
	c-0.96,0.09-1.88,0.17-2.8,0.23c-1.33,0.07-2.81,0.13-4.41,0.31c-0.88,0.15-1.9,0.34-2.89,0.58c-1.47,0.33-2.81,0.73-3.76,0.95
	c-0.76,0.24-1.26,0.4-1.71,0.53c-0.47,0.07-0.55,0.11-0.59,0.13c-0.13,0-0.17,0.01-0.2,0.02c0,0.01,0.07,0.03,0.11,0.05
	c0.04,0.1,0.35,0.34,0.79,0.73c0.19,0.21,0.75,1.06,0.95,1.89c-0.13,1.13-1.19,2.53-1.65,2.77c-0.59,0.14-1.06,0.15-1.17,0.11
	c-0.14,0.06-0.28,0.12-0.3,0.19c1.52,0.27,2.97-0.74,3.25-2.26C47.31,97.14,46.3,95.69,44.78,95.41z"/>
<path class="st4" d="M43.83,95.77c0.2,0.05,0.82,0.31,1.2,0.56c-1.19-0.99-2.95-0.83-3.94,0.35c-0.99,1.19-0.83,2.95,0.35,3.94
	c1.19,0.99,2.95,0.83,3.94-0.35c0.99-1.19,0.83-2.95-0.35-3.94c0.58,0.29,1.39,1.67,1.63,2.48c0.22-1.91-1.14-3.63-3.05-3.85
	c-1.91-0.22-3.63,1.14-3.85,3.05c-0.22,1.91,1.14,3.63,3.05,3.85c1.91,0.22,3.63-1.14,3.85-3.05c0.22-0.46-0.17,1.51-1.05,2.75
	c1.83-1.28,2.28-3.81,1-5.64c-1.28-1.83-3.81-2.28-5.64-1c-1.83,1.28-2.28,3.81-1,5.64c1.28,1.83,3.81,2.28,5.64,1
	c-1.25,0.55-1.74,0.66-1.15,0.57c0.22-0.08,0.47-0.17,0.84-0.27c0.2,0.01,0.39,0.02,0.62,0.03c0.53-0.11,1-0.24,1.4-0.34
	c1.12-0.25,2.47-0.51,3.85-0.73c2.49-0.24,4.9-0.31,7.54-0.42c1.4-0.07,2.85-0.14,4.31-0.25c0.65-0.05,1.33-0.11,1.97-0.18
	c0.83-0.08,1.64-0.18,2.38-0.28c1.55-0.23,3.02-0.47,4.41-0.65c0.82-0.1,1.6-0.16,2.48-0.22c0.89-0.05,1.78-0.1,2.74-0.13
	c0.02,0,0.11,0,0.33,0c0.39,0.01,0.69,0,0.83,0.01c0.07,0,0.14,0,0.32,0c0.88,0.01,1.76-0.01,2.59-0.02
	c1.34-0.02,2.78-0.07,4.23-0.12c1.71-0.02,3.43-0.06,5.08-0.08c1.38-0.03,2.73-0.02,4.1,0c0.88,0.01,1.75,0.03,2.67,0.05
	c0.92-0.02,1.88-0.04,2.87-0.07c1.28-0.02,2.65-0.06,3.97-0.12c0.8-0.02,1.59-0.05,2.33-0.08c0.8-0.03,1.55-0.08,2.19-0.12
	c0.6-0.01,1.22,0.01,1.88,0c1.03-0.07,1.9-0.17,2.64-0.23c1.23-0.14,2.38-0.22,3.61-0.33c0.78-0.06,1.55-0.13,2.32-0.2
	c1.3-0.09,2.6-0.18,3.81-0.2c0.84-0.03,1.66,0,2.59,0.01c0.64,0,1.26-0.01,1.83-0.02c0.92,0,1.86,0.01,2.77,0.03
	c1.2-0.02,2.21-0.05,3.2-0.05c0.41,0.01,0.9,0.04,1.52,0.06c1.39,0.04,3.03,0.02,4.62-0.04c2.13-0.06,4.1-0.21,5.69-0.28
	c0.52-0.02,0.99-0.03,1.46-0.04c0.61-0.03,1.17-0.03,1.77-0.05c0.53-0.01,0.97-0.05,1.16-0.07c0.2-0.01,0.32-0.01,0.45-0.01
	c0.16,0.01,0.37,0.03,0.68,0.06c0.39-0.07,0.5-0.15,0.41-0.22c-0.69-0.22-1.03-0.38-0.56-0.21c0.57,0.19,1.06,0.29,1.21,0.31
	c0.4,0.07,0.55,0.05,0.31-0.07c-0.19-0.08-1.39-0.95-1.6-1.2c0.02-0.02,0.1,0.05,0.24,0.2c0.2,0.38,0.33,0.61,0.33,0.73
	c0,0,0.06,0.12,0.24,0.41c0.2,0.3,0.45,0.63,0.61,0.83c0.68,0.65,0.72,0.54,0.13-0.31c0.14,0.26-0.38-2.02-0.33-2.4
	c-0.11,0.84-0.1,1.2-0.13,1.1c-0.05-0.07-0.13,0.01-0.21,0.3c-0.02,0.58,0,0.83,0,0.68c0.01,0.2,0.08-0.14,0.19-0.52
	c0.92-1.35,1.39-1.78,0.8-1.35c-0.36,0.27-0.74,0.63-0.94,0.83c-0.05,0.06,0.39-0.33,0.74-0.58c0.07-0.03,0.47-0.2,0.66-0.26
	c0.77-0.09,1.15-0.08,0.73-0.11c-0.38-0.01-0.62,0.01-0.51,0c-1.35-0.01-3.14,0.09-5.64,0.14c-1.25,0.11-2.71,0.2-4.35,0.3
	c-1.02-0.01-2.09-0.02-3.27-0.04c-0.71,0.02-1.47,0.03-2.28,0.05c-0.5,0.01-1.06,0.01-1.67,0.02c-0.21,0.01-0.48,0-0.8,0.01
	c-0.72,0.01-1.46,0.07-2.11,0.11c-0.7,0.03-1.39,0.1-2.02,0.15c-1,0.1-2.06,0.21-3.13,0.33c-2.4,0.27-4.78,0.57-7.07,0.81
	c-1.63,0.15-3.19,0.25-4.73,0.32c-0.35,0.02-0.62,0.05-0.83,0.06c-0.83,0.05-1.71,0.04-2.71,0.04c-0.39,0.01-0.7,0.03-0.88,0.04
	c-0.22,0-0.5-0.03-0.91-0.04c-0.59,0-1.15,0-1.71,0c-0.86-0.02-1.74-0.05-2.63-0.07c-0.39,0-0.76,0.01-1.07,0.02
	c-0.62,0.01-1.21,0.03-1.75,0.05c-0.18,0.01-0.43,0.01-0.78,0.02c-0.41,0.01-0.78,0.03-1.09,0.05c-0.21,0.01-0.44,0.01-0.7,0.02
	c-0.33,0.01-0.68,0.03-1.02,0.04c-0.61,0.02-1.17,0.06-1.69,0.08c-0.8,0.05-1.6,0.07-2.46,0.09c-0.3,0-0.61-0.01-0.93-0.02
	c-0.33,0.01-0.59,0.02-0.75,0.02c-2.95,0.11-5.77,0.05-8.27-0.1c-2.87-0.15-5.2-0.49-7.38-0.68c-1.95-0.18-3.57-0.26-5.24-0.35
	c-0.68-0.04-1.46-0.09-2.3-0.11c-0.55-0.05-1.11-0.08-1.62-0.11c-0.89,0-1.89,0.03-2.91,0.09c-0.7,0.04-1.34,0.11-1.87,0.15
	c-0.51,0.06-1.04,0.09-1.67,0.13c-0.59,0.03-1.18,0.05-1.81,0.06c-1.03,0.03-1.99,0.07-2.93,0.09c-0.56,0.07-1.07,0.13-1.61,0.18
	c-0.85,0.04-1.75-0.01-2.76-0.03c-1.01-0.02-2.04-0.01-3.03,0.05c-0.61,0.03-1.33,0.06-2.01,0.13c-1.21,0.09-2.32,0.36-2.88,0.53
	c-0.23,0.14-0.51,0.31-0.71,0.47c-0.12,0.05-0.3,0.14-0.43,0.21c-1.38,0.66-1.97,2.32-1.31,3.7c0.66,1.38,2.32,1.97,3.7,1.31
	c1.38-0.66,1.97-2.32,1.31-3.7c-0.66-1.38-2.32-1.97-3.7-1.31c-0.13,0.08-0.38,0.24-0.54,0.36c-1.22,0.89-1.5,2.6-0.61,3.83
	c0.89,1.22,2.6,1.5,3.83,0.61c1.22-0.89,1.5-2.6,0.61-3.83c-0.89-1.22-2.6-1.5-3.83-0.61c-0.17,0.14-0.51,0.49-0.69,0.75
	c-0.85,1.23-0.55,2.91,0.68,3.77c1.23,0.85,2.91,0.55,3.77-0.68c0.85-1.23,0.55-2.91-0.68-3.77c-1.23-0.85-2.91-0.55-3.77,0.68
	c0.03,0.41,0.04,1.11,0.23,1.46c-0.09,1.08,0.71,2.04,1.8,2.13c1.08,0.09,2.04-0.71,2.13-1.8c0.2,0.3,0.22,0.94,0.29,1.3
	c-0.14,0.2-0.43,0.5-0.54,0.6c-0.09,0.07-0.26,0.18-0.29,0.21c-0.02,0.02-0.09,0.06-0.08,0.07c0.07,0.06,0.12,0.13,0.3,0.18
	c0.54-0.11,1-0.2,1.64-0.19c0.5,0.02,1.06,0.08,1.69,0.13c0.89,0.08,1.65,0.18,2.5,0.32c0.89,0.15,1.95,0.35,3.08,0.47
	c0.63,0.1,1.29,0.18,1.9,0.25c1.03,0.02,2.06,0.02,3.07,0.02c0.65-0.01,1.36-0.02,2.05-0.04c0.62-0.02,1.33-0.04,2.04-0.09
	c0.68-0.07,1.21-0.16,1.66-0.19c0.9-0.07,1.7-0.1,2.51-0.12c0.5-0.04,0.91-0.09,1.3-0.11c0.71,0.02,1.39,0.06,2.11,0.1
	c1.69,0.09,3.14,0.15,4.93,0.31c1.95,0.19,4.46,0.57,7.64,0.77c2.66,0.14,5.84,0.2,9.01,0.07c0.31-0.02,0.51-0.04,0.64-0.04
	c0.32-0.02,0.66-0.04,1-0.07c0.84-0.03,1.75-0.07,2.67-0.13c0.59-0.05,1.12-0.1,1.63-0.14c0.34-0.02,0.65-0.04,0.96-0.06
	c0.22-0.01,0.46-0.02,0.74-0.04c0.36-0.02,0.67-0.05,0.95-0.06c0.23-0.01,0.56-0.01,0.94-0.04c0.58-0.04,1.08-0.09,1.56-0.12
	c0.35-0.01,0.64-0.03,0.92-0.03c0.84-0.03,1.67-0.05,2.55-0.07c0.58,0,1.15,0,1.71,0c0.28-0.01,0.71-0.01,1.19-0.04
	c0.33-0.01,0.54-0.03,0.67-0.03c0.91-0.01,1.99,0.01,3.1-0.06c0.34-0.02,0.59-0.05,0.77-0.06c1.62-0.11,3.34-0.26,5.04-0.45
	c2.36-0.23,4.76-0.5,7.12-0.74c1.02-0.1,2.05-0.19,3.06-0.28c0.65-0.07,1.21-0.14,1.74-0.17c0.67-0.03,1.24-0.06,1.77-0.06
	c0.23,0,0.49,0.01,0.8,0.01c0.53,0,1.07,0.01,1.63,0.02c0.78,0.01,1.53,0.03,2.25,0.05c1.19-0.01,2.25-0.03,3.25-0.04
	c1.63,0.1,3.12,0.21,4.43,0.3c2.6,0.01,4.3-0.03,5.3,0.04c0.34,0.01,0.49,0,0.53,0c-0.2-0.02,0.42,0.03,1.39-0.11
	c0.47-0.13,1.1-0.4,1.37-0.55c0.57-0.37,1.17-0.92,1.3-1.08c0.06-0.1-0.06-0.01-0.16,0.06c-0.16,0.1,0.76-0.53,1.8-2.24
	c0.22-0.71,0.32-1.43,0.35-1.63c0.01-0.55-0.01-0.74,0-0.59c-0.05-0.12-0.08-0.45-0.14-0.86c-0.02-0.36-0.05-0.2-0.13,0.49
	c0.08-0.5-0.46-2.79-0.33-2.56c-0.76-1.18-1.12-1.53-0.76-1.26c-0.08-0.09-0.08-0.09-0.12-0.16c-0.05-0.07-0.22-0.34-0.47-0.7
	c-0.31-0.32-0.51-0.47-0.55-0.43c0-0.05-0.05-0.17-0.15-0.36c-0.35-0.44-1.64-1.37-2.03-1.53c-0.44-0.19-0.56-0.26-0.47-0.29
	c-0.37-0.15-0.54-0.22-0.49-0.25c0.08,0-0.53-0.32-1.55-0.58c-0.52-0.13-1.01-0.21-1.31-0.29c-0.28,0.01-0.74,0.02-1.2,0.06
	c-0.25,0.02-0.47,0.04-0.65,0.05c-0.37,0.02-0.53,0.04-0.66,0.04c-0.41-0.01-1.06-0.05-1.88-0.05c-0.52,0.02-1.14,0.04-1.74,0.08
	c-1.75,0.11-3.63,0.3-5.53,0.39c-1.47,0.05-2.84,0.05-4.06,0.01c-0.48-0.01-1.02-0.04-1.62-0.05c-1.12-0.04-2.24-0.04-3.42-0.05
	c-0.93,0.03-1.92,0.06-2.86,0.09c-0.61,0.01-1.16,0.03-1.69,0.04c-0.85,0.01-1.86,0.01-2.94,0.06c-1.39,0.08-2.86,0.23-4.15,0.36
	c-0.8,0.06-1.54,0.13-2.25,0.18c-1.16,0.07-2.41,0.12-3.79,0.23c-0.85,0.09-1.63,0.19-2.49,0.26c-0.53,0.09-1.2,0.17-1.94,0.28
	c-0.68,0.08-1.31,0.16-1.95,0.22c-0.71,0.06-1.41,0.11-2.14,0.15c-1.24,0.03-2.49,0.04-3.72,0.04c-0.96-0.02-1.88-0.05-2.81-0.07
	c-0.9,0.02-1.81,0.03-2.74,0.05c-1.4,0.04-2.88,0.08-4.35,0.17c-1.69,0.11-3.42,0.25-5.09,0.36c-1.45,0.07-2.8,0.13-4.05,0.16
	c-0.89,0.02-1.67,0.05-2.38,0.05c-0.12,0-0.38-0.01-0.67,0c-0.32,0.02-0.48,0.05-0.56,0.06c-0.1,0-0.32-0.01-0.61,0
	c-1,0.04-2,0.08-2.95,0.15c-0.91,0.05-1.88,0.12-2.87,0.22c-1.54,0.16-3.1,0.38-4.6,0.58c-0.72,0.1-1.37,0.19-2.08,0.26
	c-0.59,0.06-1.18,0.1-1.79,0.15c-1.37,0.11-2.73,0.18-4.14,0.26c-2.58,0.17-5.21,0.3-7.94,0.63c-1.49,0.08-3.02,0.21-4.26,0.32
	c-0.58,0.06-1.02,0.11-1.29,0.11c-0.3,0.08-0.59,0.17-0.83,0.26c-0.51,0.05-0.94,0.1-1.2,0.12c0.35-0.04-0.4,0.06-1.81,0.73
	c-1.05,1.35-1.42,3.44-1.21,3.09c0.23,0.86,1.06,2.29,1.69,2.62c0.42,0.29,1.11,0.58,1.42,0.65c1.52,0.27,2.97-0.75,3.24-2.27
	C46.37,97.49,45.35,96.04,43.83,95.77"/>
<line class="st5" x1="-200.39" y1="167.83" x2="369.26" y2="167.83"/>
<path d="M11.69,47.44c-0.08-0.11-0.26-0.28-0.4-0.38c-0.55-0.32-1.25-0.13-1.57,0.42c-0.32,0.55-0.13,1.25,0.42,1.57
	s1.25,0.13,1.57-0.42c0.32-0.55,0.13-1.25-0.42-1.57c-0.18-0.1-0.6-0.2-0.85-0.19c-0.64,0.1-1.07,0.71-0.97,1.35
	c0.1,0.64,0.71,1.07,1.35,0.97c0.64-0.1,1.07-0.71,0.97-1.35c-0.1-0.64-0.71-1.07-1.35-0.97c-0.25,0.05-0.62,0.25-0.75,0.37
	c-0.46,0.48-0.45,1.24,0.03,1.7c0.48,0.46,1.24,0.45,1.7-0.03c0.46-0.48,0.45-1.24-0.03-1.7c-0.48-0.46-1.24-0.45-1.7,0.03
	c-0.11,0.11-0.25,0.3-0.31,0.4c-0.19,0.35-0.32,0.82-0.4,1.18c-0.41,2.95-0.09,6.99-0.27,10.23c-0.07,1.94-0.07,4.44,0,6.46
	c0.04,0.99,0.13,1.82,0.18,2.66c0.09,2.29,0.24,5.41,0.23,7.84c-0.02,5.62,0,12.72,0.06,18.48c0.05,3.08,0.08,6.05,0.11,8.83
	c0.02,1.9,0.02,4.16-0.13,6.14c-0.07,1.05-0.2,1.85-0.31,2.89c-0.2,1.92-0.34,4.99-0.55,7.59c-0.14,1.84-0.17,3.3-0.22,4.57
	c-0.09,2.98-0.25,5.82-0.36,8.39c-0.11,2.45-0.14,5.77-0.13,8.36c0.02,1.01-0.03,2.06-0.03,3.12c-0.01,0.75,0.03,1.4,0.02,1.83
	c0.06,0.32,0.14,0.41,0.18,0.51c-0.05,0.46-0.13,0.91-0.21,1.17c-0.02,0.11,0.11-0.03,0.41-0.28c0.14-0.07,0.59-0.19,0.87-0.19
	c-0.77-0.08-1.46,0.49-1.54,1.26c-0.08,0.77,0.49,1.46,1.26,1.54c0.77,0.08,1.46-0.49,1.54-1.26c0.08-0.77-0.49-1.46-1.26-1.54
	c0.28,0.06,0.73,0.32,0.86,0.46c-0.51-0.57-1.38-0.63-1.96-0.12c-0.57,0.51-0.63,1.38-0.12,1.96c0.51,0.57,1.38,0.63,1.96,0.12
	c0.57-0.51,0.63-1.38,0.12-1.96c0.14,0.23,0.23,0.49,0.23,0.51c-0.14-0.73-0.84-1.21-1.57-1.08c-0.73,0.14-1.21,0.84-1.08,1.57
	c0.14,0.73,0.84,1.21,1.57,1.08c0.73-0.14,1.21-0.84,1.08-1.57c-0.19,0.01-0.38,0-0.57-0.12c-0.01-0.43-0.38-0.78-0.81-0.76
	c-0.43,0.01-0.78,0.38-0.76,0.81c-0.18,0.18-0.35,0.39-0.51,0.56c0.03,0.18,0.16,0.55,0.35,0.83c0.16,0.17,0.64,0.43,0.94,0.5
	c0.31,0.01,0.78-0.12,0.96-0.22c0.42-0.33,0.69-0.72,0.82-0.97c0.22-0.45,0.45-1.15,0.59-1.75c0.13-0.39,0.2-0.73,0.28-0.93
	c0.03-0.62,0-1.28,0.02-1.9c0.04-0.97,0.14-2.05,0.16-3.18c0.02-2.57,0.06-5.82,0.19-8.19c0.14-2.55,0.33-5.41,0.45-8.45
	c0.04-1.3,0.07-2.66,0.2-4.41c0.19-2.67,0.32-5.71,0.49-7.5c0.09-0.93,0.23-1.81,0.31-3c0.14-2.14,0.11-4.55,0.07-6.47
	c-0.05-2.78-0.11-5.76-0.18-8.84c-0.16-5.73-0.28-12.81-0.36-18.42c-0.04-2.52-0.25-5.71-0.39-7.98c-0.04-0.91-0.12-1.72-0.15-2.62
	c-0.1-1.96-0.14-4.37-0.1-6.24c0-3.46-0.49-7.41-0.27-10.02c0-0.29-0.02-0.42-0.05-0.41c-0.02,0.02-0.11,0.13-0.17,0.2
	c-0.09,0.07-0.4,0.23-0.59,0.28c-0.2,0-0.56-0.08-0.67-0.15c-0.07-0.06-0.18-0.17-0.18-0.19c0.39,0.48,1.1,0.55,1.58,0.15
	C12.01,48.62,12.08,47.92,11.69,47.44z"/>
<path d="M12.05,152.9c-0.12,0.09-0.32,0.23-0.36,0.18c0.41-0.29,0.51-0.85,0.22-1.26c-0.29-0.41-0.85-0.51-1.26-0.22
	c-0.41,0.29-0.51,0.85-0.22,1.26c0.29,0.41,0.85,0.51,1.26,0.22c0.22-0.1,1.36-0.04,2.8,0.14c0.69,0.03,1.27-0.51,1.3-1.2
	c0.03-0.69-0.51-1.27-1.2-1.3c-0.69-0.03-1.27,0.51-1.3,1.2c-0.03,0.69,0.51,1.27,1.2,1.3c0.78,0.07,1.69,0.19,2.95,0.27
	c0.75,0.02,1.38-0.56,1.4-1.31c0.02-0.75-0.56-1.38-1.31-1.4c-0.75-0.02-1.38,0.56-1.4,1.31c-0.02,0.75,0.56,1.38,1.31,1.4
	c1.76,0.08,4.01,0.11,6.11,0.08c2.18-0.05,4.12-0.13,6.2-0.18c2.67-0.05,6.16-0.21,9.63-0.62c5.29-0.63,8.99-0.97,12.93-1.11
	c5.98-0.21,11.8-0.39,17.24-0.47c6.13-0.11,10.02-0.32,12.87-0.24c4.02,0.08,9.36,0.04,16.29-0.2c8-0.3,13.62,0.37,19.22,1.22
	c5.89,0.91,12.53,0.89,17.95,0.91c6.51,0.03,11.41,0.05,16.74-0.53c4.31-0.48,8.95-0.93,14.4-1.39c3.31-0.28,6-0.44,9.2-0.46
	c1.58-0.01,3.01,0,4.59-0.07c0.87-0.03,1.65-0.1,2.42-0.15c0.37-0.03,0.76-0.05,1.11-0.07c0.94-0.05,1.67-0.85,1.62-1.8
	c-0.05-0.94-0.85-1.67-1.8-1.62c-0.94,0.05-1.67,0.85-1.62,1.8c0.05,0.94,0.85,1.67,1.8,1.62c0.21,0.01,0.41,0.01,0.52,0.02
	c0.98-0.15,1.65-1.06,1.51-2.03c-0.15-0.98-1.06-1.65-2.03-1.51c-0.98,0.15-1.65,1.06-1.51,2.03c0.15,0.98,1.06,1.65,2.03,1.51
	c0.1-0.01,0.06-0.01,0.01-0.01c0.99-0.01,1.78-0.82,1.78-1.81c-0.01-0.99-0.82-1.78-1.81-1.78c-0.99,0.01-1.78,0.82-1.78,1.81
	c0.01,0.99,0.82,1.78,1.81,1.78c-0.05-0.36-0.08-0.73,0.75-0.56c0.36,0.25,0.85,0.16,1.1-0.2s0.16-0.85-0.2-1.1
	c-0.57-0.8-1.13-1.37-1.68-1.73c-0.21,0.01-0.42,0.03-0.51,0.05c-0.09,0.04-0.1,0.07-0.17,0.1c-0.32,0.01-0.75,0.03-1.17,0.05
	c-0.79,0.05-1.51,0.11-2.32,0.14c-1.51,0.06-2.88,0.05-4.47,0.06c-3.28,0.02-6.12,0.18-9.47,0.47c-5.47,0.46-10.16,0.91-14.49,1.38
	c-5.13,0.57-9.83,0.54-16.34,0.52c-5.44-0.02-11.84,0.03-17.44-0.84c-5.65-0.9-11.64-1.62-19.87-1.36
	c-6.9,0.24-12.14,0.29-16.11,0.22c-3.01-0.03-6.93,0.22-13.01,0.36c-5.47,0.15-11.32,0.4-17.3,0.67c-4.02,0.18-7.86,0.57-13.18,1.25
	c-3.36,0.44-6.71,0.65-9.33,0.75c-2.1,0.07-4.04,0.16-6.2,0.23c-2.05,0.08-4.23,0.11-5.94,0.08c-1.19,0-2.08-0.05-2.93-0.05
	c-1.56,0.05-3.15,0.27-3.95,0.88c-0.24,0.09-0.57,0.4-0.75,0.68c-0.17,0.59,0.17,1.21,0.76,1.39
	C11.25,153.83,11.87,153.49,12.05,152.9"/>
<path d="M13.85,47.15c1.43-0.08,2.53-0.06,4.64-0.09c0.65-0.02,1.17-0.56,1.15-1.21c-0.02-0.65-0.56-1.17-1.21-1.15
	c-0.65,0.02-1.17,0.56-1.15,1.21c0.02,0.65,0.56,1.17,1.21,1.15c3.38-0.07,9.36-0.44,15-0.48c0.67-0.01,1.22-0.56,1.21-1.23
	c-0.01-0.67-0.56-1.22-1.23-1.21c-0.67,0.01-1.22,0.56-1.21,1.23c0.01,0.67,0.56,1.22,1.23,1.21c7.71-0.05,15.51-0.09,22.19,0.06
	c0.71,0.01,1.29-0.55,1.31-1.26c0.01-0.71-0.55-1.29-1.26-1.31c-0.71-0.01-1.29,0.55-1.31,1.26c-0.01,0.71,0.55,1.29,1.26,1.31
	c5.02,0.12,9.62,0.47,14.9,0.43c2.93-0.03,5.9,0.06,9.82,0.08c3.29,0.02,7.09,0.04,10.64,0.04c8.38-0.02,16.75-0.07,25.65,0.12
	c7.13,0.16,14.72,0.16,21.9,0.18c9.95,0,18.06,0.26,26.25,0.26c5.46,0.01,9.91,0.04,14.38,0.07c2.02,0,3.96-0.02,5.45-0.04
	c0.72-0.01,1.34-0.04,1.86-0.05c0.93-0.03,1.4-0.19,1.01-0.2c0.42,0.12,0.66,0.1,0.54-0.01c-0.07-0.09-0.42-0.5-0.53-0.8
	c0.2,0.72,0.95,1.14,1.67,0.93c0.72-0.2,1.14-0.95,0.93-1.67c-0.2-0.72-0.95-1.14-1.67-0.93c-0.72,0.2-1.14,0.95-0.93,1.67
	c0-0.25,0.08-0.62,0.11-0.64c-0.27,0.63,0.02,1.37,0.65,1.64c0.63,0.27,1.37-0.02,1.64-0.65c0.27-0.63-0.02-1.37-0.65-1.64
	c-0.63-0.27-1.37,0.02-1.64,0.65c0.22-0.17,0.04-0.07-0.4,0.3c-0.51,0.37-0.63,1.09-0.26,1.6c0.37,0.51,1.09,0.63,1.6,0.26
	c0.51-0.37,0.63-1.09,0.26-1.6c-0.37-0.51-1.09-0.63-1.6-0.26c-0.17,0.27-0.33,0.54-0.55,0.81c-0.38,0.22-0.5,0.7-0.28,1.08
	c0.22,0.38,0.7,0.5,1.08,0.28c0.43-0.11,0.81-0.24,1.11-0.31c0.38-0.24,0.93-0.54,1.35-1.16c0.12-0.22,0.22-0.73,0.19-1.09
	c-0.14-0.41-0.56-0.9-0.75-1.04c-0.34-0.22-0.45-0.3-0.35-0.35c-1.07-0.37-1.99-0.2-2.59-0.2c-0.56,0.01-1.16,0.03-1.84,0.05
	c-1.48,0.03-3.39,0.05-5.39,0.05c-4.47,0.02-8.91,0.03-14.39,0.07c-8.14,0.04-16.25-0.19-26.25-0.16
	c-7.18,0.04-14.74,0.09-21.84-0.02c-8.94-0.15-17.34-0.06-25.71,0c-3.55,0.03-7.34,0.04-10.62,0.04c-3.9,0-6.87-0.06-9.86-0.02
	c-5.17,0.09-9.73-0.22-14.81-0.3c-6.71-0.11-14.55-0.03-22.26,0.06c-5.71,0.07-11.72,0.47-15.03,0.56c-2.1,0.07-3.25,0.09-4.74,0.22
	c-0.62,0.04-1.08,0.58-1.04,1.2C12.69,46.73,13.23,47.19,13.85,47.15"/>
<path d="M190.66,47.54c-0.35,2.6-0.45,8.46-0.34,16.06c0.03,0.86,0.75,1.53,1.61,1.5c0.86-0.03,1.53-0.75,1.5-1.61
	c-0.03-0.86-0.75-1.53-1.61-1.5c-0.86,0.03-1.53,0.75-1.5,1.61c0.25,9.11,0.59,16.88,1.13,23.61c0.09,0.95,0.92,1.65,1.88,1.57
	c0.95-0.09,1.65-0.92,1.57-1.88c-0.09-0.95-0.92-1.65-1.88-1.57c-0.95,0.09-1.65,0.92-1.57,1.88c0.46,5.43,0.46,10.78,0.38,16.16
	c-0.01,1,0.79,1.82,1.79,1.83c1,0.01,1.82-0.79,1.83-1.79c0.01-1-0.79-1.82-1.79-1.83c-1-0.01-1.82,0.79-1.83,1.79
	c-0.04,4.58-0.13,7.28-0.67,9.83c-0.22,1.14-0.58,2.22-0.93,3.86c-0.52,2.3-0.85,5.84-1.06,8.46c-0.17,2.27-0.36,3.74-0.56,5.28
	c-0.08,0.63-0.18,1.24-0.27,1.98c-0.06,0.57-0.09,1.19-0.13,1.79c-0.04,0.57-0.07,1.17-0.1,1.84c-0.04,0.86-0.07,1.78-0.11,2.52
	c-0.02,0.4-0.05,0.71-0.09,1.05c-0.16,1.63-0.21,3.52-0.23,4.95c0,0.26-0.03,0.51-0.04,0.84c-0.01,0.51,0.02,1.03,0.03,1.42
	c0.01,0.25,0.02,0.4,0.01,0.49c0.07,0.05,0.18-0.08,0.29-0.17c0.07-0.05,0.26-0.25,0.4-0.34c-0.56,0.49-0.63,1.34-0.14,1.9
	c0.49,0.56,1.34,0.63,1.9,0.14c0.56-0.49,0.63-1.34,0.14-1.9c-0.49-0.56-1.34-0.63-1.9-0.14c0.16-0.07,0.56-0.19,0.74-0.18
	c-0.68,0.04-1.2,0.62-1.17,1.3c0.04,0.68,0.62,1.2,1.3,1.17c0.68-0.04,1.2-0.62,1.17-1.3c-0.04-0.68-0.62-1.2-1.3-1.17
	c0.27,0.1,0.54,0.3,0.49,0.35c-0.43-0.35-1.07-0.29-1.43,0.14c-0.35,0.43-0.29,1.07,0.14,1.43c0.43,0.35,1.07,0.29,1.43-0.14
	c0.35-0.43,0.29-1.07-0.14-1.43c-0.08,0.03-0.18,0.03-0.35-0.06c-0.27-0.34-0.77-0.4-1.11-0.12c-0.34,0.27-0.4,0.77-0.12,1.11
	c0.09,0.23,0.21,0.46,0.3,0.64c0.13,0.2,0.55,0.46,0.93,0.55c0.24,0.01,0.68-0.14,0.88-0.24c0.18-0.13,0.4-0.38,0.5-0.5
	c0.17-0.22,0.31-0.54,0.41-0.72c0.03-0.28,0.03-0.61,0.03-0.89c0-0.42-0.01-0.82,0.02-1.17c0.01-0.26,0.04-0.54,0.06-0.91
	c0.05-1.42,0.11-3.19,0.28-4.67c0.04-0.36,0.08-0.76,0.1-1.23c0.04-0.78,0.07-1.72,0.12-2.54c0.03-0.69,0.06-1.25,0.1-1.76
	c0.05-0.61,0.1-1.16,0.16-1.64c0.08-0.68,0.17-1.27,0.25-1.94c0.2-1.55,0.4-3.13,0.57-5.48c0.19-2.59,0.47-5.93,0.92-7.97
	c0.34-1.48,0.72-2.55,1.02-3.88c0.6-2.86,0.74-5.91,0.79-10.54c0.02-5.41-0.04-10.93-0.56-16.5c-0.66-6.65-1.1-14.33-1.47-23.41
	c-0.4-7.55-0.59-13.31-0.53-15.78c0.05-0.62-0.41-1.16-1.03-1.2C191.25,46.46,190.71,46.92,190.66,47.54z"/>
<path d="M37.54,59.71c0.06-0.01,0.11-0.02,0.17,0.01c0.01,0.52,0.44,0.94,0.97,0.93c0.52-0.01,0.94-0.44,0.93-0.97
	c-0.01-0.52-0.44-0.94-0.97-0.93c-0.52,0.01-0.94,0.44-0.93,0.97c-0.04,0.25-0.11,1-0.14,1.72c0.02,0.6,0.52,1.07,1.11,1.06
	c0.6-0.02,1.07-0.52,1.06-1.11c-0.02-0.6-0.52-1.07-1.11-1.06c-0.6,0.02-1.07,0.52-1.06,1.11c0.02,1.31,0.28,2.44,0.41,3.61
	c0.08,0.63,0.66,1.08,1.3,0.99c0.63-0.08,1.08-0.66,0.99-1.3c-0.08-0.63-0.66-1.08-1.3-0.99c-0.63,0.08-1.08,0.66-0.99,1.3
	c0.14,1.06,0.24,2.42,0.34,3.76c0.12,1.92,0.21,3.15,0.24,4.61c0.07,1.44,0.09,3.13,0.13,4.49c0.03,1.13,0.13,2.03,0.16,3.24
	c0.02,0.74,0.01,1.56,0,2.28c0,0.39,0,0.74,0,1.06c0,0.57,0.01,1.2,0.05,1.85c0.02,0.35,0.06,0.67,0.09,0.97
	c0.02,0.27,0.04,0.54,0.05,0.88c0.01,0.32,0.02,0.67,0.02,0.97c0,0.54-0.02,0.91-0.04,1.35c0,0.36,0,0.74,0,1.18
	c0,0.72,0,1.51,0,2.18c-0.01,1.19-0.08,2.06-0.16,3.31c-0.05,0.82-0.07,1.73-0.11,2.57c-0.02,0.41-0.06,0.81-0.08,1.19
	c-0.03,0.4-0.04,0.71-0.06,1.11c-0.02,0.23-0.05,0.5-0.07,0.79c-0.07,0.96-0.11,2.09-0.13,3.14c-0.01,1.12-0.02,1.98-0.05,2.96
	c-0.02,0.61-0.04,1.3-0.06,1.92c-0.02,1.57,0,2.71,0,4.03c0,0.65,0.01,1.27,0.03,1.9c0.01,0.28,0.02,0.52,0.03,0.77
	c-0.01,0.19-0.02,0.39-0.03,0.62c-0.02,0.33-0.06,0.71-0.08,1.08c-0.01,0.2-0.02,0.38-0.03,0.56c-0.02,0.57-0.02,1.08-0.03,1.68
	c0,0.29-0.01,0.64-0.02,1.01c-0.01,0.43-0.04,0.9-0.05,1.32c-0.01,0.24-0.01,0.46-0.01,0.66c0,0.13,0,0.27,0,0.39
	c-0.01,0.06-0.02,0.13-0.03,0.19c0.01,0.75,0.62,1.35,1.37,1.34c0.75-0.01,1.35-0.62,1.34-1.37c-0.01-0.75-0.62-1.35-1.37-1.34
	s-1.35,0.62-1.34,1.37c0,0.06,0,0.12,0,0.19c0.01,0.75,0.62,1.36,1.37,1.35c0.75,0,1.36-0.62,1.35-1.37c0-0.75-0.62-1.36-1.37-1.35
	c-0.75,0-1.36,0.62-1.35,1.37c0,0.06,0,0.13-0.01,0.19c0,0.75,0.61,1.37,1.36,1.37c0.75,0,1.37-0.61,1.37-1.36
	c0-0.75-0.61-1.37-1.36-1.37c-0.75,0-1.37,0.61-1.37,1.36c0.13,0.07,0.26,0.13,0.38,0.2c-0.01,0.54,0.43,0.99,0.97,0.99
	c0.54,0.01,0.99-0.43,0.99-0.97c0.13-0.07,0.26-0.15,0.39-0.22c0-0.07,0-0.14-0.01-0.21c0-0.07,0-0.14-0.01-0.2
	c-0.01-0.06-0.02-0.13-0.03-0.19c0-0.13,0-0.25-0.01-0.37c0-0.19,0-0.37,0-0.57c0.01-0.39,0.04-0.86,0.05-1.32
	c0.01-0.36,0.03-0.73,0.03-1.05c0.01-0.61,0.01-1.09,0.02-1.63c0.01-0.15,0.01-0.27,0.03-0.44c0.02-0.33,0.07-0.74,0.09-1.13
	c0.01-0.24,0.02-0.48,0.02-0.71c0.01-0.29,0.02-0.56,0.03-0.83c0.01-0.63,0.01-1.24,0.03-1.85c0.04-1.34,0.05-2.46,0.11-3.99
	c0.02-0.61,0.04-1.29,0.06-1.9c0.03-1.01,0.04-1.91,0.05-3.03c0-1.04,0-2.11,0.04-3c0.01-0.26,0.02-0.54,0.03-0.81
	c0.02-0.42,0.02-0.73,0.04-1.1c0.01-0.36,0.03-0.79,0.04-1.25c0.02-0.87,0.02-1.76,0.05-2.52c0.06-1.22,0.13-2.16,0.12-3.44
	c0-0.67,0-1.46,0-2.18c0-0.44,0-0.82,0-1.16c-0.01-0.43-0.01-0.84-0.04-1.41c-0.01-0.31-0.01-0.68-0.03-1.02
	c-0.01-0.34-0.03-0.67-0.06-1c-0.03-0.34-0.07-0.64-0.08-0.92c-0.04-0.59-0.05-1.14-0.05-1.68c0-0.33,0-0.67,0-1.05
	c0.01-0.7,0.02-1.56,0-2.36c-0.04-1.3-0.14-2.21-0.17-3.24c-0.03-1.34-0.04-3.05-0.1-4.53c-0.09-1.52-0.24-2.8-0.42-4.69
	c-0.11-1.33-0.22-2.75-0.38-3.88c-0.2-1.29-0.48-2.29-0.53-3.36c-0.06-0.65-0.08-1.37-0.13-1.7c0.06-0.05,0.11-0.11,0.16-0.17
	c-0.05-0.62-0.6-1.07-1.21-1.02C37.94,58.55,37.48,59.09,37.54,59.71"/>
<path d="M44.14,126.7c-0.01-0.01-0.36-0.11-0.11-2.18c-0.59,0.1-0.99,0.65-0.89,1.24c0.1,0.59,0.65,0.99,1.24,0.89
	c0.59-0.1,0.99-0.65,0.89-1.24c-0.1-0.59-0.65-0.99-1.24-0.89c0.13,0,0.15,0.01,0.15,0.03c-0.57,0.01-1.04,0.47-1.03,1.05
	c0.01,0.57,0.47,1.04,1.05,1.03c0.57-0.01,1.04-0.47,1.03-1.05c-0.01-0.57-0.47-1.04-1.05-1.03c-0.02,0.03-0.05,0.05-0.1,0.08
	c-0.53,0-0.96,0.43-0.96,0.96c0,0.53,0.43,0.96,0.96,0.96c0.53,0,0.96-0.43,0.96-0.96c0-0.53-0.43-0.96-0.96-0.96
	c-0.1,0.05-0.25,0.1-0.4,0.16c-0.29-0.05-0.6-0.07-0.7-0.1c-0.51,0.07-0.88,0.54-0.81,1.05c0.07,0.51,0.54,0.88,1.05,0.81
	c0.51-0.07,0.88-0.54,0.81-1.05c-0.07-0.51-0.54-0.88-1.05-0.81c0.16,1.88,0.33,1.92,0.58,1.94c0.24,0.01,0.58,0.01,0.95,0
	c0.89-0.02,2.15-0.06,4.19-0.12c1.53-0.05,3.42-0.17,5.47-0.3c3.5-0.22,7.47-0.29,11.31-0.31c3.57-0.04,6.89-0.05,10.37-0.04
	c1.34,0,2.7,0,4.09,0c1.37,0,2.77,0,4.25-0.01c1.25,0,2.54,0,3.78,0c2.94,0,5.62,0,8.08,0.02c1.21,0.01,2.37,0.03,3.57,0.03
	c2.26,0.01,4.7-0.05,7.05,0c2.34,0.05,4.58,0.22,6.78,0.3c0.97,0.04,1.92,0.05,2.88,0.06c1.76,0.02,3.6,0,5.35,0.03
	c5.44,0.07,10.16,0.49,15.13,0.67c3.82,0.13,7.76,0.36,11.63,0.45c2.27,0.06,4.52,0.06,6.66,0.06c1.09,0,2.15,0,3.15,0.01
	c2.51,0,4.56,0.06,6.24,0.14c0.81,0.03,1.5,0.07,2.05,0.09c0.25,0.01,0.46,0.02,0.68,0.03c0.26,0.01,0.5,0.01,0.66,0.01
	c0.16-0.01,0.15-0.03-0.01-0.09c-0.05-0.04-0.21-0.15-0.3-0.25c0.43,0.42,1.13,0.41,1.55-0.02c0.42-0.43,0.41-1.13-0.02-1.55
	c-0.43-0.42-1.13-0.41-1.55,0.02c-0.42,0.43-0.41,1.13,0.02,1.55c-0.09-0.12-0.25-0.47-0.27-0.66c0.05,0.58,0.56,1.01,1.14,0.95
	c0.58-0.05,1.01-0.56,0.95-1.14c-0.05-0.58-0.56-1.01-1.14-0.95c-0.58,0.05-1.01,0.56-0.95,1.14c0.06-0.33,0.26-0.67,0.33-0.71
	c-0.38,0.37-0.39,0.98-0.01,1.36c0.37,0.38,0.98,0.39,1.36,0.01c0.38-0.37,0.39-0.98,0.01-1.36c-0.37-0.38-0.98-0.39-1.36-0.01
	c0.08,0.02,0.08,0.09-0.08,0.24c-0.39,0.2-0.54,0.68-0.34,1.06c0.2,0.39,0.68,0.54,1.06,0.34c0.26-0.07,0.52-0.16,0.71-0.26
	c0.13-0.09,0.36-0.49,0.41-0.85c-0.03-0.22-0.19-0.58-0.3-0.72c-0.11-0.11-0.29-0.24-0.37-0.29c-0.3-0.11-0.6-0.15-0.81-0.17
	c-0.2,0-0.43,0-0.65-0.01c-0.18,0-0.39-0.02-0.66-0.03c-0.53-0.02-1.22-0.05-2.03-0.08c-1.7-0.07-3.8-0.14-6.34-0.14
	c-0.99,0-2.06,0-3.15,0.01c-2.15,0-4.36,0-6.6-0.06c-3.84-0.11-7.76-0.34-11.61-0.49c-4.91-0.19-9.66-0.63-15.19-0.72
	c-1.78-0.03-3.62-0.01-5.36-0.03c-0.96-0.01-1.87-0.02-2.81-0.06c-2.15-0.08-4.41-0.25-6.82-0.3c-2.4-0.05-4.86,0.01-7.09,0
	c-1.19-0.01-2.35-0.02-3.56-0.03c-2.47-0.02-5.16-0.03-8.1-0.03c-1.24,0-2.54,0-3.78,0c-1.48,0-2.88,0-4.25-0.01
	c-1.39,0-2.74,0-4.08,0c-3.49,0-6.83,0.03-10.4,0.08c-3.86,0.07-7.89,0.19-11.44,0.46c-2.05,0.16-3.9,0.29-5.4,0.37
	c-2.04,0.11-3.32,0.2-4.21,0.27c-0.33,0.03-0.63,0.04-0.88,0.05c-0.18,0.03-0.35,0.04-0.55,0.07c0.25,1.81,0.47,1.75,0.7,1.71
	c0.15,0.05,0.29,0.11,0.4,0.16c0.05,0.03,0.1,0.05,0.13,0.08c0.01,0.01,0.06,0.03,0.16,0.03c0.28-2.08-0.08-2.17-0.1-2.19
	c-0.62-0.03-1.14,0.45-1.17,1.06C43.05,126.14,43.53,126.67,44.14,126.7"/>
<path d="M41.65,73.25c-0.16,0.19-0.41,0.38-0.51,0.37c0.42-0.28,0.53-0.85,0.24-1.27c-0.28-0.42-0.85-0.53-1.27-0.24
	c-0.42,0.28-0.53,0.85-0.24,1.27c0.28,0.42,0.85,0.53,1.27,0.24c-0.09,0.04-0.07,0.05,0.1,0.03c0.51-0.08,0.85-0.56,0.77-1.06
	c-0.08-0.51-0.56-0.85-1.06-0.77c-0.51,0.08-0.85,0.56-0.77,1.06c0.08,0.51,0.56,0.85,1.06,0.77c1.32-0.2,4.92-0.15,9.33-0.28
	c0.54-0.02,0.96-0.47,0.94-1.01c-0.02-0.54-0.47-0.96-1.01-0.94c-0.54,0.02-0.96,0.47-0.94,1.01c0.02,0.54,0.47,0.96,1.01,0.94
	c4.46-0.14,9.09-0.27,13.87-0.5c2.88-0.14,5.94-0.13,8.79-0.28c2.81-0.15,5.22-0.3,7.68-0.3c2.53-0.01,5.45,0.01,8.35,0
	c4.71-0.03,8.88-0.11,11.97-0.35c0.53-0.04,0.92-0.5,0.88-1.03c-0.04-0.53-0.5-0.92-1.03-0.88c-0.53,0.04-0.92,0.5-0.88,1.03
	c0.04,0.53,0.5,0.92,1.03,0.88c1.83-0.15,3.42-0.12,5.01-0.15c0.52-0.01,0.94-0.43,0.93-0.96c-0.01-0.52-0.43-0.94-0.96-0.93
	c-0.52,0.01-0.94,0.43-0.94,0.96c0.01,0.52,0.43,0.94,0.96,0.93c0.55-0.01,1.07-0.03,1.63-0.05c0.52-0.02,0.93-0.46,0.91-0.98
	c-0.02-0.52-0.46-0.93-0.98-0.91c-0.52,0.02-0.93,0.46-0.91,0.98c0.02,0.52,0.46,0.93,0.98,0.91c2.55-0.15,6.26-0.22,8.12-0.3
	c0.43-0.01,0.78-0.36,0.78-0.8c-0.01-0.43-0.36-0.78-0.8-0.78c-1.85-0.03-5.58-0.06-8.17-0.01c-0.57,0.02-1.06,0.04-1.58,0.05
	c-1.57,0.01-3.22-0.02-5.14,0.13c-3.03,0.23-7.13,0.3-11.83,0.32c-2.89,0.01-5.8-0.01-8.34,0c-2.51,0.01-4.97,0.16-7.77,0.31
	c-2.8,0.15-5.85,0.13-8.78,0.27c-4.76,0.23-9.37,0.36-13.84,0.5c-4.37,0.16-8.02,0.14-9.56,0.39c-0.26,0.05-0.58,0.15-0.83,0.3
	c-0.15,0.03-0.44,0.26-0.61,0.49c-0.18,0.59,0.15,1.22,0.74,1.4C40.84,74.18,41.47,73.84,41.65,73.25"/>
<path d="M42.75,83.57c-0.11,0.34-0.41,0.72-0.53,0.76c0.44-0.31,0.55-0.91,0.24-1.35c-0.31-0.44-0.91-0.55-1.35-0.24
	c-0.44,0.31-0.55,0.91-0.24,1.35c0.31,0.44,0.91,0.55,1.35,0.24c-0.08,0.01-0.18,0.01-0.19-0.02c0.45-0.15,0.7-0.63,0.55-1.09
	c-0.15-0.45-0.63-0.7-1.09-0.55c-0.45,0.15-0.7,0.63-0.55,1.09c0.15,0.45,0.63,0.7,1.09,0.55c0.04,0.03,0.09,0.07,0.21,0.1
	c0.55-0.07,0.93-0.56,0.87-1.11c-0.07-0.55-0.56-0.93-1.11-0.87c-0.55,0.07-0.93,0.56-0.87,1.11c0.07,0.55,0.56,0.93,1.11,0.87
	c0.35-0.04,0.88-0.03,1.66-0.04c0.54,0,1.22-0.02,2.07-0.09c0.9-0.07,1.94-0.23,3.03-0.37c0.9-0.12,1.84-0.24,2.73-0.34
	c1.42-0.15,2.66-0.19,3.97-0.22c2.5-0.04,5.36-0.06,8.24-0.16c1.11-0.04,2.21-0.09,3.24-0.11c1.19-0.03,2.31,0,3.49,0
	c3.47-0.01,7.44-0.38,11.44-0.51c2.13-0.08,4.38-0.14,6.75-0.2c1.59-0.04,3.22-0.07,4.81-0.09c0.82-0.01,1.64,0,2.42,0
	c2.44,0.01,4.27-0.04,5.86,0.01c1.13,0.04,2.24,0.13,3.3,0.21c1.35,0.08,2.42,0.08,3.25,0.08c0.6,0,1.08-0.48,1.09-1.08
	c0-0.6-0.48-1.08-1.08-1.09c-0.6,0-1.08,0.48-1.09,1.08c0,0.6,0.48,1.08,1.08,1.09c1.1-0.01,2.15-0.01,3.15,0.05
	c0.57,0.04,1.06-0.39,1.1-0.96c0.04-0.57-0.39-1.06-0.96-1.1c-0.57-0.04-1.06,0.39-1.1,0.96c-0.04,0.57,0.39,1.06,0.96,1.1
	c0.5,0.03,0.97,0.06,1.43,0.11c0.55,0.07,1.06-0.32,1.13-0.88c0.07-0.55-0.32-1.06-0.88-1.13c-0.55-0.07-1.06,0.32-1.13,0.88
	s0.32,1.06,0.88,1.13c0.39-0.03,0.76-0.04,1.13-0.05c0.43,0.08,0.84-0.2,0.92-0.63c0.08-0.43-0.2-0.84-0.63-0.92
	c-0.37-0.15-0.78-0.28-1.18-0.41c-0.49-0.07-1.02-0.13-1.54-0.17c-1.04-0.09-2.16-0.13-3.28-0.15c-0.83,0-1.82,0-3.12-0.09
	c-1.04-0.06-2.18-0.14-3.38-0.17c-1.65-0.04-3.5,0.01-5.91,0.01c-0.77,0-1.6-0.01-2.43,0c-1.61,0.01-3.25,0.03-4.85,0.07
	c-2.38,0.06-4.64,0.12-6.77,0.19c-4.06,0.15-8,0.53-11.37,0.54c-1.15,0-2.29-0.03-3.53,0c-1.06,0.02-2.17,0.07-3.28,0.11
	c-2.85,0.1-5.69,0.12-8.2,0.16c-1.33,0.02-2.66,0.07-4.15,0.23c-0.91,0.09-1.89,0.21-2.8,0.33c-1.11,0.16-2.11,0.33-2.94,0.41
	c-0.8,0.08-1.4,0.12-1.92,0.14c-0.74,0.02-1.35,0-1.87,0.06c-0.17,0.07-0.36,0.15-0.5,0.24c-0.1-0.01-0.26,0.03-0.39,0.07
	c-0.17,0.07-0.49,0.48-0.6,0.86c0.01,0.62,0.51,1.11,1.13,1.11C42.26,84.69,42.76,84.19,42.75,83.57"/>
<path d="M117.45,71.67c-0.08,0.03-0.17,0.01-0.27-0.07c-0.1-0.47-0.56-0.77-1.03-0.67c-0.47,0.1-0.77,0.56-0.67,1.03
	c0.1,0.47,0.56,0.77,1.03,0.67c0.47-0.1,0.77-0.56,0.67-1.03c0-0.05,0.01-0.11,0.01-0.17c-0.12-0.49-0.62-0.78-1.1-0.66
	c-0.49,0.12-0.78,0.62-0.66,1.1c0.12,0.49,0.62,0.78,1.1,0.66c0.49-0.12,0.78-0.62,0.66-1.1c-0.01-0.07-0.07-0.21-0.11-0.31
	c-0.28-0.43-0.85-0.55-1.28-0.27c-0.43,0.28-0.55,0.85-0.27,1.28s0.85,0.55,1.28,0.27c0.43-0.28,0.55-0.85,0.27-1.28
	c-0.08-0.12-0.37-0.35-0.59-0.43c-0.24-0.03-0.64,0.07-0.78,0.14c-0.11,0.08-0.23,0.2-0.28,0.26c-0.13,0.17-0.24,0.42-0.3,0.6
	c-0.05,0.23-0.08,0.5-0.1,0.72c-0.04,0.6,0.41,1.12,1.01,1.16c0.6,0.04,1.12-0.41,1.16-1.01c0.04-0.6-0.41-1.12-1.01-1.16
	s-1.12,0.41-1.16,1.01c-0.1,1.44,0.18,3.69,0.18,5.7c0,0.61,0.5,1.1,1.11,1.1c0.61,0,1.1-0.5,1.1-1.11s-0.5-1.1-1.11-1.1
	c-0.61,0-1.1,0.5-1.1,1.11c0.01,1.82-0.23,3.4-0.24,4.36c0,0.62,0.49,1.12,1.11,1.12c0.62,0,1.12-0.49,1.12-1.11
	c0-0.62-0.49-1.12-1.11-1.12c-0.62,0-1.12,0.49-1.12,1.11c0.04,0.29,0.12,0.65,0.26,0.92c0.2,0.51,0.77,0.75,1.28,0.55
	c0.51-0.2,0.75-0.77,0.55-1.28c0.05,0.04,0.09,0.02,0.14-0.18c0-0.77,0.22-2.42,0.21-4.39c-0.02-2.15-0.31-4.37-0.22-5.53
	c0.01-0.23,0.01-0.4,0.02-0.51c-0.02-0.05-0.07,0.03-0.15,0.13c-0.04,0.04-0.15,0.15-0.24,0.22c-0.13,0.07-0.52,0.16-0.75,0.13
	c-0.2-0.08-0.48-0.31-0.55-0.41c-0.04-0.08-0.08-0.21-0.09-0.25c0.02,0.02,0.04,0.04,0.07,0.09c-0.06,0.12-0.1,0.31-0.12,0.51
	c0.22,0.58,0.87,0.87,1.44,0.65C117.38,72.89,117.67,72.24,117.45,71.67z"/>
<path d="M116.46,76.8c0.03,0.03,0.19,0.17,0.3,0.32c-0.34-0.5-1.01-0.63-1.52-0.3c-0.5,0.34-0.63,1.01-0.3,1.52
	c0.34,0.5,1.01,0.63,1.52,0.3c0.5-0.34,0.63-1.01,0.3-1.52c0.06,0.11,0.15,0.41,0.16,0.59c0-0.6-0.48-1.08-1.08-1.08
	c-0.6,0-1.08,0.48-1.08,1.08c0,0.6,0.48,1.08,1.08,1.08c0.6,0,1.08-0.48,1.08-1.08c-0.02,0.18-0.14,0.5-0.21,0.61
	c0.35-0.47,0.25-1.14-0.22-1.49c-0.47-0.35-1.14-0.25-1.49,0.22c-0.35,0.47-0.25,1.14,0.22,1.49c0.47,0.35,1.14,0.25,1.49-0.22
	c-0.23,0.2-0.5,0.33-0.46,0.33c0.05,0,0.16,0,0.34-0.01c0.43-0.04,1.09-0.06,2.02-0.07c0.8,0,1.74-0.03,2.79-0.05
	c0.83-0.02,1.72-0.05,2.63-0.08c0.96-0.03,1.94-0.06,2.83-0.09c1.31-0.05,2.4-0.06,3.44-0.06c1.78-0.03,3.47-0.03,4.79-0.02
	c1.15-0.02,2.02-0.04,2.39-0.08c0.08-0.01,0.15-0.02,0.2-0.04c0.03-0.01,0.11-0.02,0.27-0.05c0.53-0.14,0.85-0.68,0.7-1.21
	c-0.14-0.53-0.68-0.85-1.21-0.7c-0.53,0.14-0.85,0.68-0.7,1.21c0.14,0.53,0.68,0.85,1.21,0.7c0.23-0.1,0.24-1.82,0.06-1.89
	c-0.51-0.18-1.07,0.1-1.25,0.61c-0.18,0.51,0.1,1.07,0.61,1.25c0.51,0.18,1.07-0.1,1.25-0.61c0.18-0.51-0.1-1.07-0.61-1.25
	c-0.1-0.03-0.17-0.04-0.2-0.04c-0.53-0.07-1.02,0.3-1.09,0.83c-0.07,0.53,0.3,1.02,0.83,1.09c0.53,0.07,1.02-0.3,1.09-0.83
	c0.07-0.53-0.3-1.02-0.83-1.09c-0.04,0.06-0.1,0.11-0.14,0.17c-0.43-0.03-0.81,0.29-0.85,0.72c-0.03,0.43,0.29,0.81,0.72,0.85
	c0.03,0.06,0.03,0.13,0.01,0.19c-0.01,0-0.08-0.01-0.15-0.02c-0.2-0.08-0.19-1.8,0.05-1.9c0.13-0.03,0.2-0.04,0.19-0.05
	c-0.01-0.01-0.05-0.03-0.13-0.04c-0.36-0.05-1.22-0.12-2.38-0.18c-1.33-0.05-3.05-0.09-4.85-0.1c-1.04,0-2.17,0.01-3.51,0.06
	c-0.9,0.04-1.89,0.09-2.85,0.13c-0.91,0.05-1.8,0.1-2.62,0.15c-1.07,0.07-1.99,0.14-2.74,0.18c-0.96,0.03-1.71,0.08-2.22,0.15
	c-0.06,0.01-0.19,0.02-0.37,0.04c-0.19,0.03-0.65,0.21-0.97,0.54c-0.08,0.12-0.21,0.45-0.23,0.65c0.01,0.2,0.11,0.51,0.18,0.64
	c0.13,0.18,0.35,0.37,0.46,0.44c0.55,0.29,1.22,0.08,1.51-0.46C117.21,77.77,117,77.09,116.46,76.8"/>
<path d="M138.68,75.68c-0.06-0.06-0.11-0.13-0.17-0.23c-0.01-0.53-0.45-0.95-0.98-0.94c-0.53,0.01-0.95,0.45-0.94,0.98
	c0.01,0.53,0.45,0.95,0.98,0.94c0.53-0.01,0.95-0.45,0.94-0.98c0-0.21,0.01-0.42,0.05-0.56c0.09-0.53-0.27-1.04-0.8-1.13
	c-0.53-0.09-1.04,0.27-1.13,0.8c-0.09,0.53,0.27,1.04,0.8,1.13c0.53,0.09,1.04-0.27,1.13-0.8c-0.01,0.08-0.15,0.34-0.34,0.52
	c0.53-0.26,0.76-0.9,0.5-1.43c-0.26-0.53-0.9-0.76-1.43-0.5c-0.53,0.26-0.76,0.9-0.5,1.43c0.26,0.53,0.9,0.76,1.43,0.5
	c-0.24,0.09-0.91,0-1.14-0.14c-0.13-0.14-0.26-0.35-0.29-0.38c0.01-0.1-0.06,0.2-0.08,0.67c0.02,0.99,0.3,1.89,0.35,2.61
	c0.03,0.29,0.02,0.57,0.01,0.88c0,0.23,0,0.49,0.01,0.72c0.03,0.65,0.59,1.15,1.24,1.12c0.65-0.03,1.15-0.59,1.12-1.24
	c-0.03-0.65-0.59-1.15-1.24-1.12c-0.65,0.03-1.15,0.59-1.12,1.24c0.02,0.16,0.07,0.38,0.12,0.55c0.15,0.61,0.76,0.98,1.37,0.83
	c0.61-0.15,0.98-0.76,0.83-1.37c-0.15-0.61-0.76-0.98-1.37-0.83c-0.61,0.15-0.98,0.76-0.83,1.37c0.07,0.17,0.22,0.47,0.37,0.65
	c0.37,0.46,1.05,0.53,1.51,0.16c0.46-0.37,0.53-1.05,0.16-1.51c-0.37-0.46-1.05-0.53-1.51-0.16c-0.46,0.37-0.53,1.05-0.16,1.51
	c0.15,0.03,0.36,0.09,0.5,0.07c0.37,0.23,0.86,0.12,1.09-0.25c0.23-0.37,0.12-0.86-0.25-1.09c0.08-0.06,0.23-0.05,0.33-0.08
	c0.06,0.06,0.14,0.19,0.16,0.17c0.01-0.02,0.03-0.03,0.04-0.13c0-0.14,0-0.32,0.01-0.56c0.01-0.32,0.01-0.72-0.02-1.13
	c-0.1-1-0.37-1.82-0.36-2.42c-0.02-0.28,0.04-0.75-0.08-1.27c-0.06-0.15-0.23-0.44-0.41-0.63c-0.28-0.19-1.01-0.28-1.3-0.17
	c-0.3,0.23-0.6,0.7-0.67,1.08c-0.04,0.3-0.05,0.67-0.04,0.93c-0.05,0.13-0.1,0.27-0.14,0.38c0.05,0.62,0.59,1.08,1.21,1.03
	S138.73,76.3,138.68,75.68"/>
<path d="M40.78,95.94c0.07-0.05,0.16-0.1,0.25-0.14c0.54-0.02,0.96-0.48,0.94-1.03c-0.02-0.54-0.48-0.96-1.03-0.94
	c-0.54,0.02-0.96,0.48-0.94,1.03c0.02,0.54,0.48,0.96,1.03,0.94c0.04-0.04,0.09-0.08,0.14-0.13c0.48-0.02,0.84-0.43,0.82-0.9
	c-0.02-0.48-0.43-0.84-0.9-0.82c-0.48,0.02-0.84,0.43-0.82,0.9c0.02,0.48,0.43,0.84,0.9,0.82c0.95-0.02,2.68-0.12,4.87-0.27
	c0.52-0.04,0.9-0.5,0.86-1.01c-0.04-0.52-0.5-0.9-1.01-0.86c-0.52,0.04-0.9,0.5-0.86,1.01c0.04,0.52,0.5,0.9,1.01,0.86
	c1.98-0.15,4.05-0.33,6.21-0.47c1.25-0.08,2.64-0.09,4.28-0.16c2.19-0.08,4.97-0.43,8.09-0.81c2.61-0.32,5.32-0.55,8.05-0.7
	c2.71-0.16,5.48-0.34,8.49-0.47c1.4-0.06,2.85-0.1,4.23-0.12c2.13-0.04,4.05-0.04,6.05-0.03c4.31,0.02,8.87,0.06,12.91,0.11
	c2.37,0.02,4.63,0.05,6.79,0.14c1.03,0.05,2.04,0.12,3.13,0.19c1.58,0.1,3.35,0.16,5.13,0.19c1.53,0.02,3.06,0,4.49-0.01
	c1.85-0.01,3.59,0.02,5.49,0.02c2.73,0.01,5.88,0,8.7-0.05c4.29-0.07,7.58-0.25,10.52-0.39c1.19-0.06,2.24-0.1,3.25-0.13
	c0.56-0.02,0.99-0.49,0.97-1.04c-0.02-0.56-0.49-0.99-1.04-0.97c-0.56,0.02-0.99,0.49-0.97,1.04c0.02,0.56,0.49,0.99,1.04,0.97
	c1.35-0.06,2.8-0.12,3.96-0.22c0.54-0.04,0.95-0.52,0.9-1.06c-0.04-0.54-0.52-0.95-1.06-0.9c-0.54,0.04-0.95,0.52-0.9,1.06
	c0.04,0.54,0.52,0.95,1.06,0.9c0.87-0.08,1.58-0.16,2.17-0.36c0.5-0.17,0.77-0.71,0.6-1.21c-0.17-0.5-0.71-0.77-1.21-0.6
	c-0.5,0.17-0.77,0.71-0.6,1.21c0.17,0.5,0.71,0.77,1.21,0.6c0.24-0.14,0.5-0.33,0.69-0.53c0.36-0.25,0.44-0.74,0.19-1.1
	c-0.25-0.36-0.74-0.44-1.1-0.19c-0.14,0.03-0.23,0.01-0.4,0.01c-0.36,0.12-0.86,0.15-1.72,0.21c-1.12,0.08-2.53,0.13-3.88,0.17
	c-1.01,0.04-2.07,0.08-3.27,0.14c-2.95,0.16-6.2,0.35-10.46,0.44c-2.8,0.06-5.94,0.07-8.65,0.06c-1.89-0.01-3.63-0.04-5.5-0.04
	c-1.44,0-2.95,0.02-4.45-0.01c-1.76-0.03-3.48-0.09-5.04-0.19c-1.07-0.07-2.1-0.15-3.16-0.2c-2.19-0.11-4.48-0.16-6.86-0.2
	c-4.04-0.05-8.61-0.09-12.92-0.12c-2-0.01-3.95-0.01-6.1,0.04c-1.4,0.03-2.87,0.08-4.28,0.15c-3.02,0.13-5.81,0.31-8.51,0.47
	c-2.76,0.16-5.53,0.4-8.18,0.73c-3.13,0.4-5.83,0.77-7.92,0.86c-1.61,0.07-3.03,0.08-4.34,0.17c-2.18,0.16-4.25,0.36-6.22,0.53
	c-2.17,0.2-3.88,0.35-4.8,0.42c-0.05-0.04-0.1-0.08-0.14-0.11c-0.09-0.04-0.16-0.08-0.23-0.13c-0.62,0.02-1.1,0.53-1.09,1.15
	S40.16,95.96,40.78,95.94z"/>
<path d="M159.29,91.58c0.03-0.17,0.03-0.54-0.04-0.8c-0.19-0.57-0.81-0.87-1.38-0.68c-0.57,0.19-0.87,0.81-0.68,1.38
	c0.19,0.57,0.81,0.87,1.38,0.68c0.57-0.19,0.87-0.81,0.68-1.38c-0.07-0.16-0.3-0.45-0.47-0.58c-0.49-0.32-1.16-0.18-1.48,0.31
	c-0.32,0.49-0.18,1.16,0.31,1.48s1.16,0.18,1.48-0.31c0.32-0.49,0.18-1.16-0.31-1.48c-0.18-0.09-0.52-0.17-0.67-0.17
	c-0.58,0.02-1.03,0.51-1.01,1.09c0.02,0.58,0.51,1.03,1.09,1.01c0.58-0.02,1.03-0.51,1.01-1.09c-0.02-0.58-0.51-1.03-1.09-1.01
	c-0.42,0.1-0.8,0.38-0.96,0.6c-0.34,0.46-0.48,1.03-0.58,1.35c-0.14,0.55-0.17,1.06-0.18,1.56c-0.02,0.85-0.14,2.06-0.22,3.09
	c-0.05,0.63-0.05,1.2-0.05,1.67c0,0.59,0.47,1.07,1.06,1.07c0.59,0,1.07-0.47,1.07-1.06c0-0.59-0.47-1.07-1.06-1.07
	c-0.59,0-1.07,0.47-1.07,1.06c0,0.27-0.01,0.48-0.03,0.68c-0.04,0.59,0.4,1.1,0.99,1.15c0.59,0.04,1.1-0.4,1.15-0.99
	c0.04-0.59-0.4-1.1-0.99-1.15c-0.59-0.04-1.1,0.4-1.15,0.99c-0.01,0.15-0.02,0.24-0.04,0.34c-0.13,0.58,0.24,1.15,0.82,1.27
	c0.58,0.13,1.15-0.24,1.27-0.82c0.13-0.58-0.24-1.15-0.82-1.27c-0.58-0.13-1.15,0.24-1.27,0.82c0.06,0.16,0.14,0.22,0.17,0.35
	c-0.23,0.37-0.12,0.85,0.25,1.09c0.37,0.23,0.85,0.12,1.09-0.25c0.22-0.19,0.43-0.49,0.58-0.73c0.04-0.2,0.07-0.44,0.09-0.64
	c0.02-0.27,0.02-0.56,0.02-0.83c0-0.48-0.01-0.97,0.03-1.51c0.08-1.01,0.2-2.27,0.22-3.21c0.01-0.48,0-0.74,0.1-1.1
	c0.08-0.39,0.09-0.65,0.08-0.59c0.03-0.01-0.17,0.14-0.46,0.24c-0.12,0-0.43-0.07-0.59-0.15c-0.14-0.11-0.35-0.38-0.41-0.51
	c-0.05-0.2-0.05-0.48-0.06-0.52c-0.17,0.59,0.17,1.21,0.77,1.39C158.5,92.52,159.12,92.18,159.29,91.58"/>
<path d="M41.21,102.58c-0.06,0-0.05,0.01-0.04,0.02c-0.59-0.14-1.18,0.22-1.32,0.81c-0.14,0.59,0.22,1.18,0.81,1.32
	c0.59,0.14,1.18-0.22,1.32-0.81c0.14-0.59-0.22-1.18-0.81-1.32c0.02,0.01,0.12,0.05,0.19,0.08c-0.53-0.27-1.18-0.06-1.46,0.47
	c-0.27,0.53-0.06,1.18,0.47,1.46c0.53,0.27,1.18,0.06,1.46-0.47c0.27-0.53,0.06-1.18-0.47-1.46c0.1,0.06,0.39,0.36,0.52,0.66
	c-0.16-0.57-0.75-0.9-1.32-0.74c-0.57,0.16-0.9,0.75-0.74,1.32c0.16,0.57,0.75,0.9,1.32,0.74c0.57-0.16,0.9-0.75,0.74-1.32
	c0.03,0.38-0.19,0.93-0.31,1.05c-0.1,0.07-0.23,0.15-0.27,0.16c-0.05,0.01-0.1,0.01-0.07,0c0.01-0.01,0.31,0.01,0.72,0
	c0.97-0.01,2.15-0.18,3.79-0.3c2.3-0.19,5.43-0.21,8.59-0.31c1.29-0.04,2.58-0.13,3.79-0.17c1.38-0.04,2.61-0.05,3.88-0.01
	c2.62,0.07,5.7,0.24,8.94,0.26c4.48,0.03,9.56,0.11,14.94,0.14c4.29,0.03,8.22-0.07,11.78-0.1c1.77-0.03,3.45-0.03,5.07-0.04
	c2.77-0.01,5.34,0,8.37-0.11c1.08-0.04,2.2-0.09,3.38-0.14c1.19-0.05,2.47-0.09,3.85-0.15c2.27-0.09,4.79-0.19,7.07-0.25
	c1.13-0.02,2.2-0.03,3.18-0.03c2.58-0.02,4.43-0.02,6.29-0.01c1.9-0.01,3.67-0.02,5.5-0.02c2.94-0.02,6.34-0.26,9.27-0.48
	c0.59-0.04,1.04-0.55,1-1.14c-0.04-0.59-0.55-1.04-1.14-1c-0.59,0.04-1.04,0.55-1,1.14c0.04,0.59,0.55,1.04,1.14,1
	c1.03-0.08,2.04-0.14,2.9-0.19c0.58-0.03,1.03-0.53,0.99-1.11c-0.03-0.58-0.53-1.03-1.11-0.99c-0.58,0.03-1.03,0.53-0.99,1.11
	c0.03,0.58,0.53,1.03,1.11,0.99c0.96-0.04,1.7-0.07,2.23-0.08c0.6-0.02,1.06-0.53,1.04-1.13c-0.02-0.6-0.53-1.06-1.13-1.04
	c-0.6,0.02-1.06,0.53-1.04,1.13c0.02,0.6,0.53,1.06,1.13,1.04c0.68-0.13,0.92-0.23,1.79-0.32c0.44,0,0.79-0.35,0.79-0.78
	c0-0.44-0.35-0.79-0.78-0.79c-0.88-0.1-1.18-0.2-1.89-0.27c-0.54,0.03-1.29,0.08-2.25,0.14c-0.86,0.04-1.89,0.08-2.94,0.15
	c-2.92,0.17-6.26,0.36-9.12,0.34c-1.83-0.01-3.6-0.01-5.49-0.02c-1.86,0.01-3.73,0.02-6.32,0.06c-0.97,0.02-2.06,0.03-3.22,0.07
	c-2.28,0.06-4.82,0.16-7.09,0.24c-1.38,0.05-2.66,0.09-3.87,0.14c-1.19,0.05-2.3,0.1-3.36,0.13c-2.99,0.09-5.53,0.07-8.3,0.06
	c-1.61,0-3.31-0.01-5.1,0.01c-3.58,0.07-7.49,0.22-11.74,0.22c-5.37-0.01-10.45-0.07-14.94-0.08c-3.19-0.01-6.24-0.17-8.9-0.24
	c-1.3-0.03-2.6-0.01-4.01,0.05c-1.24,0.04-2.52,0.13-3.78,0.17c-3.14,0.1-6.31,0.11-8.7,0.3c-1.7,0.15-2.84,0.34-3.65,0.36
	c-0.34,0.01-0.75-0.01-1.11,0.06c-0.09,0.01-0.23,0.04-0.33,0.08c-0.06,0.02-0.22,0.11-0.33,0.2c-0.13,0.14-0.36,0.69-0.33,1.09
	c0.13,0.31,0.44,0.62,0.56,0.7c0.09,0.05,0.23,0.1,0.29,0.12c0.1,0.03,0.25,0.06,0.37,0.08c0.62,0.05,1.15-0.41,1.2-1.03
	C42.29,103.17,41.83,102.63,41.21,102.58"/>
<path d="M156.81,97.68c0.53,0.02,1.16-0.01,1.83-0.04c0.62-0.03,1.09-0.55,1.06-1.17c-0.03-0.62-0.55-1.09-1.17-1.06
	c-0.62,0.03-1.09,0.55-1.06,1.17c0.03,0.62,0.55,1.09,1.17,1.06c0.27-0.07,0.54-0.13,0.83-0.2c0.53-0.02,0.94-0.46,0.92-0.99
	c-0.02-0.53-0.46-0.94-0.99-0.92c-0.53,0.02-0.94,0.46-0.92,0.99c0.02,0.53,0.46,0.94,0.99,0.92c0.55,0.01,1.15,0.05,1.88,0.08
	c0.57,0.01,1.05-0.45,1.06-1.03c0.01-0.57-0.45-1.05-1.03-1.06c-0.57-0.01-1.05,0.45-1.06,1.03c-0.01,0.57,0.45,1.05,1.03,1.06
	c0.96,0.04,2.06,0.09,3.18,0.16c1.53,0.07,3.04,0.16,4.44,0.26c0.59,0.03,1.16,0.07,1.7,0.11c1.04,0.05,1.91,0.07,2.55,0.09
	c0.4,0.01,0.73,0,0.98,0c0.31-0.01,0.59-0.03,0.76-0.06c0.53-0.03,0.94-0.48,0.91-1.01c-0.03-0.53-0.48-0.94-1.01-0.91
	c-0.53,0.03-0.94,0.48-0.91,1.01c0.03,0.53,0.48,0.94,1.01,0.91c0.04-1.85-0.01-1.81-0.13-1.76c-0.43-0.06-0.83,0.23-0.89,0.66
	c-0.06,0.43,0.23,0.83,0.66,0.89c0.43,0.06,0.83-0.23,0.89-0.66c0.06-0.43-0.23-0.83-0.66-0.89c0.02,1.58,0.22,1.54,0.27,1.53
	c0.43-0.08,0.71-0.49,0.64-0.91c-0.08-0.43-0.49-0.71-0.91-0.64c-0.43,0.08-0.71,0.49-0.64,0.91c0.08,0.43,0.49,0.71,0.91,0.64
	c0.56-1.15,0.57-1.12,0.56-1.13c-0.19-0.39-0.66-0.56-1.05-0.37c-0.39,0.19-0.56,0.66-0.37,1.05c0.19,0.39,0.66,0.56,1.05,0.37
	c0.39-0.19,0.56-0.66,0.37-1.05c0-0.01-0.01-0.02-0.02-0.04c-0.19-0.39-0.66-0.55-1.05-0.36c-0.39,0.19-0.55,0.66-0.36,1.05
	c0.19,0.39,0.66,0.55,1.05,0.36c0.39-0.19,0.55-0.66,0.36-1.05c-0.02-0.03-0.04-0.09-0.08-0.15c-0.2-0.39-0.68-0.53-1.06-0.33
	s-0.53,0.68-0.33,1.06c0.2,0.39,0.68,0.53,1.06,0.33s0.53-0.68,0.33-1.06c-0.06-0.12-0.17-0.31-0.3-0.51
	c-0.23-0.37-0.72-0.48-1.09-0.24c-0.37,0.23-0.48,0.72-0.24,1.09c0.11,0.17,0.18,0.3,0.23,0.4c0.03,0.05,0.04,0.08,0.06,0.11
	c0.01,0.01,0.01,0.02,0.02,0.03c0,0.01,0.02,0.04,0.93,0.43c-0.47-1.51-0.44-1.51-0.34-1.51c-0.16,1.63-0.06,1.7,0.13,1.76
	c-0.12-1.94-0.35-1.99-0.66-2.03c-0.25-0.03-0.57-0.06-0.96-0.1c-0.66-0.06-1.51-0.11-2.52-0.2c-0.54-0.04-1.12-0.08-1.72-0.11
	c-1.41-0.07-2.95-0.14-4.5-0.19c-1.14-0.01-2.26-0.01-3.23,0c-0.72,0.02-1.38,0.03-1.98,0.08c-0.3-0.04-0.6-0.08-0.87-0.12
	c-0.67,0.03-1.2,0.06-1.62,0.04c-0.62-0.03-1.14,0.45-1.17,1.07C155.71,97.13,156.19,97.65,156.81,97.68"/>
<path d="M175.32,97c0.08-0.13,0.2-0.33,0.22-0.45c0.3-0.44,0.19-1.03-0.25-1.33c-0.44-0.3-1.03-0.19-1.33,0.25
	c-0.3,0.44-0.19,1.03,0.25,1.33c0.44,0.3,1.03,0.19,1.33-0.25c0.02-0.11,0.05-0.25,0.05-0.34c0.18-0.43-0.03-0.92-0.45-1.1
	c-0.43-0.18-0.92,0.03-1.1,0.45c-0.18,0.43,0.03,0.92,0.45,1.1c0.43,0.18,0.92-0.03,1.1-0.45c0.08-0.14,0.16-0.33,0.21-0.48
	c0.09-0.5-0.23-0.97-0.73-1.06c-0.5-0.09-0.97,0.23-1.06,0.73c-0.09,0.5,0.23,0.97,0.73,1.06c0.5,0.09,0.97-0.23,1.06-0.73
	c0.12-0.34,0.22-0.77,0.28-1.02c0.02-0.03,0.04-0.08,0.06-0.17c0-0.63-0.52-1.15-1.15-1.15c-0.63,0-1.15,0.52-1.15,1.15
	c0,0.63,0.52,1.15,1.15,1.15c0.63,0,1.15-0.52,1.15-1.15c-2.3-0.14-2.43,0.45-2.32,1.12c0.15,0.51,0.38,0.85,0.45,1.05
	c0.22,0.47,0.24,1.17,0.31,1.92c0.07,0.7,0.69,1.22,1.4,1.15c0.7-0.07,1.22-0.69,1.15-1.4c-0.07-0.7-0.69-1.22-1.4-1.15
	c-0.7,0.07-1.22,0.69-1.15,1.4c0.03,0.32,0.07,0.57,0.08,0.78c0.03,0.7,0.62,1.25,1.32,1.22c0.7-0.03,1.25-0.62,1.22-1.32
	s-0.62-1.25-1.32-1.22c-0.7,0.03-1.25,0.62-1.22,1.32c0,0.14,0,0.18-0.02,0.25c-0.11,0.7,0.36,1.35,1.06,1.47
	c0.7,0.11,1.35-0.36,1.47-1.06c0.11-0.7-0.36-1.35-1.06-1.47c-0.7-0.11-1.35,0.36-1.47,1.06c0.15,0.24,0.35,0.26,0.11,0.57
	c-0.37,0.22-0.49,0.71-0.27,1.08c0.22,0.37,0.71,0.49,1.08,0.27c0.73-0.27,1.33-0.94,1.6-1.51c0.03-0.25,0.04-0.54,0.03-0.76
	c-0.01-0.32-0.05-0.65-0.07-0.93c-0.08-0.72-0.19-1.78-0.58-2.68c-0.2-0.42-0.36-0.62-0.33-0.61c-0.1-0.19-0.07-0.26-0.07-0.55
	c-2.28,0.03-2.27,0.14-2.24,0.27c0.07,0.06,0.11,0.33,0.12,0.59c0.01,0.1,0.03,0.13,0.03,0.17c-0.04,0-0.05-0.06-0.08-0.1
	c-0.02-0.05,0.04-0.2,0.07-0.29c-0.5,0.36-0.62,1.06-0.26,1.56C174.12,97.24,174.81,97.36,175.32,97z"/>
<path d="M40.46,125.21c0.16,0.12,0.4,0.58,0.46,0.84c0.05-0.69-0.47-1.29-1.16-1.35c-0.69-0.05-1.29,0.47-1.35,1.16
	c-0.05,0.69,0.47,1.29,1.16,1.35c0.69,0.05,1.29-0.47,1.35-1.16c0.01,0.24-0.1,0.59-0.12,0.71c0.49-0.6,0.39-1.49-0.21-1.98
	c-0.6-0.49-1.49-0.39-1.98,0.21c-0.49,0.6-0.39,1.49,0.21,1.98c0.6,0.49,1.49,0.39,1.98-0.21c0,0.1-0.06,0.24-0.03,0.31
	c0.71-0.53,0.86-1.54,0.32-2.25c-0.53-0.71-1.54-0.86-2.25-0.32c-0.71,0.53-0.86,1.54-0.32,2.25c0.53,0.71,1.54,0.86,2.25,0.32
	c0,0.01,0,0.02,0.11-0.03c0.12-0.04,0.25-0.08,0.43-0.13c0.19-0.06,0.37-0.11,0.59-0.17c0.23-0.06,0.44-0.11,0.68-0.16
	c0.12-0.02,0.23-0.04,0.36-0.06c0.12-0.02,0.23-0.03,0.35-0.04c0.95-0.14,1.62-1.03,1.48-1.98c-0.14-0.95-1.03-1.62-1.98-1.48
	c-0.96,0.14-1.62,1.03-1.48,1.98c0.14,0.95,1.03,1.62,1.98,1.48c0.24-0.07,0.43-0.13,0.65-0.18c0.9-0.05,1.6-0.82,1.55-1.73
	c-0.05-0.9-0.82-1.6-1.73-1.55c-0.9,0.05-1.6,0.82-1.55,1.73c0.05,0.9,0.82,1.6,1.73,1.55c0.43-0.17,0.7-0.31,0.95-0.38
	c0.63,0.19,1.3-0.17,1.49-0.8c0.19-0.63-0.17-1.3-0.8-1.49c-0.63-0.19-1.3,0.17-1.49,0.8s0.17,1.3,0.8,1.49
	c0.15-0.1,0.21-0.22,0.33-0.29c0.34,0.27,0.83,0.22,1.11-0.12c0.27-0.34,0.22-0.83-0.12-1.11c-0.13-0.27-0.4-0.56-0.63-0.77
	c-0.5-0.3-1.21-0.49-1.82-0.61c-0.31-0.02-0.66-0.02-0.97-0.01c-0.15,0.03-0.32,0.06-0.47,0.1c-0.15,0.03-0.31,0.07-0.46,0.11
	c-0.3,0.07-0.61,0.15-0.88,0.23c-0.27,0.09-0.56,0.19-0.8,0.28c-0.24,0.1-0.49,0.22-0.69,0.33c-0.2,0.11-0.46,0.26-0.64,0.41
	c-0.06,0.13-0.18,0.33-0.24,0.5c-0.07,0.17-0.2,0.58-0.2,0.87c0.05,0.31,0.31,0.82,0.52,0.98c0.45,0.42,1.16,0.4,1.58-0.05
	C40.93,126.34,40.91,125.64,40.46,125.21"/>
<path class="st6" d="M21.05,95.42c-0.05-0.01-0.08-0.01-0.12-0.03c-0.24-0.51-0.84-0.73-1.35-0.49c-0.51,0.24-0.73,0.84-0.49,1.35
	c0.24,0.51,0.84,0.73,1.35,0.49c0.51-0.24,0.73-0.84,0.49-1.35c-0.05-0.04-0.08-0.05-0.12-0.09c-0.2-0.48-0.75-0.71-1.23-0.52
	c-0.48,0.2-0.71,0.75-0.52,1.23c0.2,0.48,0.75,0.71,1.23,0.52c0.48-0.2,0.71-0.75,0.52-1.23c-0.01-0.01-0.03-0.05-0.06-0.1
	c-0.24-0.45-0.8-0.63-1.26-0.39c-0.45,0.24-0.63,0.8-0.39,1.26c0.24,0.45,0.8,0.63,1.26,0.39c0.45-0.24,0.63-0.8,0.39-1.26
	c-0.02-0.03-0.1-0.14-0.18-0.23c-0.03-0.03-0.24-0.17-0.46-0.24c-0.28-0.01-0.73,0.17-0.87,0.3c-0.22,0.35-0.28,0.58-0.31,0.62
	c-0.03,0.03-0.05,0.07-0.08,0.09c-0.05,0.03-0.1,0.07-0.15,0.1c-0.04,0.47-0.15,2.38-0.22,4.23c0.01,0.82,0.03,1.58,0.05,2.21
	c0.02,0.79,0.67,1.41,1.46,1.4c0.79-0.02,1.41-0.67,1.39-1.46c-0.02-0.79-0.67-1.41-1.46-1.4c-0.79,0.02-1.41,0.67-1.4,1.46
	c0.09,0.57,0.19,1.08,0.3,1.44c0.06,0.66,0.65,1.14,1.31,1.08c0.66-0.06,1.14-0.65,1.08-1.31c-0.06-0.66-0.65-1.14-1.31-1.08
	c-0.66,0.06-1.14,0.65-1.08,1.31c0.06,0.19,0.12,0.38,0.19,0.53c0.13,0.58,0.72,0.95,1.3,0.81c0.58-0.13,0.95-0.72,0.81-1.3
	c-0.13-0.58-0.72-0.95-1.3-0.81c-0.58,0.13-0.95,0.72-0.81,1.3c0.08,0.16,0.28,0.49,0.6,0.74c0.45,0.3,1.05,0.17,1.34-0.27
	c0.3-0.45,0.17-1.05-0.27-1.34c0.26,0.21,0.41,0.42,0.44,0.39c0.03-0.05,0.05-0.12,0.08-0.27c0.05-0.3,0.11-0.73,0.17-1.28
	c0-0.61,0-1.34,0.01-2.15c-0.08-1.82-0.11-3.76-0.22-4.41c-0.06-0.04-0.11-0.07-0.16-0.07c-0.03,0-0.05,0.02-0.08,0.04
	c-0.03,0.03-0.09,0.25-0.32,0.62c-0.13,0.12-0.58,0.3-0.86,0.28c-0.22-0.07-0.43-0.21-0.47-0.25c-0.07-0.08-0.15-0.19-0.17-0.21
	c-0.02-0.04-0.04-0.07-0.04-0.07c-0.02,0.02-0.01,0.12,0.02,0.24c-0.01,0.07,0,0.16,0.01,0.24c0.3,0.54,0.98,0.74,1.52,0.45
	S21.35,95.96,21.05,95.42"/>
<path class="st6" d="M20.04,100.65c0.12-0.01,0.28-0.02,0.37-0.06c0.53,0.07,1.02-0.3,1.1-0.83c0.07-0.53-0.3-1.02-0.83-1.1
	c-0.53-0.07-1.02,0.3-1.1,0.83c-0.07,0.53,0.3,1.02,0.83,1.1c0.07,0.05,0.17,0.1,0.24,0.15c0.61,0.02,1.12-0.46,1.13-1.07
	c0.02-0.61-0.46-1.12-1.07-1.13c-0.61-0.02-1.12,0.46-1.13,1.07c-0.02,0.61,0.46,1.12,1.07,1.13c0.07,0.05,0.17,0.09,0.25,0.14
	c0.68-0.02,1.22-0.59,1.2-1.28c-0.02-0.68-0.59-1.22-1.28-1.2c-0.68,0.02-1.22,0.59-1.2,1.28c0.02,0.68,0.59,1.22,1.28,1.2
	c0.16,0.02,0.36,0.03,0.55,0.04c0.72-0.07,1.25-0.72,1.18-1.45c-0.07-0.72-0.72-1.25-1.45-1.18c-0.72,0.07-1.25,0.72-1.18,1.45
	c0.07,0.72,0.72,1.25,1.45,1.18c0.19,0,0.41-0.01,0.62-0.02c0.75-0.11,1.27-0.81,1.16-1.56c-0.11-0.75-0.81-1.27-1.56-1.16
	c-0.75,0.11-1.27,0.81-1.16,1.56c0.11,0.75,0.81,1.27,1.56,1.16c0.31-0.05,0.67-0.12,1.01-0.19c0.73-0.15,1.21-0.86,1.06-1.59
	c-0.15-0.73-0.86-1.21-1.59-1.06c-0.73,0.15-1.21,0.86-1.06,1.59c0.15,0.73,0.86,1.21,1.59,1.06c0.86-0.37,1.8-0.81,2.36-1.26
	c0.4-0.18,0.58-0.64,0.4-1.04c-0.18-0.4-0.64-0.58-1.04-0.4c-0.53,0.03-1.38,0.06-2.24,0.04c-0.31,0.06-0.6,0.1-0.88,0.13
	c-0.18,0.05-0.34,0.08-0.49,0.12c-0.15,0.04-0.26,0.08-0.36,0.11c-0.05,0.05-0.07,0.09-0.11,0.14c-0.03,0.04-0.03,0.08-0.04,0.13
	c0.01-0.05,0.1-0.07,0.17-0.1c-0.58-0.22-1.22,0.06-1.45,0.64C19.18,99.78,19.47,100.43,20.04,100.65"/>
<path class="st6" d="M25.21,93.35c0.05,0.08,0.27,0.39,0.33,0.65c-0.1-0.57-0.65-0.95-1.22-0.85c-0.57,0.1-0.95,0.65-0.85,1.22
	c0.1,0.57,0.65,0.95,1.22,0.85c0.57-0.1,0.95-0.65,0.85-1.22c0,0.16-0.06,0.49-0.12,0.62c0.26-0.5,0.05-1.12-0.45-1.37
	c-0.5-0.26-1.12-0.05-1.37,0.45c-0.26,0.5-0.05,1.12,0.45,1.37c0.5,0.26,1.12,0.05,1.37-0.45c-0.08,0.11-0.22,0.26-0.29,0.29
	c0.43-0.33,0.52-0.95,0.19-1.39s-0.95-0.52-1.39-0.19c-0.43,0.33-0.52,0.95-0.19,1.39c0.33,0.43,0.95,0.52,1.39,0.19
	c-0.22,0.14-0.33,0.21-0.26,0.27c-0.08-0.04-0.17-0.07-0.15,0.07c-0.02-0.14-0.14,0.1-0.21,0.75c-0.05,0.51-0.07,1.06-0.1,1.64
	c-0.04,0.97-0.07,2.09-0.1,3.11c-0.03,0.66-0.07,1.3-0.09,1.86c0.01,0.43,0.06,0.86,0.11,1.19c0.05,0.22,0.12,0.45,0.18,0.63
	c0.21,0.84,1.05,1.35,1.89,1.14c0.84-0.21,1.35-1.05,1.14-1.89c-0.21-0.84-1.05-1.35-1.89-1.14c-0.84,0.21-1.35,1.05-1.14,1.89
	c0.05,0.18,0.1,0.38,0.15,0.52c0.27,0.82,1.15,1.27,1.96,1c0.82-0.27,1.27-1.15,1-1.96c-0.27-0.82-1.15-1.27-1.96-1
	c-0.82,0.27-1.27,1.15-1,1.96c0.02,0.07,0.04,0.15,0.06,0.22c0.29,0.82,1.18,1.25,2,0.96c0.82-0.29,1.25-1.18,0.96-2
	c-0.29-0.82-1.18-1.25-2-0.96c-0.82,0.29-1.25,1.18-0.96,2c0.36,0.23,0.67,0.3,0.95,0.38c0.08,0.43,0.49,0.71,0.92,0.63
	c0.43-0.08,0.71-0.49,0.63-0.92c0.19-0.38,0.31-0.78,0.47-1.12c-0.02-0.05-0.04-0.09-0.06-0.14c-0.03-0.11-0.06-0.19-0.09-0.31
	c-0.01-0.13-0.02-0.23-0.02-0.38c-0.03-0.23-0.05-0.44-0.05-0.76c-0.04-0.5-0.06-1.11-0.09-1.79c-0.03-1.02-0.07-2.14-0.1-3.09
	c-0.03-0.63-0.08-1.15-0.1-1.57c-0.03-0.51-0.01-1.28-0.38-2.03c-0.36-0.51-1.08-1-1.7-1.09c-0.33,0.02-0.8,0.14-1.16,0.38
	c-0.09,0.06-0.25,0.23-0.34,0.36c-0.07,0.15-0.14,0.49-0.13,0.68c0.08,0.31,0.32,0.68,0.45,0.8c0.51,0.36,1.2,0.23,1.56-0.27
	C25.83,94.4,25.71,93.7,25.21,93.35"/>
<path class="st7" d="M20.33,68.27c-0.12-0.01-0.25-0.01-0.34,0c-0.62,0.03-1.09,0.56-1.06,1.17c0.03,0.62,0.56,1.09,1.17,1.06
	c0.62-0.03,1.09-0.56,1.06-1.17c-0.03-0.62-0.56-1.09-1.17-1.06c-0.08-0.04-0.24-0.07-0.37-0.08c-0.67,0.19-1.06,0.88-0.88,1.55
	c0.19,0.67,0.88,1.06,1.55,0.88c0.67-0.19,1.06-0.88,0.88-1.55c-0.19-0.67-0.88-1.06-1.55-0.88c-0.08,0-0.28,0.06-0.42,0.12
	c-0.61,0.41-0.77,1.23-0.37,1.84c0.41,0.61,1.23,0.77,1.84,0.37c0.61-0.41,0.77-1.23,0.37-1.84c-0.41-0.61-1.23-0.77-1.84-0.37
	c-0.17,0.1-0.53,0.56-0.66,0.93c-0.02,0.4,0.19,0.99,0.3,1.17c0.11,0.15,0.29,0.31,0.37,0.38c0.11,0.11,0.28,0.22,0.36,0.29
	c0.1,0.04,0.26,0.09,0.37,0.12c0.32,0.06,0.78,0.09,1.18,0.08c0.83-0.08,1.57-0.37,2.03-0.47c0.19-0.04,0.35-0.07,0.53-0.1
	c0.09-0.01,0.16-0.02,0.25-0.02c0.23-0.21,0.41-0.4,0.62-0.57c0.15-0.01,0.23-0.01,0.34,0c0.11-0.01,0.13-0.02,0.19-0.02
	c0.71,0.2,1.45-0.22,1.65-0.94c0.2-0.71-0.22-1.45-0.94-1.65c-0.71-0.2-1.45,0.22-1.65,0.94c-0.2,0.71,0.22,1.45,0.94,1.65
	c0.03,0,0-0.01,0.01-0.01c0.68,0.29,1.46-0.03,1.74-0.71c0.29-0.68-0.03-1.46-0.71-1.74c-0.68-0.29-1.46,0.03-1.74,0.71
	c-0.29,0.68,0.03,1.46,0.71,1.74c0.02-0.02-0.02-0.06-0.02-0.09c0.59,0.38,1.37,0.21,1.75-0.37c0.38-0.59,0.21-1.37-0.37-1.75
	c-0.59-0.38-1.37-0.21-1.75,0.37c-0.38,0.59-0.21,1.37,0.37,1.75c0.08-0.15,0.08-0.37,0.19-0.49c0.2,0.38,0.68,0.53,1.07,0.32
	c0.38-0.2,0.53-0.68,0.32-1.07c0.02-0.27-0.11-0.64-0.2-0.9c-0.09-0.08-0.22-0.18-0.32-0.24c-0.1-0.04-0.24-0.1-0.34-0.13
	c-0.19-0.07-0.46-0.13-0.66-0.16c-0.21-0.02-0.46-0.02-0.68-0.02c-0.34-0.15-0.76-0.28-1.15-0.38c-0.12,0.03-0.26,0.06-0.38,0.09
	c-0.24,0.06-0.52,0.14-0.77,0.21c-0.7,0.22-1.16,0.46-1.35,0.47c-0.23,0.05-0.32,0.07-0.37,0.08c-0.02,0.01,0.03,0.04,0.06,0.06
	c0.02,0.05,0.14,0.15,0.22,0.24c0.05,0.06,0.22,0.21,0.32,0.34c0.11,0.18,0.31,0.76,0.3,1.16c-0.12,0.36-0.48,0.81-0.64,0.91
	c-0.13,0.05-0.32,0.1-0.38,0.1c-0.08-0.03-0.18-0.06-0.19-0.11c0.01,0,0.02,0,0.09,0c0.62,0.04,1.15-0.43,1.19-1.05
	C21.41,68.84,20.94,68.31,20.33,68.27"/>
<path class="st7" d="M21.39,70.76c-0.03,0-0.08,0.04-0.13,0.08c0.27-0.5,0.08-1.13-0.42-1.4c-0.5-0.27-1.13-0.08-1.4,0.42
	c-0.27,0.5-0.08,1.13,0.42,1.4c0.5,0.27,1.13,0.08,1.4-0.42c-0.04,0.03-0.13,0.14-0.22,0.22c0.39-0.38,0.41-1.01,0.03-1.4
	c-0.38-0.39-1.01-0.41-1.4-0.03c-0.39,0.38-0.41,1.01-0.03,1.4c0.38,0.39,1.01,0.41,1.4,0.03c-0.1,0.07-0.29,0.18-0.43,0.22
	c0.52-0.14,0.82-0.67,0.68-1.19c-0.14-0.52-0.67-0.82-1.19-0.68c-0.52,0.14-0.82,0.67-0.68,1.19c0.14,0.52,0.67,0.82,1.19,0.68
	c-0.25,0.03-0.64-0.06-0.8-0.16c-0.34-0.4-0.42-0.68-0.44-0.74c-0.01-0.03-0.02-0.07-0.04-0.07c-0.03,0-0.05,0.01-0.08,0.05
	c-0.06,0.08-0.13,0.18-0.21,0.32c-0.11,0.31-0.22,0.68-0.34,1.05c-0.08,0.3-0.14,0.58-0.23,0.9c-0.23,1-0.68,2.47-0.91,3.75
	c-0.09,0.62-0.11,1.21-0.12,1.62c-0.01,0.22-0.06,0.61,0,1.08c0.14,0.65,0.7,1.5,1.28,1.9c0.84,0.36,1.63,0.34,1.99,0.34
	c0.31,0,0.8,0.05,1.46,0.05c0.27,0,0.57,0,0.86-0.01c0.29-0.01,0.61-0.02,0.91-0.04c0.31-0.02,0.62-0.05,0.94-0.08
	c0.31-0.03,0.62-0.07,0.93-0.11c0.3-0.03,0.6-0.06,0.88-0.09c0.28-0.03,0.55-0.05,0.8-0.07c0.37-0.08,0.68-0.15,0.93-0.2
	c0.09,0,0.15-0.01,0.22-0.01c0.06,0,0.1,0,0.14,0c0.07-0.16,0-0.33-0.08-0.5c0.7,0.21,1.43-0.19,1.64-0.89
	c0.21-0.7-0.19-1.43-0.89-1.64c-0.7-0.21-1.43,0.19-1.64,0.89c-0.21,0.7,0.19,1.43,0.89,1.64c-0.05-0.1-0.29-0.34-0.41-0.56
	c0.37,0.47,1.04,0.55,1.51,0.18c0.47-0.37,0.55-1.04,0.18-1.51c-0.37-0.47-1.04-0.55-1.51-0.18c-0.47,0.37-0.55,1.04-0.18,1.51
	c-0.07-0.29-0.03-0.84,0.1-0.98c-0.2,0.42-0.03,0.92,0.38,1.12c0.42,0.2,0.92,0.03,1.12-0.38c0.2-0.42,0.03-0.92-0.38-1.12
	c-0.42-0.2-0.92-0.03-1.12,0.38c0.16-0.17,0.21-0.19,0-0.07c-0.39,0.19-0.56,0.66-0.37,1.05c0.19,0.39,0.66,0.56,1.05,0.37
	c0.29-0.12,0.6-0.32,0.82-0.61c0.15-0.18,0.18-0.77,0.09-1.09c-0.14-0.26-0.42-0.51-0.54-0.63c-0.2-0.21-0.48-0.4-0.67-0.56
	c-0.09,0-0.21,0-0.31,0.01c-0.1,0.01-0.21,0.02-0.32,0.03c-0.32-0.01-0.7-0.01-1.1,0c-0.26,0.04-0.54,0.08-0.83,0.12
	c-0.29,0.04-0.58,0.09-0.88,0.13c-0.3,0.04-0.6,0.08-0.9,0.11c-0.3,0.04-0.59,0.08-0.88,0.12c-0.29,0.04-0.55,0.08-0.81,0.12
	c-0.26,0.03-0.49,0.06-0.71,0.08c-0.49,0.03-0.97,0.02-1.47,0.05c-0.5,0.03-0.53,0.11-0.22,0.17c0.02,0.08,0.21,0.39,0.24,0.4
	c-0.02,0.04,0-0.05,0-0.41c0.02-0.4,0.03-0.78,0.11-1.21c0.14-1.07,0.53-2.5,0.74-3.66c0.06-0.41,0.08-0.76,0.1-1.04
	c0.01-0.43,0-0.82-0.01-1.1c-0.03-0.16-0.05-0.31-0.09-0.43c-0.02-0.06-0.04-0.13-0.06-0.19c-0.01-0.03-0.02-0.09-0.03-0.14
	c-0.02-0.07-0.1-0.36-0.4-0.74c-0.2-0.13-0.58-0.22-0.77-0.21c-0.22,0.06-0.41,0.17-0.47,0.21c-0.13,0.11-0.22,0.22-0.26,0.25
	c-0.06,0.06-0.12,0.12-0.16,0.15c-0.21,0.58,0.09,1.22,0.67,1.43C20.54,71.65,21.18,71.34,21.39,70.76"/>
<path class="st7" d="M21.9,74.84c-0.04-0.27-0.09-0.35-0.09-0.33c0-0.6-0.48-1.08-1.08-1.08c-0.6,0-1.08,0.48-1.08,1.08
	c0,0.6,0.48,1.08,1.08,1.08c0.6,0,1.08-0.48,1.08-1.08c-0.02,0.26-0.23,0.67-0.26,0.75c0.53-0.38,0.66-1.12,0.28-1.65
	c-0.38-0.53-1.12-0.66-1.65-0.28c-0.53,0.38-0.66,1.12-0.28,1.65c0.38,0.53,1.12,0.66,1.65,0.28c-0.03,0.05-0.07,0.11,0.01,0.13
	c0.68-0.2,1.08-0.91,0.88-1.59c-0.2-0.68-0.91-1.08-1.59-0.88c-0.68,0.2-1.08,0.91-0.88,1.59c0.2,0.68,0.91,1.08,1.59,0.88
	c0.06,0.01,0.13,0.04,0.3,0.05c0.08-0.06,0.16-0.11,0.26-0.17c0.15,0,0.31,0.01,0.49,0.02c0.09,0,0.19,0,0.3,0.01
	c0.1,0,0.22,0,0.33,0c0.74-0.08,1.27-0.74,1.19-1.47c-0.08-0.74-0.74-1.27-1.47-1.19c-0.74,0.08-1.27,0.74-1.19,1.47
	c0.08,0.74,0.74,1.27,1.47,1.19c0.11,0,0.24-0.01,0.37-0.02c0.75-0.1,1.27-0.79,1.17-1.54c-0.1-0.75-0.79-1.27-1.54-1.17
	c-0.75,0.1-1.27,0.79-1.17,1.54c0.1,0.75,0.79,1.27,1.54,1.17c0.12-0.01,0.27-0.02,0.41-0.04c0.76-0.13,1.26-0.86,1.13-1.61
	c-0.13-0.76-0.86-1.26-1.61-1.13c-0.76,0.13-1.26,0.86-1.13,1.61c0.13,0.76,0.86,1.26,1.61,1.13c0.1-0.22,0.21-0.45,0.31-0.68
	c0.43-0.09,0.69-0.51,0.6-0.94c-0.09-0.43-0.51-0.69-0.94-0.6c-0.17-0.17-0.32-0.35-0.46-0.52c-0.11,0.03-0.2,0.05-0.3,0.07
	c-0.1,0.02-0.18,0.04-0.27,0.06c-0.09,0.02-0.17,0.04-0.26,0.06c-0.09,0.02-0.17,0.03-0.25,0.04c-0.17,0.03-0.34,0.05-0.52,0.08
	c-0.1-0.04-0.22-0.08-0.33-0.12c-0.22,0.05-0.51,0.13-0.76,0.23c-0.19,0.09-0.47,0.25-0.66,0.42c-0.2,0.2-0.51,0.75-0.53,1.18
	c0,0.33,0.05,0.55,0.02,0.44c0.03,0.62,0.55,1.1,1.17,1.07C21.45,75.98,21.93,75.46,21.9,74.84"/>
<path d="M166.28,126.16c-0.08,0.13-0.23,0.5-0.24,0.79c0.02,0.6,0.51,1.07,1.11,1.05c0.6-0.02,1.07-0.51,1.05-1.11
	c-0.02-0.6-0.51-1.07-1.11-1.05c-0.6,0.02-1.07,0.51-1.05,1.11c0.07,0.31,0.37,0.76,0.53,0.87c0.48,0.31,1.12,0.17,1.43-0.31
	c0.31-0.48,0.17-1.12-0.32-1.43c-0.48-0.31-1.12-0.17-1.43,0.31c-0.31,0.48-0.17,1.12,0.31,1.43c0.26,0.1,0.53,0.12,0.64,0.1
	c0.53,0.01,0.97-0.41,0.98-0.94s-0.41-0.97-0.94-0.98c-0.53-0.01-0.97,0.41-0.98,0.94c-0.01,0.53,0.41,0.97,0.94,0.98
	c0.18-0.05,0.41-0.14,0.58-0.23c0.19,0,0.45-0.07,0.63-0.14c0.19-0.09,0.47-0.39,0.63-0.7c-0.19,0.44-0.61,0.79-0.72,0.84
	c-0.07,0.03-0.16,0.06-0.16,0.08c0.01,0.03,0.04,0.06,0.12,0.1c0.17,0.08,0.38,0.17,0.54,0.26c-0.17-0.04-0.13,0.04,0.26,0.2
	c1.49,0.46,3.45,0.3,4.95,0.42c1.06,0.01,2.16-0.02,3.14-0.04c0.38-0.01,0.78,0,1.17-0.02c0.41-0.01,0.82-0.05,1.05-0.09
	c0.1-0.02,0.23-0.04,0.31-0.06c0.09-0.03,0.23-0.07,0.33-0.11c0.06-0.14,0.28-0.4,0.44-0.69c0.53-0.6,0.48-1.51-0.12-2.04
	c-0.6-0.53-1.51-0.48-2.04,0.12c-0.53,0.6-0.48,1.51,0.12,2.04c0.6,0.53,1.51,0.48,2.04-0.12c-1.4-2.37-1.13-2.4-1.08-2.4
	c0.04,0,0.08,0.01,0.09,0.01c0,0.01,0,0.01-0.01,0.02c-0.78-0.06-1.46,0.51-1.52,1.29c-0.06,0.78,0.51,1.46,1.29,1.52
	c0.78,0.06,1.46-0.51,1.52-1.29c0.06-0.78-0.51-1.46-1.29-1.52c-0.03,0.01-0.1,0.02-0.16,0.03c-0.76-0.03-1.4,0.55-1.43,1.31
	c-0.03,0.76,0.55,1.4,1.31,1.43c0.76,0.03,1.4-0.55,1.43-1.31c0.03-0.76-0.55-1.4-1.31-1.43c-0.06,0.01-0.16,0.02-0.24,0.04
	c-0.74,0.01-1.32,0.62-1.31,1.36c0.01,0.74,0.62,1.32,1.36,1.31c0.74-0.01,1.32-0.62,1.31-1.36s-0.62-1.32-1.36-1.31
	c-0.08,0.12-0.19,0.24-0.27,0.36c-0.54,0.06-0.94,0.55-0.88,1.09c0.06,0.54,0.55,0.94,1.09,0.88c0.05,0.11,0.07,0.22,0.11,0.34
	c0.03,0.01,0.04,0.03,0.07,0.04c0.03,0.01,0.04,0.03,0.06,0.04c0.01,0.01,0.03,0.01,0.04,0.02c0.01,0,0.06,0.01,0.11,0.01
	c0.05,0,0.32-0.03,1.03-0.41c-1.96-2.26-1.78-2.49-1.78-2.61c0.03-0.01,0.1-0.03,0.1-0.03c-0.01,0.01,0.02,0,0,0.01
	c-0.11,0.03-0.24,0.05-0.49,0.06c-0.28,0-0.65-0.01-1.09-0.02c-0.99-0.01-2.05-0.01-3.05-0.04c-1.77,0.06-3.43,0.37-4.16,0.2
	c0.06,0.06-0.15-0.03-0.63-0.13c-0.22,0.03-0.54,0.05-0.81,0.09c-0.14,0.02-0.31,0.05-0.44,0.08c-0.08,0.02-0.23,0.06-0.34,0.1
	c-0.15,0.07-0.59,0.43-0.79,0.9c0.13-0.2,0.32-0.39,0.37-0.37c0.04,0.04,0.12,0.05,0.11,0.1c-0.1-0.03-0.15-0.08-0.16-0.14
	c0.02-0.02,0.21-0.01,0.43,0.06c0.15,0.1,0.44,0.53,0.51,0.83c-0.01,0.26-0.15,0.62-0.21,0.72c0.4-0.47,0.34-1.18-0.13-1.58
	C167.39,125.64,166.68,125.69,166.28,126.16"/>
<path d="M177.74,121.71c-0.03,0.02-0.05,0.04-0.06,0.06c-0.57-0.1-1.12,0.29-1.21,0.86c-0.1,0.57,0.29,1.12,0.86,1.21
	c0.57,0.1,1.12-0.29,1.21-0.86c0.1-0.57-0.29-1.12-0.86-1.21c-0.01,0.01,0,0.02,0,0.03c-0.55-0.1-1.08,0.26-1.19,0.81
	c-0.1,0.55,0.26,1.08,0.81,1.19c0.55,0.1,1.08-0.26,1.19-0.81c0.1-0.55-0.26-1.08-0.81-1.19c0,0,0.01,0.01,0,0.02
	c-0.54-0.1-1.07,0.25-1.17,0.8c-0.1,0.54,0.25,1.07,0.8,1.17c0.54,0.1,1.07-0.25,1.17-0.8c0.1-0.54-0.25-1.07-0.8-1.17
	c0.13,0.04-0.19,1.97-0.32,1.96c0.54,0.07,1.03-0.31,1.11-0.85s-0.31-1.03-0.85-1.11c-0.54-0.07-1.03,0.31-1.11,0.85
	c-0.07,0.54,0.31,1.03,0.85,1.11c-0.02,0.02-0.01,0.05,0.03,0.09c0.07,0.09,0.14,0.17,0.21,0.26c0.08,0.01,0.14,0.01,0.21,0.02
	c0.19,0.07,0.43,0.22,0.79,0.51c0.42,0.22,0.78,0.47,1.13,0.83c0.36,0.4,0.52,0.76,0.57,1.29c0.04,0.23,0.02,0.33-0.08,0.58
	c-0.06,0.19-0.12,0.3-0.25,0.47c-0.15,0.25-0.28,0.4-0.49,0.57c-0.52,0.35-0.66,1.05-0.31,1.57c0.35,0.52,1.05,0.66,1.57,0.31
	c0.52-0.35,0.66-1.05,0.31-1.57c-0.35-0.52-1.05-0.66-1.57-0.31c-0.11,0.08-0.18,0.12-0.28,0.17c-0.57,0.25-0.83,0.91-0.58,1.47
	c0.25,0.57,0.91,0.83,1.47,0.58c0.57-0.25,0.83-0.91,0.58-1.47c-0.25-0.57-0.91-0.83-1.47-0.58c-0.05,0.02-0.08,0.03-0.13,0.05
	c-0.59,0.19-0.91,0.81-0.73,1.4c0.19,0.59,0.81,0.91,1.4,0.73s0.91-0.81,0.73-1.4c-0.19-0.59-0.81-0.91-1.4-0.73
	c-0.02,0.12-0.01,0.23-0.04,0.35c-0.43,0.08-0.71,0.49-0.63,0.92c0.08,0.43,0.49,0.71,0.92,0.63c0.12,0.09,0.28,0.16,0.42,0.23
	c0.11-0.03,0.24-0.08,0.35-0.13c0.21-0.09,0.45-0.22,0.65-0.35c0.4-0.24,0.84-0.62,1.16-0.99c0.22-0.29,0.46-0.69,0.61-1.05
	c0.18-0.48,0.29-1.16,0.24-1.73c-0.1-0.88-0.51-1.9-1.08-2.63c-0.44-0.59-1.04-1.15-1.55-1.54c-0.58-0.32-1.26-0.59-1.77-0.67
	c-0.12-0.03-0.25-0.06-0.34-0.08c-0.1,0.06-0.18,0.12-0.24,0.19c-0.06,0.02-0.12,0.03-0.2,0.05c-0.07-0.01-0.38,1.93-0.34,1.95
	c0.08,0.02,0.09,0.03,0.1,0.04c-0.01,0.01,0,0.02,0.01,0.04c0.01,0.02,0.04,0.05,0.06,0.08c0.61,0.1,1.18-0.32,1.28-0.93
	C178.77,122.38,178.35,121.81,177.74,121.71"/>
<line class="st5" x1="-200.39" y1="167.83" x2="369.26" y2="167.83"/>
</svg>
