<?xml version="1.0" encoding="utf-8"?>
<!-- Generator: Adobe Illustrator 23.1.0, SVG Export Plug-In . SVG Version: 6.00 Build 0)  -->
<svg version="1.1" id="Layer_1" xmlns="http://www.w3.org/2000/svg" xmlns:xlink="http://www.w3.org/1999/xlink" x="0px" y="0px"
	 width="350px" height="200px" viewBox="0 0 350 200" style="enable-background:new 0 0 350 200;" xml:space="preserve">
<style type="text/css">
	.st0{opacity:0;}
	.st1{font-family:'.SFUI-Regular';}
	.st2{font-size:103.2048px;}
	.st3{font-size:95.0875px;}
	.st4{font-size:90.4492px;}
</style>
<g>
	<text transform="matrix(1 0 0 1 343.7638 3.1292)" class="st0 st1 st2">E</text>
</g>
<g>
	<text transform="matrix(1 0 0 1 -45.3114 138.4198)" class="st0 st1 st3">HI</text>
</g>
<g>
	<text transform="matrix(1 0 0 1 120.9699 134.8231)" class="st0 st1 st4">i</text>
</g>
<path d="M1.37,30.28C-1,39.7,2.87,48.26,2.69,56.56c-0.01,1.05,0.84,1.91,1.89,1.92c1.05,0.01,1.91-0.84,1.92-1.89
	c0.01-1.05-0.84-1.91-1.89-1.92c-1.05-0.01-1.91,0.84-1.92,1.89c-0.1,10.7,0.67,20.49,0.56,31.38C3.25,89.07,4.16,89.99,5.29,90
	c1.13,0.01,2.05-0.91,2.06-2.04c0.01-1.13-0.91-2.05-2.04-2.06c-1.13-0.01-2.05,0.91-2.06,2.04c-0.11,7.43-1.16,15.18-1.02,22.47
	c0.04,1.25,1.08,2.24,2.34,2.2c1.25-0.04,2.24-1.08,2.2-2.34c-0.04-1.25-1.08-2.24-2.34-2.2c-1.25,0.04-2.24,1.08-2.2,2.34
	c0.06,3.61-0.02,7.57-0.04,11.72c0.02,2.19,0.21,4.33,0.34,6.28c0.05,0.79,0.07,1.57,0.11,2.3c0.07,0.48,0.16,1.01,0.28,1.44
	c0.23,1.23,1.4,2.04,2.63,1.81c1.23-0.23,2.04-1.4,1.81-2.63c-0.23-1.23-1.4-2.04-2.63-1.81c-1.23,0.23-2.04,1.4-1.81,2.63
	c0.14,0.46,0.52,1.27,1.09,1.84c0.89,0.77,2.23,0.68,3-0.21c0.77-0.89,0.68-2.23-0.21-3c-0.89-0.77-2.23-0.68-3,0.21
	c-0.77,0.89-0.68,2.23,0.21,3c0.46,0.14,1.34,0.26,1.77,0.1c0.9-0.09,1.56-0.89,1.48-1.79c-0.09-0.9-0.89-1.56-1.79-1.48
	c-0.9,0.09-1.56,0.89-1.48,1.79c0.09,0.9,0.89,1.56,1.79,1.48c0.31-0.21,0.67-0.54,0.79-0.81c0.52-0.36,0.65-1.08,0.29-1.6
	c-0.36-0.52-1.08-0.65-1.6-0.29c-0.1-0.12,0.06-0.36,0.21-0.56c0.26-0.15,0.99-0.08,1.33-0.04c0.32,0.35,0.54,0.71,0.56,0.55
	c0.01-0.19,0.03-0.45,0.05-0.88c-0.03-0.64-0.05-1.47-0.11-2.35c-0.13-2-0.29-4-0.3-6c-0.07-4.11-0.08-8.12-0.23-11.83
	c-0.29-6.93,0.62-14.63,0.58-22.32c0-11.06-0.86-20.85-0.85-31.38c-0.09-9.13-4.07-17.22-1.96-25.5c0.22-0.87-0.31-1.76-1.18-1.98
	C2.48,28.88,1.6,29.41,1.37,30.28z"/>
<path d="M3.43,28.83c-0.35,0.61,0.02,2.25,0.41,2.58c0.8,0.48,1.83,0.23,2.32-0.57c0.48-0.8,0.23-1.83-0.57-2.32
	c-0.8-0.48-1.83-0.23-2.32,0.57c-0.48,0.8-0.23,1.83,0.57,2.32c0.28,0.17,0.63,0.29,0.82,0.35c0.95,0.17,1.85-0.45,2.02-1.4
	c0.17-0.95-0.45-1.85-1.4-2.02c-0.95-0.17-1.85,0.45-2.02,1.4c-0.17,0.95,0.45,1.85,1.4,2.02c0.35,0.1,0.83,0.17,1.35,0.23
	c1.02,0.05,1.89-0.73,1.94-1.75C8,29.22,7.22,28.36,6.2,28.31c-1.02-0.05-1.89,0.73-1.94,1.75C4.21,31.08,5,31.94,6.02,31.99
	c1.02,0.12,2.45,0.22,4.03,0.34c18.48,0.54,33.41-0.64,51.42-2.15c13.89-1.1,28.68-1.93,42.6-2.53c11.1-0.45,24.86,0.09,37.06,0.11
	c11.02,0.01,20.66,0.56,31.65,1.07c13.37,0.63,34.36,0.37,52.37,0.32c24.6-0.1,43.77-0.03,61.8,0.24
	c8.93,0.15,18.63,0.19,27.89,0.18c4.45,0.01,9.16,0.1,13.84,0.18c2.31,0.03,4.39,0.01,6.59,0.01c1.11,0,2.31,0.02,3.36,0.03
	c0.79,0.01,1.54,0.02,2.1,0c0.38-0.05,0.82-0.12,1.16-0.22c1.23-0.28,2-1.51,1.71-2.74c-0.28-1.23-1.51-2-2.74-1.71
	c-1.23,0.28-2,1.51-1.71,2.74c0.28,1.23,1.51,2,2.74,1.71c0.18-0.24,0.71-0.71,1.06-1.36c0.51-0.8,0.28-1.86-0.52-2.37
	c-0.8-0.51-1.86-0.28-2.37,0.52c-0.51,0.8-0.28,1.86,0.52,2.37c0.8,0.51,1.86,0.28,2.37-0.52c0.12-0.47,0.01-1.43-0.23-1.72
	c-0.42-0.67-1.3-0.88-1.97-0.46c-0.67,0.42-0.88,1.3-0.46,1.97c0.42,0.67,1.3,0.88,1.97,0.46c0.67-0.42,0.88-1.3,0.46-1.97
	c-0.22-0.15-0.52-0.29-0.67-0.27c-0.54-0.33-1.25-0.16-1.58,0.38s-0.16,1.25,0.38,1.58c-0.1,0.05-0.36-0.06-0.57-0.19
	c-0.22-0.26-0.32-1.19-0.22-1.64c0.33-0.6,0.76-1.03,0.79-1.24c0.05-0.04-0.03-0.06-0.32-0.08c-0.46,0.03-1.11,0.04-1.88,0.04
	c-1.03,0-2.25-0.01-3.4-0.01c-2.23,0.01-4.26,0.04-6.51,0.01c-4.67-0.05-9.42-0.09-13.92-0.06c-9.25,0.06-18.92,0.09-27.81-0.01
	c-18.05-0.23-37.26-0.28-61.88-0.15c-18.03,0.12-38.94,0.44-52.17-0.11c-10.96-0.46-20.71-0.99-31.83-0.95
	c-12.11,0.05-25.95-0.41-37.21,0.11c-13.94,0.61-28.79,1.46-42.73,2.58c-18.01,1.37-32.7,2.39-50.99,1.71
	c-1.62,0.02-3.03,0.07-3.99,0.09c-0.47,0.01-0.76,0.03-0.91,0.03c-0.05,0.01,0.12,0.08,0.3,0.19c0.3,0.27,0.65,1.85,0.36,2.38
	c0.57-0.7,0.47-1.73-0.22-2.3C5.03,28.03,4,28.13,3.43,28.83z"/>
<path d="M340.46,30.58c0.1,6.41-0.07,19.05,0.14,29.16c0.06,1.32,1.18,2.35,2.5,2.28c1.32-0.06,2.35-1.18,2.28-2.51
	c-0.06-1.32-1.18-2.35-2.5-2.28c-1.32,0.06-2.35,1.18-2.28,2.51c0.27,7.7,0.64,14.71,0.68,21.11c0.03,1.46,1.24,2.62,2.7,2.59
	c1.46-0.03,2.62-1.24,2.59-2.7c-0.03-1.46-1.24-2.62-2.7-2.59c-1.46,0.03-2.62,1.24-2.59,2.7c0.05,3.37,0.13,6.72,0.33,9.76
	c0.11,1.49,1.41,2.61,2.9,2.5c1.49-0.11,2.61-1.41,2.5-2.9c-0.11-1.49-1.41-2.61-2.9-2.5c-1.49,0.11-2.61,1.41-2.5,2.9
	c0.14,1.9,0.39,3.62,0.6,5.53c0.18,1.6,0.34,3.48,0.48,5.08c0.37,3.88,0.59,5.72,0.83,8.65c0.39,4.57,0.2,9.34,0.12,14.25
	c-0.01,2.48-0.1,5.13-0.1,7.77c-0.01,0.91,0.02,1.85,0.04,2.7c0.02,0.84,0.04,1.55,0.01,2.1c-0.07,1.45,1.05,2.69,2.5,2.76
	c1.45,0.07,2.69-1.05,2.76-2.5c0.07-1.45-1.05-2.69-2.5-2.76c-1.45-0.07-2.69,1.05-2.76,2.5c0.04,0.36,0.08,0.48,0.11,0.56
	c-0.37,1.31,0.39,2.68,1.71,3.05c1.31,0.37,2.68-0.39,3.05-1.71c0.37-1.31-0.39-2.68-1.71-3.05c-1.31-0.37-2.68,0.39-3.05,1.71
	c0.15,0.07,0.7-0.44,1.22-0.64c-1.03,0.44-1.5,1.63-1.06,2.65c0.44,1.03,1.63,1.5,2.65,1.06c1.03-0.44,1.5-1.63,1.06-2.65
	c-0.44-1.03-1.63-1.5-2.65-1.06c0.33,0.21,0.79,0.47,0.81,0.76c-0.61-0.16-1.24,0.2-1.41,0.81c-0.16,0.61,0.2,1.24,0.81,1.41
	c0.23,0.35,0.88,0.6,1.38,0.73c0.85-0.34,1.63-1.23,1.94-1.73c0.18-0.49,0.32-1.12,0.4-1.63c0.04-0.76,0.02-1.65,0-2.51
	c-0.02-0.86-0.05-1.7-0.04-2.49c0.06-2.55,0.21-5.19,0.29-7.74c0.1-4.84,0.31-9.88-0.07-14.79c-0.25-3.01-0.47-4.89-0.84-8.73
	c-0.16-1.58-0.35-3.51-0.55-5.18c-0.23-1.99-0.49-3.61-0.62-5.31c-0.24-2.91-0.35-6.12-0.44-9.46c-0.21-6.52-0.75-13.58-1.18-21.23
	c-0.72-9.99-1.05-22.61-1.66-29.12c-0.05-0.9-0.82-1.59-1.72-1.54C341.1,28.91,340.41,29.68,340.46,30.58"/>
<path d="M3.57,130.94c-0.18,0.57-0.44,3.17-0.26,5.88c0.15,1.15,1.2,1.97,2.35,1.82c1.15-0.15,1.97-1.2,1.82-2.35
	s-1.2-1.97-2.35-1.82c-1.15,0.15-1.97,1.2-1.82,2.35c0.46,3.68,1.09,7.28,1.06,10.66c0,1.19,0.96,2.15,2.15,2.15
	c1.19,0,2.15-0.96,2.15-2.15c0-1.19-0.96-2.15-2.15-2.15c-1.19,0-2.15,0.96-2.15,2.15c-0.02,1.82-0.08,3.79-0.13,5.53
	c-0.02,1.22,0.96,2.23,2.18,2.25c1.22,0.02,2.23-0.96,2.25-2.18c0.02-1.22-0.96-2.23-2.18-2.25c-1.22-0.02-2.23,0.96-2.25,2.18
	c-0.03,1.24-0.05,2.38-0.06,3.25c-0.01,1.24,0.99,2.24,2.22,2.25c1.24,0.01,2.24-0.99,2.25-2.22c0.01-1.24-0.99-2.24-2.22-2.25
	s-2.24,0.99-2.25,2.22c0.26,0.53,0.53,0.97,0.8,1.29c0.02,0.8,0.69,1.43,1.48,1.4c0.8-0.02,1.43-0.69,1.4-1.48
	c0.26-0.28,0.52-0.67,0.79-1.18c0-0.85,0.01-1.96,0.02-3.21c0.01-1.74,0.01-3.74-0.01-5.6c-0.02-3.77-0.71-7.63-1.19-11.2
	c-0.47-2.34-0.52-4.61-0.65-5.2c0.04-0.9-0.66-1.66-1.56-1.7C4.38,129.34,3.61,130.04,3.57,130.94"/>
<path d="M9.29,162.79c2.89-0.36,9.18,0.96,15.96,0.45c1.26-0.14,2.16-1.27,2.02-2.53c-0.14-1.26-1.27-2.16-2.53-2.02
	c-1.26,0.14-2.16,1.27-2.02,2.53c0.14,1.26,1.27,2.16,2.53,2.02c11.46-1.33,19.46-3.56,30.95-2.78c1.18,0.08,2.2-0.81,2.29-1.99
	c0.08-1.18-0.81-2.2-1.99-2.29c-1.18-0.08-2.2,0.81-2.29,1.99c-0.08,1.18,0.81,2.2,1.99,2.29c9.75,0.68,20.28-0.05,32.9-0.73
	c1.18-0.06,2.08-1.07,2.02-2.25c-0.06-1.18-1.07-2.08-2.25-2.02c-1.18,0.06-2.08,1.07-2.02,2.25c0.06,1.18,1.07,2.08,2.25,2.02
	c13.46-0.72,25.27,0.83,39.53,0.63c10.55-0.15,23.67,1.54,37.35,1.25c18.41-0.35,38.79,0.98,61.81,1.19
	c17.88,0.15,37.5,0.88,53.48,0.82c12.73-0.08,21.1-0.27,28.49-0.01c5.95,0.23,12.13,0.65,18.07,0.38c2.84-0.14,5.55-0.23,8.58-0.54
	c1.77-0.21,3.73-0.34,5.57-0.84c2.78-0.88,4.66-3.46,5.32-5.84c0.59-2.34,0.63-5.13,0.65-7.62c0.02-1.32-1.04-2.4-2.35-2.42
	c-1.32-0.02-2.4,1.04-2.42,2.35c-0.02,1.32,1.04,2.4,2.35,2.42c1.32,0.02,2.4-1.04,2.42-2.35c-0.01-2.61-0.05-4.82-0.12-7.33
	c-0.01-1.25-1.04-2.25-2.29-2.23c-1.25,0.01-2.25,1.04-2.23,2.29c0.01,1.25,1.04,2.25,2.29,2.23c1.25-0.01,2.25-1.04,2.23-2.29
	c-0.14-1.78,0.09-3.94-0.46-6.16c-0.22-1.04-1.25-1.71-2.29-1.49c-1.04,0.22-1.71,1.25-1.49,2.29c0.22,1.04,1.25,1.71,2.29,1.49
	c1.04-0.22,1.71-1.25,1.49-2.29c-0.49-1.03-1.26-2.16-2.26-3.01c-0.4-0.5-1.12-0.58-1.62-0.18c-0.5,0.4-0.58,1.12-0.18,1.62
	c0.38,0.87,0.37,1.55,0.27,2.37c0.24,1.49-0.19,3.25-0.28,5.41c-0.01,2.49-0.05,4.64-0.12,7.22c-0.04,2.5-0.06,4.75-0.54,6.46
	c-0.41,1.67-0.6,2.18-1.91,2.38c-1.33,0.34-2.93,0.38-4.84,0.55c-2.87,0.3-5.43,0.38-8.32,0.52c-5.65,0.31-11.63-0.06-17.65-0.25
	c-7.54-0.27-16-0.08-28.69-0.01c-15.88,0.13-35.47-0.54-53.43-0.62c-22.9-0.09-43.33-1.3-61.93-0.83
	c-13.36,0.31-26.42-1.36-37.31-1.2c-13.97,0.21-25.87-1.35-39.69-0.62c-12.65,0.67-22.93,1.39-32.38,0.72
	c-12.09-0.87-20.57,1.32-31.76,2.51c-6.15,0.92-12.37,0.04-16.04,0.88c-0.89,0.16-1.47,1.01-1.31,1.9
	C7.55,162.37,8.4,162.95,9.29,162.79z"/>
<path d="M25.85,42.26c-0.59-0.42-2.18-0.24-2.56,0.08c-0.61,0.73-0.51,1.81,0.21,2.41c0.73,0.61,1.81,0.51,2.41-0.21
	c0.61-0.73,0.51-1.81-0.22-2.41c-0.73-0.61-1.81-0.51-2.41,0.21c-0.21,0.25-0.4,0.57-0.49,0.74c-0.32,0.94,0.18,1.96,1.12,2.28
	c0.94,0.32,1.96-0.18,2.28-1.12c0.32-0.94-0.18-1.96-1.12-2.28c-0.94-0.32-1.96,0.18-2.28,1.12c-0.16,0.3-0.31,0.73-0.44,1.15
	c-0.19,1.06,0.51,2.08,1.57,2.28c1.06,0.19,2.08-0.51,2.28-1.57c0.19-1.06-0.51-2.08-1.57-2.28c-1.06-0.19-2.08,0.51-2.28,1.57
	c-0.26,0.83-0.52,1.96-0.76,3.02c-0.35,2.66-0.58,5.02-0.88,7.47c-0.13,1.2-0.42,2.6-0.51,4c-0.03,0.58-0.27,1.47-0.21,2.57
	c0.11,0.66,0.66,1.64,1.09,2.05c0.44,0.33,1.11,0.63,1.51,0.75c0.74,0.18,1.66,0.2,2.32,0.17c1.27-0.13,2.83-0.4,4.38-0.71
	c1.29-0.25,2.63-0.55,3.87-0.83c0.99-0.23,1.92-0.45,2.72-0.64c1.49-0.38,2.4-1.9,2.01-3.4c-0.38-1.49-1.9-2.4-3.4-2.01
	c-1.49,0.38-2.4,1.9-2.01,3.4c0.38,1.49,1.9,2.4,3.4,2.01c0.6-0.15,1.13-0.28,1.56-0.39c1.5-0.39,2.4-1.91,2.02-3.42
	c-0.39-1.5-1.91-2.4-3.42-2.02c-1.5,0.39-2.4,1.91-2.02,3.42c0.39,1.5,1.91,2.4,3.42,2.02c0.28-0.11,0.5-0.2,0.68-0.28
	c1.45-0.36,2.33-1.83,1.97-3.28c-0.36-1.45-1.83-2.33-3.28-1.97c-1.45,0.36-2.33,1.83-1.97,3.28c0.36,1.45,1.83,2.33,3.28,1.97
	c0.17-0.5,0.14-0.95-0.22-1.37c0.75,0.04,1.39-0.54,1.43-1.29c0.04-0.75-0.54-1.39-1.29-1.43c-0.43-0.42-0.81-0.79-1.22-1.15
	c-0.21,0.02-0.47,0.05-0.77,0.09c-0.43,0.12-0.96,0.26-1.55,0.41c-0.79,0.22-1.68,0.46-2.64,0.7c-1.2,0.31-2.45,0.63-3.68,0.91
	c-1.47,0.33-2.81,0.6-3.88,0.74c-0.43,0.1-0.59,0.16-0.68,0.16c-0.02,0.03,0.3,0.19,0.48,0.32c0.16,0.2,0.55,0.92,0.62,1.23
	c-0.07-0.02,0.11-0.65,0.18-1.72c0.06-1.02,0.34-2.31,0.52-3.75c0.26-2.52,0.44-4.86,0.72-7.46c0.02-1.06,0.05-2.11,0.08-2.86
	c0.01-0.37,0-0.58-0.01-0.69c-0.02-0.04-0.13,0.14-0.28,0.3c-0.3,0.23-1.83,0.4-2.36,0.05c0.64,0.63,1.68,0.62,2.31-0.02
	C26.5,43.93,26.49,42.89,25.85,42.26z"/>
<path d="M51.25,49.72c0.03-0.15,0.06-0.29,0.08-0.4c-0.11-0.95-0.97-1.64-1.92-1.54c-0.95,0.11-1.64,0.97-1.54,1.92
	c0.11,0.95,0.97,1.64,1.92,1.54c0.95-0.11,1.64-0.97,1.54-1.92c0.01-0.09-0.27-0.84-3.13-0.96c-0.62,0.77-0.51,1.9,0.26,2.52
	c0.77,0.62,1.9,0.51,2.52-0.26c0.62-0.77,0.51-1.9-0.26-2.52c-0.77-0.62-1.9-0.51-2.52,0.26c-0.37,0.7-0.43,0.97-0.46,1.04
	c-0.07,1.02,0.7,1.9,1.72,1.97c1.02,0.07,1.9-0.7,1.97-1.72c0.07-1.02-0.7-1.9-1.72-1.97c-1.02-0.07-1.9,0.7-1.97,1.72
	c-0.08,0.17-0.15,0.48-0.22,0.87c0.17,1.22,0.44,3.75,0.97,5.94c0.15,0.87,0.98,1.46,1.86,1.3c0.87-0.15,1.46-0.98,1.3-1.86
	c-0.15-0.87-0.98-1.46-1.86-1.3c-0.87,0.15-1.46,0.98-1.3,1.86c0.27,1.1,0.64,2.23,1.1,3.05c0.32,0.69,1.14,0.99,1.83,0.66
	c0.69-0.32,0.99-1.14,0.66-1.83c-0.32-0.69-1.14-0.99-1.83-0.66c-0.69,0.32-0.99,1.14-0.66,1.83c0.24,0.42,0.59,0.89,0.94,1.18
	c0.51,0.48,1.31,0.46,1.79-0.05c0.48-0.51,0.46-1.31-0.05-1.79c-0.51-0.48-1.31-0.46-1.79,0.05c-0.48,0.51-0.46,1.31,0.05,1.79
	c0.38,0.29,1.06,0.56,1.59,0.54c0.63-0.01,1.15-0.52,1.14-1.16c-0.01-0.63-0.52-1.15-1.16-1.14c0-0.01,0.21,0.04,0.17-0.08
	c-0.07-0.11-0.1-0.22-0.19-0.52c-0.21-0.6-0.33-1.43-0.43-2.44c-0.2-2.02-0.15-4.31-0.02-5.46c-0.08-0.34-0.15-0.53-0.21-0.55
	c-0.02,0.02-0.08,0.27-0.48,1.01c-2.82-0.17-3.09-0.9-3.08-0.95c0.03-0.03,0.07,0,0.11,0.12c0.03,0.9,0.78,1.61,1.68,1.58
	C50.57,51.37,51.28,50.62,51.25,49.72"/>
<path d="M52.47,40.82c-0.04-0.05-0.11-0.16-0.19-0.26c-0.43-0.76-1.39-1.02-2.14-0.59c-0.76,0.43-1.02,1.39-0.59,2.14
	c0.43,0.76,1.39,1.02,2.14,0.59c0.76-0.43,1.02-1.39,0.59-2.14c-0.19-0.24-2.84,0.31-2.89,0.77c0,0.83,0.68,1.51,1.51,1.51
	c0.84,0,1.51-0.68,1.51-1.51c0-0.84-0.68-1.51-1.51-1.51c-0.84,0-1.51,0.68-1.51,1.51c0.06,0.24,0.13,0.4,0.2,0.54
	c0.18,0.75,0.92,1.21,1.67,1.04c0.75-0.18,1.21-0.92,1.04-1.67c-0.18-0.75-0.92-1.21-1.67-1.04c-0.75,0.18-1.21,0.92-1.04,1.67
	c0.14,0.24,0.34,0.68,0.59,1.29c0.17,0.61,0.8,0.97,1.41,0.81c0.61-0.17,0.97-0.8,0.81-1.41c-0.09-0.65-0.12-1.09-0.1-1.33
	c0.02-0.11,0.06-0.09,0.12,0.1c-0.05,0.44-2.7,0.99-2.87,0.78c-0.06-0.08-0.11-0.14-0.13-0.12c0.33,0.84,1.27,1.26,2.11,0.93
	C52.38,42.61,52.8,41.66,52.47,40.82z"/>
<path d="M58.51,47.94c-0.32,2.08,0.01,4.27,0.37,5.95c0.2,0.89,1.08,1.46,1.97,1.26c0.89-0.2,1.46-1.08,1.26-1.97
	c-0.2-0.89-1.08-1.46-1.97-1.26c-0.89,0.2-1.46,1.08-1.26,1.97c0.17,0.76,0.29,1.54,0.5,2.2c0.28,0.87,1.21,1.35,2.08,1.07
	c0.87-0.28,1.35-1.21,1.07-2.08c-0.28-0.87-1.21-1.35-2.08-1.07c-0.87,0.28-1.35,1.21-1.07,2.08c0.14,0.44,0.32,0.92,0.53,1.28
	c0.48,0.78,1.5,1.03,2.28,0.55c0.78-0.48,1.03-1.5,0.55-2.28c-0.48-0.78-1.5-1.03-2.28-0.55c-0.78,0.48-1.03,1.5-0.55,2.28
	c0.13,0.21,0.49,0.59,0.85,0.82c0.24,0.1,0.79,0.19,1.11,0.17c0.29-0.07,0.74-0.3,0.92-0.44c0.63-0.78,0.85-1.77,0.93-2.53
	c0.08-0.76,0.13-1.57,0.25-2.26c0.32-2.2,1.71-3.98,2.71-4.38c0.31-0.1,0.41-0.14,0.44-0.1c-0.02,0-0.52-0.18-0.62-0.19
	c0.47,0.26,0.4,2.96,0.88,5.28c0.18,0.87,0.51,1.76,0.86,2.37c0.19,0.32,0.48,0.69,0.74,0.93c0.31,0.25,1.01,0.54,1.55,0.55
	c0.46-0.11,1-0.48,1.16-0.67c0.11-0.17,0.23-0.4,0.28-0.53c0.09-0.25,0.16-0.56,0.22-0.83c0.1-0.52,0.19-1.11,0.29-1.54
	c0.16-0.79,0.68-1.64,1.22-2.6c0.55-0.93,1.01-1.63,1.42-1.87c0.15-0.08,0-0.01,0.03,0.07c0.02,0.01-0.21-0.1-0.2,0.03
	c0.57,0.58,0.54,3.11,0.95,5.37c0.13,0.77,0.85,1.28,1.62,1.15c0.77-0.13,1.28-0.85,1.15-1.62c-0.13-0.77-0.85-1.28-1.62-1.15
	c-0.77,0.13-1.28,0.85-1.15,1.62c0.21,1.14,0.66,2.42,1.45,3.23c0.54,0.51,1.39,0.49,1.9-0.05c0.51-0.54,0.49-1.39-0.05-1.9
	c-0.54-0.51-1.39-0.49-1.9,0.05c-0.51,0.54-0.49,1.39,0.05,1.9c0.44,0.38,1.23,0.72,1.88,0.76c0.72,0.03,1.33-0.53,1.36-1.26
	c0.03-0.72-0.53-1.33-1.26-1.36c-0.72-0.03-1.33,0.53-1.36,1.26c-0.03,0.72,0.53,1.33,1.26,1.36c0.61,0,1.41-0.2,2.11-0.55
	c0.64-0.31,0.9-1.07,0.6-1.71c-0.31-0.64-1.07-0.9-1.71-0.6c-0.49,0.23-0.69,0.27-0.9,0.23c-0.17,0-0.05,0.04-0.14-0.09
	c-0.28-0.21-0.39-0.77-0.53-1.75c-0.3-1.98-0.22-4.86-1.16-6.59c-0.42-0.53-1.23-1.03-1.85-1.14c-0.62-0.04-1.46,0.19-1.97,0.55
	c-0.86,0.6-1.63,1.69-2.24,2.69c-0.56,0.89-1.3,2.01-1.67,3.22c-0.16,0.54-0.29,1.16-0.41,1.6c-0.06,0.21-0.1,0.33-0.13,0.38
	c-0.01,0.02,0.04-0.09,0.09-0.17c0.09-0.1,0.56-0.42,0.95-0.53c0.28,0.03,0.69,0.19,0.7,0.19c-0.03-0.01-0.03-0.02-0.13-0.18
	c-0.22-0.35-0.4-0.81-0.54-1.47c-0.43-1.94-0.42-4.99-1.55-6.59c-0.46-0.44-1.38-0.74-1.88-0.7c-0.45,0.08-0.89,0.26-1.19,0.41
	c-1.84,0.76-4.05,3.39-4.74,6.29c-0.19,0.86-0.29,1.77-0.39,2.44c-0.11,0.67-0.12,0.83,0.05,0.46c0.12-0.09,0.51-0.29,0.75-0.35
	c0.25-0.02,0.75,0.07,0.92,0.14c0.25,0.17,0.49,0.42,0.5,0.43c-0.04-0.03-0.1-0.2-0.21-0.56c-0.13-0.38-0.23-1.05-0.41-1.91
	c-0.36-1.59-0.65-3.17-0.39-4.72c0.14-0.89-0.46-1.73-1.35-1.87C59.49,46.45,58.65,47.05,58.51,47.94"/>
<path d="M86.62,47.66c0.53,1.06,0.44,2.68,0.62,4.56c0.17,1.08,1.19,1.82,2.27,1.65c1.08-0.17,1.82-1.19,1.65-2.27
	c-0.17-1.08-1.19-1.82-2.27-1.65c-1.08,0.17-1.82,1.19-1.65,2.27c0.57,1.81,1.61,3.97,3.74,4.97c0.55,0.31,1.25,0.12,1.57-0.43
	c0.31-0.55,0.12-1.25-0.43-1.57c-1.05-0.81-0.97-1.9-0.96-3.59c-0.38-1.62-0.63-3.77-1.69-5.53c-0.44-0.79-1.44-1.07-2.22-0.63
	C86.46,45.88,86.18,46.87,86.62,47.66z"/>
<path d="M90.63,35.52c0.09-0.22,0.14-0.59,0.15-0.9c-0.26-0.98-1.26-1.57-2.24-1.31c-0.98,0.26-1.57,1.26-1.31,2.24
	c0.26,0.98,1.26,1.57,2.24,1.31c0.98-0.26,1.57-1.26,1.31-2.24c-0.02-0.12-0.11-0.39-0.18-0.56c-0.55-0.89-1.72-1.16-2.6-0.61
	c-0.89,0.55-1.16,1.72-0.61,2.6c0.55,0.89,1.72,1.16,2.6,0.61c0.89-0.55,1.16-1.72,0.61-2.6c-0.13-0.21-0.62-0.66-1.02-0.86
	c-1.02-0.33-2.11,0.23-2.45,1.25c-0.33,1.02,0.23,2.11,1.25,2.45c1.02,0.33,2.11-0.23,2.45-1.25c0.33-1.02-0.23-2.11-1.25-2.45
	c-0.4-0.1-1.23-0.03-1.55,0.09c-0.97,0.51-1.35,1.72-0.83,2.69c0.51,0.97,1.72,1.35,2.69,0.83c0.97-0.51,1.35-1.72,0.83-2.69
	c-0.51-0.97-1.72-1.35-2.69-0.83c-0.27,0.15-0.57,0.39-0.68,0.5c-0.71,0.88-0.57,2.17,0.31,2.87c0.88,0.71,2.17,0.57,2.87-0.31
	c0.71-0.88,0.57-2.17-0.31-2.87c-0.88-0.71-2.17-0.57-2.87,0.31c-0.28,0.77-0.33,1.73-0.13,2.59c0.07,0.88,0.84,1.53,1.72,1.46
	c0.88-0.07,1.53-0.84,1.46-1.72c-0.07-0.88-0.84-1.53-1.72-1.46c-0.88,0.07-1.53,0.84-1.46,1.72c0.22,0.76,0.65,1.87,1.4,2.87
	c0.32,0.55,1.03,0.73,1.57,0.4c0.55-0.32,0.73-1.03,0.4-1.57c-0.34-0.84-0.31-1.43-0.2-1.95c0.1-0.43,0.26-0.34,0.13,0.23
	c-0.1,0.09-0.39,0.33-0.62,0.45c-0.33,0.13-1.15,0.2-1.59,0.08c-0.35-0.18-0.83-0.63-0.94-0.82c-0.07-0.16-0.15-0.41-0.16-0.5
	c0.03-0.22,0.09-0.4,0.15-0.35c-0.09,0.9,0.57,1.7,1.47,1.78C89.74,37.08,90.54,36.42,90.63,35.52"/>
<path d="M98.53,31.73c-1.4,2.99-0.87,9.64,0.06,15.35c0.17,0.99,1.12,1.66,2.11,1.49c0.99-0.17,1.66-1.12,1.49-2.11
	c-0.17-0.99-1.12-1.66-2.11-1.49c-0.99,0.17-1.66,1.12-1.49,2.11c0.96,4.24,2.16,8.13,3,9.67c0.23,0.59,0.9,0.88,1.49,0.65
	c0.59-0.23,0.88-0.9,0.65-1.49c-0.34-1.46-1.04-5.24-1.54-9.45c-1.03-5.54-1.67-11.51-0.72-13.29c0.4-0.81,0.07-1.79-0.74-2.19
	C99.91,30.59,98.93,30.92,98.53,31.73z"/>
<path d="M102.21,47.39c-0.04,0-0.11,0.36-0.15,0.44c0.42-0.76,0.15-1.72-0.6-2.14c-0.76-0.42-1.72-0.15-2.14,0.6
	c-0.42,0.76-0.15,1.72,0.6,2.14c0.76,0.42,1.72,0.15,2.14-0.6c-0.07,0.04-0.23,0.16-0.14,0.1c0.73-0.41,0.99-1.33,0.59-2.06
	c-0.41-0.73-1.33-0.99-2.06-0.59c-0.73,0.41-0.99,1.33-0.59,2.06c0.41,0.73,1.33,0.99,2.06,0.59c0.23-0.19,0.71-0.34,1.47-0.53
	c0.75-0.15,1.24-0.88,1.09-1.64c-0.15-0.75-0.88-1.24-1.64-1.09c-0.75,0.15-1.24,0.88-1.09,1.64c0.15,0.75,0.88,1.24,1.64,1.09
	c1.53-0.39,3.76-0.82,5.57-1.95c0.55-0.32,0.73-1.03,0.41-1.57c-0.32-0.55-1.03-0.73-1.57-0.41c-1.44,0.78-3.31,0.95-4.95,1.2
	c-0.83,0.12-1.71,0.3-2.39,0.62c-0.36,0.19-0.86,0.61-1.14,1.01c-0.24,0.44-0.37,1.23-0.31,1.74c0.18,0.88,1.04,1.46,1.92,1.28
	C101.82,49.14,102.39,48.28,102.21,47.39"/>
<path d="M120.49,46.6c0.35-0.07,1.26,0.14,1.43,0.25c-0.65-0.62-1.68-0.6-2.3,0.04s-0.6,1.68,0.04,2.3c0.65,0.62,1.68,0.6,2.3-0.04
	c0.62-0.65,0.6-1.68-0.04-2.3c0.07,0.1,0.1,0.14,0.02-0.02c-0.4-0.8-1.37-1.12-2.17-0.72c-0.8,0.4-1.12,1.37-0.72,2.17
	c0.4,0.8,1.37,1.12,2.17,0.72c0.8-0.4,1.12-1.37,0.72-2.17c-0.18-0.34-0.52-1.07-1.09-1.68c-0.62-0.63-1.63-0.64-2.27-0.02
	c-0.63,0.62-0.64,1.63-0.02,2.27c0.62,0.63,1.63,0.64,2.27,0.02s0.64-1.63,0.02-2.27c-0.62-0.52-1.64-0.76-2.26-0.71
	c-0.58,0.07-1.29,0.29-1.87,0.55c-1.13,0.52-2.4,1.39-3.22,2.21c-0.8,0.87-1.27,2.01-1.51,2.93c-0.25,0.99-0.54,2.33-0.37,3.57
	c0.33,1.37,1.51,2.64,2.56,3.09c0.73,0.22,1.69,0.12,2.28-0.11c0.56-0.24,1.18-0.66,1.64-1.06c1.04-0.97,1.79-2.44,2.29-3.56
	c0.48-1.01,0.66-2,0.77-2.4c0.2-0.66-0.17-1.36-0.83-1.56c-0.66-0.2-1.36,0.17-1.56,0.83c-0.2,0.66,0.17,1.36,0.83,1.56
	c0.66,0.2,1.36-0.17,1.56-0.83c-0.16,0.26-2.39-0.34-2.38-0.22c0.01,0.14,0.01,0.44,0.03,0.83c0.02,0.68,0.58,1.21,1.26,1.19
	c0.68-0.02,1.21-0.58,1.19-1.26c-0.02-0.68-0.58-1.21-1.26-1.19c-0.68,0.02-1.21,0.58-1.19,1.26c0.03,0.77,0.12,1.95,0.39,3.13
	c0.15,0.65,0.79,1.05,1.44,0.9c0.65-0.15,1.05-0.79,0.9-1.44c-0.15-0.65-0.79-1.05-1.44-0.9c-0.65,0.15-1.05,0.79-0.9,1.44
	c0.28,1.17,0.84,2.54,1.74,3.52c0.44,0.47,1.19,0.5,1.66,0.05c0.47-0.44,0.5-1.19,0.05-1.66c-0.44-0.47-1.19-0.5-1.66-0.05
	c-0.47,0.44-0.5,1.19-0.05,1.66c0.93,0.95,2.5,1.64,4.28,1.54c0.63-0.04,1.11-0.59,1.07-1.23c-0.04-0.63-0.59-1.11-1.23-1.07
	c-1.27,0.11-1.83-0.2-2.4-0.85c-0.6-0.62-0.9-1.45-1.12-2.45c-0.22-0.99-0.27-1.94-0.28-2.66c-0.01-0.36,0-0.64,0-0.83
	c0-0.22-2.25-0.92-2.48-0.44c-0.19,0.58-0.31,1.32-0.67,1.99c-0.58,1.04-1.14,2.04-1.82,2.49c-0.35,0.27-0.61,0.42-0.9,0.51
	c-0.25,0.09-0.1,0.09-0.05,0.04c-0.38-0.13-0.57-0.31-0.56-0.79c-0.13-0.55,0.07-1.27,0.32-2.25c0.19-0.75,0.29-1.09,0.7-1.46
	c0.57-0.59,1.4-1.17,2.25-1.54c0.41-0.19,0.65-0.27,0.88-0.29c0.19-0.04-0.16-0.15-0.36-0.23c0.17,0.14,0.27,0.45,0.49,0.9
	c0.11,0.23,0.34,0.6,0.62,0.91c0.37,0.31,1.52,0.59,2.15,0.39c0.82-0.37,1.2-1.33,0.83-2.15C122.28,46.6,121.32,46.23,120.49,46.6"
	/>
<path d="M128.19,33.21c-0.55,1.94-0.59,6.28-0.55,10.64c0.01,0.89,0.74,1.61,1.63,1.6c0.89-0.01,1.61-0.74,1.6-1.63
	c-0.01-0.89-0.74-1.61-1.63-1.6c-0.89,0.01-1.61,0.74-1.6,1.63c0.2,4.97,0.56,9.98,2.49,14.58c0.23,0.59,0.89,0.89,1.49,0.66
	c0.59-0.23,0.89-0.89,0.66-1.49c-1.52-4.3-1.51-8.85-1.39-13.78c-0.03-4.34,0.01-8.38,0.44-9.67c0.26-0.86-0.23-1.77-1.09-2.04
	C129.37,31.86,128.46,32.34,128.19,33.21z"/>
<path d="M126.34,51.41c0.7,0.14,1.33,0.02,1.6-0.11c0.81-0.32,1.2-1.23,0.88-2.04s-1.23-1.2-2.04-0.88
	c-0.81,0.32-1.2,1.23-0.88,2.04c0.32,0.81,1.23,1.2,2.04,0.88c0.24-0.12,0.53-0.28,0.8-0.45c0.74-0.39,1.02-1.3,0.63-2.04
	c-0.39-0.74-1.3-1.02-2.04-0.63c-0.74,0.39-1.02,1.3-0.63,2.04c0.39,0.74,1.3,1.02,2.04,0.63c0.54-0.33,1.19-0.74,1.92-1.15
	c0.69-0.34,0.98-1.17,0.64-1.86c-0.34-0.69-1.17-0.98-1.86-0.64c-0.69,0.34-0.98,1.17-0.64,1.86c0.34,0.69,1.17,0.98,1.86,0.64
	c1.47-0.81,3.03-1.53,4.36-1.34c0.63,0.1,1.22-0.33,1.32-0.95c0.1-0.63-0.33-1.22-0.95-1.32c-2.01-0.35-4.29,0.39-5.95,1.12
	c-0.84,0.37-1.58,0.73-2.11,0.97c-0.26,0.12-0.43,0.18-0.55,0.2c-0.09,0.02,0.29-0.05,0.85,0.03c-0.83-0.35-1.79,0.03-2.14,0.86
	C125.12,50.1,125.51,51.06,126.34,51.41z"/>
<path d="M139.15,47.41c0.29,1.01,0.06,3.12,0.18,5.16c0.02,0.77,0.65,1.38,1.42,1.36c0.77-0.02,1.38-0.65,1.36-1.42
	c-0.02-0.77-0.65-1.38-1.42-1.36c-0.77,0.02-1.38,0.65-1.36,1.42c0.06,1.02,0.25,2.15,0.67,3.02c0.29,0.64,1.05,0.92,1.68,0.63
	c0.64-0.29,0.92-1.05,0.63-1.68c-0.29-0.64-1.05-0.92-1.68-0.63c-0.64,0.29-0.92,1.05-0.63,1.68c0.47,0.87,1.49,1.71,2.63,1.89
	c0.63,0.1,1.21-0.34,1.31-0.96c0.1-0.63-0.34-1.21-0.96-1.31c-0.51-0.08-0.51-0.18-0.67-0.67c-0.2-0.49-0.23-1.13-0.2-2.02
	c0.04-1.78,0.43-4.02,0.25-5.68c-0.16-0.89-1.01-1.48-1.9-1.32C139.58,45.67,138.99,46.52,139.15,47.41"/>
<path d="M141.02,38c-0.44,0.16-1.53,0.63-2.18,1.41c-0.48,0.6-0.39,1.47,0.2,1.96c0.6,0.48,1.47,0.39,1.96-0.2
	c0.49-0.6,0.39-1.47-0.2-1.96c-0.6-0.48-1.47-0.39-1.96,0.2c-0.29,0.48-0.42,1.59-0.05,2.25c0.37,0.6,1.15,0.78,1.75,0.42
	c0.6-0.37,0.78-1.15,0.42-1.75c-0.37-0.6-1.15-0.78-1.75-0.42c-0.6,0.37-0.78,1.15-0.42,1.75c0.36,0.46,1.04,0.94,1.87,1.28
	c0.58,0.27,1.26,0.01,1.52-0.56c0.27-0.58,0.01-1.26-0.56-1.52c-0.61-0.32-0.7-0.44-0.67-0.52c0.03,0.11,0.02,0.76,0.05,0.84
	c-0.01-0.01,0.4-0.02,0.49,0.07c0.89-0.13,1.51-0.96,1.38-1.85C142.74,38.49,141.91,37.87,141.02,38"/>
<path d="M152.75,54.46c1.2,0.59,2.82,0.47,3.96,0c0.83-0.35,1.22-1.31,0.87-2.14c-0.35-0.83-1.31-1.22-2.14-0.87
	c-0.83,0.35-1.22,1.31-0.87,2.14c0.35,0.83,1.31,1.22,2.14,0.87c1.11-0.48,2.3-1.33,3.19-2.19c0.64-0.63,0.64-1.67,0.01-2.31
	c-0.63-0.64-1.67-0.64-2.31-0.01c-0.64,0.63-0.64,1.67-0.01,2.31c0.63,0.64,1.67,0.64,2.31,0.01c1.15-1.11,2.24-2.79,2.27-4.53
	c-0.05-0.94-0.85-1.67-1.8-1.62c-0.94,0.05-1.67,0.85-1.62,1.8c0.05,0.94,0.85,1.67,1.8,1.62c0.94-0.05,1.67-0.85,1.62-1.8
	c-0.23-1.74-1.65-3.32-2.79-4.12c-1.4-0.78-3.31-0.72-4.65-0.17c-1.28,0.57-2.62,1.66-3.42,2.79c-0.48,0.64-0.35,1.55,0.29,2.02
	c0.64,0.48,1.55,0.35,2.02-0.29c0.48-0.64,0.35-1.55-0.29-2.02c-0.64-0.48-1.55-0.35-2.02,0.29c-0.78,1.16-1.25,2.84-0.86,4.23
	c0.2,0.69,0.92,1.08,1.61,0.88c0.69-0.2,1.08-0.92,0.88-1.61c-0.2-0.69-0.92-1.08-1.61-0.88c-0.69,0.2-1.08,0.92-0.88,1.61
	c0.24,0.66,0.78,1.43,1.43,1.94c0.53,0.42,1.3,0.34,1.72-0.19c0.42-0.53,0.34-1.3-0.19-1.72c-0.53-0.42-1.3-0.34-1.72,0.19
	c-0.42,0.53-0.34,1.3,0.19,1.72c0.64,0.47,1.57,0.89,2.61,1.15c0.61,0.17,1.24-0.19,1.41-0.81c0.17-0.61-0.19-1.24-0.81-1.41
	c-0.84-0.25-1.31-0.51-1.68-0.85c-0.36-0.3-0.42-0.45-0.47-0.76c-0.18-0.56,0.07-1.04,0.69-1.77c0.6-0.75,1.36-1.27,2.26-1.55
	c0.85-0.3,1.19-0.31,1.54,0.09c0.84,0.54,1.44,1.06,1.32,1.41c0.16,0.58-0.25,1.11-1.15,2.03c-0.68,0.68-1.39,1.2-2.15,1.5
	c-0.72,0.32-0.9,0.39-1.05,0.19c-0.78-0.46-1.78-0.19-2.23,0.58C151.71,53,151.97,54,152.75,54.46z"/>
<path d="M163.6,43.25c0.22,0.96,0.66,2.15,0.9,3.57c0.16,0.9,1.03,1.5,1.93,1.34c0.9-0.16,1.5-1.03,1.34-1.93
	c-0.16-0.9-1.03-1.5-1.93-1.34c-0.9,0.16-1.5,1.03-1.34,1.93c0.08,0.56,0.02,1.25,0,2.16c0.01,0.97,0.81,1.74,1.78,1.72
	c0.97-0.01,1.74-0.81,1.72-1.78c-0.01-0.97-0.81-1.74-1.78-1.72c-0.97,0.01-1.74,0.81-1.72,1.78c0,0.92-0.05,1.9-0.06,2.75
	c0.01,0.99,0.83,1.78,1.82,1.77c0.99-0.01,1.78-0.83,1.77-1.82c-0.01-0.99-0.83-1.78-1.82-1.77c-0.99,0.01-1.78,0.83-1.77,1.82
	c0,0.43,0.02,0.9,0.07,1.28c0.06,0.41,0.34,1.13,0.8,1.67c0.76,0.66,1.92,0.58,2.59-0.18c0.66-0.76,0.58-1.92-0.18-2.59
	c-0.76-0.66-1.92-0.58-2.59,0.18c-0.66,0.76-0.58,1.92,0.18,2.59c1.75,0.36,2.48-0.08,2.6-0.23c0.09-0.12,0.2-0.28,0.28-0.42
	c0.16-0.27,0.38-0.65,0.61-1.05c0.44-0.8,0.99-1.82,1.34-2.64c0.5-1.11,1.16-2.09,1.68-2.78c0.07-0.05-0.01,0.03-0.05,0.09
	c-0.09,0.04-0.46,0.07-0.59,0.07c-0.17-0.08-0.32-0.15-0.23,0.1c0.39,0.67,1.25,0.91,1.93,0.52c0.67-0.39,0.91-1.25,0.52-1.93
	c-0.39-0.67-1.25-0.91-1.93-0.52c-0.67,0.39-0.91,1.25-0.52,1.93c0.23,0.54,0.53,1.61,1.03,2.85c0.4,0.83,1.39,1.17,2.22,0.78
	c0.83-0.4,1.17-1.39,0.78-2.22c-0.4-0.83-1.39-1.17-2.22-0.78c-0.83,0.4-1.17,1.39-0.78,2.22c0.6,1.35,1.57,3.04,2.97,4.27
	c0.78,0.63,1.92,0.51,2.55-0.27c0.63-0.78,0.51-1.92-0.27-2.55c-0.78-0.63-1.92-0.51-2.55,0.27c-0.63,0.78-0.51,1.92,0.27,2.55
	c0.99,0.51,2.28,0.92,3.55,0.96c0.62,0.12,1.23-0.28,1.35-0.9c0.12-0.62-0.28-1.23-0.9-1.35c-0.83-0.38-1.27-0.86-1.72-1.52
	c-1.01-0.71-1.64-1.73-2.25-2.89c-0.59-1.03-1.06-2.08-1.58-2.82c-0.28-0.39-0.79-0.89-1.36-1.11c-0.32-0.07-0.9-0.03-1.2,0.09
	c-0.25,0.14-0.56,0.4-0.73,0.62c-0.72,0.68-1.68,1.81-2.43,3.03c-0.43,0.65-1.03,1.49-1.57,2.15c-0.26,0.33-0.49,0.59-0.66,0.75
	c-0.08,0.08-0.11,0.09-0.13,0.08c0.02-0.04,0.67-0.43,2.4-0.09c0.26,0.35,0.4,0.68,0.37,0.54c-0.04-0.17-0.05-0.4-0.06-0.76
	c-0.02-0.74,0-1.74-0.03-2.76c-0.04-0.81-0.04-1.77-0.23-2.69c-0.32-1.68-0.82-3.02-1-3.73c-0.21-0.88-1.09-1.42-1.97-1.21
	C163.93,41.49,163.39,42.37,163.6,43.25"/>
<path d="M185.1,43.73c0.05,0.11,0.14,0.32,0.23,0.47c0.4,0.77,1.35,1.08,2.12,0.68c0.77-0.4,1.08-1.35,0.68-2.12
	c-0.4-0.77-1.35-1.08-2.12-0.68c-0.77,0.4-1.08,1.35-0.68,2.12c0.15,0.21,0.98,0.78,1.81,0.78c0.81-0.21,1.3-1.03,1.09-1.84
	c-0.21-0.81-1.03-1.3-1.84-1.09c-0.81,0.21-1.3,1.03-1.09,1.84c0.21,0.81,1.03,1.3,1.84,1.09c0.61-0.34,0.98-0.87,1.03-1.04
	c0.26-0.76-0.15-1.58-0.9-1.84c-0.76-0.26-1.58,0.15-1.84,0.9c-0.26,0.76,0.15,1.58,0.9,1.84c0.76,0.26,1.58-0.15,1.84-0.9
	c0.02-0.13,0.04-0.3,0.03-0.4c-0.04-0.33-0.12-0.84-0.26-1.3c0.02-1.25-0.86-2.63-1.65-3.4c-0.86-0.29-1.98-0.13-2.45,0.1
	c-0.4,0.23-0.86,0.6-1.19,0.91c-0.63,0.62-1.29,1.49-1.7,2.16c-0.52,0.85-1.02,2.24-0.86,3.53c0.44,1.35,1.66,2.38,2.7,2.97
	c1.03,0.56,2.2,1.06,3.17,1.57c1.53,0.78,2.82,1.68,3.67,2.61c0.54,0.57,0.63,1.03,0.54,1.77c-0.07,0.75-0.58,1.39-1.33,1.9
	c-0.35,0.26-0.54,0.34-0.78,0.36c-0.89,0.2-1.45,1.08-1.25,1.97c0.2,0.89,1.08,1.45,1.97,1.25c0.89-0.2,1.45-1.08,1.25-1.97
	c-0.2-0.89-1.08-1.45-1.97-1.25c-0.2,0.05,0.07,0.09,0.13,0.03c-0.76-0.56-1.83-0.39-2.39,0.37c-0.56,0.76-0.39,1.83,0.37,2.39
	c0.76,0.56,1.83,0.39,2.39-0.37c0.56-0.76,0.39-1.83-0.37-2.39c-0.09,0.08-0.08,0.26-0.23,0.06c-0.22-0.76-1.02-1.19-1.78-0.97
	c-0.76,0.22-1.19,1.02-0.97,1.78c0.22,0.76,1.02,1.19,1.78,0.97c0.76-0.22,1.19-1.02,0.97-1.78c-0.18-0.26-0.31-0.59-0.35-1.23
	c0.05-0.63-0.43-1.18-1.06-1.23c-0.63-0.05-1.18,0.43-1.23,1.06c-0.15,0.8-0.17,1.61-0.1,2.21c0.11,0.66,0.53,1.44,0.95,1.9
	c0.74,0.45,1.88,0.58,2.6,0.43c0.68-0.19,1.47-0.62,2.03-1.07c1.07-0.92,2.11-2.53,2.3-4.07c0.14-1.25-0.23-2.88-1.13-4.05
	c-1.02-1.31-2.66-2.65-4.33-3.66c-1.07-0.64-2.19-1.18-3.01-1.71c-0.8-0.51-0.99-0.6-0.79-0.55c-0.11-0.17-0.02-0.22,0.36-0.81
	c0.3-0.46,0.71-0.97,1.15-1.36c0.21-0.19,0.27-0.24,0.34-0.26c0-0.01-0.7,0.07-1.26-0.07c0.52-0.08,1.03,0.01,1.24,0.19
	c-0.03,0.33-0.12,0.55-0.21,0.63c-0.02,0-0.02-0.09-0.02-0.16c0.03-0.12,0.38-0.61,0.96-0.95c0.81,0,1.61,0.55,1.73,0.71
	c0.07,0.1,0.13,0.22,0.15,0.21c-0.21-0.88-1.09-1.42-1.97-1.21C185.43,41.97,184.89,42.85,185.1,43.73z"/>
<path d="M199.13,55.05c0.02,0.15,0.05,0.3,0.08,0.44c1.15,0,2.08-0.93,2.08-2.08s-0.93-2.08-2.08-2.08c-1.15,0-2.08,0.93-2.08,2.08
	s0.93,2.08,2.08,2.08c0.04,0.14,0.08,0.28,0.15,0.43c1.38,0,2.5-1.12,2.5-2.5c0-1.38-1.12-2.5-2.5-2.5c-1.38,0-2.5,1.12-2.5,2.5
	c0,1.38,1.12,2.5,2.5,2.5c0.21-0.45,0.61-0.9,1.48-1.35c0.63,0,1.15-0.51,1.15-1.15s-0.51-1.15-1.15-1.15
	c-0.87-0.45-1.27-0.9-1.48-1.35c-0.07,0.14-0.12,0.28-0.15,0.43c-0.04,0.15-0.06,0.29-0.08,0.44c-0.9,0-1.63,0.73-1.63,1.63
	S198.23,55.05,199.13,55.05"/>
<path d="M209.53,53.56c0.19-0.05,0.37-0.11,0.56-0.16c0.72,0.17,1.45-0.28,1.62-1.01c0.17-0.72-0.28-1.45-1.01-1.62
	c-0.14-0.13-0.29-0.26-0.43-0.39c-0.88-0.2-1.76,0.34-1.96,1.22C208.1,52.48,208.65,53.36,209.53,53.56"/>
<path d="M220.25,52.99c-0.1,0.08-0.22-0.09-0.44,0c-0.57,0.98-0.24,2.23,0.74,2.8c0.98,0.57,2.23,0.24,2.8-0.74
	c0.57-0.98,0.24-2.23-0.74-2.8c-0.98-0.57-2.23-0.24-2.8,0.74c-0.15,0.07-0.31,0.08-0.55,0.2c-0.83,1-0.7,2.49,0.31,3.33
	c1,0.83,2.49,0.7,3.33-0.31c0.83-1,0.7-2.49-0.31-3.33c-1-0.83-2.49-0.7-3.33,0.31c0.14,0.29,0.15,0.81,0.25,1.47
	c-0.11,0.81,0.46,1.55,1.27,1.66c0.81,0.11,1.55-0.46,1.66-1.27c0.11-0.81-0.46-1.55-1.27-1.66c-0.81-0.11-1.55,0.46-1.66,1.27
	c0,0.23,0.15,0.83,0.35,1.11c0.5,0.62,1.4,0.72,2.02,0.23c0.62-0.5,0.72-1.4,0.23-2.02c-0.5-0.62-1.4-0.72-2.02-0.23
	c-0.62,0.5-0.72,1.4-0.23,2.02c0.26,0.24,0.71,0.45,0.88,0.48c0.76,0.14,1.49-0.35,1.63-1.11c0.14-0.76-0.35-1.49-1.11-1.63
	c-0.76-0.14-1.49,0.35-1.63,1.11c-0.14,0.76,0.35,1.49,1.11,1.63c0.26,0,0.53-0.05,0.63-0.1c0.71-0.15,1.16-0.85,1.01-1.56
	c-0.15-0.71-0.85-1.16-1.56-1.01c-0.71,0.15-1.16,0.85-1.01,1.56c0.15,0.71,0.85,1.16,1.56,1.01c0.14-0.09,0.32-0.2,0.52-0.33
	c0.6-0.21,0.92-0.86,0.71-1.46c-0.21-0.6-0.86-0.92-1.46-0.71c-0.2,0.01-0.29-0.02-0.31-0.07c0.02-0.03,0.22-0.07,0.44-0.08
	c0.17,0.03,0.6,0.24,0.84,0.45c0.2,0.29,0.35,0.88,0.36,1.09c0.1,0.61,0.19,1.02,0.46,1.16c0.01-0.17,0.26-0.63,0.46-1.15
	c0.13-0.51,0.29-1.41,0.16-2.16c-0.03-0.9-0.78-1.61-1.68-1.58C220.93,51.33,220.22,52.09,220.25,52.99"/>
<path d="M181.88,104.44c-1.61-2.62,0.05-7.93-4.28-11.37c-0.51-0.38-1.23-0.28-1.61,0.23c-0.38,0.51-0.28,1.23,0.23,1.61
	c3.17,2.22,1.12,6.82,2.72,10.94c0.39,0.81,1.36,1.16,2.18,0.77C181.92,106.23,182.27,105.25,181.88,104.44"/>
<path d="M105.51,85.63c0.02-0.34,0.03-0.57,0.05-0.7c0-0.93-0.75-1.68-1.68-1.68c-0.93,0-1.68,0.75-1.68,1.68
	c0,0.93,0.75,1.68,1.68,1.68c0.93,0,1.68-0.75,1.68-1.68c0.02-0.14-3.39-0.18-3.4-0.13c0,0.95,0.77,1.73,1.73,1.73
	c0.95,0,1.73-0.77,1.73-1.73c0-0.95-0.77-1.73-1.73-1.73c-0.95,0-1.73,0.77-1.73,1.73c-0.03,0.09-0.06,0.52-0.09,1.21
	c0,1,0.81,1.82,1.82,1.82c1,0,1.82-0.81,1.82-1.82c0-1-0.81-1.82-1.82-1.82c-1,0-1.82,0.81-1.82,1.82
	c-0.06,1.38-0.12,3.82-0.19,6.67c-0.04,6.68-0.08,16.09-0.12,22.99c-0.03,3.64-0.06,6.65-0.09,8.99c0.01,1.7-0.07,3.19,0.01,4.13
	c0.11,0.26,0.27,0.67,0.48,0.98c0.13,0.18,0.48,0.6,0.8,0.81c0.81,0.57,1.93,0.38,2.5-0.43c0.57-0.81,0.38-1.93-0.43-2.5
	c-0.81-0.57-1.93-0.38-2.5,0.43c-0.57,0.81-0.38,1.93,0.43,2.5c0.39,0.17,1.23,0.26,1.59,0.15c0.88-0.26,1.39-1.18,1.13-2.06
	c-0.26-0.88-1.18-1.39-2.06-1.13c-0.88,0.26-1.39,1.18-1.13,2.06c0.26,0.88,1.18,1.39,2.06,1.13c0.45-0.28,0.81-0.71,0.92-0.99
	c0.46-0.62,0.34-1.5-0.29-1.97c-0.62-0.46-1.5-0.34-1.97,0.29c-0.46,0.62-0.34,1.5,0.29,1.97c0.62,0.46,1.5,0.34,1.97-0.29
	c0.08-0.25,0.17-0.57,0.26-0.91c0.3-0.56,0.1-1.26-0.46-1.56c-0.56-0.3-1.26-0.1-1.56,0.46c-0.21,0.21-0.36,0.29-0.5,0.33
	c-0.1,0,0.09-0.27,0.41-0.52c0.29-0.09,1.07-0.01,1.4,0.12c0.27,0.18,0.58,0.53,0.67,0.63c0.13,0.13,0.24,0.26,0.32,0.16
	c-0.04-0.53,0.06-1.95,0.07-3.78c-0.03-2.34-0.06-5.34-0.09-8.99c-0.04-6.9-0.08-16.31-0.12-22.99c-0.06-2.86-0.12-5.29-0.19-6.67
	c-0.03-0.69-0.06-1.12-0.09-1.21c-0.02-0.04-3.42,0-3.4,0.13c0.02,0.14,0.03,0.37,0.05,0.7c0,0.9,0.73,1.63,1.63,1.63
	C104.78,87.26,105.51,86.53,105.51,85.63"/>
<path d="M107.49,87.84c0.3-0.58,0.49-0.68,1.14-0.87c0.89-0.32,1.34-1.3,1.02-2.19c-0.32-0.89-1.3-1.34-2.19-1.02
	c-0.89,0.32-1.34,1.3-1.02,2.19c0.32,0.89,1.3,1.34,2.19,1.02c0.66-0.23,1.47-0.28,2.66-0.27c0.98-0.02,1.76-0.83,1.75-1.81
	c-0.02-0.98-0.83-1.76-1.81-1.75c-0.98,0.02-1.76,0.83-1.75,1.81c0.02,0.98,0.83,1.76,1.81,1.75c2.41,0,5.78,0.35,9.81,0.02
	c1.06-0.1,1.83-1.04,1.73-2.1c-0.1-1.06-1.04-1.83-2.1-1.73c-1.06,0.1-1.83,1.04-1.73,2.1c0.1,1.06,1.04,1.83,2.1,1.73
	c9.67-0.89,19.47-1.64,29.64-2.69c5.47-0.58,10.17-1.33,13.51-1.43c1.8-0.07,3.42-0.05,5-0.04c1.22,0.01,2.11-0.15,2.4-0.04
	c-0.3-0.14-0.88-0.64-0.95-0.7c0-0.02-0.02-0.04-0.02,0.24c0.01,0.59-0.12,1.44-0.24,2.38c-0.67,6.89,1.14,18.12,2.21,26.3
	c0.47,3.64,0.74,6.44,0.83,9.35c0.06,1.51-0.02,3.15-0.06,4.6c-0.01,0.95,0.12,1.35,0.07,1.26c-0.18,0.57-0.1,0.51-0.18,0.4
	c0.33-0.09,0.45-0.16-0.08-0.21c-0.55-0.04-1.31-0.18-2.12-0.24c-2.07-0.16-4.2-0.14-7.09,0.07c-7.03,0.54-21.18,4.37-31.55,6.38
	c-5.02,0.99-8.66,1.51-10.86,1.26c-1.25-0.13-2.36,0.79-2.49,2.03c-0.13,1.25,0.79,2.36,2.03,2.49c1.25,0.13,2.36-0.79,2.49-2.03
	c0.13-1.25-0.79-2.36-2.03-2.49c-0.66,0.03-0.99,0.05-1.32-0.02c-0.99-0.48-2.18-0.06-2.66,0.93c-0.48,0.99-0.06,2.18,0.93,2.66
	c0.99,0.48,2.18,0.06,2.66-0.93c0.48-0.99,0.06-2.18-0.93-2.66c-0.33-0.04-0.31,0.12-0.44,0c-0.42-0.85-1.45-1.19-2.3-0.76
	c-0.85,0.42-1.19,1.45-0.76,2.3c0.42,0.85,1.45,1.19,2.3,0.76c0.85-0.42,1.19-1.45,0.76-2.3c-0.46-0.3-0.53-0.98,0.06-2.68
	c0.27-0.58,0.02-1.26-0.56-1.53c-0.58-0.27-1.26-0.02-1.53,0.56c-1.05,1.84-1.45,3.73-1.03,5.17c0.31,0.76,1.07,1.59,1.76,2.05
	c0.69,0.42,1.68,0.76,2.6,0.95c2.86,0.26,7.07-0.32,12.19-1.33c10.54-2.1,24.55-5.95,31.01-6.46c2.78-0.23,4.57-0.28,6.45-0.16
	c0.59,0.04,1.32,0.16,2.08,0.22c0.78,0.06,2.03-0.07,3.03-0.67c0.91-0.86,1.36-2.09,1.5-2.79c0.18-1.01,0.03-1.69,0.07-2.11
	c0.07-1.39,0.2-3.16,0.17-4.87c-0.09-3.05-0.38-6.07-0.85-9.76c-1.05-8.27-2.81-19.14-2.13-25.33c0.07-0.9,0.18-2,0.14-2.95
	c-0.03-0.49-0.15-1.18-0.36-1.7c-0.28-0.56-1.19-1.4-1.98-1.64c-1.16-0.19-2.31-0.02-3.15-0.04c-1.58-0.04-3.31-0.09-5.2-0.04
	c-3.65,0.13-8.44,0.9-13.81,1.48c-10.1,1.11-19.88,1.93-29.57,2.9c-3.71,0.41-6.87,0.17-9.51,0.26c-1.33,0.05-2.68,0.22-3.77,0.62
	c-1.1,0.45-2.25,1.41-2.87,2.56c-0.42,0.8-0.11,1.79,0.69,2.2C106.09,88.95,107.08,88.64,107.49,87.84"/>
<path d="M135.61,86.66c-0.68-0.96-1.95-1.74-3.03-1.8c-0.89,0.01-1.59,0.74-1.58,1.63c0.01,0.89,0.74,1.59,1.63,1.58
	c0.89-0.01,1.59-0.74,1.58-1.63c-0.01-0.89-0.74-1.59-1.63-1.58c-0.55,0.04-1.32,0.32-1.78,0.66c-0.69,0.54-0.82,1.54-0.28,2.23
	c0.54,0.69,1.54,0.82,2.23,0.28c0.69-0.54,0.82-1.54,0.28-2.23c-0.54-0.69-1.54-0.82-2.23-0.28c-0.41,0.34-0.86,0.93-1.13,1.48
	c-0.38,0.78-0.05,1.73,0.73,2.1c0.78,0.38,1.73,0.05,2.1-0.73c0.38-0.78,0.05-1.73-0.73-2.1c-0.78-0.38-1.73-0.05-2.1,0.73
	c-1.84,3.91-1.28,15.13-1.37,24.67c0,0.99,0.8,1.8,1.8,1.8c0.99,0,1.8-0.8,1.8-1.8c0-0.99-0.8-1.8-1.8-1.8c-0.99,0-1.8,0.8-1.8,1.8
	c0.2,10.57,0.5,18.41,3.6,21.84c0.42,0.48,1.14,0.53,1.62,0.11c0.48-0.42,0.53-1.14,0.11-1.62c-2.18-2.59-1.96-9.76-1.73-20.32
	c-0.06-9.65-0.78-20.54,0.61-23.31c0.13-0.27,0.14-0.28,0.25-0.34c0.06-0.06-0.15,0.02-0.13,0.05c0.06-0.07-0.02-0.1,0.27,0.4
	c0.5,0.75,1.51,0.95,2.26,0.46C135.9,88.43,136.11,87.41,135.61,86.66z"/>
<path d="M147.44,91.92c-0.01-0.35-0.05-0.69-0.09-0.93c-0.23-0.89-1.15-1.43-2.04-1.2c-0.89,0.23-1.43,1.15-1.2,2.04
	c0.23,0.89,1.15,1.43,2.04,1.2c0.89-0.23,1.43-1.15,1.2-2.04c-0.11-0.38-2.25-1.33-3.13-0.64c-0.53,0.78-0.34,1.85,0.44,2.38
	c0.78,0.53,1.85,0.34,2.38-0.44c0.53-0.78,0.34-1.85-0.44-2.38c-0.78-0.53-1.85-0.34-2.38,0.44c-0.33,0.59-0.49,1.25-0.61,2
	c-0.12,0.98,0.57,1.88,1.56,2c0.98,0.12,1.88-0.57,2-1.56c0.12-0.98-0.57-1.88-1.56-2c-0.98-0.12-1.88,0.57-2,1.56
	c-0.23,1.45-0.48,3.97-0.7,6.99c-0.17,5.5-0.24,12.8,0.05,18.72c0.02,0.86,0.73,1.53,1.59,1.51c0.86-0.02,1.53-0.73,1.51-1.59
	c-0.02-0.86-0.73-1.53-1.59-1.51c-0.86,0.02-1.53,0.73-1.51,1.59c0.14,2.96,0.38,5.64,0.75,7.56c0.12,0.74,0.81,1.24,1.54,1.13
	c0.74-0.12,1.24-0.81,1.13-1.54c-0.12-0.74-0.81-1.24-1.54-1.13c-0.74,0.12-1.24,0.81-1.13,1.54c0.19,0.97,0.43,1.84,0.71,2.46
	c0.26,0.64,0.99,0.94,1.63,0.68c0.64-0.26,0.94-0.99,0.68-1.63c-0.26-0.64-0.99-0.94-1.63-0.68c-0.64,0.26-0.94,0.99-0.68,1.63
	c0.31,0.65,1.06,1.37,1.91,1.47c0.63,0,1.15-0.52,1.14-1.16c0-0.63-0.52-1.15-1.16-1.14c0.27,0.1,0.53,0.26,0.42-0.12
	c-0.14-0.41-0.25-1.03-0.35-1.92c-0.21-1.8-0.31-4.31-0.32-7.22c-0.02-5.83,0.32-13,0.75-18.43c0.11-2.99,0.24-5.4,0.36-6.76
	c0.06-0.66,0.06-0.88-0.12-0.5c-0.81,0.58-2.88-0.31-2.93-0.45c0.02-0.01,0.04,0.07,0.07,0.34c0.07,0.9,0.86,1.57,1.76,1.5
	C146.84,93.6,147.51,92.82,147.44,91.92"/>
<path d="M112.6,107.8c-0.25-0.55-0.21-0.51-0.1-0.57c0.26-0.93-0.28-1.9-1.22-2.16c-0.93-0.26-1.9,0.28-2.16,1.22
	c-0.26,0.93,0.28,1.9,1.22,2.16c0.93,0.26,1.9-0.28,2.16-1.22c-0.02-0.02-0.15,0.21,0.18,0.11c0.92-0.47,1.29-1.59,0.83-2.51
	c-0.47-0.92-1.59-1.29-2.51-0.83c-0.92,0.47-1.29,1.59-0.83,2.51c0.47,0.92,1.59,1.29,2.51,0.83c0.73-0.33,2.2-0.4,4.28-0.46
	c1.16-0.08,2.04-1.08,1.96-2.24c-0.08-1.16-1.08-2.04-2.24-1.96c-1.16,0.08-2.04,1.08-1.96,2.24c0.08,1.16,1.08,2.04,2.24,1.96
	c1.87-0.06,4.3-0.03,7.38-0.3c1.26-0.14,2.17-1.28,2.03-2.54c-0.14-1.26-1.28-2.17-2.54-2.03c-1.26,0.14-2.17,1.28-2.03,2.54
	c0.14,1.26,1.28,2.17,2.54,2.03c6.73-0.79,15.81-3.8,22.45-4.94c1.21-0.2,2.03-1.35,1.83-2.57c-0.2-1.21-1.35-2.03-2.57-1.83
	c-1.21,0.2-2.03,1.35-1.83,2.57c0.2,1.21,1.35,2.03,2.57,1.83c3.98-0.86,6.71-0.93,8.75-0.56c0.9,0.24,1.83-0.3,2.06-1.2
	c0.24-0.9-0.3-1.83-1.2-2.06c-0.9-0.24-1.83,0.3-2.06,1.2c-0.24,0.9,0.3,1.83,1.2,2.06c2.02,0.32,2.97,0.87,3.51,1.67
	c0.28,0.57,0.97,0.81,1.54,0.53c0.57-0.28,0.81-0.97,0.53-1.54c-0.59-1.52-2.29-3.08-4.72-3.93c-2.41-0.81-5.95-1.11-10.35-0.56
	c-7.03,1.17-16.04,4.11-22.22,4.76c-2.87,0.39-5.16,0.47-7.16,0.67c-2.16,0.23-4.27,0.57-5.68,1.33c-0.74,0.44-1.59,1.38-1.87,2.29
	c-0.15,0.88,0.08,2.08,0.57,2.99c0.41,0.8,1.39,1.12,2.2,0.72C112.69,109.58,113.01,108.6,112.6,107.8z"/>
<path d="M106.42,121.06c2.51-0.17,2.7,0.53,5.16,1.03c0.93,0.16,1.82-0.46,1.98-1.4c0.16-0.93-0.46-1.82-1.4-1.98
	c-0.93-0.16-1.82,0.46-1.98,1.4c-0.16,0.93,0.46,1.82,1.4,1.98c3.69,0.7,10.07-0.55,16.89-1.34c1.12-0.15,1.91-1.18,1.76-2.31
	c-0.15-1.12-1.18-1.91-2.31-1.76c-1.12,0.15-1.91,1.18-1.76,2.31c0.15,1.12,1.18,1.91,2.31,1.76c12-1.91,24.4-1.2,32.51-6.66
	c0.53-0.34,0.69-1.05,0.34-1.59c-0.34-0.53-1.05-0.69-1.59-0.34c-7.43,4.55-19.35,3.18-31.8,4.52c-6.94,1.04-12.96,2.46-15.76,2.03
	c-1.71-0.22-2.67-1.09-5.95-0.91c-0.9,0.06-1.58,0.83-1.53,1.73C104.74,120.43,105.51,121.12,106.42,121.06"/>
<path d="M173.81,104.16c-0.31,0.08-0.62,0.18-1,0.4c-0.73,0.55-0.88,1.58-0.34,2.31c0.55,0.73,1.58,0.88,2.31,0.34
	c0.73-0.55,0.88-1.58,0.34-2.31c-0.55-0.73-1.58-0.88-2.31-0.34c-0.64,0.95,0.84,2.99,1.07,3c0.92-0.03,1.64-0.8,1.61-1.71
	c-0.03-0.92-0.8-1.64-1.71-1.61c-0.92,0.03-1.64,0.8-1.61,1.71c0.03,0.92,0.8,1.64,1.71,1.61c0.14,0,0.3-0.02,0.41-0.04
	c0.91-0.16,1.52-1.02,1.36-1.93c-0.16-0.91-1.02-1.52-1.93-1.36c-0.91,0.16-1.52,1.02-1.36,1.93c0.16,0.91,1.02,1.52,1.93,1.36
	c0.4-0.06,1.2-0.24,2.14-0.53c3.94-1.18,11.7-5.14,20.47-7.56c5.23-1.52,10.66-2.49,15.08-3.08c5.25-0.67,8.39-0.48,11.29-0.37
	c1.45,0.08,2.85,0.08,4,0.1c0.86,0.02,1.51,0.05,1.96,0.12c1.28,0.12,2.41-0.82,2.52-2.1c0.12-1.28-0.82-2.41-2.1-2.52
	c-1.28-0.12-2.41,0.82-2.52,2.1c-0.12,1.28,0.82,2.41,2.1,2.52c0.31-0.17,0.33-0.37,0.34-0.56c0.87,0.41,1.9,0.04,2.31-0.83
	c0.41-0.87,0.04-1.9-0.83-2.31c-0.87-0.41-1.9-0.04-2.31,0.83s-0.04,1.9,0.83,2.31c0-0.12-0.21-0.41-0.26-0.62
	c0.43,0.67,1.33,0.86,2,0.42c0.67-0.43,0.86-1.33,0.42-2c-0.43-0.67-1.33-0.86-2-0.42c-0.67,0.43-0.86,1.33-0.42,2
	c0-0.23,0.02-0.69,0.12-0.8c-0.13,0.62,0.27,1.23,0.89,1.36c0.62,0.13,1.23-0.27,1.36-0.89c0.14-0.29,0.13-0.9,0.05-1.25
	c-0.13-0.34-0.48-0.74-0.67-0.95c-0.38-0.37-0.95-0.69-1.4-0.93c-0.69-0.03-1.55,0-2.44,0.04c-1.18,0.05-2.49,0.13-3.83,0.13
	c-2.85-0.04-6.41-0.16-11.93,0.6c-4.52,0.6-10.24,1.63-15.67,3.2c-9.07,2.75-16.92,6.97-20.4,8.19c-0.83,0.28-1.4,0.43-1.66,0.49
	c-0.05,0.01-0.01,0.01,0.05,0.01c0.17,0.01,1.62,2.04,1.01,2.97c-0.32,0.17-0.35,0.17-0.12,0.11c0.87-0.24,1.39-1.13,1.15-2
	C175.58,104.44,174.68,103.93,173.81,104.16"/>
<path d="M239.95,82.16c-0.03-0.68-0.06-1.14-0.08-1.42c-0.08-0.9-0.87-1.56-1.76-1.49c-0.9,0.08-1.56,0.87-1.49,1.76
	c0.08,0.9,0.87,1.56,1.76,1.49c0.9-0.08,1.56-0.87,1.49-1.76c-0.01-0.15-0.04-0.35-0.09-0.56c-0.26-0.86-1.16-1.35-2.02-1.1
	c-0.86,0.26-1.35,1.16-1.1,2.02c0.26,0.86,1.16,1.35,2.02,1.1c0.86-0.26,1.35-1.16,1.1-2.02c-0.37-0.67-3.14-0.01-3.19,0.21
	c-0.16,0.88,0.43,1.73,1.31,1.89c0.88,0.16,1.73-0.43,1.89-1.31c0.16-0.88-0.43-1.73-1.31-1.89c-0.88-0.16-1.73,0.43-1.89,1.31
	c-0.06,0.38-0.09,1.24-0.15,2.39c-0.12,1.88-0.36,4.77-0.53,7.38c-0.18,3.18-0.1,5.9-0.28,8.57c-0.05,2.31-0.36,4.82-0.28,6.37
	c0.02,0.4,0.1,0.88,0.22,1.23c0.23,0.71,0.99,1.11,1.71,0.88c0.71-0.23,1.11-0.99,0.88-1.71c-0.23-0.71-0.99-1.11-1.71-0.88
	c-0.71,0.23-1.11,1-0.88,1.71c0.18,0.41,0.94,1.09,1.62,1.17c0.71-0.01,1.28-0.6,1.27-1.31c-0.01-0.71-0.6-1.28-1.31-1.27
	c-0.71,0.01-1.28,0.6-1.27,1.31c0.01,0.71,0.6,1.28,1.31,1.27c0.52-0.09,1.08-0.42,1.4-0.75c0.49-0.46,0.51-1.24,0.04-1.72
	c-0.46-0.49-1.24-0.51-1.72-0.04c-0.49,0.46-0.51,1.24-0.04,1.72c0.46,0.49,1.24,0.51,1.72,0.04c0.28-0.31,0.63-0.76,1-1.3
	c0.37-0.51,0.26-1.23-0.25-1.61c-0.51-0.37-1.23-0.26-1.61,0.25c-0.37,0.46-0.62,0.73-0.83,0.89c-0.17,0.14,0.01,0.02,0.24-0.06
	c0.39,0.08,0.96,0.55,1.01,0.58c0-0.03,0.02-0.11,0.05-0.4c0.08-1.23,0.58-3.7,0.83-6.15c0.17-2.83,0.09-5.55,0.26-8.6
	c0.12-2.58,0.31-5.47,0.38-7.4c0.06-1.16,0.1-1.95,0.12-1.98c-0.03,0.12-2.78,0.75-3.13,0.14c-0.03-0.14-0.04-0.19-0.03-0.09
	c0.02,0.22,0.04,0.63,0.07,1.29c0.04,0.9,0.8,1.6,1.7,1.56C239.29,83.82,239.99,83.06,239.95,82.16"/>
<path d="M238.94,80.91c2.25-0.51,7.78-1.75,12.74-1.91c0.96-0.04,1.7-0.85,1.66-1.8c-0.04-0.96-0.85-1.7-1.8-1.66
	c-0.96,0.04-1.7,0.85-1.66,1.8c0.04,0.96,0.85,1.7,1.8,1.66c2.5-0.12,5.11-0.06,7.52-0.04c0.93,0.01,1.7-0.74,1.71-1.67
	c0.01-0.93-0.74-1.7-1.67-1.71c-0.93-0.01-1.7,0.74-1.71,1.67c-0.01,0.93,0.74,1.7,1.67,1.71c1.25,0.01,2.19-0.12,2.97-0.01
	c0.93,0.12,1.77-0.54,1.89-1.47c0.12-0.93-0.54-1.77-1.47-1.89c-0.93-0.12-1.77,0.54-1.89,1.47c-0.12,0.93,0.54,1.77,1.47,1.89
	c1.07,0.14,1.64,0.43,1.93,1.16c0.31,0.14-0.08,1.39-0.23,2.94c-0.2,2.4,0.13,4.66,0.34,6.89c0.34,3.33,0.91,7.12,1.29,10.43
	c0.22,1.91,0.49,3.33,0.4,4.38c-0.1,0.99-0.09,1.1-0.71,1.22c-1.03,0.49-3.5-0.2-6-0.84c-2.58-0.59-5.12-1.37-7.7-1.88
	c-1.89-0.2-3.85-0.17-5.2-0.04c-0.88-0.01-1.61,0.7-1.62,1.58c-0.01,0.88,0.7,1.61,1.58,1.62c0.88,0.01,1.61-0.7,1.62-1.58
	c0.01-0.88-0.7-1.61-1.58-1.62c-0.68,0.07-1.26,0.16-1.62,0.25c-0.76,0.04-1.34,0.69-1.3,1.45c0.04,0.76,0.69,1.34,1.45,1.3
	c0.76-0.04,1.34-0.69,1.3-1.45c-0.04-0.76-0.69-1.34-1.45-1.3c-0.19,0.05-0.36,0.1-0.47,0.16c-0.69,0.11-1.16,0.75-1.05,1.44
	c0.11,0.69,0.75,1.16,1.44,1.05c0.69-0.11,1.16-0.75,1.05-1.44c-0.11-0.69-0.75-1.16-1.44-1.05c-0.18,0.07-0.26,2.39,0.04,2.42
	c0.63,0.07,1.2-0.38,1.27-1.01s-0.38-1.2-1.01-1.27c0.19,0.01,0.13,2.31,0.08,2.36c0.02,0.03,0.09,0.07,0.24,0.1
	c0.32,0.06,0.8,0.12,1.42,0.2c1.26,0.17,2.89,0.41,4.48,0.87c2.37,0.43,4.86,1.18,7.6,1.77c2.54,0.47,5.9,1.07,8.23,0.13
	c1.55-0.79,2.51-2.59,2.64-4.14c0.14-1.51-0.11-3.22-0.28-5.04c-0.34-3.39-0.87-7.16-1.15-10.4c-0.22-2.32-0.53-4.25-0.34-6.24
	c0.1-1.23,0.56-3.29-0.23-5.05c-0.99-1.49-2.92-2.52-4.61-2.72c-1.22-0.14-2.33,0-3.34-0.01c-2.38-0.04-5.08-0.13-7.7-0.04
	c-5.29,0.26-11.1,1.61-13.37,2.2c-0.88,0.21-1.41,1.1-1.2,1.97C237.18,80.59,238.06,81.12,238.94,80.91"/>
<path d="M253.23,76.5c-0.04-0.33-0.13-0.73-0.24-1.02c-0.35-0.83-1.3-1.21-2.13-0.86c-0.83,0.35-1.21,1.3-0.86,2.13
	c0.35,0.83,1.3,1.21,2.13,0.86c0.83-0.35,1.21-1.3,0.86-2.13c-0.22-0.41-1.7-1.12-2.53-0.82c-0.74,0.49-0.95,1.49-0.46,2.23
	c0.49,0.74,1.49,0.95,2.23,0.46c0.74-0.49,0.95-1.49,0.46-2.23c-0.49-0.74-1.49-0.95-2.23-0.46c-0.61,0.6-0.89,1.3-1.05,1.93
	c-0.22,0.85,0.29,1.72,1.14,1.94c0.85,0.22,1.72-0.29,1.94-1.14c0.22-0.85-0.29-1.72-1.14-1.94c-0.85-0.22-1.72,0.29-1.94,1.14
	c-0.29,1.19-0.6,3.21-0.78,5.39c-0.08,0.85,0.55,1.6,1.4,1.68c0.85,0.08,1.6-0.55,1.68-1.4c0.08-0.85-0.55-1.6-1.4-1.68
	c-0.85-0.08-1.6,0.55-1.68,1.4c-0.45,6.38,0.13,14.87-0.33,20.01c-0.07,0.63,0.38,1.2,1.01,1.27c0.63,0.07,1.2-0.38,1.27-1.01
	c0.74-5.37,0.42-13.86,1.12-19.98c0.21-2.08,0.51-3.88,0.78-4.88c0.13-0.47,0.12-0.48-0.26-0.02c-0.72,0.23-2.09-0.42-2.22-0.62
	c-0.02-0.08-0.03-0.1-0.02,0.11c0.1,0.9,0.9,1.55,1.8,1.45C252.67,78.2,253.32,77.39,253.23,76.5"/>
<path d="M255.94,87.31c0.22,1.07-0.47,5.41-0.53,9.53c0.01,1.02,0.84,1.85,1.87,1.84c1.02-0.01,1.85-0.84,1.84-1.87
	c-0.01-1.02-0.84-1.85-1.87-1.84c-1.02,0.01-1.85,0.84-1.84,1.87c0.13,1.85,0.41,3.78,0.99,5.26c0.25,0.79,1.09,1.23,1.88,0.98
	c0.79-0.25,1.23-1.09,0.98-1.88c-0.25-0.79-1.09-1.23-1.88-0.98c-0.79,0.25-1.23,1.09-0.98,1.88c0.6,1.48,1.84,2.87,3.39,3.19
	c0.62,0.14,1.24-0.24,1.38-0.86c0.14-0.62-0.24-1.24-0.86-1.38c-0.67-0.19-0.81-0.68-1.04-1.85c-0.26-1.17-0.25-2.66-0.15-4.38
	c-0.1-3.84,0.44-8.27,0.01-10.19c-0.19-0.88-1.06-1.44-1.94-1.25C256.31,85.56,255.75,86.43,255.94,87.31"/>
<path d="M238.01,89.96c-0.2,0.17-0.48,0.47-0.64,0.72c-0.45,0.78-0.19,1.78,0.59,2.24c0.78,0.45,1.78,0.19,2.24-0.59
	c0.45-0.78,0.19-1.78-0.59-2.24c-0.78-0.45-1.78-0.19-2.24,0.59c-0.16,0.32-0.28,1.09-0.19,1.54c0.28,0.86,1.2,1.34,2.06,1.06
	c0.86-0.28,1.34-1.2,1.06-2.06c-0.28-0.86-1.2-1.34-2.06-1.06c-0.86,0.28-1.34,1.2-1.06,2.06c0.18,0.42,0.63,0.92,0.88,1.08
	c0.78,0.46,1.78,0.21,2.25-0.57c0.46-0.78,0.21-1.78-0.57-2.25c-0.78-0.46-1.78-0.21-2.25,0.57c-0.46,0.78-0.21,1.78,0.57,2.25
	c0.23,0.13,0.55,0.25,0.76,0.31c0.88,0.22,1.77-0.3,2-1.18c0.22-0.88-0.3-1.77-1.18-2c-0.88-0.22-1.77,0.3-2,1.18
	c-0.22,0.88,0.3,1.77,1.18,2c0.75,0.18,1.84,0.23,2.89,0.23c0.91,0,1.65-0.74,1.64-1.65c0-0.91-0.74-1.65-1.65-1.64
	c-0.91,0-1.65,0.74-1.64,1.65c0,0.91,0.74,1.65,1.65,1.64c6.54-0.18,18.43,0.62,23.08-1.57c0.58-0.26,0.83-0.94,0.57-1.52
	c-0.26-0.58-0.94-0.83-1.52-0.57c-3.85,1.66-15.43,0.52-22.13,0.37c-1,0-1.75-0.01-2.07-0.11c-0.06-0.01,0.04,0.03,0.1,0.06
	c0.08,0.07,0.42,0.45,0.56,0.74c0.05,0.33-0.04,0.95-0.11,1.1c-0.06,0.08-0.16,0.19-0.11,0.15c0.7-0.57,0.8-1.6,0.22-2.3
	C239.73,89.49,238.7,89.39,238.01,89.96z"/>
<path d="M100.07,110.99c-0.53,0.17-0.85,0.04-1.67-0.38c-0.92-0.38-1.98,0.05-2.37,0.98c-0.38,0.92,0.05,1.98,0.98,2.37
	c0.92,0.38,1.98-0.05,2.37-0.98c0.38-0.92-0.05-1.98-0.98-2.37c-0.85-0.41-1.77-1.09-2.94-2c-0.89-0.64-2.13-0.44-2.77,0.45
	c-0.64,0.89-0.44,2.13,0.45,2.77c0.89,0.64,2.13,0.44,2.77-0.45c0.64-0.89,0.44-2.13-0.45-2.77c-2.34-1.83-5.31-4.43-8.98-6.51
	c-1.14-0.6-2.56-0.16-3.16,0.98c-0.6,1.14-0.16,2.56,0.98,3.16c1.14,0.6,2.56,0.16,3.16-0.98c0.6-1.14,0.16-2.56-0.98-3.16
	c-7.25-3.73-15.19-3.9-22.52-3.74c-3.74,0.09-7.7,0.03-11.06,0.04c-2.55,0-4.98,0.1-6.18,0.16c-0.3,0.1-0.54,0.21-0.67,0.3
	c-1.09,0.08-1.92,1.02-1.84,2.12c0.08,1.09,1.02,1.92,2.12,1.84c1.09-0.08,1.92-1.02,1.84-2.12c-0.08-1.09-1.02-1.92-2.12-1.84
	c-0.08,0.05-0.16,0.1-0.24,0.16c-1.01,0.14-1.72,1.07-1.59,2.08c0.14,1.01,1.07,1.72,2.08,1.59c1.01-0.14,1.72-1.07,1.59-2.08
	c-0.14-1.01-1.07-1.72-2.08-1.59c-0.34,0.12,0.2,3.6,0.28,3.56c0.95,0,1.72-0.78,1.71-1.73c0-0.95-0.78-1.72-1.73-1.71
	c-0.95,0-1.72,0.78-1.71,1.73c0,0.95,0.78,1.72,1.73,1.71c0.18-0.18,0.77-0.38,1.9-0.62c0.65-0.04,1.16-0.59,1.12-1.25
	c-0.04-0.65-0.59-1.16-1.25-1.12c-1.14-0.12-1.69-0.27-1.79-0.45c0.02-0.04,0.54,3.43,0.24,3.55c-0.04,0.05-0.04,0.09,0.01,0.13
	c0.12,0.08,0.33,0.16,0.62,0.23c1.17-0.05,3.5-0.14,5.96-0.13c3.32,0.01,7.33,0.1,11.16,0.04c7.25-0.14,14-0.09,20.25,3.28
	c3.39,1.64,6.23,3.85,8.83,5.59c1.31,0.87,2.64,1.66,3.88,2.12c1.26,0.45,2.87,0.58,4.14,0.12c0.85-0.3,1.3-1.23,1-2.08
	C101.85,111.14,100.92,110.69,100.07,110.99z"/>
<path d="M19.98,94.69c0.05-0.13,0.03-0.07,0,0.03c0.48-0.78,0.23-1.81-0.55-2.29c-0.78-0.48-1.81-0.23-2.29,0.55
	c-0.48,0.78-0.23,1.81,0.55,2.29c0.78,0.48,1.81,0.23,2.29-0.55c-0.16,0.21-1.64,0.7-2.4,0.36c0.71,0.61,1.78,0.53,2.39-0.18
	c0.61-0.71,0.53-1.78-0.18-2.39c-0.71-0.61-1.78-0.53-2.39,0.18c-0.61,0.71-0.53,1.78,0.18,2.39c-0.41-0.56-0.47-0.66-0.44-0.3
	c0.14,0.96,1.03,1.63,1.99,1.5c0.96-0.14,1.63-1.03,1.5-1.99c-0.14-0.96-1.03-1.63-1.99-1.5c-0.96,0.14-1.63,1.03-1.5,1.99
	c0.07,0.76,0.12,2.17,0.23,3.86c0.39,4.39,1.53,9.91,1.89,14.53c0.23,2.22,0.24,4.36,0.25,6.34c0.07,1.83,0.04,3.51,0.18,4.23
	c0.04,0.81,0.74,1.44,1.55,1.39c0.81-0.04,1.44-0.74,1.39-1.55c-0.04-0.81-0.74-1.44-1.55-1.39c-0.81,0.04-1.44,0.74-1.39,1.55
	c0.04,0.24,0.41,1.04,1.96,1.45c0.73-0.23,1.14-1.02,0.9-1.75c-0.23-0.73-1.02-1.14-1.75-0.9c-0.73,0.23-1.14,1.02-0.9,1.75
	c0.23,0.73,1.02,1.14,1.75,0.9c0.69-0.5,0.9-0.93,0.96-1.19c0.24-0.68-0.12-1.43-0.8-1.67c-0.68-0.24-1.43,0.12-1.67,0.8
	c-0.24,0.68,0.12,1.43,0.8,1.67c0.68,0.24,1.43-0.12,1.67-0.8c0.1-0.46,0.27-1.28,0.54-2.57c0.15-0.62-0.22-1.24-0.84-1.39
	c-0.62-0.15-1.24,0.22-1.39,0.84c-0.37,1.25-0.62,1.96-0.78,2.27c-0.07,0.12,0.04-0.12,0.66-0.6c1.48,0.43,1.81,1.09,1.84,1.04
	c0.08-0.41,0.32-2.07,0.47-3.99c0.09-1.99,0.17-4.32,0.02-6.73c-0.42-4.88-1.6-10.42-1.99-14.56c-0.19-1.64-0.34-3.1-0.51-4
	c-0.09-0.47-0.28-1.1-0.84-1.79c-0.83-0.4-2.4,0.13-2.65,0.48c-0.13,0.25-0.24,0.56-0.3,0.81c-0.25,0.87,0.25,1.77,1.12,2.02
	C18.83,96.06,19.73,95.56,19.98,94.69z"/>
<path d="M23.41,96.26c-0.49-0.34-0.55-0.42-0.52-0.5c-0.42-0.85-1.45-1.2-2.3-0.78s-1.2,1.45-0.78,2.3c0.42,0.85,1.45,1.2,2.3,0.78
	c0.85-0.42,1.2-1.45,0.78-2.3c0,0.08-0.02,0.76,0.01,0.83c0.57-0.81,0.37-1.93-0.45-2.5c-0.81-0.57-1.93-0.37-2.5,0.45
	c-0.57,0.81-0.37,1.93,0.45,2.5c0.81,0.57,1.93,0.37,2.5-0.45c0.04-0.13,0.72-0.36,2.07-0.76c1.03-0.35,1.58-1.46,1.23-2.48
	c-0.35-1.03-1.46-1.58-2.48-1.23c-1.03,0.35-1.58,1.46-1.23,2.48c0.35,1.03,1.46,1.58,2.48,1.23c4.12-1.38,9.46-2.19,12.6-1.22
	c1.48,0.35,1.54,0.69,1.76,2.13c0.29,1.5,0.09,3.62,0,6.28c-0.05,4.56,1.9,8.67,2.83,12.35c0.57,2.21,1.03,4.06,0.63,5.16
	c-0.04,0.69-0.38,0.75-1.71,1.05c-1.36,0.35-3.09,0.38-4.9,0.37c-1.19-0.01-2.24,0-3.37-0.02c-1.63-0.02-3.49-0.11-5.24,0
	c-2.51,0.2-4.89,1.07-5.73,1.47c-0.1,0.1-0.24,0.22-0.33,0.32c-0.12,0.13-0.62,0.68-0.82,2.48c0.37,1,1.48,1.52,2.48,1.16
	c1-0.37,1.52-1.47,1.16-2.48c-0.37-1-1.48-1.52-2.48-1.16c-1,0.37-1.52,1.47-1.16,2.48c1.44,1.2,2.2,1.16,2.36,1.08
	c0.96-0.25,1.54-1.23,1.29-2.2c-0.25-0.96-1.23-1.54-2.2-1.29c-0.96,0.25-1.54,1.23-1.29,2.2c0.25,0.96,1.23,1.54,2.2,1.29
	c0.1-0.07,0.25-0.16,0.37-0.26c0.87-0.32,1.32-1.28,1-2.14c-0.32-0.87-1.28-1.32-2.14-1c-0.87,0.32-1.32,1.28-1,2.14
	c0.32,0.87,1.28,1.32,2.14,1c0.44-0.35,1.36-0.93,2.86-1.84c0.57-0.28,0.81-0.96,0.53-1.54c-0.28-0.57-0.96-0.81-1.54-0.53
	c-1.6,0.58-2.54,0.79-3,0.77c-0.1-0.01-0.12-0.05-0.13-0.09c0.04-0.05,0.74-0.09,2.18,1.08c-0.2,1.8-0.65,2.31-0.68,2.38
	c0,0.05,0,0.1,0.07,0.11c0.58-0.27,2.26-0.9,4.15-1c1.47-0.11,3.16-0.01,4.88,0c1.18,0.01,2.26-0.02,3.4-0.02
	c1.87,0,4.1-0.06,5.97-0.52c1.91-0.5,4.08-1.96,4.85-4.11c0.57-2.33,0-5.16-0.59-7.45c-1.08-4.12-2.88-7.66-2.73-11.15
	c0.04-2.56,0.19-5.07-0.23-7.19c-0.49-2.17-2.19-4.43-4.79-5.22c-4.17-1.08-10.46-0.12-14.95,1.4c-1.5,0.57-2.98,1.36-3.77,2.42
	c-0.37,0.67-0.48,1.98-0.14,2.74c0.37,0.61,1.07,1.27,1.82,1.73c0.76,0.49,1.77,0.27,2.26-0.49C24.38,97.76,24.16,96.75,23.41,96.26
	z"/>
<path d="M27.67,102.41c0.7,4.54-1.26,16.02,3.14,21.96c0.38,0.51,1.1,0.61,1.61,0.24c0.51-0.38,0.61-1.1,0.24-1.61
	c-3.64-4.86-1.35-15.75-1.73-20.95c-0.1-0.9-0.91-1.54-1.8-1.44C28.22,100.71,27.57,101.52,27.67,102.41z"/>
<path d="M22.87,114.92c1.9,1.51,4.6,2,7.08,2.04c1.13-0.05,2-1,1.96-2.12c-0.05-1.13-1-2-2.12-1.96c-1.13,0.05-2,1-1.96,2.12
	c0.05,1.13,1,2,2.12,1.96c5.25-0.45,10.75-2.37,13.35-0.21c0.59,0.48,1.47,0.39,1.95-0.2c0.48-0.59,0.39-1.47-0.2-1.95
	c-4.01-3.19-10.47-1.67-15.25-1.71c-2.2,0.23-3.76,0.25-4.96-0.57c-0.72-0.54-1.74-0.4-2.29,0.32
	C22.01,113.35,22.15,114.38,22.87,114.92z"/>
<path d="M177.01,128.56c-0.06,0.07-0.37,0.35-0.24,0.38c0.94-0.22,1.52-1.15,1.31-2.09c-0.22-0.94-1.15-1.52-2.09-1.31
	c-0.94,0.22-1.52,1.15-1.31,2.09c0.22,0.94,1.15,1.52,2.09,1.31c0.17-0.01,0.36,0.03,0.85,0.13c1.02,0.12,1.94-0.6,2.07-1.62
	c0.12-1.02-0.6-1.94-1.62-2.07c-1.02-0.12-1.94,0.6-2.07,1.62c-0.12,1.02,0.6,1.94,1.62,2.07c1.02,0.19,2.46,0.66,4.36,1.31
	c1.1,0.33,2.26-0.29,2.59-1.4c0.33-1.1-0.29-2.26-1.4-2.59c-1.1-0.33-2.26,0.29-2.59,1.4c-0.33,1.1,0.29,2.26,1.4,2.59
	c3.81,1.3,9.16,3.25,15.44,4.73c4.89,1.07,10.41,1.82,15.84,2.29c4.83,0.38,9.71,0.56,14.15,0.57c2.78,0.02,5.44-0.01,7.82-0.1
	c1.91-0.09,3.7-0.21,5.25-0.35c1.49-0.14,2.58-1.46,2.44-2.95c-0.14-1.49-1.46-2.58-2.95-2.44c-1.49,0.14-2.58,1.46-2.44,2.95
	c0.14,1.49,1.46,2.58,2.95,2.44c1.17-0.13,2.26-0.28,3.19-0.44c1.45-0.22,2.44-1.58,2.21-3.03c-0.22-1.45-1.58-2.44-3.03-2.21
	c-1.45,0.22-2.44,1.58-2.21,3.03c0.22,1.45,1.58,2.44,3.03,2.21c0.63-0.09,1.24-0.2,1.75-0.31c1.43-0.32,2.34-1.74,2.02-3.17
	c-0.32-1.43-1.74-2.34-3.17-2.02c-1.43,0.32-2.34,1.74-2.02,3.17c0.32,1.43,1.74,2.34,3.17,2.02c0.91-0.72,1.7-1.53,2.01-2.33
	c0.52-0.37,0.64-1.08,0.28-1.6c-0.37-0.52-1.08-0.64-1.6-0.28c-0.38-0.32-0.9-0.68-1.83-0.99c-0.41,0.09-0.86,0.18-1.41,0.27
	c-0.84,0.11-1.79,0.21-2.89,0.3c-1.48,0.14-3.13,0.26-4.98,0.34c-2.32,0.12-4.85,0.19-7.56,0.2c-4.35-0.01-9.03-0.18-13.74-0.55
	c-5.31-0.38-10.51-1.01-15.21-1.96c-6.09-1.13-11.31-2.73-15.29-3.77c-1.99-0.52-3.75-0.91-5.11-1.01c-0.7-0.04-1.49,0-2.09,0.16
	c-0.63,0.21-1.49,0.83-1.85,1.47c-0.43,0.79-0.13,1.78,0.66,2.21C175.59,129.65,176.58,129.36,177.01,128.56z"/>
<path d="M245.86,124.17c-0.33,2.58-0.7,6.38-0.93,10.74c-0.02,1.14,0.88,2.08,2.02,2.11c1.14,0.02,2.08-0.88,2.11-2.02
	c0.02-1.14-0.88-2.08-2.02-2.11c-1.14-0.02-2.08,0.88-2.11,2.02c0.1,2.6,0.08,5.64,0.42,7.76c0.08,0.88,0.86,1.53,1.75,1.45
	c0.88-0.08,1.53-0.86,1.45-1.75c-0.08-0.88-0.86-1.53-1.75-1.45c-0.88,0.08-1.53,0.86-1.45,1.75c0.18,1.08,0.55,2.21,1.2,2.89
	c0.53,0.55,1.4,0.57,1.95,0.05c0.55-0.52,0.57-1.4,0.05-1.95c-0.53-0.55-1.4-0.57-1.95-0.05c-0.55,0.52-0.57,1.4-0.05,1.95
	c0.42,0.34,1.3,0.59,1.85,0.49c0.68-0.13,1.13-0.8,1-1.48c-0.13-0.68-0.8-1.13-1.48-1c-0.68,0.13-1.13,0.8-1,1.48
	c0.13,0.68,0.8,1.13,1.48,1c0.46-0.15,1.01-0.51,1.41-0.91c0.47-0.43,0.51-1.15,0.08-1.62c-0.43-0.47-1.15-0.51-1.62-0.08
	c-0.29,0.21-0.32,0.2-0.35,0.14c0.07-0.01,0.54,0.1,0.63,0.09c-0.01-0.01,0-0.38,0-1.28c-0.02-1.84,0.3-4.71,0.5-7.38
	c-0.06-4.29,0.02-8.01,0.06-10.59c0.06-0.9-0.61-1.68-1.51-1.74C246.71,122.59,245.93,123.27,245.86,124.17"/>
<path d="M248.47,123.99c-0.13-0.02-1.73,2-0.35,3.31c0.92,0.16,1.8-0.46,1.95-1.39c0.16-0.92-0.46-1.8-1.39-1.95
	c-0.92-0.16-1.8,0.46-1.95,1.39c-0.16,0.92,0.46,1.8,1.39,1.95c0.14,0.04,0.28,0.07,0.43,0.1c0.97,0.06,1.8-0.69,1.85-1.65
	s-0.69-1.8-1.65-1.85c-0.97-0.06-1.8,0.69-1.85,1.65c-0.06,0.97,0.69,1.8,1.65,1.85c0.28,0.06,0.76,0.12,1.36,0.18
	c1.04,0.03,1.91-0.79,1.94-1.83c0.03-1.04-0.79-1.91-1.83-1.94c-1.04-0.03-1.91,0.79-1.93,1.83c-0.03,1.04,0.79,1.91,1.83,1.94
	c1.2,0.12,2.99,0.23,4.89,0.29c4.16-0.06,8.99-0.89,12.83-1.21c2.11-0.22,3.99-0.19,5.33-0.2c0.77,0,1.41-0.12,1.63-0.16
	c0.1-0.02-0.12-0.01-0.41-0.04c-0.39-0.14-1.29-1-1.44-1.37c0.16,0.07-0.61,2.38-0.98,5.2c-0.42,3.86,0.39,7.94,0.86,11.66
	c0.28,2.09,0.45,4.09,0.55,5.66c0.08,1.33,0.35,1.83,0.26,1.49c-0.12,0.37-0.84,0.63-2.52,1.04c-1.23,0.38-1.92,1.69-1.54,2.92
	c0.38,1.23,1.69,1.92,2.92,1.54c1.23-0.38,1.92-1.69,1.54-2.92c-0.38-1.23-1.69-1.92-2.92-1.54c-2.18,0.68-5.13,1-8.27,1.03
	c-1.31,0.02-2.36,1.09-2.34,2.4c0.02,1.31,1.09,2.36,2.4,2.34c1.31-0.02,2.36-1.09,2.34-2.4c-0.02-1.31-1.09-2.36-2.4-2.34
	c-2.44,0.04-4.79-0.1-6.82-0.42c-1.28-0.2-2.49,0.67-2.69,1.95c-0.2,1.28,0.67,2.49,1.95,2.69c1.28,0.2,2.49-0.67,2.69-1.95
	c0.2-1.28-0.67-2.49-1.95-2.69c-2.68-0.01-4.43-0.17-4.93-0.46c-0.35-0.53-1.06-0.68-1.59-0.34c-0.53,0.35-0.68,1.06-0.34,1.59
	c0.78,1.67,3.27,2.99,6.12,3.86c2.27,0.36,5,0.55,7.63,0.52c3.38-0.06,6.94-0.48,9.58-1.3c2.07-0.75,4.08-2.11,4.9-3.84
	c0.42-1.5,0.06-2.62,0.03-3.36c-0.06-1.63-0.19-3.77-0.44-5.97c-0.48-3.88-1.22-7.49-0.81-10.65c0.25-2.45,0.98-4.97,0.7-6.67
	c-0.19-0.54-1.18-1.48-1.72-1.65c-0.44-0.05-0.86-0.02-1.03,0c-0.33,0.05-0.5,0.1-0.89,0.08c-1.32-0.05-3.44-0.14-5.78,0.03
	c-4.04,0.36-8.73,1.19-12.52,1.24c-1.84,0.11-3.55,0.17-4.73,0.21c-0.59,0.02-1.02,0.05-1.27,0.08c-0.12,0.01-0.14,0.03-0.05,0.07
	c1.31,1.3-0.23,3.31-0.19,3.29c0.9-0.01,1.63-0.75,1.62-1.65C250.11,124.7,249.37,123.98,248.47,123.99"/>
<path d="M256.15,132.28c-0.27,2.34-0.58,6.49-0.37,10.39c0.03,0.77,0.67,1.37,1.44,1.34c0.77-0.03,1.37-0.67,1.34-1.44
	c-0.03-0.77-0.67-1.37-1.44-1.34c-0.77,0.03-1.37,0.67-1.34,1.44c0.22,3.89,1.08,7.87,3.2,9.63c0.49,0.4,1.22,0.32,1.62-0.17
	c0.4-0.49,0.32-1.22-0.17-1.62c-1.35-1.04-1.81-4.24-1.86-7.95c-0.06-3.7,0.4-7.59,0.81-9.8c0.14-0.89-0.48-1.72-1.37-1.86
	C257.12,130.78,256.29,131.39,256.15,132.28"/>
<path d="M246.55,145.8c1.28,0.61,3.67,0.54,6.42,0.24c0.97-0.12,1.65-1,1.53-1.97c-0.12-0.97-1-1.65-1.97-1.53
	c-0.97,0.12-1.65,1-1.53,1.97c0.12,0.97,1,1.65,1.97,1.53c2.74-0.3,6.1-0.82,9.19-1.31c1.03-0.18,1.72-1.16,1.54-2.18
	c-0.18-1.03-1.16-1.72-2.18-1.54c-1.03,0.18-1.72,1.16-1.54,2.18c0.18,1.03,1.16,1.72,2.18,1.54c3.92-0.9,7.4-1.74,8.6-2
	c0.68-0.03,1.21-0.61,1.18-1.29c-0.03-0.68-0.61-1.21-1.29-1.18c-1.5-0.14-5.15,0.29-9.13,0.75c-3.07,0.57-6.33,1.17-8.98,1.54
	c-2.64,0.38-4.41,0.53-4.33,0.44c-0.78-0.46-1.78-0.2-2.23,0.58C245.51,144.34,245.77,145.34,246.55,145.8"/>
<path d="M302.95,73.97c0.59-1.11,0.58-2.16,0.6-2.48c0.03-0.9-0.68-1.65-1.59-1.68c-0.9-0.03-1.65,0.68-1.68,1.59
	c-0.03,0.9,0.68,1.65,1.59,1.68c0.9,0.03,1.65-0.68,1.68-1.59c0.08,0,0.05,0.34,0.24,0.3c0.68-0.83,0.55-2.06-0.28-2.73
	c-0.83-0.68-2.06-0.55-2.73,0.28c-0.68,0.83-0.55,2.06,0.28,2.73c0.83,0.68,2.06,0.55,2.73-0.28c0.19-0.08,0.43-0.15,0.99-0.42
	c1.01-0.72,1.25-2.13,0.53-3.14c-0.72-1.01-2.13-1.25-3.14-0.53c-1.01,0.72-1.25,2.13-0.53,3.14c0.72,1.01,2.13,1.25,3.14,0.53
	c1.53-1.02,4.01-2.2,6.57-3.42c3.86-1.91,7.62-3.43,10.09-3.78c0.71-0.14,0.89-0.16,1.13-0.05c0.21,0.01-0.1-0.28-0.06-0.1
	c0.27,0.28,0.23,0.97-0.12,2.47c-0.34,1.54-1,3.3-1.87,5.21c-1.65,3.64-4.42,7.35-6.66,11.14c-2.66,4.41-4.57,9.51-5.38,13.65
	c-0.36,1.88-0.36,3.78-0.03,5.22c0.29,1.17,1.48,1.89,2.65,1.59c1.17-0.29,1.89-1.48,1.59-2.65c-0.29-1.17-1.48-1.89-2.65-1.59
	c-1.17,0.29-1.89,1.48-1.59,2.65c0.38,1.47,1.3,2.98,2.32,3.89c0.94,0.79,2.34,0.66,3.13-0.28c0.79-0.94,0.66-2.34-0.28-3.13
	c-0.94-0.79-2.34-0.66-3.13,0.28c-0.79,0.94-0.66,2.34,0.28,3.13c1.61,1.04,3.9,1.46,5.92,1.17c0.93-0.06,1.63-0.87,1.57-1.79
	c-0.06-0.93-0.87-1.63-1.79-1.57c-0.93,0.06-1.63,0.87-1.57,1.79c0.06,0.93,0.87,1.63,1.79,1.57c1.94-0.32,4.16-1.21,6.22-2.56
	c0.55-0.31,0.75-1.01,0.44-1.56s-1.01-0.75-1.56-0.44c-2,0.92-3.75,1.29-5.32,1.2c-1.49-0.06-2.26-0.42-2.85-1.22
	c-0.52-0.38-0.73-0.68-0.93-1.53c-0.25-0.89-0.27-1.85,0.01-3.35c0.71-3.75,2.36-8.19,4.82-12.25c2.18-3.53,5.15-7.36,7.12-11.4
	c0.99-2.03,1.86-4.17,2.36-6.01c0.49-1.89,0.6-4.07-0.01-5.7c-0.53-1.04-1.76-2.15-2.81-2.56c-1.02-0.33-2.42-0.39-3.58-0.22
	c-3.13,0.58-7.45,2.39-11.45,4.44c-2.51,1.33-5.18,2.77-6.98,4.11c-0.57,0.53-1.09,1.12-1.4,1.65c-0.31,0.57-0.55,1.46-0.49,2.06
	c-0.01,0.6,0.12,0.54-0.17,0.95c-0.45,0.78-0.18,1.78,0.61,2.23C301.5,75.03,302.5,74.76,302.95,73.97z"/>
<path d="M315.01,129.83c0.65-0.38,1.3-1.22,1.49-1.88c0.2-0.88-0.34-1.76-1.22-1.96c-0.88-0.2-1.76,0.34-1.96,1.22
	c-0.2,0.88,0.34,1.76,1.22,1.96c0.88,0.2,1.76-0.34,1.96-1.22c0.12-0.67-0.02-1.56-0.27-2.12c-0.38-0.82-1.35-1.18-2.17-0.8
	c-0.82,0.38-1.18,1.35-0.8,2.17c0.38,0.82,1.35,1.18,2.17,0.8c0.82-0.38,1.18-1.35,0.8-2.17c-0.52-1.04-1.66-2.16-2.86-2.78
	c-0.81-0.4-1.79-0.08-2.19,0.73c-0.4,0.81-0.08,1.79,0.73,2.19c0.81,0.4,1.79,0.08,2.19-0.73c0.4-0.81,0.08-1.79-0.73-2.19
	c-1.55-0.75-3.73-0.85-5.18-0.36c-0.93,0.43-1.73,1.41-2.04,2.18c-0.27,0.76-0.4,1.72-0.39,2.47c0.06,1.63,1.05,3.65,2.62,4.55
	c1.33,0.54,3.07,0.29,4.26-0.24c1.17-0.55,2.41-1.51,3.13-2.41c0.47-0.75,0.78-1.82,0.75-2.61c0-0.9-0.72-1.63-1.62-1.63
	c-0.9,0-1.63,0.72-1.63,1.62c0,0.9,0.72,1.63,1.62,1.63c0.9,0,1.63-0.72,1.63-1.62c-0.07-0.79-0.52-1.83-1.14-2.4
	c-0.59-0.56-1.52-0.53-2.07,0.06c-0.56,0.59-0.53,1.52,0.06,2.07c0.59,0.56,1.52,0.53,2.07-0.06c0.56-0.59,0.53-1.52-0.06-2.07
	c-0.65-0.48-1.79-0.79-2.74-0.63c-0.72,0.1-1.21,0.76-1.12,1.48c0.1,0.72,0.76,1.22,1.47,1.12c0.72-0.1,1.21-0.76,1.12-1.47
	c-0.1-0.72-0.76-1.21-1.47-1.12c-0.87,0.19-1.98,0.72-3.07,1.58c-0.51,0.38-0.62,1.1-0.25,1.61c0.38,0.51,1.1,0.62,1.61,0.25
	c0.96-0.65,1.56-0.84,2.07-0.85c0.42-0.03,0.32,0.01,0.37,0.18c0.08,0.08-0.02,0.01-0.1,0.25c-0.03,0.24-0.09,0.27-0.33,0.46
	c-0.37,0.52-0.99,1.02-1.78,1.38c-0.77,0.38-1.09,0.5-1.25,0.31c-0.58-0.15-0.75-0.62-0.73-1.49c-0.01-0.5,0.02-0.86,0.17-1.2
	c0.11-0.34-0.02-0.24,0.06-0.2c0.7-0.34,1.67-0.35,2.5,0.09c0.77,0.36,1.19,0.77,1.36,1.23c0.1,0.18,0.08,0.02,0.05,0.01
	c0.04-0.01,0.27-0.29,0.15-0.26c-0.8,0.42-1.1,1.41-0.67,2.21C313.22,129.95,314.21,130.25,315.01,129.83"/>
</svg>
