<?xml version="1.0" encoding="utf-8"?>
<!-- Generator: Adobe Illustrator 23.1.0, SVG Export Plug-In . SVG Version: 6.00 Build 0)  -->
<svg version="1.1" id="Layer_1" xmlns="http://www.w3.org/2000/svg" xmlns:xlink="http://www.w3.org/1999/xlink" x="0px" y="0px"
	 width="200px" height="200px" viewBox="0 0 200 200" style="enable-background:new 0 0 200 200;" xml:space="preserve">
<style type="text/css">
	.st0{opacity:0;}
	.st1{font-family:'.SFUI-Regular_wdth_opsz120000_GRAD_wght';}
	.st2{font-size:14.2393px;}
	.st3{font-family:'.SFUI-Regular';}
	.st4{font-size:53.7928px;}
	.st5{opacity:0.4196;fill:#EF5F33;}
	.st6{opacity:0.4196;fill:#FA9D00;}
	.st7{fill:#EF5F33;}
	.st8{fill:#FA9D00;}
</style>
<g>
	<text transform="matrix(1 0 0 1 31.8916 49.8237)" class="st0 st1 st2">P</text>
</g>
<g>
	<text transform="matrix(1 0 0 1 5.9932 139.0488)" class="st0"><tspan x="0" y="0" class="st3 st4">I</tspan><tspan x="12.96" y="0" class="st3 st4">i</tspan></text>
</g>
<path class="st5" d="M46.01,109.25c0.06,0.21,0.11,0.55,0.12,0.64c-0.04-1.54-1.33-2.75-2.86-2.7c-1.54,0.04-2.75,1.33-2.7,2.86
	c0.04,1.54,1.33,2.75,2.86,2.7c1.54-0.04,2.75-1.33,2.7-2.86c0,0.08-0.01,0.22-0.01,0.23c0.19-1.53-0.9-2.92-2.43-3.1
	c-1.53-0.19-2.92,0.9-3.1,2.43c-0.19,1.53,0.9,2.92,2.43,3.1c1.53,0.19,2.92-0.9,3.1-2.43c-0.16-0.02-0.32-0.03-0.45-0.16
	c0.34-1.23-0.39-2.5-1.62-2.84c-1.23-0.34-2.5,0.39-2.84,1.62c-0.34,1.23,0.39,2.5,1.62,2.84c1.23,0.34,2.5-0.39,2.84-1.62
	c-0.02-0.16-0.01-0.34,0.01-0.56c0.04-0.02,0.1-0.1,0.22-0.38c0.18-0.24,0.34-0.52,0.49-0.69c0.05-0.55,0-1.07,0.11-0.95
	c0.06,0.1,0.16,0.66,0.14,1.22c-0.14,0.6-0.98,1.79-1.51,2.17c-1.14,0.4-1.74,0.49-1.42,0.64c0.59,0.07,0.66,0.1,0.57,0.16
	c0.07,0.04,0.14,0.09,0.28,0.15c0.43,0.09,0.64,0.13,0.72,0.19c0.2-0.05,0.38-0.08,0.7-0.09c0.45,0.1,0.94,0.22,1.48,0.37
	c1.72,0.42,3.48,0.66,5.18,0.65c1.07,0,2.14,0.03,3.16,0.04c0.76,0.02,1.46,0.03,2.36,0.05c1.59,0.03,3.99,0.03,7.03,0.11
	c1,0.03,2.11,0.1,3.34,0.13c0.87,0.03,1.75,0.02,2.58,0.03c1.45,0.01,2.95,0.03,4.47,0.04c0.18,0,0.36,0,0.55,0.01
	c0.65,0,1.33,0,2.01,0.01c1.59,0,3.28-0.03,4.89-0.09c2.3-0.09,4.44-0.28,6.46-0.4c0.61-0.04,1.23-0.06,1.87-0.08
	c2.22-0.08,4.18-0.15,6.11-0.16c1.95,0.01,3.73,0.08,5.49,0.22c3.08,0.22,6.18,0.35,9.06,0.62c2.27,0.2,4.49,0.46,6.65,0.75
	c0.89,0.11,1.89,0.26,2.95,0.34c4.56,0.4,9.37,0.06,13.99-0.06c2.58-0.07,5-0.12,7.29-0.09c1.84,0.05,3.61,0.3,5.62,0.5
	c1.77,0.15,3.63,0.2,5.2,0.23c1-0.04,1.89-0.1,2.64-0.15c0.38-0.01,0.8-0.01,1.25-0.03c0.36-0.02,0.88-0.05,1.36-0.12
	c0.3-0.05,0.53-0.1,0.57-0.11c0.03,0,0.21-0.02,0.47-0.06c0.33-0.06,0.55-0.11,0.61-0.11c-0.32,0.05-0.33,0.09,0.17,0.05
	c-0.12,0,0.07-0.02,0.45-0.08c0.8-0.22,1.4-0.51,1.44-0.57c0.25-0.13,0.54-0.29,0.72-0.4c-0.04,0.02,0.08-0.03,0.32-0.16
	c0.13-0.09,0.32-0.22,0.5-0.35c0.39-0.38,1.01-1.03,1.37-1.61c0.7-1.2,0.83-1.87,0.73-1.6c0.05-0.2,0.08-0.39,0.07-0.47
	c0.08-0.28,0.24-1.02,0.25-1.81c-0.07,0.11-0.12-0.09-0.22-0.53c0.03-0.25-0.06-0.87-0.18-1.33c-0.46-0.8-1.63-1.81-2.26-2.09
	c-0.6-0.18-1.62-0.25-2.14-0.2c1.23-0.04,0.99-0.23-0.19-0.37c0-0.04-0.21-0.09-0.58-0.12c-1.14,0.05-1.84,0.22-1.87,0.13
	c-0.46,0.04-1.41-0.14-2.83-0.36c-1.24-0.12-2.05-0.21-2.94-0.5c-0.48-0.1-1.17-0.41-2.32-0.79c-1.8-0.57-4.01-0.94-6.05-1.11
	c-1.04-0.11-2.2-0.18-3.27-0.22c-0.75-0.03-1.5-0.03-2.2-0.04c-0.64-0.01-1.39-0.04-2.22-0.05c-1.09,0.03-2.19,0.12-3.14,0.21
	c-1.76,0.12-3.6,0.26-5.34,0.41c-2.94,0.3-5.43,0.47-7.76,0.42c-1.51-0.02-2.91-0.1-4.31-0.19c-1.56-0.09-3.01-0.16-4.43-0.18
	c-0.67,0.01-1.38,0.03-2.02,0.06c-0.6,0.01-1.39,0.02-2.18,0.1c-0.65,0.08-1.2,0.2-1.46,0.26c-0.96,0.18-1.96,0.28-3.14,0.46
	c-1.74,0.28-3.14,0.65-4.63,0.82c-1.09,0.13-2.36,0.09-4.06,0.08c-1.09-0.01-2.3,0-3.56,0.02c-0.7,0.01-1.47,0.02-2.24,0.05
	c-0.81,0.03-1.66,0.09-2.43,0.14c-0.07,0.01-0.2,0.02-0.41,0.04c-1.29,0.08-2.67,0.24-3.97,0.39c-2.82,0.31-5.58,0.7-8.34,0.92
	c-1.65,0.12-3.28,0.15-5.09,0.18c-3.51,0.12-7.17,0.36-10.29,0.53c-2.5,0.06-4.76,0.09-6.54,0.09c-1,0.01-1.7,0-2.32-0.04
	c-0.49,0.07-0.72,0.08-1.22,0.04c-0.09,0.03-0.27,0.03-0.67-0.03c-0.48-0.03-0.94-0.02-1.24,0.01c-0.37,0.03-0.59,0.1-0.67,0.18
	c0.03,0.09,0.1,0.19-0.02,0.24c-0.2,0.17-0.59,0.27-1.04,0.39c-0.39,0.14-1,0.28-1.5,0.51c-1.46,0.15-2.52,1.44-2.37,2.9
	c0.15,1.46,1.44,2.52,2.9,2.37c1.46-0.15,2.52-1.44,2.37-2.9c-0.15-1.46-1.44-2.52-2.9-2.37c-0.39,0.11-1.26,0.53-1.68,0.96
	c-0.95,1.01-0.91,2.61,0.11,3.56c1.01,0.95,2.61,0.91,3.56-0.11c0.95-1.01,0.91-2.61-0.11-3.56c-1.01-0.95-2.61-0.91-3.56,0.11
	c-0.32,0.49-0.61,1.43-0.6,1.86c0.01,1.32,1.08,2.39,2.4,2.38c1.32-0.01,2.39-1.08,2.38-2.4c-0.01-1.32-1.08-2.39-2.4-2.38
	c-1.32,0.01-2.39,1.08-2.38,2.4c0.16,0.32,0.4,0.74,0.61,0.9c0.39,1.01,1.53,1.51,2.54,1.11c1.01-0.39,1.51-1.53,1.11-2.54
	c0.15,0,0.36,0.29,0.52,0.5c0.02,0.32-0.25,1.19-0.52,1.62c-0.37,0.37-1.17,0.76-1.46,0.86c-0.2,0.2-0.32,0.4-0.21,0.63
	c-0.07,0.19-0.08,0.42,0.12,0.7c0.16,0.13,0.49,0.29,0.79,0.43c0.34,0.14,0.53,0.25,0.55,0.35c0.3,0.13,0.37,0.23,0.45,0.34
	c0.05,0.06,0.35,0.2,0.82,0.36c0.66,0.21,1.86,0.49,3.07,0.59c0.84-0.01,1.8-0.05,2.84-0.1c1.79-0.11,4.12-0.24,6.67-0.4
	c3.19-0.11,6.76-0.3,10.1-0.35c1.83-0.06,3.74-0.14,5.64-0.31c3.04-0.27,5.96-0.69,8.64-1.01c1.27-0.14,2.4-0.26,3.45-0.32
	c0.1,0,0.28,0,0.52-0.02c0.76-0.05,1.45-0.1,2.14-0.13c0.68-0.03,1.35-0.05,2.05-0.07c1.19-0.03,2.28-0.04,3.31-0.03
	c1.63,0.01,3.4,0.03,5.11-0.14c2.11-0.22,3.76-0.6,5.06-0.78c0.98-0.15,2.17-0.29,3.51-0.54c0.44-0.08,0.61-0.12,0.68-0.12
	c0.38-0.05,0.74-0.05,1.33-0.07c0.57,0.01,1.1,0.03,1.66,0.06c1.24,0.03,2.49,0.11,4.03,0.2c1.44,0.08,3.06,0.17,4.76,0.19
	c2.76,0.03,5.8-0.18,8.9-0.51c1.65-0.19,3.37-0.36,5.1-0.52c0.96-0.07,1.76-0.13,2.54-0.13c0.64-0.03,1.34-0.03,2.12-0.05
	c0.71-0.02,1.35-0.04,1.97-0.04c0.95,0,1.78,0.01,2.61,0.07c1.66,0.16,2.78,0.37,3.85,0.76c0.75,0.26,1.73,0.69,2.96,1.03
	c1.65,0.37,3.35,0.5,4.69,0.55c1.57-0.01,3.64-0.07,5.37-0.52c0.73-0.26,0.71-0.38,0.28-0.36c-0.02-0.05,0.12-0.08,0.45-0.12
	c-0.49-0.15-0.13-0.07,1.51-0.2c-0.35,0.02-1.2-0.05-1.67-0.19c-0.48-0.24-1.55-1.16-1.94-1.84c-0.08-0.36-0.14-0.88-0.1-1.01
	c-0.07-0.2-0.15-0.12-0.2,0.25c0.02-0.64,0.12-1.15,0.1-1.15c-0.07,0.11-0.12,0.13-0.15,0.13c-0.3,0.76-0.2,0.54,0.23-0.33
	c0.03-0.16,0.2-0.44,0.18-0.56c-0.11,0.06-0.15,0.06-0.23,0.09c0.13-0.07,0.17-0.08,0,0.01c-0.05,0-0.03-0.03-0.1-0.02
	c-0.31,0.09-0.08-0.02,0.33-0.18c0.22-0.03,0.24-0.05-0.05-0.03c0.13,0.01-0.28,0.04-0.97,0.17c-0.3,0.08-0.48,0.14-0.55,0.16
	c0.07,0,0.05,0-0.14,0.04c-0.18,0.02-0.19,0.02-0.14,0c-0.12,0.01-0.2-0.01-0.51-0.01c-0.27,0-0.64-0.02-1.12-0.03
	c-0.77-0.05-1.6-0.09-2.53-0.15c-1.48,0-3.04-0.04-4.58-0.15c-1.86-0.1-3.96-0.3-6.25-0.28c-2.45,0-5.04,0.08-7.66,0.19
	c-4.82,0.21-9.16,0.62-13.01,0.33c-0.79-0.06-1.61-0.19-2.6-0.32c-2.24-0.26-4.64-0.5-7.03-0.68c-3.11-0.2-6.3-0.25-9.25-0.37
	c-1.94-0.07-4-0.06-6.05,0c-2.04,0.04-4.1,0.13-6.31,0.23c-0.63,0.02-1.32,0.05-2.02,0.09c-2.15,0.12-4.19,0.3-6.29,0.37
	c-1.54,0.05-3.1,0.08-4.63,0.08c-0.67,0-1.34,0-2,0.01c-0.18,0-0.36,0-0.55,0.01c-1.51,0.01-3.02,0.02-4.49,0.04
	c-0.87,0.01-1.68,0.04-2.42,0.03c-1.14,0-2.26-0.03-3.37-0.03c-3.14-0.01-5.62,0.07-7.14,0.11c-0.91,0.02-1.59,0.04-2.31,0.05
	c-0.95,0-2.06-0.02-3.23-0.01c-1.2,0-1.99-0.13-3.39-0.5c-0.57-0.14-1.22-0.29-1.84-0.41c-0.4-0.15-0.9-0.3-1.33-0.41
	c-0.46,0.01-0.72,0.05-0.82,0.09c-0.15,0.03-0.33,0.05-0.48,0.08c-0.56,0.03-0.83,0.11-0.47,0.16c0.16,0.13-0.62,0.19-1.89,0.65
	c-0.51,0.37-1.35,1.56-1.49,2.17c-0.01,0.56,0.09,1.13,0.14,1.2c0.11,0.16,0.07-0.34,0.12-0.88c0.12,0.17,0.25,0.15,0.38,0.13
	c0.1-0.23,0.12-0.19,0.1-0.04c-0.12,0.16-0.28,0.46-0.43,0.76c-0.21,0.16-0.43,0.45-0.63,0.7c-0.02,0.15-0.03,0.42-0.03,0.6
	c0.01,0.2,0.08,0.64,0.16,0.94c0.48,1.46,2.06,2.25,3.52,1.77C45.7,112.29,46.5,110.71,46.01,109.25"/>
<path class="st5" d="M43.28,105.17c-0.02,0.06-0.05,0.15-0.08,0.24c-0.42,1.48,0.43,3.02,1.91,3.44c1.48,0.42,3.02-0.43,3.44-1.91
	c0.42-1.48-0.43-3.02-1.91-3.44c-1.48-0.42-3.02,0.43-3.44,1.91c-0.06,0.09-0.15,0.32-0.22,0.51c-0.19,1.59,0.93,3.03,2.52,3.23
	c1.59,0.19,3.03-0.93,3.23-2.52c0.19-1.59-0.93-3.03-2.52-3.23c-1.59-0.19-3.03,0.93-3.23,2.52c-0.22,0.22-0.38,0.93-0.46,1.48
	c0.59,1.84,2.55,2.86,4.4,2.27c1.84-0.59,2.86-2.55,2.27-4.39c-0.59-1.84-2.55-2.86-4.4-2.27c-1.84,0.59-2.86,2.55-2.27,4.39
	c0.13,0.6,0.83,1.71,1.25,2.18c0.33,0.32,0.89,0.68,1.13,0.86c0.98,0.21,1.83,0.23,2.29,0.23c0.09-0.07,0.18-0.14,0.26-0.2
	c0.82-0.11,1.78-0.24,2.75-0.38c0.54-0.09,1.11-0.16,1.82-0.23c0.6,0.01,1.2,0.02,1.76,0.05c0.4,0,0.62-0.01,0.75,0.01
	c0.07-0.05,0.16,0.07,0.93,0.35c1.38,0.43,2.93,0.58,4.1,0.59c0.59,0.01,1.06,0,1.47,0.03c0.62,0.03,1.53,0.32,2.97,0.64
	c1.66,0.36,3.55,0.57,5.42,0.69c1.15,0.04,2.27,0.08,3.43,0.16c0.44,0.03,0.93,0.08,1.54,0.14c1.14,0.11,2.28,0.19,3.36,0.25
	c0.56,0.05,1.15,0.09,1.72,0.13c1.38,0.07,2.83,0.09,4.22,0.1c0.76,0.01,1.63,0.04,2.54,0.03c0.47-0.01,0.94-0.05,1.33-0.07
	c0.93-0.07,1.86-0.18,2.67-0.26c1.57-0.18,3.08-0.31,4.68-0.45c2.34-0.19,4.7-0.3,7.1-0.38c1.23-0.03,2.42-0.07,3.6-0.1
	c0.57-0.02,1.14-0.03,1.75-0.04c0.63-0.01,1.23-0.02,1.8-0.03c0.38-0.01,0.77-0.01,1.19-0.02c0.54,0,1.04,0,1.57,0.01
	c3.04-0.04,5.97,0.05,8.63,0.15c2.51,0.11,4.72,0.05,6.65,0.08c1.53,0.02,2.8,0.01,3.99,0.07c0.66,0.02,1.27,0.05,1.97,0.09
	c0.79,0.05,1.71,0.1,2.6,0.12c1.07,0.01,2.05-0.04,2.85-0.06c0.61,0,1.09-0.01,1.58,0.01c1.93,0.07,4.28,0.5,6.63,0.57
	c1.55-0.01,2.86-0.11,3.89-0.18c0.59-0.03,1.17-0.06,1.66-0.09c0.31-0.02,0.45-0.04,0.46-0.06c0.11-0.01-0.3-0.09-0.35-0.1
	c0.44,0.12,0.72,0.16,0.66,0.15c-0.01-0.01,0.2,0.06,0.73,0.17c0.5,0.05,1.08,0.07,1.46,0.06c0.49-0.04,1.08-0.1,1.6-0.17
	c0.53-0.09,1.02-0.19,1.4-0.29c0.32-0.02,0.51-0.04,0.58-0.04c-0.07-0.03-0.04-0.05,0.22-0.08c0.25-0.03,0.47-0.07,0.63-0.1
	c0.11,0.04,0.22,0.08,0.31,0.13c0.22-0.01,0.33-0.02,0.4-0.03c-0.37-0.05-1.03-0.25-1.21-0.32c-0.33-0.22-1.02-0.94-1.35-1.51
	c-0.14-0.35-0.33-1.29-0.32-1.85c0.09-0.56,0.6-1.68,0.96-2.14c-1.38,1.47-1.32,3.77,0.15,5.16c1.47,1.38,3.77,1.32,5.16-0.15
	c1.38-1.47,1.32-3.77-0.15-5.16c-1.47-1.38-3.77-1.32-5.16,0.15c4.5,5.65,3.16,6.12,2.72,6.16c-0.26,0-0.68-0.05-0.81-0.07
	c-0.17-0.04-0.31-0.07-0.29-0.06c0.09-0.06,1.22,0.12,2.56-0.13c0.53-0.21,1.51-0.89,1.96-1.44c0.36-0.68,0.59-2.26,0.41-3.06
	c-0.3-0.68-1-1.54-1.29-1.78c-0.28-0.18-0.69-0.39-0.87-0.46c-0.27-0.1-0.65-0.19-0.82-0.23c-0.29-0.03-0.82-0.03-1.2,0
	c-0.67,0.05-1.73,0.4-2.39,0.78c0.28-0.23,0.11-0.28-0.56-0.04c-0.34,0.13-0.76,0.26-1.34,0.45c-0.72,0.22-1.29,0.37-1.91,0.44
	c-0.54,0.07-1.21-0.03-2.37-0.07c-0.55-0.01-1.14-0.02-1.76-0.02c-0.68,0-1.38,0.03-2,0.05c-0.36,0.02-0.62,0.04-0.72,0.04
	c-0.5,0.05-1.12,0.06-1.89,0.1c-0.93,0.06-1.84,0.13-2.74,0.17c-1.06,0.07-2.15,0.07-3.39,0.08c-0.76-0.01-1.52-0.02-2.26-0.04
	c-0.82-0.02-1.53-0.01-2.17-0.04c-0.84-0.03-1.73-0.14-2.83-0.26c-1.26-0.1-2.7-0.28-4.24-0.37c-0.19-0.01-0.41-0.03-0.68-0.06
	c-0.36-0.03-0.71-0.05-1.01-0.07c-0.16,0-0.37-0.02-0.66-0.03c-1.46-0.1-2.88-0.15-4.18-0.22c-1-0.06-2-0.16-3.07-0.26
	c-1.07-0.09-2.12-0.18-3.15-0.28c-3.33-0.3-6.53-0.68-9.73-0.92c-1.74-0.1-3.52-0.15-5.21-0.16c-1.02-0.01-2.02,0.01-2.91,0.02
	c-0.87,0-1.73,0-2.6,0c-0.37,0.01-0.76,0.01-1.18,0.01c-0.74,0-1.4,0.03-1.94,0.03c-0.56,0.01-1.15,0.01-1.79,0.01
	c-0.57,0-1.14,0-1.73,0c-3.39-0.01-6.07-0.04-8.65-0.21c-2.12-0.14-4.01-0.23-5.94-0.4c-1.67-0.15-3.1-0.33-4.53-0.61
	c-2.11-0.35-4.53-0.64-6.75-0.61c-2.61-0.02-5.19,0.24-7.55,0.75c-2.38,0.53-4.91,1.01-7.05,1.48c-0.81,0.22-1.52,0.32-2.25,0.42
	c-0.38,0.08-0.63,0.13-0.85,0.17c-0.08,0-0.16,0.01-0.19,0.01c-0.05,0.21,0.15,0.42,0.29,0.63c-2.05-0.21-3.88,1.27-4.09,3.32
	c-0.21,2.05,1.27,3.88,3.32,4.09c2.05,0.21,3.88-1.27,4.09-3.32c0.21-2.05-1.27-3.88-3.32-4.09c0.06,0.1,0.26,0.22,0.33,0.33
	c-1.85-0.47-3.74,0.66-4.21,2.51c-0.47,1.85,0.66,3.74,2.51,4.21c1.85,0.47,3.74-0.66,4.21-2.51c0.47-1.85-0.66-3.74-2.51-4.21
	c0.03,0.22,0.17,0.49,0.16,0.71c-1.44-0.63-3.11,0.03-3.74,1.46c-0.63,1.44,0.03,3.11,1.46,3.74c1.44,0.63,3.11-0.03,3.74-1.46
	c0.63-1.44-0.03-3.11-1.46-3.74c-0.03,0.31,0.01,0.69-0.18,0.91c-0.83-0.69-2.07-0.58-2.76,0.25c-0.69,0.83-0.58,2.07,0.25,2.76
	c0.03,0.4,0.26,0.89,0.41,1.28c0.08,0.26,0.3,0.55,0.42,0.8c0.16,0.13,0.45,0.27,0.59,0.37c0.3,0.23,0.67,0.44,0.8,0.64
	c0.07,0,0.09,0,0.11,0c0.44,0.02,1.01,0.02,1.52,0c0.85-0.06,2.11-0.21,3.36-0.46c1.98-0.47,4.51-0.97,7.02-1.55
	c1.85-0.44,3.37-0.62,5.53-0.63c1.55,0.05,3.14,0.34,5.02,0.77c1.76,0.33,3.67,0.56,5.47,0.71c2.1,0.19,4.1,0.29,6.15,0.43
	c2.84,0.18,5.8,0.22,9.22,0.23c0.57,0,1.2,0,1.84,0c0.61-0.01,1.3-0.01,2-0.04c0.68-0.03,1.22-0.07,1.69-0.08
	c0.36,0,0.75,0.01,1.19,0.01c0.8,0,1.67,0.01,2.61,0c0.93,0,1.82,0,2.7,0.02c1.57,0.05,3.09,0.14,4.69,0.28
	c3,0.22,6.13,0.59,9.56,0.9c1.06,0.1,2.15,0.19,3.23,0.28c1.04,0.08,2.16,0.18,3.3,0.24c1.42,0.08,2.79,0.13,4.08,0.22
	c0.19,0.02,0.44,0.05,0.76,0.07c0.33,0.02,0.62,0.03,0.9,0.05c0.2,0.01,0.43,0.03,0.7,0.05c1.22,0.1,2.51,0.3,3.94,0.46
	c1.06,0.09,2.3,0.21,3.55,0.23c0.88,0,1.67-0.03,2.33-0.04c0.8-0.01,1.58-0.03,2.31-0.04c1.22,0.01,2.53,0.03,3.86-0.02
	c1.04-0.06,2.06-0.15,2.98-0.22c0.65-0.06,1.42-0.12,2.23-0.22c0.26-0.04,0.34-0.07,0.32-0.07c0.63-0.07,1.16-0.13,1.68-0.17
	c0.56-0.04,1.12-0.08,1.7-0.12c1.07-0.11,2.56-0.23,4.01-0.63c1.08-0.33,2.15-0.78,2.92-1.15c0.62-0.28,1.29-0.61,1.85-0.92
	c0.18-0.18,0.76-0.48,1.53-1.09c-0.37,0.15-0.99,0.33-1.23,0.34c-0.08,0-0.28,0-0.32,0c-0.08-0.03-0.39-0.11-0.62-0.19
	c-0.13-0.06-0.52-0.25-0.76-0.41c-0.3-0.24-0.99-1.08-1.28-1.76c-0.15-0.73,0.07-2.24,0.39-2.86c0.4-0.49,1.32-1.13,1.76-1.31
	c1.03-0.16,1.78-0.12,1.63-0.25c-0.05-0.01-0.24-0.06-0.47-0.11c-0.13-0.02-0.57-0.07-0.9-0.07c-0.39,0.04-1.75,0.51-2.56,1.16
	c5.67,4.54,6.18,3.41,6.28,2.82c0-0.54-0.18-1.49-0.35-1.88c-0.33-0.54-1.03-1.28-1.38-1.52c-0.53-0.3-1.62-0.65-2.42-0.71
	c-0.26-0.01-0.46-0.02-0.59-0.03c-0.1,0.04-0.2,0.08-0.29,0.13c-0.22-0.04-0.41-0.07-0.58-0.1c-0.09-0.03-0.4-0.07-0.81-0.08
	c-0.33,0.03-0.53,0.06-0.63,0.07c-0.4-0.04-0.73-0.08-1.08-0.14c-0.39-0.05-0.74-0.1-1.1-0.17c-0.25-0.04-0.24-0.06-0.28-0.1
	c0.25,0.06,0.07-0.01-0.38-0.12c-0.29-0.06-0.26-0.05-0.05-0.01c-0.6-0.18-1.39-0.29-1.72-0.32c-0.37-0.03-0.64-0.04-0.75-0.06
	c-0.53-0.03-1.14-0.06-1.74-0.09c-1.16-0.05-2.29-0.07-3.58-0.18c-1.58-0.05-3.89-0.5-6.46-0.65c-0.73-0.04-1.45-0.04-2.05-0.04
	c-0.93-0.02-1.74-0.01-2.53-0.06c-0.74-0.03-1.48-0.09-2.24-0.15c-0.8-0.06-1.61-0.1-2.37-0.13c-1.45-0.02-2.84,0.05-4.25,0.07
	c-2.1,0.03-4.14,0.13-6.33,0.08c-2.69-0.09-5.84-0.17-9.07-0.12c-0.52,0.02-1.06,0.04-1.62,0.06c-0.39,0.01-0.83,0.02-1.28,0.04
	c-0.62,0.03-1.21,0.06-1.78,0.08c-0.59,0.02-1.2,0.04-1.82,0.06c-1.21,0.06-2.4,0.12-3.6,0.18c-2.47,0.09-5.04,0.24-7.52,0.45
	c-1.59,0.13-3.22,0.26-4.89,0.43c-0.85,0.09-1.61,0.18-2.33,0.23c-0.37,0.02-0.64,0.04-0.92,0.04c-0.72,0.03-1.5,0.02-2.36,0.03
	c-1.37,0.02-2.64,0.02-3.86-0.01c-0.53-0.01-1.03-0.02-1.53-0.04c-1.07-0.07-2.06-0.14-3.06-0.24c-0.51-0.06-1.12-0.13-1.77-0.19
	c-1.33-0.09-2.6-0.13-3.71-0.17c-1.7-0.01-3.02-0.06-4.26-0.24c-1.22-0.18-2.68-0.49-4.23-0.52c-0.67-0.01-1.23,0.02-1.61,0.03
	c-0.94-0.01-1.21,0-1.68-0.18c-0.42-0.13-1.6-0.57-3.02-0.69c-0.5-0.02-0.95,0-1.24,0.01c-0.65,0.04-1.36,0.1-1.97,0.15
	c-0.72-0.01-1.48-0.02-2.2,0c-0.98,0.03-1.89,0.06-2.64,0.06c-0.09-0.06-0.18-0.11-0.26-0.17c-0.37,0.05-0.21,0.1,0.41,0.21
	c0.16,0.17,0.67,0.5,0.95,0.79c0.39,0.45,1.08,1.53,1.19,2.1c-0.09,0.51-0.25,1.18-0.47,1.35c-0.06,0.13-0.13,0.3-0.17,0.32
	c0,0.01-0.01,0.03,0.01-0.01c0.49-1.46-0.3-3.04-1.76-3.52C45.34,102.92,43.77,103.71,43.28,105.17"/>
<path class="st6" d="M45.74,80.71c-0.17,0.03-0.42,0.1-0.6,0.15c-1.46,0.48-2.25,2.06-1.77,3.52c0.48,1.46,2.06,2.25,3.52,1.77
	c1.46-0.48,2.25-2.06,1.77-3.52c-0.48-1.46-2.06-2.25-3.52-1.77c-0.13-0.01-0.42,0.06-0.64,0.12c-1.41,0.8-1.9,2.59-1.09,4
	c0.8,1.41,2.59,1.9,4,1.09c1.41-0.8,1.9-2.59,1.09-4c-0.8-1.41-2.59-1.9-4-1.09c-0.15,0.06-0.48,0.28-0.69,0.44
	c-1.17,1.18-1.16,3.08,0.01,4.25c1.18,1.17,3.08,1.16,4.25-0.01c1.17-1.18,1.16-3.08-0.01-4.25c-1.18-1.17-3.08-1.16-4.25,0.01
	c-0.26,0.25-0.76,1.12-0.93,1.77c-0.02,0.76,0.43,2.06,0.73,2.49c0.32,0.34,0.83,0.7,1.04,0.83c0.29,0.16,0.68,0.31,0.82,0.39
	c0.36,0.14,0.84,0.24,1.18,0.32c0.03-0.01,0.2-0.03,0.46-0.06c0.74-0.1,1.75-0.44,2.36-0.78c-0.24,0.08-0.04,0.13,0.75-0.06
	c0.41-0.13,0.89-0.13,1.65-0.17c1.17-0.12,2.01-0.16,3.03-0.18c0.43,0.01,0.92,0.09,1.55,0.16c0.32,0.03,0.72,0.07,1.11,0.09
	c0.39,0.03,0.73,0.03,0.95,0.03c0.06,0,0.24,0,0.52-0.01c0.41-0.03,0.85-0.11,1.03-0.16c0.48-0.11,0.7-0.2,0.67-0.19
	c-0.05,0.01-0.05,0.01,0.1-0.02c0.1-0.03-0.22-0.04-0.59-0.08c0.93,0.11,1.5,0.05,1.38,0.06c-0.16-0.02-0.3-0.03-0.07,0.02
	c0.06,0,0.22,0.04,0.48,0.07c0.26,0.04,0.54,0.08,0.74,0.1c0.36,0.02,0.7,0.02,0.8,0.01c0.84-0.06,1.56-0.24,1.85-0.29
	c-0.22,0.02-0.17,0.04,0.33-0.01c0.42-0.09,1.26-0.39,1.8-0.73c-0.54,0.26-0.63,0.3-0.22,0.15c-0.39,0.11-1.25,0.19-1.66,0.15
	c1.15,0.08,1.26,0,0.28-0.11c-0.06-0.12,0.36-0.03,1.05,0.05c0.26,0.02,0.6,0.03,0.81,0.02c0.1,0,0.25,0,0.35,0
	c0.2-0.1,0.47-0.21,0.65-0.33c0.08-0.17,0.21-0.35,0.29-0.52c1.24-0.31,1.99-1.57,1.68-2.81c-0.31-1.24-1.57-1.99-2.81-1.68
	c-1.24,0.31-1.99,1.57-1.68,2.81c0.31,1.24,1.57,1.99,2.81,1.68c0.1-0.09,0.34-0.23,0.5-0.38c1.05-0.55,1.45-1.84,0.91-2.88
	c-0.55-1.05-1.84-1.45-2.88-0.91c-1.05,0.55-1.45,1.84-0.91,2.88c0.55,1.05,1.84,1.45,2.88,0.91c0.09-0.08,0.33-0.29,0.47-0.45
	c0.81-0.79,0.82-2.09,0.02-2.9c-0.79-0.81-2.09-0.82-2.9-0.02c-0.81,0.79-0.82,2.09-0.02,2.9c0.79,0.81,2.09,0.82,2.9,0.02
	c0.14-0.2,0.44-0.79,0.51-1.2c0.15-1.07-0.6-2.06-1.67-2.21c-1.07-0.15-2.06,0.6-2.21,1.67c0.07-0.4,0.37-0.99,0.51-1.19
	c0.12-0.14,0.34-0.33,0.41-0.41c0.13-0.12,0.31-0.25,0.35-0.32c0.01-0.16,0.07-0.33,0.06-0.48c0-0.09,0.07-0.19,0.04-0.28
	c-0.01,0,0.02,0,0,0c-0.03-0.02,0.08-0.04,0.11-0.06c0.24-0.01,0.36-0.08-0.1-0.34c-1.39-0.25-1.85-0.16-1.15-0.17
	c-0.53-0.07-1.53,0.02-2.09,0.2c0.06-0.02-0.32,0.09-1.05,0.47c0.37-0.23,0.98-0.45,1.09-0.51c0.14,0-0.24,0-0.88,0.1
	c-0.52,0.11-0.67,0.17-0.67,0.15c-0.14,0.01-0.04,0.01,0.07,0.01c-0.15-0.01-0.22-0.01-0.3-0.02c-0.06-0.01-0.17-0.04-0.4-0.08
	c-0.06-0.01-0.5-0.08-1-0.1c-0.59,0.01-0.56,0.05-0.11,0.06c-0.69-0.11-1.48-0.08-1.9-0.03c-0.07,0.01-0.29,0.04-0.55,0.1
	c-0.41,0.1-0.53,0.13-0.37,0.08c-0.14,0.01,0.01-0.02,0.09-0.04c-0.04,0-0.2-0.01-0.47-0.01c-0.29,0.01-0.36,0.03-0.43,0.03
	c-0.18-0.01-0.39-0.04-0.71-0.08c-0.52-0.05-1.31-0.15-2.14-0.18c-1.11-0.07-2.33-0.11-3.72-0.06c-0.76,0.06-1.98,0.18-3.14,0.49
	c-0.32,0.13-1.35,0.36-2.48,0.98c0.21-0.1,0.59-0.23,0.72-0.27c-0.03,0-0.14-0.01-0.37,0c-0.02,0.1,0.18,0.2,0.4,0.32
	c0.1,0.07,0.47,0.21,0.75,0.37c0.18,0.12,0.68,0.48,0.96,0.77c0.33,0.46,0.78,1.76,0.76,2.51c-0.17,0.64-0.67,1.5-0.91,1.74
	c-0.21,0.17-0.53,0.37-0.66,0.42c-0.21,0.06-0.46,0.11-0.53,0.08c-0.07,0.02-0.15,0.04-0.09,0.03c1.51-0.29,2.49-1.76,2.2-3.27
	C48.72,81.4,47.25,80.41,45.74,80.71"/>
<path d="M13.06,56.18c-0.08-0.11-0.26-0.28-0.39-0.38c-0.55-0.32-1.24-0.13-1.56,0.42c-0.32,0.55-0.13,1.24,0.42,1.56
	c0.55,0.32,1.24,0.13,1.56-0.42c0.32-0.55,0.13-1.24-0.42-1.56c-0.18-0.1-0.6-0.2-0.85-0.19c-0.64,0.1-1.07,0.7-0.97,1.34
	c0.1,0.64,0.7,1.07,1.34,0.97c0.64-0.1,1.07-0.7,0.97-1.34c-0.1-0.64-0.7-1.07-1.34-0.97c-0.25,0.05-0.61,0.25-0.75,0.37
	c-0.46,0.47-0.45,1.23,0.03,1.69c0.47,0.46,1.23,0.45,1.69-0.03c0.46-0.47,0.45-1.23-0.03-1.69c-0.47-0.46-1.23-0.45-1.69,0.03
	c-0.11,0.11-0.25,0.3-0.31,0.4c-0.19,0.35-0.32,0.81-0.4,1.18c-0.41,2.93-0.09,6.96-0.27,10.18c-0.07,1.93-0.07,4.42,0,6.43
	c0.04,0.98,0.13,1.81,0.18,2.65c0.09,2.28,0.24,5.39,0.22,7.8c-0.02,5.59,0,12.66,0.06,18.39c0.05,3.07,0.08,6.02,0.11,8.79
	c0.02,1.89,0.02,4.14-0.13,6.11c-0.07,1.04-0.2,1.85-0.31,2.88c-0.2,1.91-0.34,4.96-0.55,7.55c-0.14,1.83-0.17,3.29-0.22,4.55
	c-0.09,2.97-0.25,5.79-0.36,8.36c-0.11,2.44-0.13,5.75-0.13,8.33c0.02,1.01-0.03,2.05-0.03,3.1c-0.01,0.75,0.03,1.39,0.02,1.82
	c0.06,0.31,0.14,0.41,0.18,0.51c-0.05,0.46-0.13,0.9-0.21,1.16c-0.02,0.11,0.11-0.03,0.4-0.28c0.14-0.07,0.58-0.19,0.86-0.19
	c-0.77-0.08-1.45,0.49-1.53,1.25c-0.08,0.77,0.49,1.45,1.26,1.53c0.77,0.08,1.45-0.49,1.53-1.26c0.08-0.77-0.49-1.45-1.26-1.53
	c0.28,0.07,0.72,0.32,0.86,0.45c-0.51-0.57-1.38-0.62-1.95-0.12c-0.57,0.51-0.62,1.38-0.12,1.95c0.51,0.57,1.38,0.62,1.95,0.12
	c0.57-0.51,0.62-1.38,0.12-1.95c0.14,0.22,0.23,0.49,0.23,0.51c-0.14-0.73-0.84-1.21-1.57-1.07c-0.73,0.14-1.21,0.84-1.07,1.57
	c0.14,0.73,0.84,1.21,1.57,1.07c0.73-0.14,1.21-0.84,1.07-1.57c-0.19,0.01-0.38,0-0.57-0.12c-0.01-0.43-0.38-0.77-0.81-0.76
	c-0.43,0.01-0.77,0.38-0.76,0.81c-0.18,0.18-0.35,0.38-0.5,0.56c0.02,0.18,0.16,0.55,0.35,0.83c0.16,0.16,0.63,0.43,0.93,0.5
	c0.31,0.01,0.78-0.12,0.95-0.22c0.41-0.32,0.69-0.72,0.82-0.96c0.22-0.45,0.45-1.15,0.59-1.74c0.13-0.39,0.2-0.73,0.28-0.92
	c0.03-0.62,0-1.28,0.02-1.89c0.04-0.97,0.13-2.04,0.16-3.17c0.02-2.56,0.06-5.8,0.19-8.15c0.14-2.54,0.33-5.39,0.45-8.41
	c0.04-1.29,0.07-2.65,0.2-4.39c0.19-2.66,0.32-5.69,0.49-7.47c0.09-0.93,0.23-1.8,0.31-2.99c0.14-2.13,0.11-4.53,0.07-6.44
	c-0.05-2.77-0.11-5.73-0.18-8.8c-0.16-5.71-0.28-12.75-0.36-18.34c-0.04-2.51-0.25-5.68-0.39-7.95c-0.04-0.91-0.12-1.72-0.15-2.61
	c-0.1-1.95-0.14-4.35-0.1-6.21c0-3.44-0.49-7.38-0.27-9.97c0-0.29-0.02-0.42-0.05-0.41c-0.02,0.02-0.11,0.13-0.17,0.2
	c-0.09,0.07-0.4,0.23-0.59,0.28c-0.2,0-0.56-0.08-0.67-0.14c-0.07-0.06-0.18-0.17-0.18-0.18c0.39,0.48,1.09,0.54,1.57,0.15
	C13.38,57.36,13.45,56.66,13.06,56.18z"/>
<path d="M13.41,161.16c-0.12,0.09-0.32,0.23-0.36,0.18c0.41-0.29,0.51-0.85,0.22-1.26c-0.29-0.41-0.85-0.51-1.26-0.22
	c-0.41,0.29-0.51,0.85-0.22,1.26c0.29,0.41,0.85,0.51,1.26,0.22c0.22-0.1,1.35-0.04,2.79,0.14c0.69,0.03,1.27-0.51,1.3-1.19
	c0.03-0.69-0.51-1.27-1.19-1.3c-0.69-0.03-1.27,0.51-1.3,1.19c-0.03,0.69,0.51,1.27,1.19,1.3c0.78,0.07,1.68,0.19,2.93,0.26
	c0.75,0.02,1.37-0.56,1.39-1.31c0.02-0.75-0.56-1.37-1.31-1.39c-0.75-0.02-1.37,0.56-1.39,1.31c-0.02,0.75,0.56,1.37,1.31,1.39
	c1.75,0.08,3.99,0.11,6.08,0.08c2.17-0.05,4.11-0.13,6.17-0.18c2.65-0.05,6.13-0.21,9.58-0.61c5.26-0.63,8.95-0.97,12.87-1.1
	c5.95-0.21,11.75-0.39,17.16-0.47c6.1-0.11,9.97-0.32,12.81-0.24c4,0.08,9.31,0.04,16.22-0.2c7.97-0.3,13.56,0.36,19.13,1.21
	c5.86,0.91,12.47,0.88,17.87,0.91c6.48,0.03,11.36,0.05,16.66-0.53c4.29-0.48,8.91-0.92,14.34-1.39c3.3-0.28,5.97-0.44,9.15-0.46
	c1.57-0.01,3,0,4.57-0.07c0.87-0.03,1.64-0.1,2.41-0.15c0.36-0.03,0.76-0.05,1.1-0.07c0.94-0.05,1.66-0.85,1.61-1.79
	c-0.05-0.94-0.85-1.66-1.79-1.61c-0.94,0.05-1.66,0.85-1.61,1.79c0.05,0.94,0.85,1.66,1.79,1.61c0.21,0.01,0.41,0.01,0.51,0.02
	c0.97-0.14,1.64-1.05,1.5-2.02c-0.14-0.97-1.05-1.64-2.02-1.5c-0.97,0.14-1.64,1.05-1.5,2.02c0.14,0.97,1.05,1.64,2.02,1.5
	c0.1-0.01,0.06-0.01,0.01-0.01c0.98-0.01,1.78-0.81,1.77-1.8c-0.01-0.98-0.81-1.78-1.8-1.77c-0.98,0.01-1.78,0.81-1.77,1.8
	c0.01,0.98,0.81,1.78,1.8,1.77c-0.05-0.36-0.08-0.73,0.75-0.55c0.36,0.25,0.84,0.16,1.09-0.2c0.25-0.36,0.16-0.84-0.2-1.09
	c-0.56-0.79-1.13-1.36-1.67-1.72c-0.21,0.01-0.42,0.03-0.51,0.05c-0.09,0.04-0.1,0.07-0.17,0.1c-0.32,0.01-0.74,0.03-1.16,0.05
	c-0.79,0.05-1.5,0.11-2.31,0.14c-1.5,0.06-2.87,0.05-4.45,0.06c-3.27,0.02-6.09,0.18-9.43,0.46c-5.44,0.46-10.11,0.9-14.43,1.38
	c-5.11,0.57-9.78,0.54-16.27,0.51c-5.41-0.02-11.79,0.03-17.36-0.83c-5.63-0.89-11.58-1.62-19.78-1.35
	c-6.86,0.24-12.08,0.28-16.03,0.22c-2.99-0.03-6.9,0.22-12.95,0.36c-5.44,0.15-11.27,0.4-17.22,0.67c-4,0.18-7.82,0.57-13.11,1.25
	c-3.35,0.44-6.68,0.64-9.29,0.74c-2.09,0.07-4.02,0.16-6.17,0.23c-2.04,0.08-4.21,0.11-5.91,0.08c-1.19,0-2.07-0.05-2.92-0.05
	c-1.55,0.05-3.13,0.27-3.93,0.88c-0.24,0.09-0.57,0.4-0.75,0.67c-0.17,0.59,0.17,1.21,0.76,1.38
	C12.62,162.08,13.24,161.75,13.41,161.16z"/>
<path d="M15.2,55.89c1.42-0.08,2.51-0.06,4.62-0.09c0.65-0.02,1.16-0.55,1.15-1.2c-0.02-0.65-0.55-1.16-1.2-1.15
	c-0.65,0.02-1.16,0.55-1.15,1.2c0.02,0.65,0.55,1.16,1.2,1.15c3.36-0.07,9.32-0.44,14.93-0.48c0.67-0.01,1.21-0.56,1.2-1.23
	c-0.01-0.67-0.56-1.21-1.23-1.2c-0.67,0.01-1.21,0.56-1.2,1.23c0.01,0.67,0.56,1.21,1.23,1.2c7.67-0.05,15.44-0.09,22.08,0.06
	c0.7,0.01,1.29-0.55,1.3-1.25c0.01-0.7-0.55-1.29-1.25-1.3c-0.7-0.01-1.29,0.55-1.3,1.25c-0.01,0.7,0.55,1.29,1.25,1.3
	c4.99,0.12,9.57,0.47,14.83,0.43c2.92-0.03,5.87,0.06,9.77,0.08c3.27,0.02,7.06,0.04,10.59,0.04c8.34-0.02,16.67-0.07,25.53,0.12
	c7.1,0.16,14.65,0.16,21.79,0.18c9.91,0,17.98,0.26,26.13,0.25c5.44,0.01,9.86,0.04,14.31,0.07c2.01,0,3.94-0.02,5.43-0.04
	c0.72-0.01,1.33-0.04,1.85-0.05c0.93-0.03,1.39-0.19,1.01-0.2c0.42,0.12,0.65,0.1,0.54-0.01c-0.07-0.09-0.42-0.5-0.52-0.8
	c0.2,0.71,0.95,1.13,1.66,0.93c0.71-0.2,1.13-0.95,0.93-1.66c-0.2-0.71-0.95-1.13-1.66-0.93c-0.71,0.2-1.13,0.95-0.93,1.66
	c0-0.25,0.08-0.62,0.11-0.64c-0.27,0.63,0.02,1.36,0.65,1.64c0.63,0.27,1.36-0.02,1.64-0.65c0.27-0.63-0.02-1.36-0.65-1.64
	c-0.63-0.27-1.36,0.02-1.64,0.65c0.22-0.17,0.04-0.07-0.4,0.3c-0.51,0.37-0.62,1.08-0.25,1.6c0.37,0.51,1.08,0.62,1.6,0.25
	c0.51-0.37,0.62-1.08,0.25-1.6c-0.37-0.51-1.08-0.62-1.6-0.25c-0.17,0.27-0.33,0.54-0.55,0.8c-0.37,0.22-0.5,0.7-0.28,1.07
	c0.22,0.37,0.7,0.5,1.07,0.28c0.42-0.11,0.8-0.24,1.1-0.31c0.38-0.24,0.93-0.54,1.35-1.16c0.12-0.22,0.22-0.72,0.19-1.08
	c-0.14-0.41-0.56-0.89-0.74-1.04c-0.34-0.22-0.44-0.3-0.35-0.34c-1.07-0.36-1.98-0.2-2.58-0.2c-0.55,0.01-1.15,0.03-1.84,0.05
	c-1.47,0.03-3.37,0.05-5.37,0.05c-4.45,0.02-8.87,0.03-14.32,0.07c-8.1,0.04-16.18-0.18-26.13-0.16
	c-7.15,0.04-14.67,0.09-21.74-0.02c-8.89-0.15-17.26-0.06-25.6,0c-3.53,0.03-7.3,0.04-10.57,0.04c-3.88,0-6.84-0.06-9.81-0.02
	c-5.15,0.09-9.69-0.22-14.74-0.3c-6.68-0.11-14.49-0.03-22.16,0.06c-5.68,0.07-11.67,0.47-14.96,0.56
	c-2.09,0.07-3.24,0.09-4.72,0.22c-0.61,0.04-1.08,0.58-1.03,1.19C14.05,55.47,14.59,55.93,15.2,55.89"/>
<path d="M195.98,111.89c0.02-5.39-0.04-10.88-0.56-16.43c-0.65-6.62-1.1-14.26-1.46-23.3c-0.4-7.52-0.58-13.24-0.53-15.7
	c0.05-0.61-0.41-1.15-1.02-1.2c-0.61-0.05-1.15,0.41-1.2,1.02c-0.35,2.59-0.45,8.43-0.34,15.98c0.03,0.85,0.74,1.52,1.6,1.49
	c0.85-0.03,1.52-0.74,1.49-1.6c-0.03-0.85-0.74-1.52-1.6-1.49c-0.85,0.03-1.52,0.74-1.49,1.6c0.25,9.07,0.58,16.81,1.13,23.5
	c0.08,0.95,0.92,1.64,1.87,1.56c0.95-0.08,1.64-0.92,1.56-1.87c-0.08-0.95-0.92-1.64-1.87-1.56c-0.95,0.08-1.64,0.92-1.56,1.87
	c0.46,5.4,0.46,10.73,0.38,16.08c-0.01,1,0.79,1.81,1.79,1.82C195.16,113.68,195.97,112.88,195.98,111.89"/>
<path d="M195.98,111.89c0.01-1-0.79-1.81-1.79-1.82c-1-0.01-1.81,0.79-1.82,1.79c-0.04,4.56-0.13,7.25-0.67,9.79
	c-0.22,1.13-0.57,2.21-0.93,3.84c-0.51,2.29-0.85,5.81-1.05,8.42c-0.17,2.26-0.36,3.72-0.56,5.26c-0.08,0.62-0.18,1.24-0.27,1.97
	c-0.06,0.57-0.09,1.18-0.13,1.79c-0.04,0.57-0.07,1.16-0.1,1.83c-0.04,0.85-0.07,1.78-0.11,2.51c-0.02,0.4-0.05,0.7-0.09,1.05
	c-0.16,1.62-0.21,3.5-0.23,4.92c0,0.26-0.03,0.51-0.04,0.83c-0.01,0.51,0.02,1.03,0.03,1.41c0.01,0.25,0.02,0.4,0.01,0.49
	c0.07,0.05,0.18-0.08,0.29-0.17c0.07-0.05,0.26-0.25,0.39-0.34c-0.56,0.49-0.62,1.33-0.14,1.9s1.33,0.62,1.9,0.14
	c0.56-0.49,0.62-1.33,0.14-1.9c-0.49-0.56-1.33-0.62-1.9-0.14c0.17-0.07,0.56-0.19,0.74-0.18c-0.68,0.04-1.2,0.62-1.16,1.3
	c0.04,0.68,0.62,1.2,1.3,1.16c0.68-0.04,1.2-0.62,1.16-1.3c-0.04-0.68-0.62-1.2-1.3-1.16c0.27,0.1,0.54,0.3,0.49,0.35
	c-0.43-0.35-1.07-0.29-1.42,0.14c-0.35,0.43-0.29,1.07,0.14,1.42c0.43,0.35,1.07,0.29,1.42-0.14c0.35-0.43,0.29-1.07-0.14-1.42
	c-0.08,0.03-0.18,0.03-0.35-0.06c-0.27-0.34-0.76-0.39-1.1-0.12c-0.34,0.27-0.39,0.76-0.12,1.1c0.09,0.23,0.21,0.46,0.3,0.64
	c0.13,0.2,0.54,0.45,0.92,0.55c0.24,0.01,0.67-0.13,0.88-0.24c0.18-0.13,0.4-0.38,0.5-0.49c0.17-0.22,0.31-0.53,0.4-0.71
	c0.03-0.28,0.03-0.61,0.03-0.88c0-0.41-0.01-0.81,0.02-1.16c0.01-0.25,0.04-0.54,0.05-0.91c0.05-1.42,0.11-3.17,0.28-4.65
	c0.04-0.36,0.08-0.76,0.1-1.23c0.04-0.78,0.07-1.71,0.12-2.53c0.03-0.69,0.06-1.24,0.1-1.75c0.05-0.61,0.1-1.15,0.16-1.63
	c0.08-0.68,0.17-1.26,0.25-1.93c0.2-1.55,0.4-3.12,0.57-5.45c0.19-2.58,0.47-5.9,0.92-7.93c0.34-1.47,0.72-2.54,1.01-3.86
	C195.8,119.53,195.93,116.49,195.98,111.89"/>
<path d="M38.78,68.4c0.06-0.01,0.11-0.02,0.17,0.01c0.01,0.52,0.44,0.94,0.96,0.93c0.52-0.01,0.94-0.44,0.93-0.96
	c-0.01-0.52-0.44-0.94-0.96-0.93c-0.52,0.01-0.94,0.44-0.93,0.96c-0.04,0.25-0.11,1-0.14,1.72c0.02,0.6,0.51,1.07,1.11,1.05
	c0.6-0.02,1.07-0.51,1.05-1.11c-0.02-0.6-0.51-1.07-1.11-1.05c-0.6,0.02-1.07,0.51-1.05,1.11c0.02,1.31,0.28,2.42,0.41,3.59
	c0.08,0.63,0.66,1.07,1.29,0.99c0.63-0.08,1.07-0.66,0.99-1.29c-0.08-0.63-0.66-1.07-1.29-0.99c-0.63,0.08-1.07,0.66-0.99,1.29
	c0.14,1.06,0.24,2.41,0.33,3.74c0.12,1.91,0.21,3.13,0.24,4.59c0.06,1.43,0.09,3.11,0.13,4.47c0.03,1.13,0.13,2.02,0.16,3.22
	c0.02,0.74,0.01,1.55,0,2.27c0,0.39,0,0.74,0,1.06c0,0.57,0.01,1.19,0.05,1.84c0.02,0.35,0.06,0.67,0.09,0.97
	c0.02,0.27,0.03,0.54,0.05,0.87c0.01,0.32,0.02,0.66,0.02,0.97c0,0.54-0.02,0.9-0.04,1.34c0,0.35,0,0.74,0,1.17
	c0,0.72,0,1.51,0,2.17c-0.01,1.19-0.08,2.05-0.15,3.29c-0.05,0.81-0.07,1.72-0.11,2.56c-0.02,0.41-0.05,0.81-0.08,1.18
	c-0.03,0.4-0.04,0.71-0.06,1.11c-0.02,0.22-0.05,0.5-0.07,0.79c-0.07,0.95-0.1,2.08-0.13,3.12c-0.01,1.11-0.02,1.97-0.05,2.94
	c-0.02,0.61-0.04,1.29-0.06,1.91c-0.02,1.56,0,2.7,0,4.01c0,0.64,0.01,1.27,0.03,1.89c0.01,0.28,0.02,0.52,0.03,0.77
	c-0.01,0.19-0.02,0.39-0.03,0.61c-0.02,0.33-0.06,0.71-0.08,1.08c-0.01,0.2-0.02,0.38-0.03,0.56c-0.02,0.57-0.02,1.07-0.03,1.67
	c0,0.29-0.01,0.63-0.02,1c-0.01,0.43-0.04,0.89-0.05,1.32c-0.01,0.23-0.01,0.46-0.01,0.66c0,0.13,0,0.27,0,0.39
	c-0.01,0.06-0.02,0.13-0.03,0.19c0.01,0.75,0.62,1.34,1.37,1.34c0.75-0.01,1.34-0.62,1.34-1.37c-0.01-0.75-0.62-1.34-1.37-1.34
	c-0.75,0.01-1.34,0.62-1.34,1.37c0,0.06,0,0.12,0,0.19c0,0.75,0.62,1.35,1.36,1.35c0.75,0,1.35-0.62,1.35-1.36
	c-0.01-0.75-0.62-1.35-1.36-1.35c-0.75,0-1.35,0.62-1.35,1.36c0,0.06,0,0.12-0.01,0.19c0,0.75,0.61,1.36,1.36,1.36
	c0.75,0,1.36-0.61,1.36-1.36c0-0.75-0.61-1.36-1.36-1.36c-0.75,0-1.36,0.61-1.36,1.36c0.13,0.07,0.25,0.13,0.38,0.2
	c-0.01,0.54,0.43,0.98,0.97,0.99c0.54,0.01,0.98-0.43,0.99-0.97c0.13-0.07,0.26-0.15,0.38-0.22c0-0.07,0-0.14-0.01-0.21
	c0-0.07,0-0.14-0.01-0.2c-0.01-0.06-0.02-0.13-0.03-0.19c0-0.13,0-0.25-0.01-0.37c0-0.19,0-0.36,0-0.57
	c0.01-0.39,0.04-0.85,0.05-1.32c0.01-0.36,0.03-0.72,0.03-1.05c0.01-0.6,0.01-1.08,0.02-1.62c0.01-0.15,0.01-0.27,0.03-0.44
	c0.02-0.32,0.07-0.73,0.09-1.13c0.01-0.24,0.02-0.48,0.02-0.71c0.01-0.29,0.02-0.56,0.03-0.83c0.01-0.63,0.01-1.23,0.03-1.84
	c0.04-1.34,0.05-2.45,0.11-3.98c0.02-0.61,0.04-1.28,0.06-1.89c0.03-1.01,0.04-1.9,0.05-3.01c0-1.03,0-2.1,0.04-2.99
	c0.01-0.26,0.02-0.54,0.03-0.81c0.02-0.42,0.02-0.73,0.04-1.1c0.01-0.36,0.03-0.79,0.04-1.24c0.02-0.87,0.02-1.76,0.05-2.51
	c0.06-1.21,0.13-2.15,0.12-3.43c0-0.67,0-1.46,0-2.17c0-0.44,0-0.82,0-1.15c-0.01-0.43-0.01-0.83-0.04-1.41
	c-0.01-0.31-0.01-0.68-0.03-1.02c-0.01-0.34-0.03-0.67-0.06-1c-0.03-0.34-0.07-0.63-0.08-0.91c-0.04-0.59-0.05-1.13-0.05-1.68
	c0-0.33,0-0.67,0-1.04c0.01-0.7,0.02-1.55,0-2.35c-0.04-1.29-0.14-2.2-0.17-3.22c-0.03-1.33-0.04-3.03-0.1-4.51
	c-0.09-1.52-0.24-2.78-0.42-4.67c-0.11-1.33-0.22-2.74-0.38-3.86c-0.2-1.29-0.48-2.28-0.53-3.35c-0.06-0.65-0.08-1.36-0.13-1.69
	c0.06-0.05,0.11-0.11,0.16-0.17c-0.05-0.61-0.59-1.07-1.21-1.01C39.18,67.24,38.73,67.78,38.78,68.4"/>
<path d="M45.37,135.08c-0.01-0.01-0.39-0.12-0.12-2.17c-0.59,0.1-0.98,0.65-0.88,1.24c0.1,0.59,0.65,0.98,1.24,0.88
	c0.59-0.1,0.98-0.65,0.88-1.24c-0.1-0.59-0.65-0.98-1.24-0.88c0.13,0,0.15,0.01,0.15,0.03c-0.57,0.01-1.03,0.47-1.03,1.04
	c0.01,0.57,0.47,1.03,1.04,1.03c0.57-0.01,1.03-0.47,1.03-1.04c-0.01-0.57-0.47-1.03-1.04-1.03c-0.01,0.03-0.05,0.05-0.1,0.08
	c-0.53,0-0.96,0.42-0.96,0.95c0,0.53,0.42,0.96,0.95,0.96c0.53,0,0.96-0.42,0.96-0.95c0-0.53-0.42-0.96-0.95-0.96
	c-0.1,0.05-0.25,0.1-0.4,0.16c-0.29-0.05-0.59-0.07-0.7-0.1c-0.51,0.07-0.87,0.53-0.81,1.05c0.07,0.51,0.53,0.87,1.05,0.81
	c0.51-0.07,0.87-0.53,0.81-1.05c-0.07-0.51-0.53-0.87-1.05-0.81c0.16,1.88,0.33,1.91,0.58,1.93c0.24,0.01,0.58,0.01,0.95,0
	c0.88-0.02,2.14-0.06,4.17-0.12c1.52-0.05,3.4-0.17,5.44-0.3c3.49-0.22,7.43-0.29,11.26-0.31c3.55-0.04,6.86-0.05,10.32-0.04
	c1.34,0,2.69,0,4.07,0c1.36,0,2.76,0,4.23-0.01c1.24,0,2.53,0,3.76,0c2.93,0,5.6,0,8.04,0.02c1.2,0.01,2.36,0.03,3.55,0.03
	c2.25,0.01,4.68-0.05,7.02,0c2.33,0.05,4.56,0.21,6.75,0.3c0.96,0.04,1.91,0.05,2.86,0.06c1.75,0.02,3.58,0,5.33,0.03
	c5.42,0.07,10.11,0.49,15.06,0.66c3.8,0.13,7.72,0.35,11.58,0.45c2.26,0.06,4.49,0.06,6.63,0.06c1.08,0,2.14,0,3.13,0.01
	c2.5,0,4.53,0.06,6.21,0.14c0.8,0.03,1.5,0.07,2.04,0.08c0.24,0.01,0.46,0.02,0.68,0.03c0.26,0.01,0.49,0,0.66,0.01
	c0.16-0.01,0.15-0.03-0.01-0.08c-0.05-0.04-0.21-0.15-0.3-0.25c0.43,0.42,1.12,0.41,1.54-0.02c0.42-0.43,0.41-1.12-0.02-1.54
	c-0.43-0.42-1.12-0.41-1.54,0.02c-0.42,0.43-0.41,1.12,0.02,1.54c-0.09-0.12-0.24-0.47-0.27-0.66c0.05,0.58,0.56,1,1.14,0.95
	c0.58-0.05,1-0.56,0.95-1.14c-0.05-0.58-0.56-1-1.14-0.95c-0.58,0.05-1,0.56-0.95,1.14c0.06-0.33,0.26-0.67,0.33-0.7
	c-0.38,0.37-0.38,0.98-0.01,1.36c0.37,0.38,0.98,0.38,1.36,0.01c0.38-0.37,0.38-0.98,0.01-1.36c-0.37-0.38-0.98-0.38-1.36-0.01
	c0.08,0.02,0.08,0.09-0.08,0.23c-0.38,0.2-0.54,0.67-0.34,1.06c0.2,0.38,0.67,0.54,1.06,0.34c0.26-0.07,0.51-0.16,0.71-0.26
	c0.13-0.09,0.36-0.48,0.41-0.85c-0.02-0.22-0.19-0.58-0.29-0.71c-0.11-0.11-0.29-0.24-0.36-0.29c-0.3-0.11-0.6-0.15-0.81-0.17
	c-0.2,0-0.42,0-0.64-0.01c-0.18,0-0.39-0.02-0.66-0.03c-0.53-0.02-1.22-0.05-2.02-0.08c-1.69-0.07-3.78-0.14-6.31-0.14
	c-0.99,0-2.05,0-3.13,0.01c-2.14,0-4.34,0-6.57-0.06c-3.82-0.1-7.72-0.34-11.56-0.49c-4.89-0.18-9.61-0.63-15.12-0.71
	c-1.77-0.02-3.61-0.01-5.33-0.03c-0.95-0.01-1.86-0.02-2.8-0.06c-2.14-0.08-4.39-0.25-6.79-0.3c-2.39-0.05-4.84,0.01-7.05,0
	c-1.19-0.01-2.34-0.02-3.54-0.03c-2.46-0.02-5.14-0.03-8.07-0.03c-1.23,0-2.52,0-3.76,0c-1.47,0-2.87,0-4.23-0.01
	c-1.38,0-2.73,0-4.07,0c-3.48,0-6.8,0.03-10.36,0.07c-3.84,0.07-7.85,0.18-11.39,0.46c-2.04,0.15-3.88,0.29-5.37,0.36
	c-2.03,0.11-3.31,0.2-4.19,0.27c-0.33,0.03-0.63,0.04-0.87,0.05c-0.18,0.03-0.35,0.04-0.54,0.07c0.25,1.81,0.47,1.74,0.7,1.7
	c0.15,0.05,0.29,0.11,0.4,0.16c0.05,0.03,0.1,0.05,0.12,0.08c0.02,0.01,0.06,0.02,0.13,0.03c0.33-2.06-0.05-2.17-0.08-2.18
	c-0.61-0.03-1.13,0.45-1.16,1.06C44.27,134.53,44.75,135.05,45.37,135.08"/>
<path d="M41.69,133.6c0.16,0.12,0.4,0.58,0.45,0.83c0.05-0.69-0.47-1.29-1.15-1.34c-0.69-0.05-1.29,0.47-1.34,1.15
	c-0.05,0.69,0.47,1.29,1.15,1.34c0.69,0.05,1.29-0.47,1.34-1.15c0.01,0.24-0.1,0.59-0.12,0.7c0.49-0.6,0.39-1.48-0.21-1.97
	c-0.6-0.49-1.48-0.39-1.97,0.21c-0.49,0.6-0.39,1.48,0.21,1.97c0.6,0.49,1.48,0.39,1.97-0.21c0,0.1-0.06,0.24-0.03,0.31
	c0.71-0.53,0.85-1.53,0.32-2.24c-0.53-0.71-1.53-0.85-2.24-0.32c-0.71,0.53-0.85,1.53-0.32,2.24c0.53,0.71,1.53,0.85,2.24,0.32
	c0,0.01,0,0.02,0.11-0.02c0.12-0.04,0.24-0.08,0.43-0.13c0.19-0.06,0.37-0.11,0.59-0.17c0.22-0.06,0.44-0.11,0.68-0.16
	c0.12-0.02,0.23-0.04,0.35-0.05c0.12-0.02,0.23-0.03,0.35-0.04c0.95-0.14,1.61-1.02,1.47-1.97c-0.14-0.95-1.02-1.61-1.97-1.47
	c-0.95,0.14-1.61,1.02-1.47,1.97c0.14,0.95,1.02,1.61,1.97,1.47c0.24-0.07,0.43-0.13,0.64-0.18c0.9-0.05,1.59-0.82,1.54-1.72
	c-0.05-0.9-0.82-1.59-1.72-1.54c-0.9,0.05-1.59,0.82-1.54,1.72c0.05,0.9,0.82,1.59,1.72,1.54c0.43-0.17,0.69-0.31,0.94-0.38
	c0.63,0.19,1.29-0.17,1.48-0.79c0.19-0.63-0.16-1.29-0.79-1.48c-0.63-0.19-1.29,0.16-1.48,0.79c-0.19,0.63,0.16,1.29,0.79,1.48
	c0.15-0.1,0.21-0.22,0.33-0.29c0.34,0.27,0.83,0.22,1.1-0.12c0.27-0.34,0.22-0.83-0.12-1.1c-0.13-0.27-0.4-0.55-0.62-0.77
	c-0.5-0.29-1.2-0.49-1.81-0.61c-0.31-0.02-0.66-0.02-0.97-0.01c-0.15,0.03-0.32,0.06-0.47,0.1c-0.15,0.03-0.31,0.07-0.46,0.11
	c-0.29,0.07-0.61,0.15-0.88,0.23c-0.27,0.09-0.56,0.18-0.8,0.28c-0.24,0.1-0.49,0.22-0.69,0.33c-0.2,0.11-0.46,0.26-0.64,0.4
	c-0.06,0.13-0.18,0.33-0.24,0.5c-0.07,0.17-0.2,0.58-0.2,0.87c0.05,0.31,0.31,0.82,0.51,0.98c0.45,0.42,1.15,0.4,1.57-0.05
	C42.17,134.73,42.14,134.02,41.69,133.6"/>
<path class="st7" d="M22.37,103.94c-0.05-0.01-0.08-0.01-0.12-0.02c-0.24-0.51-0.84-0.73-1.35-0.49c-0.51,0.24-0.73,0.84-0.49,1.35
	c0.24,0.51,0.84,0.73,1.35,0.49c0.51-0.24,0.73-0.84,0.49-1.35c-0.05-0.04-0.08-0.05-0.12-0.09c-0.2-0.48-0.74-0.71-1.22-0.52
	c-0.48,0.2-0.71,0.74-0.52,1.22c0.2,0.48,0.74,0.71,1.22,0.52c0.48-0.2,0.71-0.74,0.52-1.22c-0.01-0.01-0.03-0.05-0.06-0.09
	c-0.24-0.45-0.8-0.62-1.25-0.38c-0.45,0.24-0.62,0.8-0.38,1.25c0.24,0.45,0.8,0.62,1.25,0.38c0.45-0.24,0.62-0.8,0.38-1.25
	c-0.02-0.03-0.1-0.15-0.18-0.23c-0.03-0.03-0.18-0.13-0.3-0.19c-0.53-0.04-0.89,0.12-1.03,0.25c-0.22,0.35-0.28,0.58-0.31,0.62
	c-0.03,0.03-0.05,0.07-0.08,0.08c-0.05,0.03-0.1,0.07-0.15,0.1c-0.04,0.46-0.15,2.37-0.22,4.21c0.01,0.82,0.03,1.57,0.05,2.2
	c0.02,0.78,0.67,1.41,1.45,1.39c0.78-0.02,1.41-0.67,1.39-1.45c-0.02-0.78-0.67-1.41-1.45-1.39c-0.78,0.02-1.41,0.67-1.39,1.45
	c0.09,0.57,0.19,1.07,0.3,1.43c0.06,0.66,0.64,1.14,1.3,1.07c0.66-0.06,1.14-0.64,1.07-1.3c-0.06-0.66-0.64-1.14-1.3-1.07
	c-0.66,0.06-1.14,0.64-1.07,1.3c0.06,0.19,0.12,0.38,0.19,0.53c0.13,0.58,0.71,0.94,1.29,0.81c0.58-0.13,0.94-0.71,0.81-1.29
	s-0.71-0.94-1.29-0.81c-0.58,0.13-0.94,0.71-0.81,1.29c0.08,0.16,0.28,0.49,0.6,0.74c0.44,0.29,1.04,0.17,1.34-0.27
	c0.29-0.44,0.17-1.04-0.27-1.34c0.26,0.21,0.41,0.42,0.44,0.38c0.03-0.05,0.05-0.12,0.08-0.27c0.05-0.3,0.11-0.72,0.17-1.27
	c0-0.61,0-1.33,0.01-2.14c-0.07-1.82-0.11-3.75-0.22-4.39c-0.06-0.04-0.11-0.07-0.16-0.07c-0.03,0-0.05,0.02-0.08,0.04
	c-0.03,0.03-0.09,0.25-0.34,0.64c-0.11,0.1-0.47,0.26-0.66,0.28c-0.46-0.12-0.6-0.22-0.65-0.27c-0.07-0.07-0.15-0.19-0.17-0.22
	c-0.02-0.03-0.04-0.06-0.04-0.06c-0.02,0.02-0.01,0.12,0.02,0.24c-0.01,0.07,0,0.16,0.01,0.24c0.3,0.54,0.97,0.74,1.51,0.44
	C22.47,105.15,22.67,104.48,22.37,103.94"/>
<path class="st7" d="M21.37,109.15c0.12-0.01,0.28-0.02,0.37-0.06c0.53,0.07,1.02-0.3,1.09-0.83s-0.3-1.02-0.83-1.09
	c-0.53-0.07-1.02,0.3-1.09,0.83c-0.07,0.53,0.3,1.02,0.83,1.09c0.07,0.05,0.16,0.1,0.24,0.15c0.6,0.02,1.11-0.46,1.13-1.06
	c0.02-0.61-0.46-1.11-1.06-1.13c-0.6-0.02-1.11,0.46-1.13,1.06c-0.02,0.61,0.46,1.11,1.06,1.13c0.07,0.05,0.17,0.09,0.25,0.14
	c0.68-0.02,1.21-0.59,1.19-1.27c-0.02-0.68-0.59-1.21-1.27-1.19c-0.68,0.02-1.21,0.59-1.19,1.27c0.02,0.68,0.59,1.21,1.27,1.19
	c0.16,0.02,0.36,0.03,0.55,0.04c0.72-0.07,1.24-0.72,1.17-1.44c-0.07-0.72-0.72-1.24-1.44-1.17c-0.72,0.07-1.24,0.72-1.17,1.44
	c0.07,0.72,0.72,1.24,1.44,1.17c0.19,0,0.4-0.01,0.62-0.02c0.75-0.11,1.26-0.81,1.15-1.55c-0.11-0.75-0.81-1.26-1.55-1.15
	c-0.75,0.11-1.26,0.81-1.15,1.55c0.11,0.75,0.81,1.26,1.55,1.15c0.31-0.05,0.66-0.12,1-0.19c0.73-0.15,1.2-0.86,1.06-1.59
	c-0.15-0.73-0.86-1.2-1.59-1.06c-0.73,0.15-1.2,0.86-1.06,1.59c0.15,0.73,0.86,1.2,1.59,1.06c0.86-0.36,1.79-0.81,2.35-1.25
	c0.4-0.18,0.57-0.64,0.4-1.04c-0.18-0.4-0.64-0.57-1.04-0.4c-0.53,0.03-1.37,0.06-2.23,0.04c-0.31,0.06-0.59,0.1-0.87,0.13
	c-0.18,0.05-0.34,0.08-0.49,0.12c-0.15,0.04-0.26,0.08-0.36,0.11c-0.05,0.05-0.07,0.09-0.1,0.14c-0.03,0.04-0.03,0.08-0.04,0.12
	c0.01-0.05,0.1-0.07,0.17-0.1c-0.57-0.22-1.22,0.06-1.44,0.63C20.51,108.28,20.8,108.93,21.37,109.15z"/>
<path class="st7" d="M26.51,101.88c0.06,0.08,0.26,0.39,0.33,0.65c-0.1-0.57-0.65-0.95-1.22-0.85c-0.57,0.1-0.95,0.65-0.85,1.22
	c0.1,0.57,0.65,0.95,1.22,0.85c0.57-0.1,0.95-0.65,0.85-1.22c0,0.16-0.06,0.48-0.12,0.61c0.25-0.5,0.06-1.11-0.44-1.37
	c-0.5-0.25-1.11-0.06-1.37,0.44c-0.25,0.5-0.06,1.11,0.44,1.37c0.5,0.25,1.11,0.06,1.37-0.44c-0.08,0.1-0.22,0.25-0.28,0.29
	c0.43-0.33,0.51-0.95,0.18-1.38c-0.33-0.43-0.95-0.51-1.38-0.18c-0.43,0.33-0.51,0.95-0.18,1.38c0.33,0.43,0.95,0.51,1.38,0.18
	c-0.22,0.14-0.33,0.21-0.26,0.27c-0.08-0.04-0.17-0.07-0.15,0.07c-0.02-0.14-0.14,0.1-0.2,0.74c-0.05,0.51-0.07,1.05-0.1,1.63
	c-0.04,0.97-0.07,2.08-0.1,3.1c-0.03,0.66-0.07,1.29-0.09,1.85c0.01,0.43,0.06,0.85,0.11,1.18c0.05,0.22,0.12,0.45,0.18,0.63
	c0.21,0.83,1.05,1.34,1.88,1.13c0.83-0.21,1.34-1.05,1.13-1.88c-0.21-0.83-1.05-1.34-1.88-1.13c-0.83,0.21-1.34,1.05-1.13,1.88
	c0.05,0.18,0.1,0.37,0.15,0.52c0.26,0.82,1.14,1.26,1.96,1c0.82-0.26,1.26-1.14,1-1.96c-0.26-0.82-1.14-1.26-1.96-1
	c-0.82,0.26-1.26,1.14-1,1.96c0.02,0.07,0.04,0.15,0.06,0.22c0.28,0.81,1.18,1.24,1.99,0.96c0.81-0.28,1.24-1.18,0.96-1.99
	c-0.28-0.81-1.18-1.24-1.99-0.96c-0.81,0.28-1.24,1.18-0.96,1.99c0.36,0.23,0.67,0.3,0.94,0.38c0.08,0.43,0.49,0.71,0.92,0.63
	c0.43-0.08,0.71-0.49,0.63-0.92c0.19-0.38,0.31-0.77,0.47-1.12c-0.02-0.05-0.04-0.09-0.06-0.14c-0.03-0.11-0.06-0.19-0.09-0.31
	c-0.01-0.12-0.02-0.22-0.02-0.37c-0.03-0.23-0.05-0.44-0.05-0.75c-0.04-0.49-0.06-1.1-0.09-1.78c-0.03-1.02-0.07-2.13-0.1-3.08
	c-0.03-0.63-0.08-1.15-0.1-1.56c-0.03-0.51-0.01-1.28-0.38-2.02c-0.36-0.51-1.08-0.99-1.69-1.08c-0.33,0.02-0.8,0.13-1.15,0.38
	c-0.09,0.06-0.25,0.23-0.34,0.36c-0.07,0.15-0.14,0.49-0.13,0.67c0.07,0.31,0.32,0.67,0.45,0.8c0.5,0.35,1.2,0.23,1.55-0.27
	C27.13,102.93,27.01,102.23,26.51,101.88z"/>
<path class="st8" d="M21.65,76.92c-0.12-0.01-0.25-0.01-0.34,0c-0.61,0.03-1.09,0.55-1.06,1.17c0.03,0.61,0.55,1.09,1.17,1.06
	c0.61-0.03,1.09-0.55,1.06-1.17c-0.03-0.61-0.55-1.09-1.17-1.06c-0.08-0.04-0.24-0.07-0.37-0.08c-0.67,0.18-1.06,0.88-0.87,1.54
	c0.18,0.67,0.88,1.06,1.54,0.87c0.67-0.18,1.06-0.88,0.87-1.54c-0.18-0.67-0.88-1.06-1.54-0.87c-0.08,0-0.28,0.06-0.42,0.12
	c-0.61,0.4-0.77,1.23-0.37,1.83c0.4,0.61,1.23,0.77,1.83,0.37c0.61-0.4,0.77-1.23,0.37-1.83c-0.4-0.61-1.23-0.77-1.83-0.37
	c-0.17,0.1-0.53,0.56-0.65,0.93c-0.02,0.4,0.18,0.99,0.3,1.17c0.11,0.14,0.29,0.31,0.36,0.38c0.11,0.11,0.28,0.22,0.36,0.29
	c0.1,0.04,0.26,0.09,0.37,0.12c0.32,0.06,0.78,0.09,1.17,0.08c0.83-0.08,1.56-0.37,2.02-0.47c0.19-0.04,0.35-0.07,0.53-0.1
	c0.09-0.01,0.16-0.02,0.25-0.02c0.23-0.21,0.41-0.4,0.62-0.57c0.15-0.01,0.23-0.01,0.34,0c0.11-0.01,0.13-0.02,0.19-0.02
	c0.71,0.2,1.44-0.22,1.64-0.93c0.2-0.71-0.22-1.44-0.93-1.64c-0.71-0.2-1.44,0.22-1.64,0.93c-0.2,0.71,0.22,1.44,0.93,1.64
	c0.03,0,0-0.01,0.01-0.01c0.67,0.29,1.45-0.03,1.74-0.7c0.29-0.67-0.03-1.45-0.7-1.74c-0.67-0.29-1.45,0.03-1.74,0.7
	c-0.29,0.67,0.03,1.45,0.7,1.74c0.02-0.02-0.02-0.06-0.02-0.09c0.58,0.38,1.36,0.21,1.74-0.37c0.38-0.58,0.21-1.36-0.37-1.74
	c-0.58-0.38-1.36-0.21-1.74,0.37c-0.38,0.58-0.21,1.36,0.37,1.74c0.08-0.14,0.08-0.37,0.19-0.48c0.2,0.38,0.68,0.53,1.06,0.32
	c0.38-0.2,0.53-0.68,0.32-1.06c0.02-0.27-0.11-0.63-0.2-0.89c-0.09-0.08-0.22-0.18-0.31-0.24c-0.1-0.04-0.24-0.09-0.34-0.13
	c-0.19-0.07-0.45-0.13-0.66-0.16c-0.2-0.02-0.46-0.02-0.68-0.02c-0.34-0.15-0.76-0.28-1.14-0.38c-0.12,0.03-0.26,0.06-0.38,0.09
	c-0.24,0.06-0.52,0.14-0.77,0.21c-0.69,0.22-1.16,0.46-1.34,0.46c-0.23,0.05-0.32,0.07-0.37,0.08c-0.02,0.01,0.03,0.04,0.05,0.06
	c0.02,0.05,0.14,0.15,0.22,0.24c0.05,0.06,0.22,0.21,0.32,0.34c0.11,0.18,0.31,0.76,0.3,1.16c-0.12,0.36-0.48,0.81-0.64,0.91
	c-0.13,0.05-0.32,0.1-0.38,0.1c-0.08-0.03-0.18-0.06-0.18-0.11c0.01,0,0.02,0,0.09,0c0.61,0.04,1.14-0.43,1.18-1.04
	C22.74,77.48,22.27,76.95,21.65,76.92"/>
<path class="st8" d="M22.71,79.4c-0.03,0-0.08,0.04-0.13,0.08c0.27-0.5,0.08-1.12-0.42-1.39c-0.5-0.27-1.12-0.08-1.39,0.42
	c-0.27,0.5-0.08,1.12,0.42,1.39c0.5,0.27,1.12,0.08,1.39-0.42c-0.04,0.03-0.13,0.14-0.22,0.22c0.39-0.38,0.41-1,0.03-1.39
	c-0.38-0.39-1-0.41-1.39-0.03c-0.39,0.38-0.41,1-0.03,1.39c0.38,0.39,1,0.41,1.39,0.03c-0.09,0.07-0.29,0.18-0.43,0.22
	c0.51-0.14,0.82-0.67,0.68-1.18c-0.14-0.51-0.67-0.82-1.18-0.68c-0.51,0.14-0.82,0.67-0.68,1.18c0.14,0.51,0.67,0.82,1.18,0.68
	c-0.25,0.03-0.64-0.06-0.8-0.16c-0.33-0.4-0.42-0.68-0.43-0.73c-0.01-0.03-0.02-0.07-0.04-0.07c-0.03,0-0.05,0.01-0.08,0.04
	c-0.06,0.07-0.13,0.18-0.21,0.32c-0.11,0.31-0.22,0.68-0.34,1.05c-0.08,0.3-0.14,0.58-0.23,0.9c-0.22,1-0.68,2.46-0.91,3.74
	c-0.09,0.62-0.11,1.2-0.12,1.61c-0.01,0.22-0.06,0.61,0,1.07c0.14,0.65,0.7,1.5,1.27,1.89c0.84,0.36,1.62,0.34,1.98,0.34
	c0.31,0,0.8,0.05,1.46,0.05c0.27,0,0.57,0,0.86-0.01c0.29-0.01,0.6-0.02,0.91-0.04c0.3-0.02,0.62-0.05,0.93-0.08
	c0.31-0.03,0.62-0.07,0.92-0.11c0.3-0.03,0.6-0.06,0.88-0.09c0.28-0.03,0.55-0.05,0.8-0.07c0.37-0.08,0.68-0.15,0.93-0.2
	c0.08,0,0.15-0.01,0.22-0.01c0.06,0,0.1,0,0.14,0c0.07-0.16-0.01-0.33-0.08-0.5c0.69,0.21,1.42-0.19,1.63-0.88
	c0.21-0.69-0.19-1.42-0.88-1.63c-0.69-0.21-1.42,0.19-1.63,0.88c-0.21,0.69,0.19,1.42,0.88,1.63c-0.05-0.1-0.29-0.33-0.41-0.56
	c0.37,0.47,1.04,0.55,1.51,0.18c0.47-0.37,0.55-1.04,0.18-1.51c-0.37-0.47-1.04-0.55-1.51-0.18c-0.47,0.37-0.55,1.04-0.18,1.51
	c-0.07-0.29-0.03-0.84,0.1-0.98c-0.2,0.41-0.03,0.91,0.38,1.12c0.41,0.2,0.91,0.03,1.12-0.38c0.2-0.41,0.03-0.91-0.38-1.12
	c-0.41-0.2-0.91-0.03-1.12,0.38c0.16-0.17,0.2-0.19,0-0.07c-0.39,0.19-0.55,0.66-0.36,1.05c0.19,0.39,0.66,0.55,1.05,0.36
	c0.29-0.12,0.59-0.32,0.81-0.61c0.15-0.18,0.18-0.77,0.09-1.08c-0.14-0.25-0.42-0.51-0.53-0.63c-0.2-0.21-0.48-0.4-0.67-0.56
	c-0.09,0-0.21,0-0.31,0.01c-0.1,0.01-0.21,0.02-0.32,0.03c-0.32-0.01-0.7-0.01-1.1,0c-0.26,0.04-0.54,0.08-0.82,0.12
	c-0.28,0.04-0.58,0.09-0.87,0.13c-0.3,0.04-0.59,0.08-0.89,0.11c-0.3,0.04-0.59,0.08-0.87,0.12c-0.29,0.04-0.55,0.08-0.81,0.12
	c-0.26,0.03-0.49,0.06-0.71,0.08c-0.49,0.03-0.96,0.02-1.47,0.05c-0.5,0.03-0.52,0.11-0.22,0.17c0.02,0.08,0.21,0.38,0.23,0.4
	c-0.02,0.04,0-0.05,0-0.41c0.02-0.4,0.03-0.78,0.11-1.2c0.14-1.07,0.53-2.49,0.73-3.65c0.05-0.41,0.08-0.76,0.1-1.03
	c0.01-0.43,0-0.81-0.01-1.09c-0.03-0.16-0.05-0.31-0.09-0.43c-0.02-0.06-0.04-0.13-0.06-0.18c-0.01-0.03-0.02-0.09-0.03-0.14
	c-0.02-0.07-0.1-0.36-0.4-0.73c-0.2-0.13-0.58-0.21-0.76-0.2c-0.21,0.06-0.41,0.16-0.47,0.21c-0.13,0.11-0.22,0.22-0.25,0.25
	c-0.06,0.06-0.12,0.12-0.16,0.15c-0.21,0.58,0.09,1.22,0.67,1.43C21.87,80.28,22.5,79.98,22.71,79.4"/>
<path class="st8" d="M23.22,83.46c-0.04-0.27-0.09-0.35-0.09-0.33c0-0.59-0.48-1.08-1.07-1.08c-0.59,0-1.08,0.48-1.08,1.07
	c0,0.59,0.48,1.08,1.07,1.08c0.59,0,1.08-0.48,1.08-1.07c-0.02,0.26-0.23,0.67-0.26,0.75c0.53-0.38,0.66-1.11,0.28-1.64
	c-0.38-0.53-1.11-0.66-1.64-0.28s-0.66,1.11-0.28,1.64c0.38,0.53,1.11,0.66,1.64,0.28c-0.03,0.05-0.07,0.11,0.01,0.12
	c0.68-0.2,1.07-0.91,0.88-1.59c-0.2-0.68-0.91-1.07-1.59-0.88c-0.68,0.2-1.07,0.91-0.88,1.59c0.2,0.68,0.91,1.07,1.59,0.88
	c0.06,0.01,0.13,0.04,0.3,0.05c0.08-0.06,0.16-0.11,0.26-0.17c0.15,0,0.31,0.01,0.49,0.02c0.09,0,0.19,0,0.29,0.01
	c0.1,0,0.22,0,0.33,0c0.73-0.08,1.27-0.73,1.19-1.47c-0.08-0.73-0.73-1.27-1.47-1.19c-0.73,0.08-1.27,0.73-1.19,1.47
	c0.08,0.73,0.73,1.27,1.47,1.19c0.11,0,0.24-0.01,0.37-0.02c0.74-0.1,1.26-0.79,1.16-1.53c-0.1-0.74-0.79-1.26-1.53-1.16
	c-0.74,0.1-1.26,0.79-1.16,1.53s0.79,1.26,1.53,1.16c0.12-0.01,0.27-0.02,0.4-0.04c0.75-0.13,1.26-0.85,1.12-1.61
	c-0.13-0.75-0.85-1.26-1.61-1.12c-0.75,0.13-1.26,0.85-1.12,1.61c0.13,0.75,0.85,1.26,1.61,1.12c0.1-0.22,0.21-0.45,0.31-0.67
	c0.42-0.09,0.69-0.51,0.6-0.93c-0.09-0.42-0.51-0.69-0.93-0.6c-0.17-0.17-0.31-0.34-0.46-0.52c-0.11,0.03-0.2,0.05-0.29,0.07
	c-0.1,0.02-0.18,0.04-0.27,0.06c-0.09,0.02-0.17,0.04-0.26,0.05c-0.09,0.02-0.17,0.03-0.25,0.04c-0.17,0.03-0.34,0.05-0.52,0.08
	c-0.1-0.04-0.22-0.08-0.33-0.12c-0.22,0.05-0.51,0.13-0.76,0.23c-0.19,0.09-0.47,0.25-0.66,0.42c-0.2,0.2-0.51,0.74-0.53,1.17
	c0,0.32,0.05,0.55,0.02,0.44c0.03,0.61,0.55,1.09,1.16,1.06C22.77,84.59,23.25,84.07,23.22,83.46"/>
<path d="M166.93,134.55c-0.08,0.12-0.23,0.5-0.24,0.78c0.02,0.59,0.51,1.06,1.1,1.05c0.59-0.02,1.06-0.51,1.05-1.1
	c-0.02-0.59-0.51-1.06-1.1-1.05c-0.59,0.02-1.06,0.51-1.05,1.1c0.07,0.31,0.37,0.76,0.53,0.86c0.48,0.31,1.12,0.17,1.43-0.31
	c0.31-0.48,0.17-1.12-0.31-1.43c-0.48-0.31-1.12-0.17-1.43,0.31c-0.31,0.48-0.17,1.12,0.31,1.43c0.26,0.1,0.53,0.13,0.64,0.1
	c0.53,0.01,0.96-0.4,0.97-0.93c0.01-0.53-0.4-0.96-0.93-0.97c-0.53-0.01-0.96,0.41-0.97,0.93c-0.01,0.53,0.41,0.96,0.93,0.97
	c0.18-0.05,0.41-0.14,0.58-0.23c0.19,0,0.45-0.07,0.62-0.14c0.19-0.09,0.47-0.39,0.62-0.69c-0.19,0.44-0.61,0.78-0.71,0.84
	c-0.07,0.03-0.16,0.06-0.16,0.08c0.01,0.03,0.04,0.06,0.12,0.1c0.17,0.08,0.38,0.17,0.53,0.26c-0.17-0.04-0.13,0.04,0.25,0.2
	c1.49,0.46,3.43,0.3,4.93,0.42c1.06,0.01,2.15-0.02,3.12-0.04c0.37-0.01,0.78,0,1.16-0.02c0.41-0.01,0.81-0.05,1.05-0.09
	c0.1-0.02,0.23-0.04,0.31-0.06c0.09-0.03,0.23-0.07,0.33-0.11c0.06-0.14,0.27-0.39,0.43-0.68c0.53-0.59,0.48-1.5-0.11-2.03
	c-0.59-0.53-1.5-0.48-2.03,0.11c-0.53,0.59-0.48,1.5,0.11,2.03c0.59,0.53,1.5,0.48,2.03-0.11c-1.39-2.36-1.12-2.39-1.08-2.39
	c0.06,0,0.08,0.01,0.07,0.01c0.03,0.01,0.02,0.01,0.01,0.02c-0.77-0.06-1.45,0.51-1.51,1.28c-0.06,0.77,0.51,1.45,1.28,1.51
	c0.77,0.06,1.45-0.51,1.51-1.28c0.06-0.77-0.51-1.45-1.28-1.51c-0.03,0.01-0.1,0.02-0.16,0.03c-0.75-0.03-1.39,0.55-1.43,1.3
	c-0.03,0.75,0.55,1.39,1.3,1.43c0.75,0.03,1.39-0.55,1.43-1.3c0.03-0.75-0.55-1.39-1.3-1.43c-0.06,0.01-0.16,0.02-0.24,0.04
	c-0.73,0.01-1.32,0.62-1.3,1.35c0.01,0.73,0.62,1.32,1.35,1.3c0.73-0.01,1.32-0.62,1.3-1.35c-0.01-0.73-0.62-1.32-1.35-1.3
	c-0.08,0.12-0.19,0.23-0.27,0.36c-0.54,0.06-0.93,0.55-0.87,1.09c0.06,0.54,0.55,0.93,1.09,0.87c0.05,0.11,0.07,0.22,0.11,0.33
	c0.03,0.01,0.04,0.03,0.07,0.04c0.02,0.01,0.04,0.03,0.06,0.04c0,0.01,0.02,0.01,0.04,0.02c0.01,0,0.04,0.01,0.11,0.01
	c0.05,0,0.32-0.03,1.02-0.41c-1.95-2.25-1.78-2.47-1.77-2.59c0.03-0.01,0.1-0.03,0.1-0.03c-0.01,0.01,0.02,0,0,0.01
	c-0.11,0.03-0.24,0.05-0.49,0.06c-0.28,0-0.65-0.01-1.09-0.02c-0.98-0.01-2.04-0.01-3.04-0.04c-1.76,0.06-3.42,0.37-4.14,0.2
	c0.06,0.06-0.15-0.03-0.63-0.13c-0.22,0.03-0.54,0.05-0.8,0.09c-0.13,0.02-0.31,0.05-0.44,0.08c-0.07,0.02-0.22,0.06-0.34,0.1
	c-0.15,0.07-0.6,0.43-0.79,0.89c0.13-0.2,0.32-0.39,0.37-0.37c0.04,0.04,0.12,0.05,0.11,0.1c-0.1-0.03-0.14-0.08-0.15-0.14
	c0.02-0.02,0.21-0.01,0.43,0.06c0.15,0.1,0.44,0.53,0.5,0.82c-0.01,0.26-0.15,0.62-0.21,0.72c0.4-0.47,0.34-1.17-0.13-1.57
	C168.04,134.02,167.33,134.08,166.93,134.55z"/>
<path d="M178.35,130.11c-0.03,0.02-0.05,0.04-0.06,0.06c-0.57-0.1-1.11,0.29-1.21,0.86c-0.1,0.57,0.29,1.11,0.86,1.21
	c0.57,0.1,1.11-0.29,1.21-0.86c0.1-0.57-0.29-1.11-0.86-1.21c-0.01,0.01,0,0.02-0.02,0.03c-0.55-0.09-1.08,0.28-1.17,0.83
	c-0.09,0.55,0.28,1.08,0.83,1.17c0.55,0.09,1.08-0.28,1.17-0.83c0.09-0.55-0.28-1.08-0.83-1.17c0.03,0.01,0.02,0.02,0.01,0.02
	c-0.54-0.1-1.06,0.25-1.17,0.79c-0.1,0.54,0.25,1.06,0.79,1.17c0.54,0.1,1.06-0.25,1.17-0.79c0.1-0.54-0.25-1.06-0.79-1.17
	c0.13,0.04-0.19,1.96-0.44,1.93c0.52,0.14,1.06-0.17,1.2-0.69c0.14-0.52-0.17-1.06-0.69-1.2c-0.52-0.14-1.06,0.17-1.2,0.69
	c-0.14,0.52,0.17,1.06,0.69,1.2c0.11,0.05,0.11,0.08,0.15,0.11c0.07,0.09,0.14,0.17,0.21,0.26c0.08,0.01,0.14,0.01,0.2,0.02
	c0.19,0.07,0.43,0.22,0.79,0.51c0.42,0.22,0.78,0.46,1.12,0.82c0.36,0.39,0.51,0.76,0.57,1.28c0.04,0.23,0.02,0.33-0.08,0.58
	c-0.06,0.19-0.12,0.3-0.25,0.47c-0.15,0.25-0.28,0.4-0.49,0.57c-0.52,0.35-0.65,1.05-0.31,1.56c0.35,0.52,1.05,0.65,1.56,0.31
	c0.52-0.35,0.65-1.05,0.31-1.56c-0.35-0.52-1.05-0.65-1.56-0.31c-0.11,0.08-0.17,0.12-0.28,0.17c-0.56,0.25-0.82,0.9-0.58,1.47
	c0.25,0.56,0.9,0.82,1.47,0.58c0.56-0.25,0.82-0.9,0.58-1.47c-0.25-0.56-0.9-0.82-1.47-0.58c-0.05,0.02-0.08,0.03-0.12,0.05
	c-0.59,0.19-0.91,0.81-0.72,1.39c0.19,0.59,0.81,0.91,1.39,0.72c0.59-0.19,0.91-0.81,0.72-1.39c-0.19-0.59-0.81-0.91-1.39-0.72
	c-0.02,0.12-0.01,0.23-0.04,0.35c-0.43,0.08-0.7,0.49-0.62,0.92c0.08,0.43,0.49,0.7,0.92,0.62c0.12,0.09,0.28,0.16,0.42,0.23
	c0.11-0.03,0.24-0.08,0.35-0.13c0.21-0.09,0.45-0.22,0.65-0.34c0.39-0.24,0.83-0.61,1.15-0.98c0.22-0.29,0.46-0.69,0.6-1.05
	c0.18-0.48,0.29-1.16,0.24-1.72c-0.1-0.87-0.51-1.9-1.08-2.62c-0.44-0.58-1.03-1.14-1.55-1.53c-0.57-0.32-1.25-0.58-1.76-0.67
	c-0.12-0.03-0.25-0.06-0.34-0.08c-0.11,0.06-0.18,0.12-0.24,0.19c-0.06,0.02-0.11,0.03-0.2,0.05c-0.07-0.01-0.38,1.92-0.25,1.96
	c-0.01,0-0.02,0.01-0.02,0.01c0.03,0.02,0.04,0.03,0.05,0.04c0,0.02,0.03,0.05,0.06,0.08c0.61,0.1,1.18-0.32,1.27-0.93
	C179.37,130.78,178.96,130.21,178.35,130.11z"/>
<path d="M42.61,79c0,0.02,0.06,0.04,0.11,0.06c-0.58,0.01-1.04,0.48-1.03,1.05c0.01,0.58,0.48,1.04,1.05,1.03
	c0.58-0.01,1.04-0.48,1.03-1.05c-0.01-0.58-0.48-1.04-1.05-1.03c0.04,0.01,0.17,0.04,0.31,0.08c-0.53-0.17-1.1,0.13-1.26,0.66
	c-0.17,0.53,0.13,1.1,0.66,1.26c0.53,0.17,1.1-0.13,1.26-0.66c0.17-0.53-0.13-1.1-0.66-1.26c0.05,0.02,0.27,0.15,0.41,0.28
	c-0.37-0.4-1-0.41-1.4-0.04c-0.4,0.37-0.41,1-0.04,1.4c0.37,0.4,1,0.41,1.4,0.04c0.4-0.37,0.41-1,0.04-1.4
	c0.15,0.22,0.26,0.72,0.21,0.95c-0.18,0.37-0.39,0.57-0.43,0.61c-0.03,0.03-0.06,0.06-0.06,0.08c0.01,0.03,0.01,0.06,0.05,0.08
	c0.07,0.04,0.17,0.07,0.29,0.09c0.23-0.05,0.47-0.12,0.67-0.16c0.16-0.05,0.24-0.06,0.41-0.09c0.24-0.05,0.56-0.09,0.96-0.15
	c0.35-0.06,0.68-0.13,0.94-0.17c0.07-0.01,0.2,0,0.46-0.02c0.51-0.04,1.06-0.15,1.48-0.24c0.46-0.09,0.8-0.2,1.08-0.26
	c0.69-0.19,1.71-0.16,2.73-0.13c0.82,0.05,1.61,0.06,2.27,0.16c0.2,0.02,0.46,0.11,0.89,0.17c0.33,0.04,0.67,0.03,0.92,0.04
	c0.22,0,0.44,0,0.68,0c0.3,0,0.62,0,0.92,0c0.8-0.01,1.35-0.02,2.01-0.02c2.19,0.01,4.54,0,6.74-0.06c1.13-0.02,2.21,0.01,3.37,0.07
	c0.63,0.04,1.27,0.07,1.77,0.14c0.34,0.04,0.44,0.03,0.46,0.06c0.16,0.06,0.04-0.05-0.06-0.12c-0.06-0.36-0.15-0.23-0.18,0.27
	c-0.03,1.6,0.52,3,0.7,3.99c0.09,0.42,0.04,0.97,0.02,1.69c0,0.37,0.02,0.72,0.02,1.03c0,0.17,0,0.33,0,0.45
	c0,0.12,0.01,0.15,0.01,0.14c0-0.03,0.06-0.21,0.13-0.37c-0.37,0.62-0.17,1.42,0.44,1.79c0.62,0.37,1.42,0.17,1.79-0.44
	c0.37-0.62,0.17-1.42-0.44-1.79c-0.62-0.37-1.42-0.17-1.79,0.44c0.07-0.1,0.3-0.34,0.48-0.46c-0.64,0.34-0.88,1.13-0.54,1.77
	c0.34,0.64,1.13,0.88,1.77,0.54c0.64-0.34,0.88-1.13,0.54-1.77c-0.34-0.64-1.13-0.88-1.77-0.54c0.2-0.09,0.68-0.15,0.9-0.12
	c-0.7-0.17-1.41,0.26-1.58,0.96c-0.17,0.7,0.26,1.41,0.96,1.58c0.7,0.17,1.41-0.26,1.58-0.96c0.17-0.7-0.26-1.41-0.96-1.58
	c0.21,0.27,0.33,0.58,0.23,0.72c-0.28-0.33-0.77-0.38-1.1-0.11c-0.33,0.28-0.38,0.77-0.11,1.1c-0.05,0.21,0.12,0.55,0.37,0.83
	c0.23,0.03,0.73-0.03,0.95-0.13c0.19-0.12,0.43-0.38,0.51-0.49c0.1-0.2,0.17-0.45,0.19-0.55c0.03-0.18,0.05-0.39,0.05-0.54
	c0-0.15,0-0.31,0-0.46c0.01-0.35,0.01-0.68,0.02-1c0.01-0.65,0.06-1.44-0.08-2.22c-0.24-1.27-0.71-2.36-0.63-3.39
	c0-0.27,0.09-1-0.29-1.83c-0.35-0.45-0.9-0.78-1.17-0.89c-0.45-0.15-0.87-0.19-1.13-0.22c-0.62-0.06-1.34-0.07-1.96-0.08
	c-1.19-0.03-2.36-0.04-3.55,0.01c-2.17,0.07-4.49,0.1-6.67,0.1c-0.65-0.01-1.21-0.02-2.01-0.02c-0.29,0-0.62,0-0.94,0
	c-0.22,0-0.42,0-0.63,0c-0.29,0-0.49,0.01-0.62-0.02c-0.22-0.02-0.46-0.1-0.88-0.16c-0.81-0.11-1.69-0.12-2.46-0.17
	c-1.05-0.08-2.36-0.15-3.43,0.04c-0.39,0.08-0.68,0.17-1.02,0.23c-0.43,0.07-0.82,0.14-1.15,0.15c-0.11,0.01-0.34,0-0.65,0.04
	c-0.33,0.03-0.66,0.08-0.93,0.1c-0.36,0.04-0.76,0.07-1.12,0.13c-0.24,0.05-0.51,0.12-0.75,0.2c-0.25,0.1-0.49,0.21-0.64,0.28
	c-0.09,0.09-0.18,0.18-0.25,0.27c-0.03,0.04-0.08,0.09-0.11,0.14c-0.02,0.02-0.07,0.06-0.11,0.1c-0.05,0.05-0.26,0.25-0.44,0.62
	c-0.05,0.23,0.06,0.73,0.19,0.94c0.16,0.15,0.39,0.28,0.46,0.31c0.12,0.04,0.26,0.06,0.29,0.08c0.08,0.02,0.16,0.04,0.2,0.06
	c0.61-0.09,1.03-0.65,0.94-1.26C43.78,79.34,43.21,78.92,42.61,79"/>
<path d="M42.68,90.24c0.42-0.1,1.02,0.06,1.85,0.16c0.76,0.02,1.39-0.58,1.41-1.33c0.02-0.76-0.58-1.39-1.33-1.41
	c-0.76-0.02-1.39,0.58-1.41,1.33c-0.02,0.76,0.58,1.39,1.33,1.41c0.99,0.04,2.17-0.09,3.47-0.27c0.78-0.12,1.31-0.84,1.19-1.62
	c-0.12-0.78-0.84-1.31-1.62-1.19c-0.78,0.12-1.31,0.84-1.19,1.62c0.12,0.78,0.84,1.31,1.62,1.19c1.63-0.24,2.98-0.34,4.31-0.45
	c0.8-0.07,1.38-0.78,1.31-1.58c-0.07-0.8-0.78-1.38-1.58-1.31c-0.8,0.07-1.38,0.78-1.31,1.58c0.07,0.8,0.78,1.38,1.58,1.31
	c1.16-0.11,2.37-0.4,3.59-0.59c1.13-0.18,2.09-0.12,3.26-0.1c1.45,0.05,3.2-0.1,4.45-0.18c0.92-0.11,1.46,0.04,2.42,0.15
	c1.03,0.13,2.08,0.1,3.02,0.11c0.62,0.01,1.2-0.01,1.69,0.02c0.25-0.01,0.42-0.02,0.6-0.01c0.11,0,0.34,0.08,0.78,0.14
	c0.24,0.03,0.5,0.03,0.67,0.03c0.17,0,0.29-0.01,0.36-0.01c0.85,0.02,1.56-0.66,1.57-1.51c0.02-0.85-0.66-1.56-1.51-1.57
	c-0.85-0.02-1.56,0.66-1.57,1.51c-0.02,0.85,0.66,1.56,1.51,1.57c0.07-0.02-0.06-0.07-0.17-0.12c0.76,0.29,1.61-0.09,1.9-0.85
	c0.29-0.76-0.09-1.61-0.85-1.9c-0.76-0.29-1.61,0.09-1.9,0.85c-0.29,0.76,0.09,1.61,0.85,1.9c-0.12-0.2-0.49-0.87-0.43-1.11
	c0.01,0.62,0.52,1.12,1.15,1.11c0.62-0.01,1.12-0.52,1.11-1.15c-0.01-0.62-0.52-1.12-1.15-1.11c-0.62,0.01-1.12,0.52-1.11,1.15
	c0.13-0.07,0.25-0.06,0.23,0.21c-0.2,0.38-0.06,0.86,0.32,1.06c0.38,0.2,0.86,0.06,1.06-0.32c0.28-0.28,0.52-0.66,0.64-0.99
	c0.05-0.5-0.44-1.32-0.78-1.6c-0.29-0.12-0.63-0.19-0.82-0.21c-0.18,0-0.34,0-0.46,0c-0.12,0-0.15,0-0.18-0.01
	c-0.12-0.02-0.36-0.12-0.81-0.19c-0.29-0.05-0.64-0.09-0.94-0.11c-0.62,0-1.24,0.05-1.77,0.07c-1.01,0.02-1.87,0.08-2.63,0
	c-0.79-0.11-1.74-0.33-3.08-0.23c-1.27,0.15-2.87,0.35-4.13,0.37c-1.12-0.01-2.36-0.05-3.76,0.17c-1.33,0.22-2.46,0.49-3.4,0.57
	c-1.32,0.13-2.76,0.26-4.48,0.53c-1.26,0.21-2.21,0.35-2.97,0.34c-0.78,0.07-1.8,0.1-2.7,0.49c-0.58,0.21-0.87,0.85-0.66,1.43
	C41.46,90.16,42.1,90.45,42.68,90.24"/>
<path d="M75.34,84.29c-0.03,0.01-0.25,0.29-0.24,0.32c0.57-0.26,0.82-0.94,0.56-1.5c-0.26-0.57-0.94-0.82-1.5-0.56
	c-0.57,0.26-0.82,0.94-0.56,1.5c0.26,0.57,0.94,0.82,1.5,0.56c0-0.01,0.02,0,0.23,0c0.64-0.03,1.13-0.56,1.11-1.2
	c-0.03-0.64-0.56-1.13-1.2-1.11c-0.64,0.03-1.13,0.56-1.11,1.2c0.03,0.64,0.56,1.13,1.2,1.11c0.26-0.01,0.56-0.01,0.87-0.02
	c0.64-0.02,1.14-0.56,1.12-1.2c-0.02-0.64-0.56-1.14-1.2-1.12c-0.64,0.02-1.14,0.56-1.12,1.2c0.02,0.64,0.56,1.14,1.2,1.12
	c0.47-0.04,0.77-0.16,0.89-0.16c0.31-0.14,0.88,0.22,2.18,0.66c1.41,0.54,3.57,1.1,6.11,1.4c7.18,0.8,15.3,0.61,21.66,0.72
	c3.27,0.04,6.27,0.02,8.56,0.03c1.07,0,2.02,0.02,2.78,0.01c0.3-0.01,0.58-0.03,0.81-0.04c0.15-0.01,0.28-0.02,0.39-0.02
	c0.11-0.01,0.17-0.01,0.22-0.01c0.02,0,0.01,0.01,0.01,0.01c0.75,0.09,1.43-0.44,1.52-1.19c0.09-0.75-0.44-1.43-1.19-1.52
	c-0.75-0.09-1.43,0.44-1.52,1.19c-0.09,0.75,0.44,1.43,1.19,1.52c0,0.01-0.06,0.01-0.09,0.01c0.74,0.2,1.51-0.23,1.71-0.98
	c0.2-0.74-0.23-1.51-0.98-1.71c-0.74-0.2-1.51,0.23-1.71,0.98c-0.2,0.74,0.23,1.51,0.98,1.71c-0.03-0.02-0.15-0.08-0.2-0.12
	c0.66,0.36,1.48,0.13,1.85-0.53c0.36-0.66,0.13-1.48-0.53-1.85c-0.66-0.36-1.48-0.13-1.85,0.53c-0.36,0.66-0.13,1.48,0.53,1.85
	c0.04-0.2,0.03-0.46,0.12-0.63c0.28,0.33,0.78,0.37,1.11,0.09c0.33-0.28,0.37-0.78,0.09-1.11c0.06-0.21,0.01-0.5,0-0.73
	c-0.11-0.07-0.28-0.15-0.38-0.19c-0.1-0.01-0.23-0.03-0.31-0.03c-0.08-0.01-0.18-0.01-0.25-0.01c-0.14,0-0.3,0-0.44,0
	c-0.14,0.01-0.29,0.02-0.44,0.02c-0.22,0.01-0.45,0.02-0.7,0.02c-0.71,0.02-1.63,0.01-2.72,0.01c-2.3,0.01-5.29,0.05-8.54,0.03
	c-6.42,0-14.42,0.3-21.44-0.38c-2.41-0.21-4.34-0.64-5.64-1.07c-1.12-0.43-2.04-0.98-3.16-0.95c-0.42,0.05-0.63,0.14-0.71,0.12
	c-0.28,0.01-0.58,0.02-0.88,0.03c-0.29,0.02-0.72,0.09-1.08,0.24c-0.36,0.19-0.84,0.75-0.98,1.24c-0.14,0.6,0.24,1.2,0.84,1.34
	C74.61,85.27,75.21,84.89,75.34,84.29"/>
<path d="M120.7,83.89c-0.05-0.17-0.1-0.35-0.15-0.49c-0.05-0.55-0.53-0.96-1.08-0.91c-0.55,0.05-0.96,0.53-0.91,1.08
	c0.05,0.55,0.53,0.96,1.08,0.91c0.55-0.05,0.96-0.53,0.91-1.08c0.04-0.15,0.08-0.3,0.12-0.41c-0.11-0.63-0.71-1.06-1.35-0.95
	c-0.63,0.11-1.06,0.71-0.95,1.35c0.11,0.63,0.71,1.06,1.35,0.95c0.63-0.11,1.06-0.71,0.95-1.35c0.01-0.04-0.01-0.19-0.07-0.39
	c-0.32-0.59-1.06-0.82-1.66-0.49c-0.59,0.32-0.82,1.06-0.49,1.66c0.32,0.59,1.06,0.82,1.66,0.49c0.59-0.32,0.82-1.06,0.49-1.66
	c-0.43-0.47-1.5-0.59-1.86-0.4c-0.37,0.45-0.45,0.67-0.47,0.72c-0.06,0.14-0.11,0.22-0.15,0.25c-0.05,0.07-0.1,0.18-0.15,0.3
	c-0.02,0.16-0.04,0.44-0.06,0.75c-0.01,0.24-0.02,0.49-0.03,0.75c-0.01,0.17-0.02,0.35-0.04,0.53c-0.01,0.18-0.02,0.36-0.03,0.53
	c0,0.18,0,0.36,0,0.53c-0.01,0.17-0.01,0.35-0.02,0.51c0.01,0.16,0.02,0.34,0.03,0.49c0,0.08,0.01,0.16,0.01,0.24
	c0,0.07,0.01,0.17,0.02,0.24c0.01,0.07,0.02,0.17,0.03,0.25c0.01,0.08,0.04,0.19,0.06,0.27c0.29,0.96,1.31,1.49,2.26,1.2
	c0.96-0.29,1.49-1.31,1.2-2.26c-0.29-0.96-1.31-1.49-2.26-1.2c-0.96,0.29-1.49,1.31-1.2,2.26c0.04,0.08,0.1,0.22,0.16,0.3
	c0.41,0.89,1.46,1.28,2.35,0.87c0.89-0.41,1.28-1.46,0.87-2.35c-0.41-0.89-1.46-1.28-2.35-0.87c-0.89,0.41-1.28,1.46-0.87,2.35
	c0.08,0.08,0.22,0.25,0.33,0.34c0.56,0.73,1.6,0.87,2.33,0.31c0.73-0.56,0.87-1.6,0.31-2.33c-0.56-0.73-1.6-0.87-2.33-0.31
	c-0.73,0.56-0.87,1.6-0.31,2.33c0.38,0.06,1.06,0.16,1.42-0.04c0.5,0,0.91-0.4,0.92-0.9c0-0.5-0.4-0.91-0.9-0.92
	c0.28-0.2,0.89-0.14,1.21-0.16c0.08,0.05,0.19,0.17,0.24,0.2c0.03,0.03,0.07,0.1,0.08,0.11c0,0.01,0,0.04,0,0.03
	c-0.01-0.02-0.01-0.01-0.02-0.04c-0.01-0.03-0.02-0.05-0.02-0.09c-0.01-0.04-0.02-0.08-0.03-0.13c-0.01-0.11-0.02-0.21-0.02-0.34
	c-0.02-0.13-0.03-0.27-0.05-0.42c-0.01-0.15-0.01-0.31-0.01-0.48c-0.01-0.17-0.02-0.33-0.03-0.51c-0.01-0.17-0.02-0.35-0.03-0.52
	c-0.01-0.26-0.02-0.53-0.03-0.78c-0.02-0.27-0.04-0.56-0.06-0.79c-0.05-0.12-0.11-0.18-0.16-0.18c-0.04,0.01-0.09,0.08-0.14,0.2
	c-0.02,0.06-0.11,0.27-0.26,0.5c-0.58,0.42-1.65,0.3-1.92,0.05c-0.22-0.42-0.24-0.57-0.22-0.6c0.06,0,0.12,0.06,0.18,0.17
	c-0.03,0.13-0.06,0.27-0.09,0.42c0.03,0.61,0.55,1.09,1.16,1.06C120.25,85.02,120.73,84.5,120.7,83.89z"/>
<path d="M42.66,103.75c0.07-0.01,0.17-0.01,0.23-0.03c0.5,0.21,1.08-0.04,1.28-0.54c0.21-0.5-0.04-1.08-0.54-1.28
	c-0.5-0.21-1.08,0.04-1.28,0.54c-0.21,0.5,0.04,1.08,0.54,1.28c0.06-0.02,0.14-0.04,0.21-0.07c0.45,0.14,0.93-0.11,1.07-0.56
	c0.14-0.45-0.11-0.93-0.56-1.07c-0.45-0.14-0.93,0.11-1.07,0.56c-0.14,0.45,0.11,0.93,0.56,1.07c0.17,0.1,0.45,0.2,0.73,0.28
	c0.55,0.05,1.03-0.36,1.08-0.91c0.05-0.55-0.36-1.03-0.91-1.08c-0.55-0.05-1.03,0.36-1.08,0.91c-0.05,0.55,0.36,1.03,0.91,1.08
	c0.28,0.03,0.57,0.03,0.79,0.03c1.53-0.01,3.01-0.04,4.41,0.09c1.01,0.06,2.63,0.47,4.7,0.57c2.72,0.14,5.15,0.39,7.71,0.61
	c3.03,0.27,6.86,0.48,11.22,0.81c4.34,0.33,8.56,0.08,12.63,0.44c4.46,0.37,9.5,0.14,14.47,0.06c4.76-0.09,9.05,0,12.69-0.42
	c2.55-0.3,4.86-0.47,7.18-0.67c3.69-0.3,7.68-1.19,11.14-1.53c3.93-0.39,6.66-0.69,9.34-0.57c3.47,0.1,7.85-0.09,11.79-0.02
	c2.12,0.04,4.28,0.02,6.02,0.01c0.85-0.01,1.67-0.03,2.38-0.04c1.09-0.02,1.99-0.01,2.93,0.04c0.23,0.01,0.45,0.02,0.67,0.03
	c0.22,0.01,0.42,0.02,0.62,0.03c0.13,0.01,0.24,0.01,0.35,0.02c0.11,0,0.19,0.01,0.28,0.01c0.08,0.01,0.11,0.02,0.16,0.03
	c0.75,0.18,1.51-0.28,1.69-1.03c0.18-0.75-0.28-1.51-1.03-1.69c-0.75-0.18-1.51,0.28-1.69,1.03c-0.18,0.75,0.28,1.51,1.03,1.69
	c0.02,0,0,0,0.01,0.01c0.74,0.24,1.53-0.16,1.77-0.89c0.24-0.74-0.16-1.53-0.89-1.77c-0.74-0.24-1.53,0.16-1.77,0.89
	c-0.24,0.74,0.16,1.53,0.89,1.77c0-0.01-0.04-0.04-0.05-0.06c0.68,0.32,1.49,0.03,1.82-0.65c0.32-0.68,0.03-1.49-0.65-1.82
	c-0.68-0.32-1.49-0.03-1.82,0.65c-0.32,0.68-0.03,1.49,0.65,1.82c0.05-0.19,0.01-0.47,0.08-0.68c0.26,0.35,0.75,0.43,1.1,0.17
	c0.35-0.26,0.43-0.75,0.17-1.1c0.02-0.28-0.11-0.62-0.17-0.86c-0.07-0.05-0.17-0.1-0.24-0.14c-0.07-0.02-0.16-0.05-0.23-0.06
	c-0.13-0.03-0.29-0.06-0.42-0.08c-0.13-0.02-0.28-0.05-0.42-0.07c-0.14-0.01-0.29-0.03-0.43-0.04c-0.21-0.02-0.44-0.03-0.66-0.04
	c-0.22-0.01-0.44-0.02-0.65-0.03c-1.01-0.06-2.01-0.07-3.13-0.06c-0.73,0-1.53,0.02-2.35,0.01c-1.75,0-3.88,0.01-5.96-0.04
	c-4.03-0.08-8.4,0.1-11.75-0.02c-2.9-0.06-5.82,0.31-9.73,0.74c-3.63,0.4-7.59,1.31-11.08,1.62c-2.31,0.2-4.67,0.39-7.27,0.71
	c-3.44,0.42-7.62,0.35-12.43,0.46c-5.01,0.12-9.93,0.39-14.22,0.06c-4.26-0.31-8.48-0.01-12.67-0.29
	c-4.39-0.29-8.21-0.45-11.21-0.67c-2.55-0.2-5.02-0.43-7.79-0.55c-1.87-0.09-3.4-0.5-4.65-0.6c-1.52-0.09-3.09-0.02-4.61,0.03
	c-0.25,0.02-0.44,0.04-0.58,0.03c-0.2,0.03-0.3,0.06-0.39,0.08c0-0.05,0.02-0.09,0.03-0.13c0.02-0.04,0.07-0.07,0.1-0.1
	c-0.54-0.3-1.22-0.1-1.51,0.44C41.92,102.78,42.12,103.46,42.66,103.75z"/>
<path d="M43.89,113.8c-0.02,0.06,0.04,0.43-0.02,0.68c0.13-0.53-0.19-1.06-0.72-1.19c-0.53-0.13-1.06,0.19-1.19,0.72
	c-0.13,0.53,0.19,1.06,0.72,1.19c0.53,0.13,1.06-0.19,1.19-0.72c-0.04,0.18-0.23,0.47-0.3,0.56c0.48-0.33,0.61-0.99,0.28-1.47
	c-0.33-0.48-0.99-0.61-1.47-0.28c-0.48,0.33-0.61,0.99-0.28,1.47c0.33,0.48,0.99,0.61,1.47,0.28c-0.07,0.06-0.18,0.14-0.18,0.17
	c0.6-0.16,0.96-0.78,0.8-1.38c-0.16-0.6-0.78-0.96-1.38-0.8c-0.6,0.16-0.96,0.78-0.8,1.38c0.16,0.6,0.78,0.96,1.38,0.8
	c0.01,0.04,0.05,0.09,0.19,0.13c0.3,0.01,0.61,0,0.88,0.02c1.11-0.04,2.27,0.01,3.92,0c1.27,0,2.9,0.1,4.84-0.03
	c3.46-0.23,6-0.84,8.46-0.92c2.26-0.09,4.92,0.31,8.68,0.58c2.56,0.19,5.61,0.36,9.01,0.34c9.02-0.06,17.15-0.29,24.42,0.53
	c6.53,0.71,12.5,0.66,17.38,0.71c3.46,0.03,6.33,0.08,8.8,0.19c2.66,0.1,5.94,0.3,9.03,0.05c2.16-0.18,4.1-0.53,5.47-0.62
	c0.86-0.07,1.75-0.03,2.68-0.04c0.53,0,1.04-0.04,1.54-0.08c0.23-0.02,0.47-0.03,0.7-0.05c0.22-0.02,0.45-0.03,0.74-0.06
	c0.33-0.03,0.7-0.06,1-0.1c0.83-0.1,1.43-0.2,2.05-0.3c2.11-0.36,4.17-0.91,6.05-0.97c1.08-0.05,2.18-0.05,3.3-0.05
	c0.56-0.01,1.1-0.01,1.62-0.02c0.17,0,0.34,0,0.48,0c0.14,0,0.24-0.01,0.33,0c0.04,0,0.06,0.01,0.09,0.01
	c0.03,0,0.01-0.01,0.01-0.01c0.01-0.01-0.06-0.04-0.07-0.06c0.71,0.25,1.49-0.13,1.74-0.85c0.25-0.71-0.13-1.49-0.85-1.74
	c-0.71-0.25-1.49,0.13-1.74,0.85c-0.25,0.71,0.13,1.49,0.85,1.74c-0.03-0.01-0.14-0.07-0.19-0.1c0.63,0.42,1.48,0.24,1.89-0.39
	c0.42-0.63,0.24-1.48-0.39-1.89c-0.63-0.42-1.48-0.24-1.89,0.39c-0.42,0.63-0.24,1.48,0.39,1.89c0.04-0.15,0.02-0.36,0.1-0.49
	c0.31,0.41,0.9,0.49,1.31,0.18c0.41-0.31,0.49-0.9,0.18-1.31c-0.31-0.41-0.9-0.49-1.31-0.18c-0.41,0.31-0.49,0.9-0.18,1.31
	c0.02-0.06,0.01-0.19,0.05-0.23c0.13,0.41,0.57,0.64,0.98,0.52c0.41-0.13,0.64-0.57,0.52-0.98c0.01-0.12-0.03-0.32-0.06-0.44
	c0.03-0.19-0.05-0.46-0.08-0.65c-0.12-0.08-0.31-0.17-0.42-0.21c-0.11-0.05-0.26-0.1-0.35-0.13c-0.09-0.02-0.22-0.04-0.3-0.05
	c-0.09,0-0.19,0-0.26,0c-0.15,0-0.31,0.01-0.45,0.02c-0.14,0.01-0.25,0.02-0.36,0.02c-0.53-0.01-1.06-0.01-1.62-0.02
	c-1.11-0.01-2.26-0.02-3.41,0.01c-2.2,0.09-4.43,0.66-6.42,1c-0.63,0.11-1.15,0.21-1.92,0.31c-0.3,0.04-0.63,0.09-0.92,0.13
	c-0.26,0.03-0.45,0.04-0.68,0.06c-0.22,0.02-0.46,0.04-0.69,0.05c-0.47,0.03-0.88,0.05-1.32,0.04c-0.86-0.02-1.84-0.09-2.87-0.04
	c-1.56,0.09-3.49,0.43-5.52,0.59c-2.87,0.22-5.97,0.01-8.67-0.12c-2.52-0.11-5.43-0.16-8.9-0.19c-4.91-0.05-10.72,0.01-17.09-0.67
	c-7.49-0.77-15.79-0.46-24.77-0.34c-3.32,0.04-6.26-0.1-8.79-0.27c-3.67-0.26-6.44-0.66-8.97-0.58c-2.73,0.11-5.28,0.73-8.54,0.94
	c-1.77,0.12-3.3,0.02-4.66,0.02c-1.6,0-2.8-0.04-4,0c-0.35,0.04-0.7,0.1-0.94,0.14c-0.18,0.06-0.42,0.13-0.62,0.23
	c-0.11,0.05-0.3,0.16-0.43,0.27c-0.13,0.13-0.36,0.47-0.42,0.71c-0.08,0.35,0.02,0.86,0.12,1.08c0.36,0.5,1.05,0.62,1.55,0.26
	C44.13,115,44.24,114.31,43.89,113.8"/>
<path d="M164.84,105.65c-0.3-0.27-0.47-0.54-0.53-0.6c0.14,0.69,0.81,1.13,1.49,1c0.69-0.14,1.13-0.81,1-1.49
	c-0.14-0.69-0.81-1.13-1.49-1c-0.69,0.14-1.13,0.81-1,1.49c-0.06-0.04-0.12-0.1-0.17-0.1c0.06,0.78,0.75,1.37,1.53,1.31
	c0.78-0.06,1.37-0.75,1.31-1.53c-0.06-0.78-0.75-1.37-1.53-1.31c-0.78,0.06-1.37,0.75-1.31,1.53c-0.03,0.05-0.1,0.73-0.21,1.58
	c-0.07,0.85,0.56,1.59,1.41,1.66c0.85,0.07,1.59-0.56,1.66-1.41c0.07-0.85-0.56-1.59-1.41-1.66c-0.85-0.07-1.59,0.56-1.66,1.41
	c-0.02,0.34-0.05,0.71-0.08,1.1c-0.03,0.26-0.06,0.53-0.09,0.79c0.01,0.53,0.03,1.1,0.11,1.56c0.04,0.74,0.67,1.3,1.41,1.26
	c0.74-0.04,1.3-0.67,1.26-1.41c-0.04-0.74-0.67-1.3-1.41-1.26c-0.74,0.04-1.3,0.67-1.26,1.41c0.01,0.12,0.02,0.27,0.04,0.39
	c0.12,0.73,0.8,1.23,1.54,1.11s1.23-0.8,1.11-1.54s-0.8-1.23-1.54-1.11c-0.73,0.12-1.23,0.8-1.11,1.54
	c0.13,0.23,0.34,0.56,0.57,0.76c0.33,0.48,0.99,0.61,1.48,0.28c0.48-0.33,0.61-0.99,0.28-1.48c-0.33-0.48-0.99-0.61-1.48-0.28
	c-0.48,0.33-0.61,0.99-0.28,1.48c0.26,0.18,0.76,0.38,1.08,0.33c0.43,0.03,0.8-0.3,0.83-0.74c0.03-0.43-0.3-0.8-0.74-0.83
	c0.11-0.06,0.45,0.04,0.58,0.04c0.11,0.02,0.24,0.1,0.32,0.02c-0.01-0.04-0.01-0.05-0.01-0.12c0.04-0.27,0.13-0.63,0.24-1.1
	c0.02-0.24,0.05-0.49,0.08-0.75c0.06-0.39,0.12-0.81,0.16-1.2c0.03-0.92,0.03-1.73-0.03-2.06c-0.06-0.04-0.12-0.11-0.18-0.17
	c-0.07-0.07-0.24-0.36-0.54-0.63c-0.48-0.39-1.18-0.32-1.57,0.16C164.29,104.56,164.36,105.26,164.84,105.65z"/>
<path d="M167.38,107.33c-0.05,0.05-0.04,0.1-0.01,0.15c-0.53-0.08-1.02,0.28-1.1,0.8c-0.08,0.53,0.28,1.02,0.8,1.1
	c0.53,0.08,1.02-0.28,1.1-0.8c0.08-0.53-0.28-1.02-0.8-1.1c0.03-0.01,0.13,0,0.24,0.02c-0.51-0.22-1.11,0.02-1.33,0.53
	c-0.22,0.51,0.02,1.11,0.53,1.33c0.51,0.22,1.11-0.02,1.33-0.53c0.22-0.51-0.02-1.11-0.53-1.33c0.12,0.04,0.63,1.08,0.33,1.68
	c0.42-0.4,0.43-1.07,0.03-1.49c-0.4-0.42-1.07-0.43-1.49-0.03c-0.42,0.4-0.43,1.07-0.03,1.49c0.4,0.42,1.07,0.43,1.49,0.03
	c-0.38,0.26-0.55,0.34-0.57,0.37c-0.03,0.06-0.03,0.12,0.01,0.18c0.04,0,0.08-0.01,0.14-0.01c0.16,0.01,0.41,0.03,0.67,0.04
	c0.32,0,0.57-0.01,0.8,0c0.29,0.02,0.56,0.06,0.8,0.11c-0.02-0.07-0.19-0.11,0.18,0.16c0.26,0.15,0.65,0.32,0.98,0.41
	c0.22,0.06,0.49,0.11,0.68,0.13c0.72,0.08,1.37-0.45,1.45-1.17c0.08-0.72-0.45-1.37-1.17-1.45c-0.72-0.08-1.37,0.45-1.45,1.17
	c-0.08,0.72,0.45,1.37,1.17,1.45c0.2,0,0.42-0.01,0.58-0.03c0.7-0.01,1.25-0.58,1.25-1.28c-0.01-0.7-0.58-1.25-1.28-1.25
	c-0.7,0.01-1.25,0.58-1.25,1.28c0.01,0.7,0.58,1.25,1.28,1.25c0.08-0.01,0.17-0.01,0.25-0.02c0.69-0.05,1.21-0.64,1.16-1.33
	c-0.05-0.69-0.64-1.21-1.33-1.16c-0.69,0.04-1.21,0.64-1.16,1.33c0.04,0.69,0.64,1.21,1.33,1.16c0.06-0.11,0.13-0.22,0.18-0.33
	c0.51-0.06,0.87-0.53,0.81-1.04c-0.06-0.51-0.53-0.87-1.04-0.81c-0.04-0.1-0.07-0.2-0.11-0.31c-0.04,0-0.07-0.01-0.11-0.01
	c-0.1-0.02-0.17-0.04-0.27-0.07c-0.1-0.01-0.13-0.02-0.2-0.04c-0.12-0.05-0.1-0.06-0.17-0.14c-0.07-0.04-0.58-0.49-1.36-0.67
	c-0.31-0.03-0.72-0.06-1.07-0.06c-0.36-0.01-0.67,0-0.91,0c-0.26,0.01-0.53,0.02-0.75,0.04c-0.07,0-0.14,0-0.19,0
	c-0.05,0.06-0.12,0.13-0.18,0.19c-0.05,0.04-0.23,0.11-0.6,0.36c-0.31,0.62,0.2,1.66,0.36,1.72c0.07,0.01,0.17,0.02,0.2,0.01
	c0.08,0.06,0.15,0.12,0.22,0.17c0.61,0.03,1.14-0.45,1.16-1.06C168.47,107.88,168,107.36,167.38,107.33z"/>
<path d="M173.75,106.85c-0.01,0-0.02,0-1.11,1.47c0.82,0,1.48-0.66,1.48-1.48c0-0.82-0.66-1.48-1.48-1.48
	c-0.82,0-1.48,0.66-1.48,1.48c0,0.82,0.66,1.48,1.48,1.48c-1.07-1.48-1.06-1.48-1.06-1.48c0,0.58,0.47,1.06,1.06,1.06
	c0.58,0,1.06-0.47,1.06-1.06c0-0.58-0.47-1.06-1.06-1.06c-0.58,0-1.06,0.47-1.06,1.06c0.01,0,0.01,0,0.02,0
	c0,0.57,0.47,1.04,1.04,1.04c0.57,0,1.04-0.47,1.04-1.04c0-0.57-0.47-1.04-1.04-1.04c-0.57,0-1.04,0.47-1.04,1.04
	c0.02,0,0.05,0.01,0.07,0.01c-0.08,0.03-0.15,0.09-0.23,0.17c-0.03,0.26-0.06,0.75-0.1,1.28c-0.02,0.54-0.08,1.21-0.06,1.89
	c0.04,0.45,0.14,0.85,0.2,1.12c0.04,0.22,0.04,0.48,0.08,0.79c0.02,0.14,0.07,0.32,0.11,0.44c0.05,0.14,0.23,0.47,0.54,0.76
	c0.57,0.42,1.37,0.29,1.79-0.29c0.42-0.57,0.29-1.37-0.29-1.79c-0.57-0.42-1.37-0.29-1.79,0.29c-0.42,0.57-0.29,1.37,0.29,1.79
	c1.87-0.41,1.99-0.69,2-0.77c0.01-0.06,0.03-0.15,0.05-0.23c0.03-0.16,0.07-0.4,0.11-0.67c0.08-0.52,0.16-1.25,0.19-1.93
	c0.03-0.88-0.01-1.8-0.06-2.48c-0.02-0.33-0.06-0.6-0.07-0.77c0.01-0.14,0.05-0.22,0.08-0.3c0.02-0.03,0.03-0.02,0.05-0.01
	c0.01,0.02-0.01,0.11-0.03,0.24c0.24-0.71-0.14-1.48-0.85-1.72c-0.71-0.24-1.48,0.14-1.72,0.85c-0.24,0.71,0.14,1.48,0.85,1.72
	c0.71,0.24,1.48-0.14,1.72-0.85c-0.21,0.4-2.61-0.12-2.65-0.3c0,0.03-0.01,0.38-0.02,0.83c-0.01,0.74-0.06,1.74-0.04,2.61
	c0,0.22,0.02,0.44,0.03,0.63c0.07,0.78,0.76,1.35,1.53,1.28c0.78-0.07,1.35-0.76,1.28-1.53c-0.07-0.78-0.76-1.35-1.53-1.28
	c-0.78,0.07-1.35,0.76-1.28,1.53c0.13,0.47,0.29,0.87,0.43,1.12c0.12,0.62,0.73,1.03,1.35,0.9c0.62-0.12,1.03-0.73,0.9-1.35
	c-0.12-0.62-0.73-1.03-1.35-0.9c-0.62,0.12-1.03,0.73-0.9,1.35c0.01,0.05,0.03,0.1,0.04,0.14c0.13,0.62,0.73,1.01,1.35,0.89
	c0.62-0.13,1.01-0.73,0.89-1.35c-0.13-0.62-0.73-1.01-1.35-0.89c-0.62,0.13-1.01,0.73-0.89,1.35c0.13,0.06,0.26,0.09,0.38,0.11
	c0.07,0.43,0.48,0.71,0.91,0.64c0.43-0.07,0.71-0.48,0.64-0.91c0.11-0.09,0.21-0.19,0.3-0.3c-0.01-0.04-0.01-0.08-0.02-0.13
	c0.04-0.25,0.07-0.55,0.13-0.93c-0.02-0.15-0.03-0.29-0.03-0.45c-0.03-0.75,0.02-1.71,0.03-2.51c0-0.42,0-0.83-0.02-1.1
	c-0.04-0.2-2.45-0.72-2.66-0.32c-0.03,0.14-0.05,0.25-0.04,0.3c0.01,0.07,0.02,0.17,0.03,0.25c0.03,0.15,0.06,0.41,0.12,0.66
	c0.03,0.24,0.07,0.44,0.09,0.65c0.03,0.65,0.04,1.43-0.01,2.21c-0.04,0.57-0.13,1.17-0.23,1.64c-0.05,0.24-0.09,0.42-0.12,0.55
	c-0.02,0.06-0.03,0.09-0.03,0.11c0,0,0.1-0.24,1.97-0.65c0.26,0.26,0.4,0.5,0.41,0.52c0,0,0.01,0.01,0-0.04
	c-0.02-0.08-0.02-0.4-0.07-0.82c-0.04-0.35-0.08-0.62-0.08-0.86c-0.05-0.54-0.04-1.14-0.06-1.74c-0.03-0.53-0.06-1.02-0.1-1.28
	c-0.08-0.09-0.15-0.15-0.23-0.17c0.02-0.01,0.05-0.01,0.07-0.01c0.01,0,0.01,0,0.02,0c0.01,0,0.01,0-2.14,0c-0.01,0-0.02,0-0.04,0
	c0,0.62,0.5,1.11,1.11,1.11S173.75,107.46,173.75,106.85"/>
</svg>
